<?xml version="1.0" encoding="utf-8" standalone="no"?>
<!DOCTYPE svg PUBLIC "-//W3C//DTD SVG 1.1//EN"
  "http://www.w3.org/Graphics/SVG/1.1/DTD/svg11.dtd">
<svg xmlns:xlink="http://www.w3.org/1999/xlink" width="1382.4pt" height="702pt" viewBox="0 0 1382.4 702" xmlns="http://www.w3.org/2000/svg" version="1.1">
 <metadata>
  <rdf:RDF xmlns:dc="http://purl.org/dc/elements/1.1/" xmlns:cc="http://creativecommons.org/ns#" xmlns:rdf="http://www.w3.org/1999/02/22-rdf-syntax-ns#">
   <cc:Work>
    <dc:type rdf:resource="http://purl.org/dc/dcmitype/StillImage"/>
    <dc:date>2023-06-01T14:30:46.488529</dc:date>
    <dc:format>image/svg+xml</dc:format>
    <dc:creator>
     <cc:Agent>
      <dc:title>Matplotlib v3.7.1, https://matplotlib.org/</dc:title>
     </cc:Agent>
    </dc:creator>
   </cc:Work>
  </rdf:RDF>
 </metadata>
 <defs>
  <style type="text/css">*{stroke-linejoin: round; stroke-linecap: butt}</style>
 </defs>
 <g id="figure_1">
  <g id="patch_1">
   <path d="M 0 702 
L 1382.4 702 
L 1382.4 0 
L 0 0 
z
" style="fill: #ffffff"/>
  </g>
  <g id="axes_1">
   <g id="patch_2">
    <path d="M 172.8 624.78 
L 1244.16 624.78 
L 1244.16 84.24 
L 172.8 84.24 
z
" style="fill: #ffffff"/>
   </g>
   <g id="matplotlib.axis_1">
    <g id="xtick_1">
     <g id="line2d_1">
      <defs>
       <path id="md82e98720b" d="M 0 0 
L 0 3.5 
" style="stroke: #000000; stroke-width: 0.8"/>
      </defs>
      <g>
       <use xlink:href="#md82e98720b" x="221.498182" y="624.78" style="stroke: #000000; stroke-width: 0.8"/>
      </g>
     </g>
     <g id="text_1">
      <!-- 0.0 -->
      <g transform="translate(213.546619 639.378438) scale(0.1 -0.1)">
       <defs>
        <path id="DejaVuSans-30" d="M 2034 4250 
Q 1547 4250 1301 3770 
Q 1056 3291 1056 2328 
Q 1056 1369 1301 889 
Q 1547 409 2034 409 
Q 2525 409 2770 889 
Q 3016 1369 3016 2328 
Q 3016 3291 2770 3770 
Q 2525 4250 2034 4250 
z
M 2034 4750 
Q 2819 4750 3233 4129 
Q 3647 3509 3647 2328 
Q 3647 1150 3233 529 
Q 2819 -91 2034 -91 
Q 1250 -91 836 529 
Q 422 1150 422 2328 
Q 422 3509 836 4129 
Q 1250 4750 2034 4750 
z
" transform="scale(0.015625)"/>
        <path id="DejaVuSans-2e" d="M 684 794 
L 1344 794 
L 1344 0 
L 684 0 
L 684 794 
z
" transform="scale(0.015625)"/>
       </defs>
       <use xlink:href="#DejaVuSans-30"/>
       <use xlink:href="#DejaVuSans-2e" x="63.623047"/>
       <use xlink:href="#DejaVuSans-30" x="95.410156"/>
      </g>
     </g>
    </g>
    <g id="xtick_2">
     <g id="line2d_2">
      <g>
       <use xlink:href="#md82e98720b" x="383.996077" y="624.78" style="stroke: #000000; stroke-width: 0.8"/>
      </g>
     </g>
     <g id="text_2">
      <!-- 0.5 -->
      <g transform="translate(376.044515 639.378438) scale(0.1 -0.1)">
       <defs>
        <path id="DejaVuSans-35" d="M 691 4666 
L 3169 4666 
L 3169 4134 
L 1269 4134 
L 1269 2991 
Q 1406 3038 1543 3061 
Q 1681 3084 1819 3084 
Q 2600 3084 3056 2656 
Q 3513 2228 3513 1497 
Q 3513 744 3044 326 
Q 2575 -91 1722 -91 
Q 1428 -91 1123 -41 
Q 819 9 494 109 
L 494 744 
Q 775 591 1075 516 
Q 1375 441 1709 441 
Q 2250 441 2565 725 
Q 2881 1009 2881 1497 
Q 2881 1984 2565 2268 
Q 2250 2553 1709 2553 
Q 1456 2553 1204 2497 
Q 953 2441 691 2322 
L 691 4666 
z
" transform="scale(0.015625)"/>
       </defs>
       <use xlink:href="#DejaVuSans-30"/>
       <use xlink:href="#DejaVuSans-2e" x="63.623047"/>
       <use xlink:href="#DejaVuSans-35" x="95.410156"/>
      </g>
     </g>
    </g>
    <g id="xtick_3">
     <g id="line2d_3">
      <g>
       <use xlink:href="#md82e98720b" x="546.493973" y="624.78" style="stroke: #000000; stroke-width: 0.8"/>
      </g>
     </g>
     <g id="text_3">
      <!-- 1.0 -->
      <g transform="translate(538.54241 639.378438) scale(0.1 -0.1)">
       <defs>
        <path id="DejaVuSans-31" d="M 794 531 
L 1825 531 
L 1825 4091 
L 703 3866 
L 703 4441 
L 1819 4666 
L 2450 4666 
L 2450 531 
L 3481 531 
L 3481 0 
L 794 0 
L 794 531 
z
" transform="scale(0.015625)"/>
       </defs>
       <use xlink:href="#DejaVuSans-31"/>
       <use xlink:href="#DejaVuSans-2e" x="63.623047"/>
       <use xlink:href="#DejaVuSans-30" x="95.410156"/>
      </g>
     </g>
    </g>
    <g id="xtick_4">
     <g id="line2d_4">
      <g>
       <use xlink:href="#md82e98720b" x="708.991868" y="624.78" style="stroke: #000000; stroke-width: 0.8"/>
      </g>
     </g>
     <g id="text_4">
      <!-- 1.5 -->
      <g transform="translate(701.040306 639.378438) scale(0.1 -0.1)">
       <use xlink:href="#DejaVuSans-31"/>
       <use xlink:href="#DejaVuSans-2e" x="63.623047"/>
       <use xlink:href="#DejaVuSans-35" x="95.410156"/>
      </g>
     </g>
    </g>
    <g id="xtick_5">
     <g id="line2d_5">
      <g>
       <use xlink:href="#md82e98720b" x="871.489764" y="624.78" style="stroke: #000000; stroke-width: 0.8"/>
      </g>
     </g>
     <g id="text_5">
      <!-- 2.0 -->
      <g transform="translate(863.538201 639.378438) scale(0.1 -0.1)">
       <defs>
        <path id="DejaVuSans-32" d="M 1228 531 
L 3431 531 
L 3431 0 
L 469 0 
L 469 531 
Q 828 903 1448 1529 
Q 2069 2156 2228 2338 
Q 2531 2678 2651 2914 
Q 2772 3150 2772 3378 
Q 2772 3750 2511 3984 
Q 2250 4219 1831 4219 
Q 1534 4219 1204 4116 
Q 875 4013 500 3803 
L 500 4441 
Q 881 4594 1212 4672 
Q 1544 4750 1819 4750 
Q 2544 4750 2975 4387 
Q 3406 4025 3406 3419 
Q 3406 3131 3298 2873 
Q 3191 2616 2906 2266 
Q 2828 2175 2409 1742 
Q 1991 1309 1228 531 
z
" transform="scale(0.015625)"/>
       </defs>
       <use xlink:href="#DejaVuSans-32"/>
       <use xlink:href="#DejaVuSans-2e" x="63.623047"/>
       <use xlink:href="#DejaVuSans-30" x="95.410156"/>
      </g>
     </g>
    </g>
    <g id="xtick_6">
     <g id="line2d_6">
      <g>
       <use xlink:href="#md82e98720b" x="1033.987659" y="624.78" style="stroke: #000000; stroke-width: 0.8"/>
      </g>
     </g>
     <g id="text_6">
      <!-- 2.5 -->
      <g transform="translate(1026.036097 639.378438) scale(0.1 -0.1)">
       <use xlink:href="#DejaVuSans-32"/>
       <use xlink:href="#DejaVuSans-2e" x="63.623047"/>
       <use xlink:href="#DejaVuSans-35" x="95.410156"/>
      </g>
     </g>
    </g>
    <g id="xtick_7">
     <g id="line2d_7">
      <g>
       <use xlink:href="#md82e98720b" x="1196.485555" y="624.78" style="stroke: #000000; stroke-width: 0.8"/>
      </g>
     </g>
     <g id="text_7">
      <!-- 3.0 -->
      <g transform="translate(1188.533992 639.378438) scale(0.1 -0.1)">
       <defs>
        <path id="DejaVuSans-33" d="M 2597 2516 
Q 3050 2419 3304 2112 
Q 3559 1806 3559 1356 
Q 3559 666 3084 287 
Q 2609 -91 1734 -91 
Q 1441 -91 1130 -33 
Q 819 25 488 141 
L 488 750 
Q 750 597 1062 519 
Q 1375 441 1716 441 
Q 2309 441 2620 675 
Q 2931 909 2931 1356 
Q 2931 1769 2642 2001 
Q 2353 2234 1838 2234 
L 1294 2234 
L 1294 2753 
L 1863 2753 
Q 2328 2753 2575 2939 
Q 2822 3125 2822 3475 
Q 2822 3834 2567 4026 
Q 2313 4219 1838 4219 
Q 1578 4219 1281 4162 
Q 984 4106 628 3988 
L 628 4550 
Q 988 4650 1302 4700 
Q 1616 4750 1894 4750 
Q 2613 4750 3031 4423 
Q 3450 4097 3450 3541 
Q 3450 3153 3228 2886 
Q 3006 2619 2597 2516 
z
" transform="scale(0.015625)"/>
       </defs>
       <use xlink:href="#DejaVuSans-33"/>
       <use xlink:href="#DejaVuSans-2e" x="63.623047"/>
       <use xlink:href="#DejaVuSans-30" x="95.410156"/>
      </g>
     </g>
    </g>
    <g id="text_8">
     <!-- time [s] -->
     <g transform="translate(689.088594 653.056563) scale(0.1 -0.1)">
      <defs>
       <path id="DejaVuSans-74" d="M 1172 4494 
L 1172 3500 
L 2356 3500 
L 2356 3053 
L 1172 3053 
L 1172 1153 
Q 1172 725 1289 603 
Q 1406 481 1766 481 
L 2356 481 
L 2356 0 
L 1766 0 
Q 1100 0 847 248 
Q 594 497 594 1153 
L 594 3053 
L 172 3053 
L 172 3500 
L 594 3500 
L 594 4494 
L 1172 4494 
z
" transform="scale(0.015625)"/>
       <path id="DejaVuSans-69" d="M 603 3500 
L 1178 3500 
L 1178 0 
L 603 0 
L 603 3500 
z
M 603 4863 
L 1178 4863 
L 1178 4134 
L 603 4134 
L 603 4863 
z
" transform="scale(0.015625)"/>
       <path id="DejaVuSans-6d" d="M 3328 2828 
Q 3544 3216 3844 3400 
Q 4144 3584 4550 3584 
Q 5097 3584 5394 3201 
Q 5691 2819 5691 2113 
L 5691 0 
L 5113 0 
L 5113 2094 
Q 5113 2597 4934 2840 
Q 4756 3084 4391 3084 
Q 3944 3084 3684 2787 
Q 3425 2491 3425 1978 
L 3425 0 
L 2847 0 
L 2847 2094 
Q 2847 2600 2669 2842 
Q 2491 3084 2119 3084 
Q 1678 3084 1418 2786 
Q 1159 2488 1159 1978 
L 1159 0 
L 581 0 
L 581 3500 
L 1159 3500 
L 1159 2956 
Q 1356 3278 1631 3431 
Q 1906 3584 2284 3584 
Q 2666 3584 2933 3390 
Q 3200 3197 3328 2828 
z
" transform="scale(0.015625)"/>
       <path id="DejaVuSans-65" d="M 3597 1894 
L 3597 1613 
L 953 1613 
Q 991 1019 1311 708 
Q 1631 397 2203 397 
Q 2534 397 2845 478 
Q 3156 559 3463 722 
L 3463 178 
Q 3153 47 2828 -22 
Q 2503 -91 2169 -91 
Q 1331 -91 842 396 
Q 353 884 353 1716 
Q 353 2575 817 3079 
Q 1281 3584 2069 3584 
Q 2775 3584 3186 3129 
Q 3597 2675 3597 1894 
z
M 3022 2063 
Q 3016 2534 2758 2815 
Q 2500 3097 2075 3097 
Q 1594 3097 1305 2825 
Q 1016 2553 972 2059 
L 3022 2063 
z
" transform="scale(0.015625)"/>
       <path id="DejaVuSans-20" transform="scale(0.015625)"/>
       <path id="DejaVuSans-5b" d="M 550 4863 
L 1875 4863 
L 1875 4416 
L 1125 4416 
L 1125 -397 
L 1875 -397 
L 1875 -844 
L 550 -844 
L 550 4863 
z
" transform="scale(0.015625)"/>
       <path id="DejaVuSans-73" d="M 2834 3397 
L 2834 2853 
Q 2591 2978 2328 3040 
Q 2066 3103 1784 3103 
Q 1356 3103 1142 2972 
Q 928 2841 928 2578 
Q 928 2378 1081 2264 
Q 1234 2150 1697 2047 
L 1894 2003 
Q 2506 1872 2764 1633 
Q 3022 1394 3022 966 
Q 3022 478 2636 193 
Q 2250 -91 1575 -91 
Q 1294 -91 989 -36 
Q 684 19 347 128 
L 347 722 
Q 666 556 975 473 
Q 1284 391 1588 391 
Q 1994 391 2212 530 
Q 2431 669 2431 922 
Q 2431 1156 2273 1281 
Q 2116 1406 1581 1522 
L 1381 1569 
Q 847 1681 609 1914 
Q 372 2147 372 2553 
Q 372 3047 722 3315 
Q 1072 3584 1716 3584 
Q 2034 3584 2315 3537 
Q 2597 3491 2834 3397 
z
" transform="scale(0.015625)"/>
       <path id="DejaVuSans-5d" d="M 1947 4863 
L 1947 -844 
L 622 -844 
L 622 -397 
L 1369 -397 
L 1369 4416 
L 622 4416 
L 622 4863 
L 1947 4863 
z
" transform="scale(0.015625)"/>
      </defs>
      <use xlink:href="#DejaVuSans-74"/>
      <use xlink:href="#DejaVuSans-69" x="39.208984"/>
      <use xlink:href="#DejaVuSans-6d" x="66.992188"/>
      <use xlink:href="#DejaVuSans-65" x="164.404297"/>
      <use xlink:href="#DejaVuSans-20" x="225.927734"/>
      <use xlink:href="#DejaVuSans-5b" x="257.714844"/>
      <use xlink:href="#DejaVuSans-73" x="296.728516"/>
      <use xlink:href="#DejaVuSans-5d" x="348.828125"/>
     </g>
    </g>
   </g>
   <g id="matplotlib.axis_2">
    <g id="ytick_1">
     <g id="line2d_8">
      <defs>
       <path id="mb324cd5803" d="M 0 0 
L -3.5 0 
" style="stroke: #000000; stroke-width: 0.8"/>
      </defs>
      <g>
       <use xlink:href="#mb324cd5803" x="172.8" y="562.127432" style="stroke: #000000; stroke-width: 0.8"/>
      </g>
     </g>
     <g id="text_9">
      <!-- −250 -->
      <g transform="translate(138.332812 565.926651) scale(0.1 -0.1)">
       <defs>
        <path id="DejaVuSans-2212" d="M 678 2272 
L 4684 2272 
L 4684 1741 
L 678 1741 
L 678 2272 
z
" transform="scale(0.015625)"/>
       </defs>
       <use xlink:href="#DejaVuSans-2212"/>
       <use xlink:href="#DejaVuSans-32" x="83.789062"/>
       <use xlink:href="#DejaVuSans-35" x="147.412109"/>
       <use xlink:href="#DejaVuSans-30" x="211.035156"/>
      </g>
     </g>
    </g>
    <g id="ytick_2">
     <g id="line2d_9">
      <g>
       <use xlink:href="#mb324cd5803" x="172.8" y="481.140289" style="stroke: #000000; stroke-width: 0.8"/>
      </g>
     </g>
     <g id="text_10">
      <!-- −200 -->
      <g transform="translate(138.332812 484.939508) scale(0.1 -0.1)">
       <use xlink:href="#DejaVuSans-2212"/>
       <use xlink:href="#DejaVuSans-32" x="83.789062"/>
       <use xlink:href="#DejaVuSans-30" x="147.412109"/>
       <use xlink:href="#DejaVuSans-30" x="211.035156"/>
      </g>
     </g>
    </g>
    <g id="ytick_3">
     <g id="line2d_10">
      <g>
       <use xlink:href="#mb324cd5803" x="172.8" y="400.153147" style="stroke: #000000; stroke-width: 0.8"/>
      </g>
     </g>
     <g id="text_11">
      <!-- −150 -->
      <g transform="translate(138.332812 403.952366) scale(0.1 -0.1)">
       <use xlink:href="#DejaVuSans-2212"/>
       <use xlink:href="#DejaVuSans-31" x="83.789062"/>
       <use xlink:href="#DejaVuSans-35" x="147.412109"/>
       <use xlink:href="#DejaVuSans-30" x="211.035156"/>
      </g>
     </g>
    </g>
    <g id="ytick_4">
     <g id="line2d_11">
      <g>
       <use xlink:href="#mb324cd5803" x="172.8" y="319.166004" style="stroke: #000000; stroke-width: 0.8"/>
      </g>
     </g>
     <g id="text_12">
      <!-- −100 -->
      <g transform="translate(138.332812 322.965223) scale(0.1 -0.1)">
       <use xlink:href="#DejaVuSans-2212"/>
       <use xlink:href="#DejaVuSans-31" x="83.789062"/>
       <use xlink:href="#DejaVuSans-30" x="147.412109"/>
       <use xlink:href="#DejaVuSans-30" x="211.035156"/>
      </g>
     </g>
    </g>
    <g id="ytick_5">
     <g id="line2d_12">
      <g>
       <use xlink:href="#mb324cd5803" x="172.8" y="238.178862" style="stroke: #000000; stroke-width: 0.8"/>
      </g>
     </g>
     <g id="text_13">
      <!-- −50 -->
      <g transform="translate(144.695312 241.97808) scale(0.1 -0.1)">
       <use xlink:href="#DejaVuSans-2212"/>
       <use xlink:href="#DejaVuSans-35" x="83.789062"/>
       <use xlink:href="#DejaVuSans-30" x="147.412109"/>
      </g>
     </g>
    </g>
    <g id="ytick_6">
     <g id="line2d_13">
      <g>
       <use xlink:href="#mb324cd5803" x="172.8" y="157.191719" style="stroke: #000000; stroke-width: 0.8"/>
      </g>
     </g>
     <g id="text_14">
      <!-- 0 -->
      <g transform="translate(159.4375 160.990938) scale(0.1 -0.1)">
       <use xlink:href="#DejaVuSans-30"/>
      </g>
     </g>
    </g>
    <g id="text_15">
     <!-- position [mm] -->
     <g transform="translate(132.253125 389.545938) rotate(-90) scale(0.1 -0.1)">
      <defs>
       <path id="DejaVuSans-70" d="M 1159 525 
L 1159 -1331 
L 581 -1331 
L 581 3500 
L 1159 3500 
L 1159 2969 
Q 1341 3281 1617 3432 
Q 1894 3584 2278 3584 
Q 2916 3584 3314 3078 
Q 3713 2572 3713 1747 
Q 3713 922 3314 415 
Q 2916 -91 2278 -91 
Q 1894 -91 1617 61 
Q 1341 213 1159 525 
z
M 3116 1747 
Q 3116 2381 2855 2742 
Q 2594 3103 2138 3103 
Q 1681 3103 1420 2742 
Q 1159 2381 1159 1747 
Q 1159 1113 1420 752 
Q 1681 391 2138 391 
Q 2594 391 2855 752 
Q 3116 1113 3116 1747 
z
" transform="scale(0.015625)"/>
       <path id="DejaVuSans-6f" d="M 1959 3097 
Q 1497 3097 1228 2736 
Q 959 2375 959 1747 
Q 959 1119 1226 758 
Q 1494 397 1959 397 
Q 2419 397 2687 759 
Q 2956 1122 2956 1747 
Q 2956 2369 2687 2733 
Q 2419 3097 1959 3097 
z
M 1959 3584 
Q 2709 3584 3137 3096 
Q 3566 2609 3566 1747 
Q 3566 888 3137 398 
Q 2709 -91 1959 -91 
Q 1206 -91 779 398 
Q 353 888 353 1747 
Q 353 2609 779 3096 
Q 1206 3584 1959 3584 
z
" transform="scale(0.015625)"/>
       <path id="DejaVuSans-6e" d="M 3513 2113 
L 3513 0 
L 2938 0 
L 2938 2094 
Q 2938 2591 2744 2837 
Q 2550 3084 2163 3084 
Q 1697 3084 1428 2787 
Q 1159 2491 1159 1978 
L 1159 0 
L 581 0 
L 581 3500 
L 1159 3500 
L 1159 2956 
Q 1366 3272 1645 3428 
Q 1925 3584 2291 3584 
Q 2894 3584 3203 3211 
Q 3513 2838 3513 2113 
z
" transform="scale(0.015625)"/>
      </defs>
      <use xlink:href="#DejaVuSans-70"/>
      <use xlink:href="#DejaVuSans-6f" x="63.476562"/>
      <use xlink:href="#DejaVuSans-73" x="124.658203"/>
      <use xlink:href="#DejaVuSans-69" x="176.757812"/>
      <use xlink:href="#DejaVuSans-74" x="204.541016"/>
      <use xlink:href="#DejaVuSans-69" x="243.75"/>
      <use xlink:href="#DejaVuSans-6f" x="271.533203"/>
      <use xlink:href="#DejaVuSans-6e" x="332.714844"/>
      <use xlink:href="#DejaVuSans-20" x="396.09375"/>
      <use xlink:href="#DejaVuSans-5b" x="427.880859"/>
      <use xlink:href="#DejaVuSans-6d" x="466.894531"/>
      <use xlink:href="#DejaVuSans-6d" x="564.306641"/>
      <use xlink:href="#DejaVuSans-5d" x="661.71875"/>
     </g>
    </g>
   </g>
   <g id="line2d_14">
    <path d="M 221.498182 593.93246 
L 224.72539 593.93246 
L 225.362382 600.21 
L 232.48629 600.21 
L 233.129781 597.067245 
L 234.426514 597.067245 
L 235.083006 593.93246 
L 235.710248 593.93246 
L 236.363489 590.805611 
L 237.003731 591.368909 
L 237.656973 591.368909 
L 238.300464 588.24551 
L 239.590698 588.24551 
L 240.237439 585.129919 
L 240.884181 585.129919 
L 241.527672 582.021988 
L 242.821156 582.021988 
L 243.467897 578.921703 
L 244.761381 578.921703 
L 245.408122 575.82895 
L 247.348347 575.82895 
L 247.991839 572.743648 
L 249.915814 572.743648 
L 250.578805 569.665715 
L 253.793014 569.665715 
L 254.436505 566.595072 
L 257.026722 566.595072 
L 257.673463 563.531636 
L 260.25718 563.531636 
L 260.900672 564.060433 
L 261.560413 563.531636 
L 262.207155 560.999994 
L 262.840896 560.475359 
L 263.487638 560.999994 
L 265.427863 560.999994 
L 266.084354 557.9466 
L 269.305063 557.9466 
L 269.964804 554.900237 
L 271.248538 554.900237 
L 271.892029 551.860789 
L 275.128987 551.860789 
L 275.775729 549.34021 
L 276.422471 549.34021 
L 277.069212 548.828226 
L 277.719204 546.310335 
L 279.659429 546.310335 
L 280.30617 543.287183 
L 282.893137 543.287183 
L 283.536628 540.270703 
L 286.773586 540.270703 
L 287.420328 537.260816 
L 289.360553 537.260816 
L 290.020294 534.25744 
L 293.234503 534.25744 
L 293.881244 531.260543 
L 295.818219 531.260543 
L 296.468211 528.26998 
L 299.051927 528.26998 
L 299.698669 525.285782 
L 302.282386 525.285782 
L 302.932377 522.307803 
L 306.159585 522.307803 
L 306.806327 519.33598 
L 308.746552 519.33598 
L 309.386794 516.841868 
L 310.040035 516.841868 
L 310.683527 516.370263 
L 311.330268 516.370263 
L 311.98026 513.410605 
L 312.623752 513.878321 
L 313.907485 513.878321 
L 315.207468 510.920736 
L 316.497701 510.920736 
L 317.131443 507.969095 
L 319.081418 507.969095 
L 319.71516 505.023301 
L 322.298876 505.023301 
L 322.965118 502.083305 
L 324.898843 502.083305 
L 325.542334 499.149044 
L 327.502059 499.149044 
L 328.132551 496.220452 
L 329.429284 496.220452 
L 330.059776 496.66844 
L 330.706517 496.220452 
L 331.350009 496.220452 
L 331.993501 493.297448 
L 332.653242 493.741662 
L 333.299984 493.297448 
L 333.949975 490.820407 
L 336.520692 490.820407 
L 337.167434 487.90466 
L 339.77065 487.90466 
L 340.410892 484.99437 
L 342.354367 484.99437 
L 343.001108 484.561462 
L 343.64785 481.660227 
L 344.291342 482.08941 
L 344.941333 482.08941 
L 345.591325 479.189779 
L 348.171791 479.189779 
L 348.818533 476.295379 
L 348.818533 476.295379 
L 351.3925 476.295379 
L 352.032741 473.406163 
L 353.985966 473.406163 
L 354.632708 470.522081 
L 357.856666 470.522081 
L 358.513157 467.643069 
L 360.450132 467.643069 
L 361.100124 464.769079 
L 363.68384 464.769079 
L 364.327332 461.899996 
L 365.620815 461.899996 
L 366.267557 459.438602 
L 367.55454 459.438602 
L 368.204532 459.035821 
L 368.838274 459.035821 
L 369.485015 456.575626 
L 371.42524 456.575626 
L 372.071982 453.71746 
L 374.005707 453.71746 
L 374.652448 450.863991 
L 376.592673 450.863991 
L 377.239415 448.015204 
L 379.17964 448.015204 
L 379.823131 445.171033 
L 383.056839 445.171033 
L 383.700331 442.331429 
L 384.990564 442.331429 
L 385.650306 439.496312 
L 386.930789 439.496312 
L 387.584031 439.876757 
L 388.227523 439.876757 
L 388.874264 437.042531 
L 389.524256 436.665633 
L 390.170997 437.042531 
L 391.464481 437.042531 
L 392.111222 434.212695 
L 394.057947 434.212695 
L 394.701439 431.387231 
L 396.651413 431.387231 
L 397.285155 428.566044 
L 399.872122 428.566044 
L 400.531863 425.749101 
L 402.472088 425.749101 
L 403.09608 422.936336 
L 405.696046 422.936336 
L 406.336288 420.127686 
L 408.273263 420.127686 
L 408.903755 417.323101 
L 411.510221 417.323101 
L 412.153713 414.52255 
L 414.074438 414.52255 
L 414.721179 411.72595 
L 417.311396 411.72595 
L 417.954888 408.933271 
L 419.891862 408.933271 
L 420.538604 406.144462 
L 422.478829 406.144462 
L 423.13532 403.359444 
L 423.769062 403.359444 
L 424.415804 403.697063 
L 425.062545 403.697063 
L 425.712537 403.359444 
L 426.356029 403.359444 
L 427.01577 400.578167 
L 427.669012 400.578167 
L 428.312503 400.912369 
L 428.955995 398.131416 
L 430.262478 398.131416 
L 430.90922 395.354092 
L 431.542962 395.026709 
L 432.820195 395.354092 
L 434.129928 395.354092 
L 434.77342 392.580379 
L 436.070153 392.580379 
L 436.713645 389.810263 
L 439.300611 389.810263 
L 439.947353 387.043612 
L 441.884328 387.043612 
L 442.531069 384.280412 
L 444.468044 384.280412 
L 445.118036 381.520646 
L 447.051761 381.520646 
L 447.685503 378.764216 
L 449.622477 378.764216 
L 450.269219 376.01109 
L 452.209444 376.01109 
L 452.872435 373.261204 
L 455.462652 373.261204 
L 456.106143 370.813854 
L 456.752885 370.514541 
L 458.043118 370.514541 
L 458.68986 367.771021 
L 459.333352 368.067013 
L 460.643085 368.067013 
L 461.276826 367.771021 
L 461.923568 365.323282 
L 463.223551 365.323282 
L 463.863793 362.582612 
L 466.44426 362.582612 
L 467.091001 359.844955 
L 468.394234 359.844955 
L 469.034476 357.110278 
L 472.258434 357.110278 
L 472.908426 354.378485 
L 474.198659 354.378485 
L 474.845401 351.649575 
L 477.445367 351.649575 
L 478.075859 348.923499 
L 479.372592 348.923499 
L 480.019334 346.200177 
L 483.243292 346.200177 
L 483.883534 343.479575 
L 485.186767 343.479575 
L 485.820509 340.761647 
L 489.063967 340.761647 
L 489.697708 338.046342 
L 490.987942 338.046342 
L 491.637933 335.33363 
L 494.2184 335.33363 
L 494.865141 332.62346 
L 496.805366 332.62346 
L 497.448858 329.915735 
L 500.035825 329.915735 
L 500.695566 327.21049 
L 501.976049 327.21049 
L 502.619541 324.507608 
L 505.862999 324.507608 
L 506.506491 321.807076 
L 507.156482 321.807076 
L 507.803224 319.108844 
L 510.38694 319.108844 
L 511.033682 319.348047 
L 511.680424 316.412863 
L 512.973907 316.412863 
L 513.607649 313.719084 
L 514.914132 313.719084 
L 515.554374 313.951906 
L 516.197865 313.951906 
L 516.860857 313.719084 
L 517.491348 311.257108 
L 518.13809 311.027461 
L 518.784832 308.337958 
L 520.747806 308.337958 
L 521.381548 308.564431 
L 522.03479 308.564431 
L 522.675031 305.873827 
L 523.318523 305.873827 
L 523.965265 302.965093 
L 524.612006 303.185233 
L 526.552231 303.185233 
L 527.198973 302.965093 
L 527.855464 300.49863 
L 529.135948 300.49863 
L 529.782689 297.600149 
L 530.429431 297.813971 
L 531.072923 297.600149 
L 531.732664 297.813971 
L 533.016397 297.813971 
L 533.659889 295.131191 
L 534.966372 295.131191 
L 535.609864 292.450273 
L 538.180581 292.450273 
L 538.830572 289.771138 
L 540.120805 289.771138 
L 540.767547 287.093768 
L 543.998005 287.093768 
L 545.275239 284.418098 
L 545.275239 284.418098 
L 545.93498 284.418098 
L 547.228463 281.744097 
L 549.168688 281.744097 
L 549.81868 279.071716 
L 551.108913 279.071716 
L 551.755655 276.400922 
L 554.342621 276.400922 
L 554.999113 273.731634 
L 556.279596 273.731634 
L 556.926338 271.063853 
L 558.873063 271.063853 
L 559.513304 268.397513 
L 560.803538 268.397513 
L 561.443779 265.732566 
L 564.033996 265.732566 
L 564.677487 263.06898 
L 566.620962 263.06898 
L 567.267704 260.406706 
L 569.85142 260.406706 
L 570.494912 257.745695 
L 571.788395 257.745695 
L 572.435137 255.085899 
L 575.031853 255.085899 
L 575.659095 252.427286 
L 577.60582 252.427286 
L 578.239562 249.769806 
L 580.826528 249.769806 
L 581.49927 247.113428 
L 583.423245 247.113428 
L 584.073236 244.458086 
L 586.656953 244.458086 
L 587.303694 241.803765 
L 589.240669 241.803765 
L 589.887411 239.150383 
L 591.837386 239.150383 
L 592.484127 236.497941 
L 595.054844 236.497941 
L 595.708085 233.846357 
L 596.998319 233.846357 
L 597.635311 231.195616 
L 599.582035 231.195616 
L 600.215777 228.545652 
L 602.156002 228.545652 
L 602.802744 225.896433 
L 604.739719 225.896433 
L 605.38321 223.24791 
L 607.970177 223.24791 
L 608.613668 220.600068 
L 610.550643 220.600068 
L 611.200635 217.952825 
L 613.13761 217.952825 
L 613.784351 215.306149 
L 615.737576 215.306149 
L 616.368068 212.660024 
L 618.308293 212.660024 
L 618.968034 210.014368 
L 620.898509 210.014368 
L 621.548501 207.369166 
L 624.135467 207.369166 
L 624.785459 204.724369 
L 626.078942 204.724369 
L 626.722434 202.079912 
L 628.665909 202.079912 
L 629.3094 199.435779 
L 631.896367 199.435779 
L 632.546358 196.791921 
L 634.493083 196.791921 
L 635.130075 194.148306 
L 637.07355 194.148306 
L 637.707292 191.50487 
L 640.297508 191.50487 
L 640.9475 188.861579 
L 642.868225 188.861579 
L 643.527966 186.218386 
L 645.451941 186.218386 
L 646.098683 183.575257 
L 648.038908 183.575257 
L 648.701899 180.932128 
L 650.642124 180.932128 
L 651.298616 178.288999 
L 653.222591 178.288999 
L 653.872582 175.645789 
L 656.456299 175.645789 
L 657.10629 173.002466 
L 659.043265 173.002466 
L 659.686757 170.358997 
L 661.639982 170.358997 
L 662.920465 167.715334 
L 664.86069 167.715334 
L 665.504182 165.071412 
L 667.444406 165.071412 
L 668.091148 162.42723 
L 669.381381 162.42723 
L 670.028123 159.782708 
L 671.965098 159.782708 
L 672.621589 157.13783 
L 674.555314 157.13783 
L 675.202056 154.492547 
L 677.132531 154.492547 
L 677.782523 151.846794 
L 680.369489 151.846794 
L 681.029231 149.200556 
L 682.312964 149.200556 
L 682.959706 146.553782 
L 686.186914 146.553782 
L 686.833655 143.906426 
L 688.127139 143.906426 
L 688.78363 141.258438 
L 691.364097 141.258438 
L 692.007588 138.609786 
L 693.304322 138.609786 
L 693.947813 135.960421 
L 695.881538 135.960421 
L 696.52828 133.310311 
L 698.468505 133.310311 
L 699.111996 130.659392 
L 702.992446 130.659392 
L 703.642438 128.007646 
L 704.295679 128.007646 
L 704.929421 125.355009 
L 707.513138 125.355009 
L 708.156629 122.688621 
L 709.440363 122.688621 
L 710.090354 120.037134 
L 713.961054 120.037134 
L 714.620795 117.384611 
L 715.270787 117.384611 
L 715.917529 114.734776 
L 719.781729 114.731051 
L 720.42847 120.037134 
L 723.021937 120.037134 
L 723.668678 125.339152 
L 725.599153 125.355009 
L 726.239395 130.659392 
L 728.839361 130.659392 
L 729.476353 135.960421 
L 731.413328 135.960421 
L 732.06007 141.258438 
L 735.293778 141.258438 
L 735.943769 146.553782 
L 736.593761 143.906426 
L 739.830719 143.906426 
L 740.477461 149.200556 
L 746.294885 149.200556 
L 746.954627 154.492547 
L 752.11231 154.492547 
L 752.762302 159.782708 
L 758.573226 159.782708 
L 759.219968 165.071412 
L 763.100418 165.071412 
L 763.734159 170.358997 
L 768.911342 170.358997 
L 769.574334 175.645789 
L 773.422284 175.645789 
L 774.072276 180.932128 
L 779.255958 180.932128 
L 779.90595 186.218386 
L 784.423391 186.218386 
L 785.070133 191.50487 
L 789.584325 191.50487 
L 790.231066 196.791921 
L 795.398499 196.791921 
L 796.045241 202.079912 
L 799.919191 202.079912 
L 800.565932 207.369166 
L 805.112624 207.369166 
L 805.746365 212.660024 
L 810.926798 212.660024 
L 811.57354 217.952825 
L 813.510515 217.952825 
L 814.154006 218.074986 
L 814.803998 217.952825 
L 816.094231 217.952825 
L 816.740973 223.24791 
L 821.908406 223.24791 
L 822.555148 228.545652 
L 826.429097 228.545652 
L 827.085589 228.680042 
L 827.732331 233.846357 
L 832.240022 233.846357 
L 832.886764 239.150383 
L 837.404205 239.150383 
L 838.054197 244.458086 
L 843.21838 244.458086 
L 843.881371 249.769806 
L 849.042305 249.769806 
L 849.685796 255.085899 
L 854.222738 255.085899 
L 854.866229 260.406706 
L 859.40317 260.406706 
L 860.036912 265.732566 
L 865.220595 265.732566 
L 865.867337 271.063853 
L 870.384778 271.063853 
L 871.03152 276.400922 
L 875.555461 276.400922 
L 876.198953 281.744097 
L 880.726144 281.744097 
L 881.372886 287.093768 
L 886.553319 287.093768 
L 887.187061 292.450273 
L 891.714252 292.450273 
L 893.004485 297.813971 
L 897.531677 297.813971 
L 898.178418 303.185233 
L 898.82191 303.185233 
L 899.471901 302.965093 
L 900.115393 303.185233 
L 902.036118 303.185233 
L 902.69586 308.564431 
L 903.326352 308.564431 
L 903.976343 308.337958 
L 905.913318 308.337958 
L 906.576309 308.564431 
L 907.863293 308.564431 
L 908.510034 313.719084 
L 913.020976 313.719084 
L 913.700217 319.108844 
L 918.211159 319.108844 
L 918.8579 324.507608 
L 924.035083 324.507608 
L 924.675325 329.915735 
L 929.846008 329.915735 
L 930.49275 335.33363 
L 935.660183 335.33363 
L 936.306924 340.761647 
L 940.830866 340.761647 
L 941.490607 346.200177 
L 946.635291 346.200177 
L 947.282032 351.649575 
L 951.802724 351.649575 
L 952.462465 357.110278 
L 957.620148 357.110278 
L 958.26364 362.582612 
L 961.500598 362.582612 
L 962.14409 362.293245 
L 962.787582 362.293245 
L 963.437573 362.582612 
L 964.084315 368.067013 
L 964.744056 367.771021 
L 965.374548 367.771021 
L 966.02779 368.067013 
L 966.677781 367.771021 
L 968.618006 367.771021 
L 969.254998 373.261204 
L 974.441931 373.261204 
L 975.082172 378.764216 
L 979.615864 378.764216 
L 980.265855 384.280412 
L 985.426788 384.280412 
L 986.07353 389.810263 
L 990.594221 389.810263 
L 991.244213 395.354092 
L 992.537696 395.354092 
L 993.181188 395.026709 
L 993.82468 395.354092 
L 996.414896 395.354092 
L 997.058388 400.578167 
L 1001.592079 400.578167 
L 1002.229071 406.144462 
L 1007.403004 406.144462 
L 1007.403004 406.144462 
L 1008.689987 411.72595 
L 1013.220428 411.72595 
L 1013.86392 417.323101 
L 1018.384611 417.323101 
L 1019.037853 422.936336 
L 1024.202036 422.936336 
L 1024.848778 428.566044 
L 1029.379219 428.566044 
L 1030.019461 433.839344 
L 1030.662952 434.212695 
L 1032.603177 434.212695 
L 1033.246669 433.839344 
L 1033.883661 434.212695 
L 1035.180394 434.212695 
L 1035.180394 434.212695 
L 1036.467377 439.496312 
L 1037.117369 439.876757 
L 1037.76411 439.496312 
L 1040.364077 439.496312 
L 1041.010818 439.876757 
L 1041.65106 445.558637 
L 1042.301052 445.171033 
L 1046.824993 445.171033 
L 1047.471735 450.863991 
L 1052.652168 450.863991 
L 1053.298909 456.575626 
L 1055.872876 456.575626 
L 1056.529367 456.176473 
L 1057.166359 456.575626 
L 1057.813101 456.176473 
L 1058.450093 462.306422 
L 1059.737076 462.306422 
L 1060.387068 461.899996 
L 1064.277267 461.899996 
L 1064.907759 467.643069 
L 1069.42845 467.643069 
L 1070.075192 473.406163 
L 1075.255625 473.406163 
L 1075.892617 479.189779 
L 1081.0698 479.189779 
L 1081.716541 484.99437 
L 1085.596991 484.99437 
L 1086.246983 484.561462 
L 1086.893724 484.99437 
L 1087.543716 490.820407 
L 1091.424166 490.820407 
L 1092.064407 490.380015 
L 1092.714399 490.820407 
L 1093.36114 490.820407 
L 1094.007882 496.220452 
L 1094.664374 496.220452 
L 1095.301365 496.66844 
L 1095.961107 496.220452 
L 1099.175315 496.220452 
L 1099.809057 502.083305 
L 1104.97649 502.083305 
L 1105.626482 507.969095 
L 1110.176423 507.969095 
L 1110.810164 513.878321 
L 1114.043873 513.878321 
L 1114.687364 513.410605 
L 1115.334106 513.878321 
L 1115.980848 513.410605 
L 1116.624339 513.410605 
L 1117.271081 519.811504 
L 1117.904823 519.33598 
L 1119.211306 519.33598 
L 1119.858047 519.811504 
L 1120.504789 519.33598 
L 1122.428764 519.33598 
L 1123.072256 525.285782 
L 1128.242939 525.285782 
L 1128.88643 531.260543 
L 1134.060363 531.260543 
L 1134.723355 537.260816 
L 1140.537529 537.260816 
L 1141.187521 543.287183 
L 1143.771238 543.287183 
L 1144.417979 542.783378 
L 1145.054971 542.783378 
L 1145.711462 543.287183 
L 1147.004946 543.287183 
L 1147.651687 549.34021 
L 1148.295179 549.34021 
L 1148.948421 548.828226 
L 1150.885395 548.828226 
L 1151.541887 549.34021 
L 1152.175629 548.828226 
L 1152.82562 548.828226 
L 1153.475612 554.900237 
L 1159.276787 554.900237 
L 1159.926778 560.999994 
L 1161.870253 560.999994 
L 1162.513745 560.475359 
L 1163.150737 560.475359 
L 1163.787728 560.999994 
L 1164.43447 560.475359 
L 1165.084462 560.475359 
L 1165.737703 566.595072 
L 1171.545378 566.595072 
L 1172.205119 572.743648 
L 1177.362803 572.743648 
L 1178.009544 578.921703 
L 1184.48346 578.921703 
L 1185.130202 585.129919 
L 1190.934627 585.129919 
L 1191.581368 590.805611 
L 1192.23136 591.368909 
L 1192.23136 591.368909 
L 1193.518343 591.368909 
L 1194.171585 590.805611 
L 1195.461818 590.805611 
L 1195.461818 590.805611 
" clip-path="url(#pe3d3bc3c20)" style="fill: none; stroke: #1f77b4; stroke-width: 1.5; stroke-linecap: square"/>
   </g>
   <g id="line2d_15">
    <path d="M 221.498182 592.960452 
L 222.141673 592.960452 
L 222.788415 592.590454 
L 223.431907 592.590454 
L 224.081898 594.478184 
L 224.72539 594.478184 
L 225.362382 596.368699 
L 226.018873 596.368699 
L 226.668865 598.262097 
L 228.60909 598.262097 
L 229.252581 600.158379 
L 229.892823 600.158379 
L 230.542815 599.784915 
L 233.129781 599.784915 
L 233.776523 597.889816 
L 235.710248 597.889816 
L 236.363489 595.997583 
L 237.003731 595.997583 
L 237.656973 594.108234 
L 238.300464 594.108234 
L 238.943956 590.33804 
L 239.590698 590.33804 
L 240.237439 588.823532 
L 240.884181 588.823532 
L 241.527672 586.944306 
L 242.177664 586.944306 
L 242.821156 585.067883 
L 243.467897 585.067883 
L 244.114639 581.686264 
L 244.761381 581.686264 
L 245.408122 579.817 
L 246.054864 579.817 
L 246.701605 577.950538 
L 247.348347 576.447303 
L 249.282072 576.447303 
L 249.915814 574.585134 
L 250.578805 574.585134 
L 251.219047 572.725717 
L 251.856039 572.725717 
L 252.49953 570.869039 
L 254.436505 570.869039 
L 255.086497 569.015065 
L 257.026722 569.015065 
L 257.673463 567.163812 
L 259.613688 567.163812 
L 260.25718 565.31528 
L 262.207155 565.31528 
L 262.840896 563.822801 
L 263.487638 561.978448 
L 266.718096 561.978448 
L 267.368088 560.136768 
L 268.011579 560.136768 
L 268.661571 558.297761 
L 270.601796 558.297761 
L 271.248538 556.461393 
L 271.892029 556.461393 
L 272.538771 554.976316 
L 273.182262 554.976316 
L 273.851754 553.144047 
L 275.775729 553.144047 
L 276.422471 551.314418 
L 277.069212 551.314418 
L 277.719204 549.487396 
L 278.365945 549.487396 
L 279.012687 547.662999 
L 280.30617 547.662999 
L 280.952912 545.841177 
L 281.599653 545.841177 
L 282.246395 544.021979 
L 282.893137 544.021979 
L 283.536628 544.364652 
L 284.18337 544.364652 
L 284.836612 542.546798 
L 285.476853 542.546798 
L 286.133345 540.731568 
L 286.773586 540.731568 
L 287.420328 538.918882 
L 289.360553 538.918882 
L 290.020294 537.108722 
L 291.947519 537.108722 
L 292.587761 535.639048 
L 293.234503 535.639048 
L 293.881244 533.832776 
L 294.524736 533.832776 
L 295.171478 532.029063 
L 296.468211 532.029063 
L 297.124702 530.227844 
L 299.051927 530.227844 
L 299.698669 528.429136 
L 300.342161 528.429136 
L 300.992152 526.632922 
L 302.932377 526.632922 
L 303.575869 524.839186 
L 304.23561 524.839186 
L 304.869352 523.37868 
L 306.806327 523.37868 
L 307.449819 521.588686 
L 308.09981 521.588686 
L 308.746552 519.801187 
L 309.386794 519.801187 
L 310.040035 518.0161 
L 311.98026 518.0161 
L 312.623752 516.233476 
L 313.270493 516.233476 
L 313.907485 514.453265 
L 315.207468 512.675468 
L 315.85746 512.675468 
L 316.497701 510.900116 
L 317.131443 510.900116 
L 317.774935 511.223676 
L 318.431426 511.223676 
L 319.081418 509.449523 
L 319.71516 509.449523 
L 320.365151 507.677719 
L 322.298876 507.677719 
L 322.965118 505.908344 
L 323.611859 505.908344 
L 324.248851 504.141302 
L 326.192326 504.141302 
L 326.842318 502.376657 
L 327.502059 502.376657 
L 328.132551 500.614344 
L 328.779292 500.614344 
L 329.429284 499.170797 
L 330.706517 499.170797 
L 331.350009 497.411967 
L 331.993501 497.411967 
L 332.653242 495.655453 
L 333.299984 495.655453 
L 333.949975 493.901255 
L 335.877201 493.901255 
L 336.520692 492.149374 
L 337.167434 492.149374 
L 337.830425 490.399776 
L 339.77065 490.399776 
L 340.410892 488.652479 
L 341.047884 488.652479 
L 341.694625 487.216722 
L 343.64785 487.216722 
L 344.291342 485.472761 
L 344.941333 485.472761 
L 345.591325 483.731084 
L 346.228316 483.731084 
L 346.862058 481.99161 
L 348.818533 481.99161 
L 348.818533 480.254387 
L 350.105516 478.519384 
L 352.032741 478.519384 
L 352.695733 476.786599 
L 353.339224 476.786599 
L 353.985966 475.056049 
L 354.632708 475.056049 
L 355.292449 473.327638 
L 355.926191 473.327638 
L 356.556683 471.901292 
L 358.513157 471.901292 
L 359.169649 470.176121 
L 359.803391 470.176121 
L 360.450132 468.453087 
L 362.390357 468.453087 
L 363.68384 465.013498 
L 364.327332 465.013498 
L 364.974074 463.296927 
L 366.904549 463.296927 
L 367.55454 461.582494 
L 368.204532 461.582494 
L 368.838274 459.870134 
L 369.485015 459.870134 
L 370.131757 458.159912 
L 372.071982 458.159912 
L 372.721973 456.45178 
L 373.362215 456.45178 
L 374.005707 455.03504 
L 374.652448 455.03504 
L 375.29594 453.329904 
L 377.239415 453.329904 
L 377.886156 451.626858 
L 378.532898 451.626858 
L 379.17964 449.925901 
L 379.823131 449.925901 
L 380.466623 448.226953 
L 381.760106 448.226953 
L 382.413348 446.530062 
L 383.056839 446.530062 
L 383.700331 444.835195 
L 384.347073 444.835195 
L 384.990564 443.424626 
L 386.930789 443.424626 
L 387.584031 441.732626 
L 388.227523 441.732626 
L 388.874264 440.042651 
L 389.524256 440.042651 
L 390.170997 438.354669 
L 390.824239 438.354669 
L 391.464481 436.668662 
L 393.394956 436.668662 
L 394.057947 434.984615 
L 394.701439 434.984615 
L 395.34818 433.302577 
L 395.991672 433.302577 
L 396.651413 431.62245 
L 397.918897 431.62245 
L 398.565639 430.218425 
L 399.22538 430.218425 
L 399.872122 428.541052 
L 400.531863 428.541052 
L 401.165605 426.865622 
L 403.09608 426.865622 
L 403.736322 425.192088 
L 404.405813 425.192088 
L 405.052555 423.520497 
L 405.696046 423.520497 
L 406.336288 421.850785 
L 406.98628 421.850785 
L 407.629771 420.182952 
L 409.573246 420.182952 
L 410.216738 418.516998 
L 410.863479 418.516998 
L 411.510221 416.852906 
L 412.153713 416.852906 
L 412.787454 415.455586 
L 414.074438 415.455586 
L 414.721179 413.794087 
L 415.367921 413.794087 
L 416.027662 412.134433 
L 417.954888 412.134433 
L 418.598379 410.476627 
L 419.248371 410.476627 
L 419.891862 408.820618 
L 420.538604 408.820618 
L 421.185346 407.166455 
L 423.13532 407.166455 
L 423.769062 405.514058 
L 424.415804 405.514058 
L 425.062545 404.121452 
L 425.712537 404.121452 
L 426.356029 402.47155 
L 427.01577 402.47155 
L 427.669012 400.823396 
L 428.312503 400.823396 
L 428.955995 399.177025 
L 430.262478 399.177025 
L 430.90922 397.532403 
L 431.542962 397.532403 
L 432.820195 395.88953 
L 433.479936 395.88953 
L 434.129928 394.248423 
L 434.77342 394.248423 
L 435.423411 392.609016 
L 437.360386 392.609016 
L 438.007128 390.971343 
L 438.653869 390.971343 
L 439.300611 389.33537 
L 439.947353 389.33537 
L 440.590844 389.58426 
L 441.253836 389.58426 
L 441.884328 386.315214 
L 443.824553 386.315214 
L 444.468044 384.683226 
L 445.118036 384.683226 
L 445.761527 383.05289 
L 447.685503 383.05289 
L 448.975736 379.797272 
L 449.622477 379.797272 
L 450.269219 378.171908 
L 450.925711 378.171908 
L 451.565952 378.413963 
L 452.209444 378.413963 
L 452.872435 376.789166 
L 453.519177 376.789166 
L 454.165919 375.165973 
L 454.81916 375.165973 
L 455.462652 373.544432 
L 456.106143 373.544432 
L 456.752885 371.924479 
L 457.396377 371.924479 
L 458.043118 370.306145 
L 459.986593 370.306145 
L 460.643085 368.689399 
L 461.276826 368.689399 
L 461.923568 367.07424 
L 463.863793 367.07424 
L 464.520284 363.848636 
L 465.800768 363.848636 
L 466.44426 362.238174 
L 467.091001 362.238174 
L 467.737743 360.629267 
L 468.394234 360.629267 
L 469.034476 360.860161 
L 469.677968 360.860161 
L 470.321459 359.251724 
L 470.971451 359.251724 
L 471.614943 357.644794 
L 473.555167 357.644794 
L 474.198659 354.4355 
L 476.138884 354.4355 
L 476.785626 352.833105 
L 477.445367 352.833105 
L 478.075859 351.232215 
L 478.722601 351.232215 
L 479.372592 349.857005 
L 480.019334 349.857005 
L 480.662825 348.257995 
L 481.946559 348.257995 
L 482.59655 346.660459 
L 483.243292 346.660459 
L 483.883534 345.064397 
L 484.530275 345.064397 
L 485.186767 343.469776 
L 487.117242 343.469776 
L 487.760733 341.876597 
L 488.413975 341.876597 
L 489.063967 340.284859 
L 489.697708 340.284859 
L 490.34445 338.694547 
L 490.987942 338.694547 
L 491.637933 337.105644 
L 492.278175 337.105644 
L 492.941166 335.518167 
L 494.865141 335.518167 
L 495.511883 333.932066 
L 496.158625 333.932066 
L 496.805366 332.347374 
L 497.448858 332.347374 
L 498.0956 332.560581 
L 498.745591 330.976213 
L 499.392333 330.976213 
L 500.035825 329.39319 
L 500.695566 329.39319 
L 501.329308 327.81156 
L 501.976049 327.81156 
L 502.619541 326.231274 
L 504.566266 326.231274 
L 505.213007 324.652332 
L 505.862999 324.652332 
L 506.506491 323.074735 
L 507.156482 323.074735 
L 507.803224 321.498483 
L 508.449966 321.498483 
L 509.106457 319.923542 
L 511.033682 319.923542 
L 511.680424 318.349897 
L 512.330415 318.349897 
L 512.973907 316.777564 
L 513.607649 316.777564 
L 514.26089 315.408897 
L 515.554374 315.408897 
L 516.197865 313.838103 
L 516.860857 313.838103 
L 517.491348 312.268605 
L 518.13809 312.268605 
L 518.784832 310.70037 
L 519.451073 310.70037 
L 520.101065 309.133382 
L 520.747806 309.133382 
L 521.381548 307.567657 
L 522.03479 307.567657 
L 522.675031 306.003196 
L 524.612006 306.003196 
L 525.265248 304.43995 
L 525.89574 304.43995 
L 526.552231 302.877935 
L 527.198973 302.877935 
L 527.855464 301.317151 
L 529.782689 301.317151 
L 530.429431 298.199194 
L 531.732664 298.199194 
L 532.366406 296.642022 
L 533.016397 296.642022 
L 533.659889 295.275575 
L 535.609864 295.275575 
L 536.246856 293.719731 
L 536.890347 293.719731 
L 537.524089 292.165053 
L 538.180581 292.165053 
L 538.830572 290.611541 
L 539.477314 290.611541 
L 540.120805 289.05918 
L 540.767547 289.05918 
L 541.414289 287.507968 
L 543.354514 287.507968 
L 543.998005 285.957891 
L 545.275239 285.957891 
L 545.275239 284.408947 
L 545.93498 284.408947 
L 547.228463 282.86112 
L 547.888205 282.86112 
L 549.168688 279.768804 
L 551.108913 279.768804 
L 551.755655 278.224299 
L 552.402396 278.224299 
L 553.045888 276.680878 
L 553.69588 276.680878 
L 554.342621 275.315419 
L 554.999113 275.315419 
L 555.632854 273.773148 
L 557.576329 273.773148 
L 558.229571 272.231914 
L 558.873063 272.231914 
L 559.513304 270.691749 
L 560.160046 270.691749 
L 560.803538 269.152621 
L 561.443779 269.152621 
L 562.103521 267.614546 
L 564.033996 267.614546 
L 565.327479 264.541472 
L 565.974221 264.541472 
L 566.620962 263.006474 
L 567.267704 263.006474 
L 567.917695 261.472465 
L 568.564437 261.472465 
L 569.207929 259.939475 
L 571.141654 259.939475 
L 571.788395 258.407458 
L 572.435137 258.407458 
L 573.085128 256.876428 
L 573.73512 256.876428 
L 574.381862 255.346387 
L 575.031853 255.346387 
L 575.659095 253.817301 
L 577.60582 253.817301 
L 578.239562 252.28917 
L 578.879803 252.28917 
L 579.536295 250.761996 
L 580.179787 250.761996 
L 580.826528 249.235777 
L 582.129761 249.235777 
L 582.779753 247.869864 
L 583.423245 247.869864 
L 584.073236 246.344504 
L 584.719978 246.344504 
L 585.363469 244.820066 
L 587.303694 244.820066 
L 587.950436 243.296536 
L 588.606927 243.296536 
L 589.240669 241.773913 
L 589.887411 241.773913 
L 590.534152 240.252181 
L 591.177644 240.252181 
L 591.837386 238.73134 
L 592.484127 238.73134 
L 593.121119 237.211389 
L 593.761361 237.211389 
L 594.411352 235.692313 
L 595.054844 235.692313 
L 595.708085 234.17408 
L 597.635311 234.17408 
L 598.928794 231.14022 
L 599.582035 231.14022 
L 600.215777 229.624546 
L 602.156002 229.624546 
L 602.802744 228.109714 
L 603.449485 228.109714 
L 604.092977 226.595692 
L 604.739719 226.595692 
L 605.38321 225.082512 
L 606.029952 225.082512 
L 606.676693 223.570125 
L 607.323435 223.570125 
L 607.970177 222.058549 
L 608.613668 222.058549 
L 609.26041 220.547766 
L 611.200635 220.547766 
L 611.860376 219.037777 
L 612.490868 219.037777 
L 613.13761 217.528566 
L 613.784351 217.528566 
L 615.090834 214.512442 
L 617.01806 214.512442 
L 617.661551 213.005531 
L 618.308293 213.005531 
L 618.968034 211.499348 
L 619.614776 211.499348 
L 620.255018 209.993927 
L 620.898509 209.993927 
L 621.548501 208.489234 
L 622.198492 208.489234 
L 622.848484 206.985271 
L 623.504975 206.985271 
L 624.135467 205.482004 
L 624.785459 205.482004 
L 625.432201 205.614418 
L 626.078942 205.614418 
L 626.722434 204.110907 
L 627.401675 204.110907 
L 628.015917 202.60811 
L 628.665909 202.60811 
L 629.3094 201.105993 
L 629.959392 201.105993 
L 631.259375 198.103848 
L 631.896367 198.103848 
L 632.546358 196.603788 
L 634.493083 196.603788 
L 635.130075 195.104392 
L 635.783316 195.104392 
L 636.423558 193.605644 
L 638.363783 193.605644 
L 639.010525 192.10756 
L 639.670266 192.10756 
L 640.297508 190.610124 
L 640.9475 190.610124 
L 641.594241 189.11332 
L 642.224733 189.11332 
L 642.868225 187.617147 
L 643.527966 187.617147 
L 644.158458 186.12159 
L 644.8052 186.12159 
L 645.451941 184.626648 
L 646.098683 184.626648 
L 646.745425 183.132322 
L 647.405166 183.132322 
L 648.038908 181.638579 
L 649.345391 181.638579 
L 649.995382 180.145435 
L 650.642124 180.145435 
L 651.298616 178.652874 
L 651.932357 178.652874 
L 652.579099 177.160897 
L 653.222591 177.160897 
L 653.872582 175.669486 
L 655.812807 175.669486 
L 656.456299 174.178626 
L 657.10629 174.178626 
L 657.749782 172.688333 
L 658.406273 172.688333 
L 659.043265 171.198591 
L 659.686757 171.198591 
L 660.330249 169.709367 
L 662.920465 169.709367 
L 663.567207 166.732539 
L 664.86069 166.732539 
L 665.504182 165.244902 
L 666.150923 165.244902 
L 666.797665 163.757784 
L 667.444406 163.757784 
L 668.091148 162.271168 
L 668.73789 162.271168 
L 669.381381 160.785038 
L 671.321606 160.785038 
L 671.965098 159.299393 
L 672.621589 159.299393 
L 673.274831 157.814235 
L 673.908573 157.814235 
L 674.555314 156.329546 
L 675.202056 156.329546 
L 675.845548 154.845343 
L 676.482539 154.845343 
L 677.132531 153.361578 
L 677.782523 153.361578 
L 678.432514 151.878266 
L 678.432514 151.878266 
L 680.369489 151.878266 
L 681.029231 150.395408 
L 681.666222 150.395408 
L 682.959706 147.430987 
L 683.606447 147.430987 
L 684.249939 145.949408 
L 686.186914 145.949408 
L 686.833655 142.987497 
L 688.78363 142.987497 
L 689.420622 141.50715 
L 690.067363 141.50715 
L 690.714105 140.027191 
L 691.364097 140.027191 
L 692.007588 138.54762 
L 692.66733 138.54762 
L 693.304322 137.068439 
L 693.947813 137.068439 
L 694.594555 135.589614 
L 695.238046 135.589614 
L 695.881538 134.111161 
L 697.821763 134.111161 
L 699.111996 131.155324 
L 699.761988 131.155324 
L 700.415229 129.677908 
L 701.052221 129.677908 
L 701.698963 128.200849 
L 703.642438 128.200849 
L 704.295679 126.724097 
L 704.929421 126.724097 
L 705.579413 125.247685 
L 706.226154 125.247685 
L 706.866396 123.771581 
L 707.513138 123.771581 
L 708.156629 122.295785 
L 708.790371 122.295785 
L 709.440363 120.82028 
L 710.090354 120.82028 
L 710.730596 119.345083 
L 712.674071 119.345083 
L 713.317562 117.870161 
L 713.961054 117.870161 
L 714.620795 116.395515 
L 715.270787 116.395515 
L 715.917529 114.921144 
L 717.198012 114.921144 
L 717.844754 113.447032 
L 719.781729 113.447032 
L 720.42847 114.921144 
L 721.071962 114.921144 
L 721.715454 116.395515 
L 722.362195 116.395515 
L 723.021937 117.870161 
L 723.668678 117.870161 
L 724.30242 119.345083 
L 724.949162 119.345083 
L 725.599153 122.295785 
L 726.239395 122.295785 
L 726.895886 123.771581 
L 727.545878 123.771581 
L 728.19587 126.724097 
L 728.839361 126.724097 
L 729.476353 128.200849 
L 730.119845 128.200849 
L 730.766586 131.155324 
L 731.413328 132.633064 
L 732.06007 132.633064 
L 732.703561 135.589614 
L 733.350303 135.589614 
L 733.997045 137.068439 
L 734.647036 137.068439 
L 735.293778 138.54762 
L 735.943769 138.54762 
L 736.593761 140.027191 
L 737.240503 140.027191 
L 737.887244 141.50715 
L 738.530736 141.50715 
L 739.177477 142.987497 
L 739.830719 142.987497 
L 740.477461 144.46825 
L 741.117702 144.46825 
L 741.774194 145.949408 
L 743.704669 145.949408 
L 744.35141 147.430987 
L 744.998152 147.430987 
L 745.657894 148.912987 
L 746.294885 148.912987 
L 746.954627 150.395408 
L 748.24161 150.395408 
L 748.878602 151.878266 
L 749.535093 151.878266 
L 750.181835 153.361578 
L 752.11231 153.361578 
L 752.762302 154.845343 
L 753.402543 154.845343 
L 754.062285 156.329546 
L 754.709026 156.329546 
L 755.342768 157.814235 
L 757.936235 157.814235 
L 757.936235 160.785038 
L 759.866709 160.785038 
L 760.510201 162.271168 
L 761.156943 162.271168 
L 761.803684 163.757784 
L 762.443926 163.757784 
L 763.100418 165.244902 
L 763.734159 165.244902 
L 764.390651 166.732539 
L 765.680884 166.732539 
L 766.330876 169.709367 
L 768.267851 169.709367 
L 768.911342 171.198591 
L 769.574334 171.198591 
L 770.208076 172.688333 
L 770.854817 172.688333 
L 771.498309 174.178626 
L 772.1483 174.178626 
L 772.778792 175.669486 
L 774.715767 175.669486 
L 775.362509 177.160897 
L 776.019 177.160897 
L 777.299484 178.652874 
L 777.949475 178.652874 
L 778.589717 180.145435 
L 779.255958 180.145435 
L 779.90595 181.638579 
L 780.559192 181.638579 
L 781.189683 183.132322 
L 781.826675 183.132322 
L 782.486417 184.626648 
L 783.77665 184.626648 
L 784.423391 187.617147 
L 786.350617 187.617147 
L 787.010358 189.11332 
L 787.6571 189.11332 
L 788.300591 190.610124 
L 790.231066 190.610124 
L 790.874558 193.605644 
L 792.818033 193.605644 
L 793.468024 195.104392 
L 794.105016 195.104392 
L 794.751758 196.603788 
L 795.398499 196.603788 
L 796.045241 198.103848 
L 796.695233 198.103848 
L 797.335474 199.604588 
L 798.628957 199.604588 
L 799.275699 201.105993 
L 799.919191 201.105993 
L 800.565932 202.60811 
L 801.212674 202.60811 
L 801.875665 204.110907 
L 802.506157 204.110907 
L 803.156149 205.614418 
L 805.112624 205.614418 
L 805.746365 207.11864 
L 806.402857 207.11864 
L 807.052848 208.623576 
L 807.69959 208.623576 
L 808.346332 210.12924 
L 809.006073 210.12924 
L 809.636565 211.63565 
L 810.283307 211.63565 
L 810.926798 213.142788 
L 811.57354 213.142788 
L 812.213782 214.650688 
L 814.154006 214.650688 
L 814.803998 217.668754 
L 816.094231 217.668754 
L 816.740973 219.178954 
L 817.387715 219.178954 
L 818.034456 220.689915 
L 819.984431 220.689915 
L 820.618173 223.714234 
L 822.555148 223.714234 
L 823.201889 225.082512 
L 823.861631 225.082512 
L 824.495373 226.595692 
L 825.138864 226.595692 
L 825.788856 228.109714 
L 826.429097 228.109714 
L 827.085589 229.624546 
L 827.732331 229.624546 
L 828.366072 231.14022 
L 830.299797 231.14022 
L 830.946539 232.656721 
L 831.593281 232.656721 
L 832.886764 235.692313 
L 833.533505 235.692313 
L 834.180247 237.211389 
L 836.113972 237.211389 
L 836.760714 238.73134 
L 837.404205 238.73134 
L 838.054197 240.252181 
L 838.697689 240.252181 
L 839.34443 241.773913 
L 840.004172 241.773913 
L 840.631414 243.296536 
L 841.281405 243.296536 
L 841.931397 244.820066 
L 843.881371 244.820066 
L 844.515113 246.344504 
L 845.171605 246.344504 
L 845.808596 247.869864 
L 846.455338 247.869864 
L 847.09883 249.396164 
L 848.395563 249.396164 
L 849.042305 250.923387 
L 849.685796 250.923387 
L 850.348788 252.451566 
L 850.985779 252.451566 
L 851.645521 253.980684 
L 852.279263 253.980684 
L 852.929254 255.510774 
L 854.866229 255.510774 
L 855.532471 257.04182 
L 856.162962 257.04182 
L 856.809704 258.573854 
L 857.456446 258.573854 
L 858.106437 260.106876 
L 858.756429 260.106876 
L 859.40317 261.640885 
L 861.336895 261.640885 
L 861.980387 263.175883 
L 862.630379 263.175883 
L 863.28362 264.711918 
L 863.923862 264.711918 
L 865.220595 267.787016 
L 867.17382 267.787016 
L 867.814061 269.326096 
L 868.444553 269.326096 
L 869.091295 270.866244 
L 869.738037 270.866244 
L 870.384778 272.231914 
L 871.03152 272.231914 
L 871.678261 273.773148 
L 872.321753 273.773148 
L 872.971745 275.315419 
L 874.921719 275.315419 
L 875.555461 276.858791 
L 876.198953 276.858791 
L 876.848944 278.403232 
L 877.495686 278.403232 
L 878.155428 279.948758 
L 878.798919 279.948758 
L 879.429411 281.495386 
L 880.079403 281.495386 
L 880.726144 283.043131 
L 882.016378 283.043131 
L 882.685869 284.591978 
L 883.309861 284.591978 
L 883.956602 286.141958 
L 885.896827 286.141958 
L 886.553319 287.693056 
L 887.187061 287.693056 
L 887.837052 290.798686 
L 889.783777 290.798686 
L 890.430519 292.353235 
L 891.06751 292.353235 
L 891.714252 293.908949 
L 893.004485 293.908949 
L 893.654477 295.46583 
L 895.591452 295.46583 
L 896.234943 297.023893 
L 896.881685 297.023893 
L 897.531677 298.583138 
L 898.178418 298.583138 
L 898.82191 300.143598 
L 900.115393 300.143598 
L 900.742635 303.07266 
L 902.69586 303.07266 
L 903.326352 304.635728 
L 905.269826 304.635728 
L 905.913318 306.199995 
L 906.576309 306.199995 
L 907.213301 307.765525 
L 907.863293 307.765525 
L 908.510034 309.332286 
L 909.160026 309.332286 
L 909.806768 310.900327 
L 910.453509 310.900327 
L 911.103501 312.268605 
L 911.750242 312.268605 
L 912.396984 313.838103 
L 913.020976 313.838103 
L 913.700217 315.408897 
L 914.330709 315.408897 
L 914.977451 316.980987 
L 916.274184 316.980987 
L 916.917676 318.554357 
L 917.574167 318.554357 
L 918.211159 320.129039 
L 918.8579 320.129039 
L 919.504642 321.705048 
L 921.454617 321.705048 
L 922.094859 323.28237 
L 922.74485 323.28237 
L 923.381842 324.86102 
L 924.035083 324.86102 
L 924.675325 326.441014 
L 926.61555 326.441014 
L 927.259042 328.022353 
L 927.905783 328.022353 
L 928.552525 329.605069 
L 929.196017 329.605069 
L 929.846008 331.189145 
L 930.49275 331.189145 
L 931.136241 332.774582 
L 931.782983 332.774582 
L 932.429725 332.560581 
L 933.076466 334.146342 
L 933.732958 334.146342 
L 934.3667 335.733495 
L 935.013441 335.733495 
L 935.660183 337.322058 
L 936.306924 337.322058 
L 936.963416 338.912014 
L 938.887391 338.912014 
L 939.537383 340.503411 
L 940.180874 340.503411 
L 940.830866 342.096218 
L 941.490607 342.096218 
L 942.124349 343.690466 
L 944.051574 343.690466 
L 944.698316 345.064397 
L 945.341807 345.064397 
L 945.991799 346.660459 
L 946.635291 346.660459 
L 947.282032 348.257995 
L 947.932024 348.257995 
L 949.222257 351.457473 
L 951.155982 351.457473 
L 951.802724 353.059447 
L 952.462465 353.059447 
L 953.096207 354.662912 
L 955.033182 354.662912 
L 955.689673 356.267883 
L 956.336415 356.267883 
L 956.970157 357.874376 
L 957.620148 357.874376 
L 958.26364 359.251724 
L 958.910382 359.251724 
L 959.560373 360.860161 
L 960.207115 360.860161 
L 960.850607 362.47017 
L 961.500598 362.47017 
L 962.14409 364.081717 
L 964.084315 364.081717 
L 965.374548 367.309508 
L 967.324523 367.309508 
L 967.955015 368.925752 
L 968.618006 368.925752 
L 969.254998 370.5436 
L 969.901739 370.5436 
L 970.545231 372.163035 
L 972.495206 372.163035 
L 973.128948 373.784073 
L 973.775689 373.784073 
L 974.441931 375.406732 
L 975.082172 375.406732 
L 975.732164 377.03101 
L 976.385405 377.03101 
L 977.025647 378.413963 
L 977.672389 378.413963 
L 978.32238 380.040411 
L 980.265855 380.040411 
L 981.552838 383.298265 
L 983.506063 383.298265 
L 984.130055 384.929686 
L 984.780047 384.929686 
L 985.426788 386.562775 
L 986.07353 386.562775 
L 986.720272 388.197598 
L 987.380013 388.197598 
L 988.010505 389.58426 
L 989.95073 389.58426 
L 990.594221 391.221334 
L 991.244213 391.221334 
L 991.890955 392.860125 
L 992.537696 392.860125 
L 993.181188 394.500633 
L 993.82468 394.500633 
L 994.474671 396.142874 
L 996.414896 396.142874 
L 997.058388 397.786865 
L 997.708379 397.786865 
L 998.998613 401.08011 
L 1000.938837 401.08011 
L 1001.592079 402.729364 
L 1002.229071 402.729364 
L 1002.885562 404.121452 
L 1003.522554 404.121452 
L 1004.175795 405.773169 
L 1006.10627 405.773169 
L 1006.10627 405.773169 
L 1008.689987 409.081979 
L 1009.336729 409.081979 
L 1009.98347 410.739122 
L 1010.643212 410.739122 
L 1011.276954 412.398046 
L 1011.923695 412.398046 
L 1012.570437 412.134433 
L 1013.220428 412.134433 
L 1013.86392 413.794087 
L 1014.523661 413.794087 
L 1015.157403 415.455586 
L 1015.800895 415.455586 
L 1016.450887 417.118949 
L 1017.74112 417.118949 
L 1018.384611 418.784142 
L 1019.037853 418.784142 
L 1019.681345 420.45123 
L 1020.311837 420.45123 
L 1020.971578 422.120197 
L 1022.908553 422.120197 
L 1023.561794 423.791059 
L 1024.202036 423.791059 
L 1024.848778 425.463783 
L 1026.792253 425.463783 
L 1027.438994 426.865622 
L 1028.085736 426.865622 
L 1028.729228 428.541052 
L 1029.379219 428.541052 
L 1030.019461 430.218425 
L 1030.662952 430.218425 
L 1031.319444 431.897726 
L 1032.603177 431.897726 
L 1033.246669 433.57897 
L 1033.883661 433.57897 
L 1034.533652 435.262191 
L 1035.180394 435.262191 
L 1035.180394 436.947371 
L 1036.467377 436.947371 
L 1037.117369 438.634512 
L 1037.76411 438.634512 
L 1038.410852 438.354669 
L 1039.051094 438.354669 
L 1039.697835 440.042651 
L 1040.364077 440.042651 
L 1041.010818 441.732626 
L 1041.65106 441.732626 
L 1042.301052 443.424626 
L 1042.944543 443.424626 
L 1043.591285 445.118618 
L 1045.54776 445.118618 
L 1046.175002 446.814602 
L 1046.824993 446.814602 
L 1047.471735 448.512675 
L 1048.115226 448.512675 
L 1048.761968 450.212774 
L 1050.055451 450.212774 
L 1050.708693 451.914897 
L 1051.348935 451.914897 
L 1051.995676 453.619109 
L 1052.652168 453.619109 
L 1053.298909 455.03504 
L 1055.229384 455.03504 
L 1055.872876 456.742232 
L 1056.529367 456.742232 
L 1057.166359 458.451531 
L 1059.100084 458.451531 
L 1059.737076 460.162919 
L 1060.387068 460.162919 
L 1061.030559 461.876412 
L 1061.687051 461.876412 
L 1062.327292 463.592028 
L 1062.974034 463.592028 
L 1063.617526 465.309765 
L 1064.907759 465.309765 
L 1065.551251 467.02964 
L 1066.201242 467.02964 
L 1066.841484 468.453087 
L 1067.491476 468.453087 
L 1068.134967 470.176121 
L 1070.075192 470.176121 
L 1070.718684 471.901292 
L 1071.368675 471.901292 
L 1072.025167 473.628667 
L 1073.958892 473.628667 
L 1074.602383 475.358229 
L 1075.255625 475.358229 
L 1075.892617 477.089961 
L 1076.549108 477.089961 
L 1077.18285 478.823928 
L 1077.836092 478.823928 
L 1078.479583 480.560098 
L 1080.432808 480.560098 
L 1081.0698 482.298487 
L 1081.716541 482.298487 
L 1082.356783 484.039111 
L 1083.660016 484.039111 
L 1084.313258 485.472761 
L 1084.953499 485.472761 
L 1085.596991 487.216722 
L 1087.543716 487.216722 
L 1088.200207 488.962935 
L 1088.827449 488.962935 
L 1089.477441 490.711431 
L 1091.424166 490.711431 
L 1092.064407 492.462211 
L 1092.714399 492.462211 
L 1093.36114 494.215275 
L 1095.301365 494.215275 
L 1095.961107 495.970671 
L 1096.598099 495.970671 
L 1097.23834 497.728335 
L 1097.888332 497.728335 
L 1098.531824 499.170797 
L 1099.175315 500.93196 
L 1101.09929 500.93196 
L 1101.746032 502.695455 
L 1102.392774 502.695455 
L 1103.039515 504.461298 
L 1104.97649 504.461298 
L 1105.626482 506.229507 
L 1106.286223 506.229507 
L 1106.942715 508.000096 
L 1108.86019 508.000096 
L 1109.516681 511.548402 
L 1110.176423 511.548402 
L 1110.810164 511.223676 
L 1111.456906 511.223676 
L 1112.100398 513.000243 
L 1114.043873 513.000243 
L 1115.334106 516.560616 
L 1115.980848 516.560616 
L 1116.624339 518.344422 
L 1118.548314 518.344422 
L 1119.211306 520.130707 
L 1119.858047 520.130707 
L 1120.504789 521.919405 
L 1123.072256 521.919405 
L 1123.718997 523.37868 
L 1124.381989 523.37868 
L 1125.03198 525.171104 
L 1126.965705 525.171104 
L 1127.596197 526.966038 
L 1128.242939 526.966038 
L 1128.88643 528.763434 
L 1129.555922 528.763434 
L 1130.199413 530.563341 
L 1132.142888 530.563341 
L 1132.77013 532.365759 
L 1133.413622 533.832776 
L 1135.366846 533.832776 
L 1136.013588 535.639048 
L 1136.66358 535.639048 
L 1137.300571 537.447815 
L 1139.231046 537.447815 
L 1139.894038 539.259157 
L 1140.537529 539.259157 
L 1141.187521 541.073043 
L 1143.127746 541.073043 
L 1143.771238 542.889487 
L 1144.417979 542.889487 
L 1145.054971 544.708507 
L 1145.711462 544.708507 
L 1146.354954 546.185048 
L 1148.295179 546.185048 
L 1148.948421 548.008053 
L 1150.238654 548.008053 
L 1150.885395 549.833649 
L 1151.541887 549.833649 
L 1152.175629 551.661869 
L 1152.82562 551.661869 
L 1153.475612 553.492696 
L 1155.393087 553.492696 
L 1156.049579 554.976316 
L 1156.69632 554.976316 
L 1157.343062 556.811226 
L 1157.986554 556.811226 
L 1158.636545 558.648759 
L 1160.56702 558.648759 
L 1161.220262 560.488981 
L 1161.870253 560.488981 
L 1162.513745 562.331876 
L 1164.43447 562.331876 
L 1165.084462 564.177411 
L 1165.737703 563.822801 
L 1166.374695 563.822801 
L 1167.018187 565.669858 
L 1168.961661 565.669858 
L 1169.605153 567.519588 
L 1170.264895 567.519588 
L 1170.898636 569.37204 
L 1172.838861 569.37204 
L 1173.482353 571.227212 
L 1174.129094 571.227212 
L 1174.775836 573.08509 
L 1175.425828 573.08509 
L 1176.072569 572.725717 
L 1176.719311 572.725717 
L 1177.362803 576.447303 
L 1180.593261 576.447303 
L 1181.240002 578.312227 
L 1181.883494 578.312227 
L 1182.530236 580.179904 
L 1183.830219 580.179904 
L 1184.48346 581.686264 
L 1185.130202 581.686264 
L 1185.773694 583.558282 
L 1187.704169 583.558282 
L 1188.35091 585.433102 
L 1188.997652 585.433102 
L 1189.644394 587.310724 
L 1191.581368 587.310724 
L 1192.23136 589.191149 
L 1192.23136 589.191149 
L 1194.171585 589.191149 
L 1194.815077 590.705592 
L 1195.461818 590.705592 
L 1195.461818 590.705592 
" clip-path="url(#pe3d3bc3c20)" style="fill: none; stroke: #ff7f0e; stroke-width: 1.5; stroke-linecap: square"/>
   </g>
   <g id="line2d_16">
    <path d="M 221.498182 593.900308 
L 708.156629 108.81 
L 708.790371 109.020567 
L 1195.461818 594.123832 
L 1195.461818 594.123832 
" clip-path="url(#pe3d3bc3c20)" style="fill: none; stroke: #2ca02c; stroke-width: 1.5; stroke-linecap: square"/>
   </g>
   <g id="patch_3">
    <path d="M 172.8 624.78 
L 172.8 84.24 
" style="fill: none; stroke: #000000; stroke-width: 0.8; stroke-linejoin: miter; stroke-linecap: square"/>
   </g>
   <g id="patch_4">
    <path d="M 1244.16 624.78 
L 1244.16 84.24 
" style="fill: none; stroke: #000000; stroke-width: 0.8; stroke-linejoin: miter; stroke-linecap: square"/>
   </g>
   <g id="patch_5">
    <path d="M 172.8 624.78 
L 1244.16 624.78 
" style="fill: none; stroke: #000000; stroke-width: 0.8; stroke-linejoin: miter; stroke-linecap: square"/>
   </g>
   <g id="patch_6">
    <path d="M 172.8 84.24 
L 1244.16 84.24 
" style="fill: none; stroke: #000000; stroke-width: 0.8; stroke-linejoin: miter; stroke-linecap: square"/>
   </g>
   <g id="text_16">
    <!-- 200mm/s -->
    <g transform="translate(680.191875 78.24) scale(0.12 -0.12)">
     <defs>
      <path id="DejaVuSans-2f" d="M 1625 4666 
L 2156 4666 
L 531 -594 
L 0 -594 
L 1625 4666 
z
" transform="scale(0.015625)"/>
     </defs>
     <use xlink:href="#DejaVuSans-32"/>
     <use xlink:href="#DejaVuSans-30" x="63.623047"/>
     <use xlink:href="#DejaVuSans-30" x="127.246094"/>
     <use xlink:href="#DejaVuSans-6d" x="190.869141"/>
     <use xlink:href="#DejaVuSans-6d" x="288.28125"/>
     <use xlink:href="#DejaVuSans-2f" x="385.693359"/>
     <use xlink:href="#DejaVuSans-73" x="419.384766"/>
    </g>
   </g>
   <g id="legend_1">
    <g id="patch_7">
     <path d="M 1155.2475 136.274375 
L 1237.16 136.274375 
Q 1239.16 136.274375 1239.16 134.274375 
L 1239.16 91.24 
Q 1239.16 89.24 1237.16 89.24 
L 1155.2475 89.24 
Q 1153.2475 89.24 1153.2475 91.24 
L 1153.2475 134.274375 
Q 1153.2475 136.274375 1155.2475 136.274375 
z
" style="fill: #ffffff; opacity: 0.8; stroke: #cccccc; stroke-linejoin: miter"/>
    </g>
    <g id="line2d_17">
     <path d="M 1157.2475 97.338438 
L 1167.2475 97.338438 
L 1177.2475 97.338438 
" style="fill: none; stroke: #1f77b4; stroke-width: 1.5; stroke-linecap: square"/>
    </g>
    <g id="text_17">
     <!-- cam0 -->
     <g transform="translate(1185.2475 100.838438) scale(0.1 -0.1)">
      <defs>
       <path id="DejaVuSans-63" d="M 3122 3366 
L 3122 2828 
Q 2878 2963 2633 3030 
Q 2388 3097 2138 3097 
Q 1578 3097 1268 2742 
Q 959 2388 959 1747 
Q 959 1106 1268 751 
Q 1578 397 2138 397 
Q 2388 397 2633 464 
Q 2878 531 3122 666 
L 3122 134 
Q 2881 22 2623 -34 
Q 2366 -91 2075 -91 
Q 1284 -91 818 406 
Q 353 903 353 1747 
Q 353 2603 823 3093 
Q 1294 3584 2113 3584 
Q 2378 3584 2631 3529 
Q 2884 3475 3122 3366 
z
" transform="scale(0.015625)"/>
       <path id="DejaVuSans-61" d="M 2194 1759 
Q 1497 1759 1228 1600 
Q 959 1441 959 1056 
Q 959 750 1161 570 
Q 1363 391 1709 391 
Q 2188 391 2477 730 
Q 2766 1069 2766 1631 
L 2766 1759 
L 2194 1759 
z
M 3341 1997 
L 3341 0 
L 2766 0 
L 2766 531 
Q 2569 213 2275 61 
Q 1981 -91 1556 -91 
Q 1019 -91 701 211 
Q 384 513 384 1019 
Q 384 1609 779 1909 
Q 1175 2209 1959 2209 
L 2766 2209 
L 2766 2266 
Q 2766 2663 2505 2880 
Q 2244 3097 1772 3097 
Q 1472 3097 1187 3025 
Q 903 2953 641 2809 
L 641 3341 
Q 956 3463 1253 3523 
Q 1550 3584 1831 3584 
Q 2591 3584 2966 3190 
Q 3341 2797 3341 1997 
z
" transform="scale(0.015625)"/>
      </defs>
      <use xlink:href="#DejaVuSans-63"/>
      <use xlink:href="#DejaVuSans-61" x="54.980469"/>
      <use xlink:href="#DejaVuSans-6d" x="116.259766"/>
      <use xlink:href="#DejaVuSans-30" x="213.671875"/>
     </g>
    </g>
    <g id="line2d_18">
     <path d="M 1157.2475 112.016563 
L 1167.2475 112.016563 
L 1177.2475 112.016563 
" style="fill: none; stroke: #ff7f0e; stroke-width: 1.5; stroke-linecap: square"/>
    </g>
    <g id="text_18">
     <!-- cam5 -->
     <g transform="translate(1185.2475 115.516563) scale(0.1 -0.1)">
      <use xlink:href="#DejaVuSans-63"/>
      <use xlink:href="#DejaVuSans-61" x="54.980469"/>
      <use xlink:href="#DejaVuSans-6d" x="116.259766"/>
      <use xlink:href="#DejaVuSans-35" x="213.671875"/>
     </g>
    </g>
    <g id="line2d_19">
     <path d="M 1157.2475 126.694688 
L 1167.2475 126.694688 
L 1177.2475 126.694688 
" style="fill: none; stroke: #2ca02c; stroke-width: 1.5; stroke-linecap: square"/>
    </g>
    <g id="text_19">
     <!-- command -->
     <g transform="translate(1185.2475 130.194688) scale(0.1 -0.1)">
      <defs>
       <path id="DejaVuSans-64" d="M 2906 2969 
L 2906 4863 
L 3481 4863 
L 3481 0 
L 2906 0 
L 2906 525 
Q 2725 213 2448 61 
Q 2172 -91 1784 -91 
Q 1150 -91 751 415 
Q 353 922 353 1747 
Q 353 2572 751 3078 
Q 1150 3584 1784 3584 
Q 2172 3584 2448 3432 
Q 2725 3281 2906 2969 
z
M 947 1747 
Q 947 1113 1208 752 
Q 1469 391 1925 391 
Q 2381 391 2643 752 
Q 2906 1113 2906 1747 
Q 2906 2381 2643 2742 
Q 2381 3103 1925 3103 
Q 1469 3103 1208 2742 
Q 947 2381 947 1747 
z
" transform="scale(0.015625)"/>
      </defs>
      <use xlink:href="#DejaVuSans-63"/>
      <use xlink:href="#DejaVuSans-6f" x="54.980469"/>
      <use xlink:href="#DejaVuSans-6d" x="116.162109"/>
      <use xlink:href="#DejaVuSans-6d" x="213.574219"/>
      <use xlink:href="#DejaVuSans-61" x="310.986328"/>
      <use xlink:href="#DejaVuSans-6e" x="372.265625"/>
      <use xlink:href="#DejaVuSans-64" x="435.644531"/>
     </g>
    </g>
   </g>
  </g>
 </g>
 <defs>
  <clipPath id="pe3d3bc3c20">
   <rect x="172.8" y="84.24" width="1071.36" height="540.54"/>
  </clipPath>
 </defs>
</svg>
