<?xml version="1.0" encoding="utf-8" standalone="no"?>
<!DOCTYPE svg PUBLIC "-//W3C//DTD SVG 1.1//EN"
  "http://www.w3.org/Graphics/SVG/1.1/DTD/svg11.dtd">
<svg xmlns:xlink="http://www.w3.org/1999/xlink" width="460.8pt" height="345.6pt" viewBox="0 0 460.8 345.6" xmlns="http://www.w3.org/2000/svg" version="1.1">
 <metadata>
  <rdf:RDF xmlns:dc="http://purl.org/dc/elements/1.1/" xmlns:cc="http://creativecommons.org/ns#" xmlns:rdf="http://www.w3.org/1999/02/22-rdf-syntax-ns#">
   <cc:Work>
    <dc:type rdf:resource="http://purl.org/dc/dcmitype/StillImage"/>
    <dc:date>2023-06-01T14:42:44.557573</dc:date>
    <dc:format>image/svg+xml</dc:format>
    <dc:creator>
     <cc:Agent>
      <dc:title>Matplotlib v3.7.1, https://matplotlib.org/</dc:title>
     </cc:Agent>
    </dc:creator>
   </cc:Work>
  </rdf:RDF>
 </metadata>
 <defs>
  <style type="text/css">*{stroke-linejoin: round; stroke-linecap: butt}</style>
 </defs>
 <g id="figure_1">
  <g id="patch_1">
   <path d="M 0 345.6 
L 460.8 345.6 
L 460.8 0 
L 0 0 
z
" style="fill: #ffffff"/>
  </g>
  <g id="axes_1">
   <g id="patch_2">
    <path d="M 57.6 307.584 
L 414.72 307.584 
L 414.72 41.472 
L 57.6 41.472 
z
" style="fill: #ffffff"/>
   </g>
   <g id="matplotlib.axis_1">
    <g id="xtick_1">
     <g id="line2d_1">
      <defs>
       <path id="m72523d3f74" d="M 0 0 
L 0 3.5 
" style="stroke: #000000; stroke-width: 0.8"/>
      </defs>
      <g>
       <use xlink:href="#m72523d3f74" x="73.832727" y="307.584" style="stroke: #000000; stroke-width: 0.8"/>
      </g>
     </g>
     <g id="text_1">
      <!-- 0.0 -->
      <g transform="translate(65.881165 322.182437) scale(0.1 -0.1)">
       <defs>
        <path id="DejaVuSans-30" d="M 2034 4250 
Q 1547 4250 1301 3770 
Q 1056 3291 1056 2328 
Q 1056 1369 1301 889 
Q 1547 409 2034 409 
Q 2525 409 2770 889 
Q 3016 1369 3016 2328 
Q 3016 3291 2770 3770 
Q 2525 4250 2034 4250 
z
M 2034 4750 
Q 2819 4750 3233 4129 
Q 3647 3509 3647 2328 
Q 3647 1150 3233 529 
Q 2819 -91 2034 -91 
Q 1250 -91 836 529 
Q 422 1150 422 2328 
Q 422 3509 836 4129 
Q 1250 4750 2034 4750 
z
" transform="scale(0.015625)"/>
        <path id="DejaVuSans-2e" d="M 684 794 
L 1344 794 
L 1344 0 
L 684 0 
L 684 794 
z
" transform="scale(0.015625)"/>
       </defs>
       <use xlink:href="#DejaVuSans-30"/>
       <use xlink:href="#DejaVuSans-2e" x="63.623047"/>
       <use xlink:href="#DejaVuSans-30" x="95.410156"/>
      </g>
     </g>
    </g>
    <g id="xtick_2">
     <g id="line2d_2">
      <g>
       <use xlink:href="#m72523d3f74" x="127.998692" y="307.584" style="stroke: #000000; stroke-width: 0.8"/>
      </g>
     </g>
     <g id="text_2">
      <!-- 0.5 -->
      <g transform="translate(120.04713 322.182437) scale(0.1 -0.1)">
       <defs>
        <path id="DejaVuSans-35" d="M 691 4666 
L 3169 4666 
L 3169 4134 
L 1269 4134 
L 1269 2991 
Q 1406 3038 1543 3061 
Q 1681 3084 1819 3084 
Q 2600 3084 3056 2656 
Q 3513 2228 3513 1497 
Q 3513 744 3044 326 
Q 2575 -91 1722 -91 
Q 1428 -91 1123 -41 
Q 819 9 494 109 
L 494 744 
Q 775 591 1075 516 
Q 1375 441 1709 441 
Q 2250 441 2565 725 
Q 2881 1009 2881 1497 
Q 2881 1984 2565 2268 
Q 2250 2553 1709 2553 
Q 1456 2553 1204 2497 
Q 953 2441 691 2322 
L 691 4666 
z
" transform="scale(0.015625)"/>
       </defs>
       <use xlink:href="#DejaVuSans-30"/>
       <use xlink:href="#DejaVuSans-2e" x="63.623047"/>
       <use xlink:href="#DejaVuSans-35" x="95.410156"/>
      </g>
     </g>
    </g>
    <g id="xtick_3">
     <g id="line2d_3">
      <g>
       <use xlink:href="#m72523d3f74" x="182.164658" y="307.584" style="stroke: #000000; stroke-width: 0.8"/>
      </g>
     </g>
     <g id="text_3">
      <!-- 1.0 -->
      <g transform="translate(174.213095 322.182437) scale(0.1 -0.1)">
       <defs>
        <path id="DejaVuSans-31" d="M 794 531 
L 1825 531 
L 1825 4091 
L 703 3866 
L 703 4441 
L 1819 4666 
L 2450 4666 
L 2450 531 
L 3481 531 
L 3481 0 
L 794 0 
L 794 531 
z
" transform="scale(0.015625)"/>
       </defs>
       <use xlink:href="#DejaVuSans-31"/>
       <use xlink:href="#DejaVuSans-2e" x="63.623047"/>
       <use xlink:href="#DejaVuSans-30" x="95.410156"/>
      </g>
     </g>
    </g>
    <g id="xtick_4">
     <g id="line2d_4">
      <g>
       <use xlink:href="#m72523d3f74" x="236.330623" y="307.584" style="stroke: #000000; stroke-width: 0.8"/>
      </g>
     </g>
     <g id="text_4">
      <!-- 1.5 -->
      <g transform="translate(228.37906 322.182437) scale(0.1 -0.1)">
       <use xlink:href="#DejaVuSans-31"/>
       <use xlink:href="#DejaVuSans-2e" x="63.623047"/>
       <use xlink:href="#DejaVuSans-35" x="95.410156"/>
      </g>
     </g>
    </g>
    <g id="xtick_5">
     <g id="line2d_5">
      <g>
       <use xlink:href="#m72523d3f74" x="290.496588" y="307.584" style="stroke: #000000; stroke-width: 0.8"/>
      </g>
     </g>
     <g id="text_5">
      <!-- 2.0 -->
      <g transform="translate(282.545025 322.182437) scale(0.1 -0.1)">
       <defs>
        <path id="DejaVuSans-32" d="M 1228 531 
L 3431 531 
L 3431 0 
L 469 0 
L 469 531 
Q 828 903 1448 1529 
Q 2069 2156 2228 2338 
Q 2531 2678 2651 2914 
Q 2772 3150 2772 3378 
Q 2772 3750 2511 3984 
Q 2250 4219 1831 4219 
Q 1534 4219 1204 4116 
Q 875 4013 500 3803 
L 500 4441 
Q 881 4594 1212 4672 
Q 1544 4750 1819 4750 
Q 2544 4750 2975 4387 
Q 3406 4025 3406 3419 
Q 3406 3131 3298 2873 
Q 3191 2616 2906 2266 
Q 2828 2175 2409 1742 
Q 1991 1309 1228 531 
z
" transform="scale(0.015625)"/>
       </defs>
       <use xlink:href="#DejaVuSans-32"/>
       <use xlink:href="#DejaVuSans-2e" x="63.623047"/>
       <use xlink:href="#DejaVuSans-30" x="95.410156"/>
      </g>
     </g>
    </g>
    <g id="xtick_6">
     <g id="line2d_6">
      <g>
       <use xlink:href="#m72523d3f74" x="344.662553" y="307.584" style="stroke: #000000; stroke-width: 0.8"/>
      </g>
     </g>
     <g id="text_6">
      <!-- 2.5 -->
      <g transform="translate(336.710991 322.182437) scale(0.1 -0.1)">
       <use xlink:href="#DejaVuSans-32"/>
       <use xlink:href="#DejaVuSans-2e" x="63.623047"/>
       <use xlink:href="#DejaVuSans-35" x="95.410156"/>
      </g>
     </g>
    </g>
    <g id="xtick_7">
     <g id="line2d_7">
      <g>
       <use xlink:href="#m72523d3f74" x="398.828518" y="307.584" style="stroke: #000000; stroke-width: 0.8"/>
      </g>
     </g>
     <g id="text_7">
      <!-- 3.0 -->
      <g transform="translate(390.876956 322.182437) scale(0.1 -0.1)">
       <defs>
        <path id="DejaVuSans-33" d="M 2597 2516 
Q 3050 2419 3304 2112 
Q 3559 1806 3559 1356 
Q 3559 666 3084 287 
Q 2609 -91 1734 -91 
Q 1441 -91 1130 -33 
Q 819 25 488 141 
L 488 750 
Q 750 597 1062 519 
Q 1375 441 1716 441 
Q 2309 441 2620 675 
Q 2931 909 2931 1356 
Q 2931 1769 2642 2001 
Q 2353 2234 1838 2234 
L 1294 2234 
L 1294 2753 
L 1863 2753 
Q 2328 2753 2575 2939 
Q 2822 3125 2822 3475 
Q 2822 3834 2567 4026 
Q 2313 4219 1838 4219 
Q 1578 4219 1281 4162 
Q 984 4106 628 3988 
L 628 4550 
Q 988 4650 1302 4700 
Q 1616 4750 1894 4750 
Q 2613 4750 3031 4423 
Q 3450 4097 3450 3541 
Q 3450 3153 3228 2886 
Q 3006 2619 2597 2516 
z
" transform="scale(0.015625)"/>
       </defs>
       <use xlink:href="#DejaVuSans-33"/>
       <use xlink:href="#DejaVuSans-2e" x="63.623047"/>
       <use xlink:href="#DejaVuSans-30" x="95.410156"/>
      </g>
     </g>
    </g>
    <g id="text_8">
     <!-- time [s] -->
     <g transform="translate(216.768594 335.860562) scale(0.1 -0.1)">
      <defs>
       <path id="DejaVuSans-74" d="M 1172 4494 
L 1172 3500 
L 2356 3500 
L 2356 3053 
L 1172 3053 
L 1172 1153 
Q 1172 725 1289 603 
Q 1406 481 1766 481 
L 2356 481 
L 2356 0 
L 1766 0 
Q 1100 0 847 248 
Q 594 497 594 1153 
L 594 3053 
L 172 3053 
L 172 3500 
L 594 3500 
L 594 4494 
L 1172 4494 
z
" transform="scale(0.015625)"/>
       <path id="DejaVuSans-69" d="M 603 3500 
L 1178 3500 
L 1178 0 
L 603 0 
L 603 3500 
z
M 603 4863 
L 1178 4863 
L 1178 4134 
L 603 4134 
L 603 4863 
z
" transform="scale(0.015625)"/>
       <path id="DejaVuSans-6d" d="M 3328 2828 
Q 3544 3216 3844 3400 
Q 4144 3584 4550 3584 
Q 5097 3584 5394 3201 
Q 5691 2819 5691 2113 
L 5691 0 
L 5113 0 
L 5113 2094 
Q 5113 2597 4934 2840 
Q 4756 3084 4391 3084 
Q 3944 3084 3684 2787 
Q 3425 2491 3425 1978 
L 3425 0 
L 2847 0 
L 2847 2094 
Q 2847 2600 2669 2842 
Q 2491 3084 2119 3084 
Q 1678 3084 1418 2786 
Q 1159 2488 1159 1978 
L 1159 0 
L 581 0 
L 581 3500 
L 1159 3500 
L 1159 2956 
Q 1356 3278 1631 3431 
Q 1906 3584 2284 3584 
Q 2666 3584 2933 3390 
Q 3200 3197 3328 2828 
z
" transform="scale(0.015625)"/>
       <path id="DejaVuSans-65" d="M 3597 1894 
L 3597 1613 
L 953 1613 
Q 991 1019 1311 708 
Q 1631 397 2203 397 
Q 2534 397 2845 478 
Q 3156 559 3463 722 
L 3463 178 
Q 3153 47 2828 -22 
Q 2503 -91 2169 -91 
Q 1331 -91 842 396 
Q 353 884 353 1716 
Q 353 2575 817 3079 
Q 1281 3584 2069 3584 
Q 2775 3584 3186 3129 
Q 3597 2675 3597 1894 
z
M 3022 2063 
Q 3016 2534 2758 2815 
Q 2500 3097 2075 3097 
Q 1594 3097 1305 2825 
Q 1016 2553 972 2059 
L 3022 2063 
z
" transform="scale(0.015625)"/>
       <path id="DejaVuSans-20" transform="scale(0.015625)"/>
       <path id="DejaVuSans-5b" d="M 550 4863 
L 1875 4863 
L 1875 4416 
L 1125 4416 
L 1125 -397 
L 1875 -397 
L 1875 -844 
L 550 -844 
L 550 4863 
z
" transform="scale(0.015625)"/>
       <path id="DejaVuSans-73" d="M 2834 3397 
L 2834 2853 
Q 2591 2978 2328 3040 
Q 2066 3103 1784 3103 
Q 1356 3103 1142 2972 
Q 928 2841 928 2578 
Q 928 2378 1081 2264 
Q 1234 2150 1697 2047 
L 1894 2003 
Q 2506 1872 2764 1633 
Q 3022 1394 3022 966 
Q 3022 478 2636 193 
Q 2250 -91 1575 -91 
Q 1294 -91 989 -36 
Q 684 19 347 128 
L 347 722 
Q 666 556 975 473 
Q 1284 391 1588 391 
Q 1994 391 2212 530 
Q 2431 669 2431 922 
Q 2431 1156 2273 1281 
Q 2116 1406 1581 1522 
L 1381 1569 
Q 847 1681 609 1914 
Q 372 2147 372 2553 
Q 372 3047 722 3315 
Q 1072 3584 1716 3584 
Q 2034 3584 2315 3537 
Q 2597 3491 2834 3397 
z
" transform="scale(0.015625)"/>
       <path id="DejaVuSans-5d" d="M 1947 4863 
L 1947 -844 
L 622 -844 
L 622 -397 
L 1369 -397 
L 1369 4416 
L 622 4416 
L 622 4863 
L 1947 4863 
z
" transform="scale(0.015625)"/>
      </defs>
      <use xlink:href="#DejaVuSans-74"/>
      <use xlink:href="#DejaVuSans-69" x="39.208984"/>
      <use xlink:href="#DejaVuSans-6d" x="66.992188"/>
      <use xlink:href="#DejaVuSans-65" x="164.404297"/>
      <use xlink:href="#DejaVuSans-20" x="225.927734"/>
      <use xlink:href="#DejaVuSans-5b" x="257.714844"/>
      <use xlink:href="#DejaVuSans-73" x="296.728516"/>
      <use xlink:href="#DejaVuSans-5d" x="348.828125"/>
     </g>
    </g>
   </g>
   <g id="matplotlib.axis_2">
    <g id="ytick_1">
     <g id="line2d_8">
      <defs>
       <path id="m367dd36980" d="M 0 0 
L -3.5 0 
" style="stroke: #000000; stroke-width: 0.8"/>
      </defs>
      <g>
       <use xlink:href="#m367dd36980" x="57.6" y="276.739659" style="stroke: #000000; stroke-width: 0.8"/>
      </g>
     </g>
     <g id="text_9">
      <!-- −250 -->
      <g transform="translate(23.132812 280.538878) scale(0.1 -0.1)">
       <defs>
        <path id="DejaVuSans-2212" d="M 678 2272 
L 4684 2272 
L 4684 1741 
L 678 1741 
L 678 2272 
z
" transform="scale(0.015625)"/>
       </defs>
       <use xlink:href="#DejaVuSans-2212"/>
       <use xlink:href="#DejaVuSans-32" x="83.789062"/>
       <use xlink:href="#DejaVuSans-35" x="147.412109"/>
       <use xlink:href="#DejaVuSans-30" x="211.035156"/>
      </g>
     </g>
    </g>
    <g id="ytick_2">
     <g id="line2d_9">
      <g>
       <use xlink:href="#m367dd36980" x="57.6" y="236.869066" style="stroke: #000000; stroke-width: 0.8"/>
      </g>
     </g>
     <g id="text_10">
      <!-- −200 -->
      <g transform="translate(23.132812 240.668284) scale(0.1 -0.1)">
       <use xlink:href="#DejaVuSans-2212"/>
       <use xlink:href="#DejaVuSans-32" x="83.789062"/>
       <use xlink:href="#DejaVuSans-30" x="147.412109"/>
       <use xlink:href="#DejaVuSans-30" x="211.035156"/>
      </g>
     </g>
    </g>
    <g id="ytick_3">
     <g id="line2d_10">
      <g>
       <use xlink:href="#m367dd36980" x="57.6" y="196.998472" style="stroke: #000000; stroke-width: 0.8"/>
      </g>
     </g>
     <g id="text_11">
      <!-- −150 -->
      <g transform="translate(23.132812 200.797691) scale(0.1 -0.1)">
       <use xlink:href="#DejaVuSans-2212"/>
       <use xlink:href="#DejaVuSans-31" x="83.789062"/>
       <use xlink:href="#DejaVuSans-35" x="147.412109"/>
       <use xlink:href="#DejaVuSans-30" x="211.035156"/>
      </g>
     </g>
    </g>
    <g id="ytick_4">
     <g id="line2d_11">
      <g>
       <use xlink:href="#m367dd36980" x="57.6" y="157.127879" style="stroke: #000000; stroke-width: 0.8"/>
      </g>
     </g>
     <g id="text_12">
      <!-- −100 -->
      <g transform="translate(23.132812 160.927098) scale(0.1 -0.1)">
       <use xlink:href="#DejaVuSans-2212"/>
       <use xlink:href="#DejaVuSans-31" x="83.789062"/>
       <use xlink:href="#DejaVuSans-30" x="147.412109"/>
       <use xlink:href="#DejaVuSans-30" x="211.035156"/>
      </g>
     </g>
    </g>
    <g id="ytick_5">
     <g id="line2d_12">
      <g>
       <use xlink:href="#m367dd36980" x="57.6" y="117.257286" style="stroke: #000000; stroke-width: 0.8"/>
      </g>
     </g>
     <g id="text_13">
      <!-- −50 -->
      <g transform="translate(29.495313 121.056504) scale(0.1 -0.1)">
       <use xlink:href="#DejaVuSans-2212"/>
       <use xlink:href="#DejaVuSans-35" x="83.789062"/>
       <use xlink:href="#DejaVuSans-30" x="147.412109"/>
      </g>
     </g>
    </g>
    <g id="ytick_6">
     <g id="line2d_13">
      <g>
       <use xlink:href="#m367dd36980" x="57.6" y="77.386692" style="stroke: #000000; stroke-width: 0.8"/>
      </g>
     </g>
     <g id="text_14">
      <!-- 0 -->
      <g transform="translate(44.2375 81.185911) scale(0.1 -0.1)">
       <use xlink:href="#DejaVuSans-30"/>
      </g>
     </g>
    </g>
    <g id="text_15">
     <!-- position [mm] -->
     <g transform="translate(17.053125 209.563938) rotate(-90) scale(0.1 -0.1)">
      <defs>
       <path id="DejaVuSans-70" d="M 1159 525 
L 1159 -1331 
L 581 -1331 
L 581 3500 
L 1159 3500 
L 1159 2969 
Q 1341 3281 1617 3432 
Q 1894 3584 2278 3584 
Q 2916 3584 3314 3078 
Q 3713 2572 3713 1747 
Q 3713 922 3314 415 
Q 2916 -91 2278 -91 
Q 1894 -91 1617 61 
Q 1341 213 1159 525 
z
M 3116 1747 
Q 3116 2381 2855 2742 
Q 2594 3103 2138 3103 
Q 1681 3103 1420 2742 
Q 1159 2381 1159 1747 
Q 1159 1113 1420 752 
Q 1681 391 2138 391 
Q 2594 391 2855 752 
Q 3116 1113 3116 1747 
z
" transform="scale(0.015625)"/>
       <path id="DejaVuSans-6f" d="M 1959 3097 
Q 1497 3097 1228 2736 
Q 959 2375 959 1747 
Q 959 1119 1226 758 
Q 1494 397 1959 397 
Q 2419 397 2687 759 
Q 2956 1122 2956 1747 
Q 2956 2369 2687 2733 
Q 2419 3097 1959 3097 
z
M 1959 3584 
Q 2709 3584 3137 3096 
Q 3566 2609 3566 1747 
Q 3566 888 3137 398 
Q 2709 -91 1959 -91 
Q 1206 -91 779 398 
Q 353 888 353 1747 
Q 353 2609 779 3096 
Q 1206 3584 1959 3584 
z
" transform="scale(0.015625)"/>
       <path id="DejaVuSans-6e" d="M 3513 2113 
L 3513 0 
L 2938 0 
L 2938 2094 
Q 2938 2591 2744 2837 
Q 2550 3084 2163 3084 
Q 1697 3084 1428 2787 
Q 1159 2491 1159 1978 
L 1159 0 
L 581 0 
L 581 3500 
L 1159 3500 
L 1159 2956 
Q 1366 3272 1645 3428 
Q 1925 3584 2291 3584 
Q 2894 3584 3203 3211 
Q 3513 2838 3513 2113 
z
" transform="scale(0.015625)"/>
      </defs>
      <use xlink:href="#DejaVuSans-70"/>
      <use xlink:href="#DejaVuSans-6f" x="63.476562"/>
      <use xlink:href="#DejaVuSans-73" x="124.658203"/>
      <use xlink:href="#DejaVuSans-69" x="176.757812"/>
      <use xlink:href="#DejaVuSans-74" x="204.541016"/>
      <use xlink:href="#DejaVuSans-69" x="243.75"/>
      <use xlink:href="#DejaVuSans-6f" x="271.533203"/>
      <use xlink:href="#DejaVuSans-6e" x="332.714844"/>
      <use xlink:href="#DejaVuSans-20" x="396.09375"/>
      <use xlink:href="#DejaVuSans-5b" x="427.880859"/>
      <use xlink:href="#DejaVuSans-6d" x="466.894531"/>
      <use xlink:href="#DejaVuSans-6d" x="564.306641"/>
      <use xlink:href="#DejaVuSans-5d" x="661.71875"/>
     </g>
    </g>
   </g>
   <g id="line2d_14">
    <path d="M 73.832727 292.397519 
L 74.908463 292.397519 
L 75.120794 295.488 
L 77.49543 295.488 
L 77.709927 293.940798 
L 78.142171 293.940798 
L 78.361002 292.397519 
L 78.570083 292.397519 
L 78.78783 290.858147 
L 79.001244 291.135463 
L 79.218991 291.135463 
L 79.433488 289.59779 
L 79.863566 289.59779 
L 80.079146 288.06396 
L 80.294727 288.06396 
L 80.509224 286.533902 
L 80.940385 286.533902 
L 81.155966 285.007608 
L 81.587127 285.007608 
L 81.802707 283.485022 
L 82.449449 283.485022 
L 82.663946 281.966104 
L 83.305271 281.966104 
L 83.526268 280.450814 
L 84.597671 280.450814 
L 84.812168 278.939112 
L 85.675574 278.939112 
L 85.891154 277.430959 
L 86.752393 277.430959 
L 86.966891 277.69129 
L 87.186804 277.430959 
L 87.402385 276.184612 
L 87.613632 275.926331 
L 87.829213 276.184612 
L 88.475954 276.184612 
L 88.694785 274.681403 
L 89.768354 274.681403 
L 89.988268 273.181655 
L 90.416179 273.181655 
L 90.630676 271.685312 
L 91.709662 271.685312 
L 91.925243 270.444411 
L 92.140824 270.444411 
L 92.356404 270.192357 
L 92.573068 268.952781 
L 93.21981 268.952781 
L 93.43539 267.464459 
L 94.297712 267.464459 
L 94.512209 265.979423 
L 95.591195 265.979423 
L 95.806776 264.497632 
L 96.453518 264.497632 
L 96.673431 263.019047 
L 97.744834 263.019047 
L 97.960415 261.543652 
L 98.606073 261.543652 
L 98.822737 260.071375 
L 99.683976 260.071375 
L 99.899556 258.602231 
L 100.760795 258.602231 
L 100.977459 257.136149 
L 102.053195 257.136149 
L 102.268776 255.673098 
L 102.915517 255.673098 
L 103.128931 254.445227 
L 103.346678 254.445227 
L 103.561176 254.213053 
L 103.776756 254.213053 
L 103.99342 252.75599 
L 104.207917 252.986251 
L 104.635828 252.986251 
L 105.069156 251.530208 
L 105.499234 251.530208 
L 105.710481 250.077093 
L 106.360473 250.077093 
L 106.57172 248.626856 
L 107.432959 248.626856 
L 107.655039 247.179473 
L 108.299614 247.179473 
L 108.514111 245.734914 
L 109.167353 245.734914 
L 109.377517 244.293146 
L 109.809761 244.293146 
L 110.019925 244.513694 
L 110.235506 244.293146 
L 110.450003 244.293146 
L 110.6645 242.854128 
L 110.884414 243.072818 
L 111.099995 242.854128 
L 111.316658 241.634662 
L 112.173564 241.634662 
L 112.389145 240.199217 
L 113.256883 240.199217 
L 113.470297 238.766459 
L 114.118122 238.766459 
L 114.333703 238.553335 
L 114.549283 237.125035 
L 114.763781 237.336325 
L 114.980444 237.336325 
L 115.197108 235.908814 
L 116.057264 235.908814 
L 116.272844 234.483879 
L 116.272844 234.483879 
L 117.130833 234.483879 
L 117.344247 233.061496 
L 117.995322 233.061496 
L 118.210903 231.64164 
L 119.285555 231.64164 
L 119.504386 230.22428 
L 120.150044 230.22428 
L 120.366708 228.809393 
L 121.227947 228.809393 
L 121.442444 227.396921 
L 121.873605 227.396921 
L 122.089186 226.185158 
L 122.51818 226.185158 
L 122.734844 225.986866 
L 122.946091 225.986866 
L 123.161672 224.775693 
L 123.808413 224.775693 
L 124.023994 223.368596 
L 124.668569 223.368596 
L 124.884149 221.963811 
L 125.530891 221.963811 
L 125.746472 220.561331 
L 126.393213 220.561331 
L 126.60771 219.161124 
L 127.685613 219.161124 
L 127.90011 217.763165 
L 128.330188 217.763165 
L 128.550102 216.367415 
L 128.97693 216.367415 
L 129.194677 216.554711 
L 129.409174 216.554711 
L 129.624755 215.1594 
L 129.841419 214.97385 
L 130.056999 215.1594 
L 130.48816 215.1594 
L 130.703741 213.76625 
L 131.352649 213.76625 
L 131.567146 212.375252 
L 132.217138 212.375252 
L 132.428385 210.98636 
L 133.290707 210.98636 
L 133.510621 209.599557 
L 134.157363 209.599557 
L 134.36536 208.214812 
L 135.232015 208.214812 
L 135.445429 206.832092 
L 136.091088 206.832092 
L 136.301252 205.451373 
L 137.170074 205.451373 
L 137.384571 204.07264 
L 138.024813 204.07264 
L 138.240393 202.695853 
L 139.103799 202.695853 
L 139.318296 201.320995 
L 139.963954 201.320995 
L 140.179535 199.948043 
L 140.826276 199.948043 
L 141.045107 198.576957 
L 141.256354 198.576957 
L 141.471935 198.74317 
L 141.687515 198.74317 
L 141.904179 198.576957 
L 142.118676 198.576957 
L 142.33859 197.207713 
L 142.556337 197.207713 
L 142.770834 197.372243 
L 142.985332 196.003159 
L 143.420826 196.003159 
L 143.636407 194.635861 
L 143.847654 194.474688 
L 144.493312 194.635861 
L 144.709976 194.635861 
L 144.924473 193.270341 
L 145.356718 193.270341 
L 145.571215 191.906591 
L 146.433537 191.906591 
L 146.649118 190.544548 
L 147.294776 190.544548 
L 147.510356 189.184203 
L 148.156015 189.184203 
L 148.372679 187.825549 
L 149.017254 187.825549 
L 149.228501 186.468537 
L 149.874159 186.468537 
L 150.08974 185.113152 
L 150.736481 185.113152 
L 150.957478 183.759362 
L 151.820884 183.759362 
L 152.035381 182.554513 
L 152.250962 182.407159 
L 152.681039 182.407159 
L 152.89662 181.056503 
L 153.111117 181.202222 
L 153.547695 181.202222 
L 153.758942 181.056503 
L 153.974523 179.851462 
L 154.40785 179.851462 
L 154.621264 178.502209 
L 155.48142 178.502209 
L 155.697 177.154439 
L 156.131411 177.154439 
L 156.344825 175.808137 
L 157.419478 175.808137 
L 157.636142 174.463254 
L 158.06622 174.463254 
L 158.2818 173.119791 
L 159.148456 173.119791 
L 159.35862 171.777722 
L 159.790864 171.777722 
L 160.006445 170.43701 
L 161.081097 170.43701 
L 161.294511 169.097637 
L 161.728922 169.097637 
L 161.94017 167.75958 
L 163.021322 167.75958 
L 163.232569 166.422815 
L 163.662647 166.422815 
L 163.879311 165.087325 
L 164.739467 165.087325 
L 164.955047 163.753088 
L 165.601789 163.753088 
L 165.816286 162.420054 
L 166.678608 162.420054 
L 166.898522 161.088241 
L 167.32535 161.088241 
L 167.539847 159.757592 
L 168.621 159.757592 
L 168.835497 158.428099 
L 169.052161 158.428099 
L 169.267741 157.099738 
L 170.12898 157.099738 
L 170.344561 157.2175 
L 170.560141 155.772486 
L 170.991302 155.772486 
L 171.20255 154.446318 
L 171.638044 154.446318 
L 172.065955 154.560938 
L 172.286952 154.446318 
L 172.497116 153.234268 
L 172.712697 153.121211 
L 172.928277 151.797149 
L 173.582602 151.797149 
L 174.011597 151.908643 
L 174.22501 150.584038 
L 174.439508 150.584038 
L 174.655088 149.152046 
L 175.088416 149.260422 
L 175.732991 149.152046 
L 175.951821 147.937787 
L 176.378649 147.937787 
L 176.59423 146.510842 
L 176.80981 146.616109 
L 177.024308 146.510842 
L 177.455469 146.616109 
L 177.672132 146.616109 
L 177.88663 145.295355 
L 178.322124 145.295355 
L 178.536621 143.975519 
L 179.393527 143.975519 
L 179.610191 142.65656 
L 180.040268 142.65656 
L 180.255849 141.33847 
L 181.332668 141.33847 
L 181.758413 140.021218 
L 181.758413 140.021218 
L 181.978327 140.021218 
L 182.409488 138.704786 
L 183.056229 138.704786 
L 183.272893 137.389152 
L 183.702971 137.389152 
L 183.918552 136.0743 
L 184.780874 136.0743 
L 184.999704 134.760189 
L 185.426532 134.760189 
L 185.642113 133.44682 
L 186.291021 133.44682 
L 186.504435 132.13416 
L 186.934513 132.13416 
L 187.147926 130.822187 
L 188.011332 130.822187 
L 188.225829 129.510883 
L 188.873654 129.510883 
L 189.089235 128.200225 
L 189.950473 128.200225 
L 190.164971 126.890189 
L 190.596132 126.890189 
L 190.811712 125.580751 
L 191.677284 125.580751 
L 191.886365 124.271895 
L 192.535273 124.271895 
L 192.746521 122.963597 
L 193.608843 122.963597 
L 193.83309 121.655841 
L 194.474415 121.655841 
L 194.691079 120.348596 
L 195.552318 120.348596 
L 195.767898 119.041854 
L 196.413556 119.041854 
L 196.629137 117.735573 
L 197.279129 117.735573 
L 197.494709 116.429756 
L 198.351615 116.429756 
L 198.569362 115.12436 
L 198.99944 115.12436 
L 199.21177 113.81938 
L 199.860678 113.81938 
L 200.071926 112.514782 
L 200.718667 112.514782 
L 200.934248 111.210551 
L 201.579906 111.210551 
L 201.794403 109.906663 
L 202.656726 109.906663 
L 202.871223 108.60311 
L 203.516881 108.60311 
L 203.733545 107.299852 
L 204.379203 107.299852 
L 204.594784 105.996873 
L 205.245859 105.996873 
L 205.456023 104.694165 
L 206.102764 104.694165 
L 206.322678 103.391689 
L 206.96617 103.391689 
L 207.182834 102.089436 
L 208.045156 102.089436 
L 208.26182 100.787382 
L 208.692981 100.787382 
L 208.907478 99.485495 
L 209.555303 99.485495 
L 209.7698 98.183768 
L 210.632122 98.183768 
L 210.848786 96.882177 
L 211.497694 96.882177 
L 211.710025 95.580705 
L 212.35785 95.580705 
L 212.569097 94.279321 
L 213.432503 94.279321 
L 213.649167 92.978008 
L 214.289408 92.978008 
L 214.509322 91.676744 
L 215.150647 91.676744 
L 215.366228 90.375511 
L 216.012969 90.375511 
L 216.233966 89.074278 
L 216.880708 89.074278 
L 217.099539 87.773046 
L 217.740864 87.773046 
L 217.957527 86.471773 
L 218.818766 86.471773 
L 219.03543 85.170445 
L 219.681088 85.170445 
L 219.895586 83.869045 
L 220.546661 83.869045 
L 220.973488 82.567549 
L 221.62023 82.567549 
L 221.834727 81.265926 
L 222.481469 81.265926 
L 222.697049 79.964175 
L 223.127127 79.964175 
L 223.342708 78.662256 
L 223.988366 78.662256 
L 224.207196 77.360163 
L 224.851771 77.360163 
L 225.067352 76.057869 
L 225.710844 76.057869 
L 225.927508 74.755345 
L 226.78983 74.755345 
L 227.009744 73.452581 
L 227.437655 73.452581 
L 227.653235 72.149554 
L 228.728971 72.149554 
L 228.944552 70.846241 
L 229.375713 70.846241 
L 229.594543 69.542616 
L 230.454699 69.542616 
L 230.669196 68.238664 
L 231.101441 68.238664 
L 231.315938 66.934361 
L 231.960513 66.934361 
L 232.176093 65.629692 
L 232.822835 65.629692 
L 233.037332 64.324624 
L 234.330815 64.324624 
L 234.547479 63.019149 
L 234.765226 63.019149 
L 234.976474 61.713235 
L 235.837713 61.713235 
L 236.05221 60.400552 
L 236.480121 60.400552 
L 236.696785 59.095205 
L 237.987018 59.095205 
L 238.206932 57.789347 
L 238.423596 57.789347 
L 238.639176 56.484813 
L 239.927243 56.482979 
L 240.142823 59.095205 
L 241.007312 59.095205 
L 241.222893 61.705429 
L 241.866384 61.713235 
L 242.079798 64.324624 
L 242.946454 64.324624 
L 243.158784 66.934361 
L 243.804443 66.934361 
L 244.020023 69.542616 
L 245.097926 69.542616 
L 245.31459 72.149554 
L 245.531254 70.846241 
L 246.61024 70.846241 
L 246.82582 73.452581 
L 248.764962 73.452581 
L 248.984876 76.057869 
L 250.704103 76.057869 
L 250.920767 78.662256 
L 252.857742 78.662256 
L 253.073323 81.265926 
L 254.366806 81.265926 
L 254.578053 83.869045 
L 256.303781 83.869045 
L 256.524778 86.471773 
L 257.807428 86.471773 
L 258.024092 89.074278 
L 259.751986 89.074278 
L 259.96865 91.676744 
L 261.474464 91.676744 
L 261.690044 94.279321 
L 263.194775 94.279321 
L 263.410355 96.882177 
L 265.132833 96.882177 
L 265.348414 99.485495 
L 266.63973 99.485495 
L 266.855311 102.089436 
L 268.370875 102.089436 
L 268.582122 104.694165 
L 270.308933 104.694165 
L 270.524513 107.299852 
L 272.03141 107.299852 
L 272.246991 109.906663 
L 273.969469 109.906663 
L 274.185049 112.514782 
L 275.695196 112.580944 
L 275.910777 115.12436 
L 277.413341 115.12436 
L 277.628921 117.735573 
L 279.134735 117.735573 
L 279.351399 120.348596 
L 281.072793 120.348596 
L 281.29379 122.963597 
L 283.014102 122.963597 
L 283.228599 125.580751 
L 284.740913 125.580751 
L 284.95541 128.200225 
L 286.467723 128.200225 
L 286.678971 130.822187 
L 288.406865 130.822187 
L 288.622446 133.44682 
L 290.128259 133.44682 
L 290.34384 136.0743 
L 291.85182 136.0743 
L 292.066318 138.704786 
L 293.575381 138.704786 
L 293.790962 141.33847 
L 295.517773 141.33847 
L 295.72902 143.975519 
L 297.238084 143.975519 
L 297.668162 146.616109 
L 299.177226 146.616109 
L 299.392806 149.260422 
L 300.678706 149.260422 
L 300.89862 151.908643 
L 301.108784 151.908643 
L 301.541028 151.797149 
L 301.971106 151.797149 
L 302.404434 151.908643 
L 302.621098 151.908643 
L 302.836678 154.446318 
L 304.340325 154.446318 
L 304.566739 157.099738 
L 306.070386 157.099738 
L 306.285967 159.757592 
L 308.011694 159.757592 
L 308.225108 162.420054 
L 309.948669 162.420054 
L 310.16425 165.087325 
L 311.886728 165.087325 
L 312.102308 167.75958 
L 313.610289 167.75958 
L 313.830202 170.43701 
L 315.545097 170.43701 
L 315.760677 173.119791 
L 317.267575 173.119791 
L 317.487488 175.808137 
L 319.206716 175.808137 
L 319.421213 178.502209 
L 320.500199 178.502209 
L 320.714697 178.359751 
L 320.929194 178.359751 
L 321.145858 178.502209 
L 321.361438 181.202222 
L 321.581352 181.056503 
L 321.791516 181.056503 
L 322.009263 181.202222 
L 322.225927 181.056503 
L 322.872669 181.056503 
L 323.084999 183.759362 
L 324.813977 183.759362 
L 325.027391 186.468537 
L 326.538621 186.468537 
L 326.755285 189.184203 
L 328.475596 189.184203 
L 328.691177 191.906591 
L 330.198074 191.906591 
L 330.414738 194.635861 
L 330.845899 194.635861 
L 331.060396 194.474688 
L 331.274893 194.635861 
L 332.138299 194.635861 
L 332.352796 197.207713 
L 333.864026 197.207713 
L 334.076357 199.948043 
L 335.801001 199.948043 
L 335.801001 199.948043 
L 336.229996 202.695853 
L 337.740143 202.695853 
L 337.95464 205.451373 
L 339.461537 205.451373 
L 339.679284 208.214812 
L 341.400679 208.214812 
L 341.616259 210.98636 
L 343.126406 210.98636 
L 343.33982 213.582446 
L 343.554317 213.76625 
L 344.201059 213.76625 
L 344.415556 213.582446 
L 344.627887 213.76625 
L 345.060131 213.76625 
L 345.060131 213.76625 
L 345.489126 216.367415 
L 345.70579 216.554711 
L 345.92137 216.367415 
L 346.788026 216.367415 
L 347.003606 216.554711 
L 347.21702 219.351944 
L 347.433684 219.161124 
L 348.941664 219.161124 
L 349.157245 221.963811 
L 350.884056 221.963811 
L 351.099636 224.775693 
L 351.957625 224.775693 
L 352.176456 224.579186 
L 352.388786 224.775693 
L 352.604367 224.579186 
L 352.816698 227.597008 
L 353.245692 227.597008 
L 353.462356 227.396921 
L 354.759089 227.396921 
L 354.969253 230.22428 
L 356.47615 230.22428 
L 356.691731 233.061496 
L 358.418542 233.061496 
L 358.630872 235.908814 
L 360.3566 235.908814 
L 360.57218 238.766459 
L 361.865664 238.766459 
L 362.082328 238.553335 
L 362.297908 238.766459 
L 362.514572 241.634662 
L 363.808055 241.634662 
L 364.021469 241.417854 
L 364.238133 241.634662 
L 364.453713 241.634662 
L 364.669294 244.293146 
L 364.888125 244.293146 
L 365.100455 244.513694 
L 365.320369 244.293146 
L 366.391772 244.293146 
L 366.603019 247.179473 
L 368.325497 247.179473 
L 368.542161 250.077093 
L 370.058808 250.077093 
L 370.270055 252.986251 
L 371.347958 252.986251 
L 371.562455 252.75599 
L 371.778035 252.986251 
L 371.993616 252.75599 
L 372.208113 252.75599 
L 372.423694 255.907202 
L 372.634941 255.673098 
L 373.070435 255.673098 
L 373.286016 255.907202 
L 373.501596 255.673098 
L 374.142921 255.673098 
L 374.357419 258.602231 
L 376.08098 258.602231 
L 376.295477 261.543652 
L 378.020121 261.543652 
L 378.241118 264.497632 
L 380.179176 264.497632 
L 380.39584 267.464459 
L 381.257079 267.464459 
L 381.47266 267.216432 
L 381.68499 267.216432 
L 381.903821 267.464459 
L 382.334982 267.464459 
L 382.550562 270.444411 
L 382.76506 270.444411 
L 382.982807 270.192357 
L 383.628465 270.192357 
L 383.847296 270.444411 
L 384.058543 270.192357 
L 384.275207 270.192357 
L 384.491871 273.181655 
L 386.425596 273.181655 
L 386.642259 276.184612 
L 387.290084 276.184612 
L 387.504582 275.926331 
L 387.716912 275.926331 
L 387.929243 276.184612 
L 388.144823 275.926331 
L 388.361487 275.926331 
L 388.579234 278.939112 
L 390.515126 278.939112 
L 390.73504 281.966104 
L 392.454268 281.966104 
L 392.669848 285.007608 
L 394.82782 285.007608 
L 395.043401 288.06396 
L 396.978209 288.06396 
L 397.193789 290.858147 
L 397.410453 291.135463 
L 397.410453 291.135463 
L 397.839448 291.135463 
L 398.057195 290.858147 
L 398.487273 290.858147 
L 398.487273 290.858147 
" clip-path="url(#pc6b1a99588)" style="fill: none; stroke: #1f77b4; stroke-width: 1.5; stroke-linecap: square"/>
   </g>
   <g id="line2d_15">
    <path d="M 73.832727 291.918992 
L 74.047224 291.918992 
L 74.262805 291.736839 
L 74.477302 291.736839 
L 74.693966 292.666183 
L 74.908463 292.666183 
L 75.120794 293.596898 
L 75.339624 293.596898 
L 75.556288 294.529032 
L 76.20303 294.529032 
L 76.417527 295.462586 
L 76.630941 295.462586 
L 76.847605 295.278727 
L 77.709927 295.278727 
L 77.925508 294.345755 
L 78.570083 294.345755 
L 78.78783 293.414195 
L 79.001244 293.414195 
L 79.218991 292.484054 
L 79.433488 292.484054 
L 79.647985 290.627958 
L 79.863566 290.627958 
L 80.079146 289.882354 
L 80.294727 289.882354 
L 80.509224 288.957197 
L 80.725888 288.957197 
L 80.940385 288.033419 
L 81.155966 288.033419 
L 81.371546 286.368622 
L 81.587127 286.368622 
L 81.802707 285.448369 
L 82.018288 285.448369 
L 82.449449 283.789442 
L 83.094024 283.789442 
L 83.305271 282.872681 
L 83.526268 282.872681 
L 83.739682 281.957276 
L 83.952013 281.957276 
L 84.16651 281.043219 
L 84.812168 281.043219 
L 85.028832 280.130493 
L 85.675574 280.130493 
L 85.891154 279.219107 
L 86.537896 279.219107 
L 86.752393 278.309061 
L 87.402385 278.309061 
L 87.829213 276.666313 
L 88.906032 276.666313 
L 89.122696 275.75964 
L 89.337193 275.75964 
L 89.553857 274.854282 
L 90.200599 274.854282 
L 90.416179 273.950224 
L 90.630676 273.950224 
L 90.846257 273.219109 
L 91.060754 273.219109 
L 91.283918 272.317069 
L 91.925243 272.317069 
L 92.140824 271.416329 
L 92.356404 271.416329 
L 92.573068 270.516872 
L 92.788648 270.516872 
L 93.004229 269.618707 
L 93.43539 269.618707 
L 93.650971 268.72181 
L 93.866551 268.72181 
L 94.082132 267.826205 
L 94.297712 267.826205 
L 94.512209 267.994905 
L 94.72779 267.994905 
L 94.945537 267.099962 
L 95.158951 267.099962 
L 95.377782 266.206311 
L 95.591195 266.206311 
L 95.806776 265.313911 
L 96.453518 265.313911 
L 96.673431 264.422755 
L 97.31584 264.422755 
L 97.529254 263.699224 
L 97.744834 263.699224 
L 97.960415 262.809982 
L 98.174912 262.809982 
L 98.390493 261.922 
L 98.822737 261.922 
L 99.041567 261.035246 
L 99.683976 261.035246 
L 99.899556 260.149728 
L 100.114054 260.149728 
L 100.330717 259.265438 
L 100.977459 259.265438 
L 101.191956 258.382369 
L 101.41187 258.382369 
L 101.623117 257.66335 
L 102.268776 257.66335 
L 102.483273 256.782122 
L 102.699937 256.782122 
L 102.915517 255.902123 
L 103.128931 255.902123 
L 103.346678 255.023311 
L 103.99342 255.023311 
L 104.207917 254.145711 
L 104.423498 254.145711 
L 104.635828 253.2693 
L 105.069156 252.394077 
L 105.28582 252.394077 
L 105.499234 251.520057 
L 105.710481 251.520057 
L 105.924978 251.679348 
L 106.143809 251.679348 
L 106.360473 250.805919 
L 106.57172 250.805919 
L 106.788384 249.933646 
L 107.432959 249.933646 
L 107.655039 249.06257 
L 107.87062 249.06257 
L 108.08295 248.192641 
L 108.730775 248.192641 
L 108.947439 247.323893 
L 109.167353 247.323893 
L 109.377517 246.456293 
L 109.593097 246.456293 
L 109.809761 245.745623 
L 110.235506 245.745623 
L 110.450003 244.879738 
L 110.6645 244.879738 
L 110.884414 244.014992 
L 111.099995 244.014992 
L 111.316658 243.151387 
L 111.959067 243.151387 
L 112.173564 242.288923 
L 112.389145 242.288923 
L 112.610142 241.427582 
L 113.256883 241.427582 
L 113.470297 240.567374 
L 113.682628 240.567374 
L 113.898208 239.86054 
L 114.549283 239.86054 
L 114.763781 239.001975 
L 114.980444 239.001975 
L 115.197108 238.144534 
L 115.409439 238.144534 
L 115.620686 237.288177 
L 116.272844 237.288177 
L 116.272844 236.432929 
L 116.701839 235.578773 
L 117.344247 235.578773 
L 117.565244 234.72571 
L 117.779741 234.72571 
L 117.995322 233.873747 
L 118.210903 233.873747 
L 118.430816 233.022837 
L 118.642064 233.022837 
L 118.852228 232.320636 
L 119.504386 232.320636 
L 119.723216 231.471321 
L 119.934464 231.471321 
L 120.150044 230.623058 
L 120.796786 230.623058 
L 121.227947 228.929722 
L 121.442444 228.929722 
L 121.658025 228.084641 
L 122.301516 228.084641 
L 122.51818 227.240612 
L 122.734844 227.240612 
L 122.946091 226.397604 
L 123.161672 226.397604 
L 123.377252 225.555649 
L 124.023994 225.555649 
L 124.240658 224.714723 
L 124.454072 224.714723 
L 124.668569 224.01725 
L 124.884149 224.01725 
L 125.098647 223.177799 
L 125.746472 223.177799 
L 125.962052 222.339376 
L 126.177633 222.339376 
L 126.393213 221.501982 
L 126.60771 221.501982 
L 126.822208 220.665577 
L 127.253369 220.665577 
L 127.471116 219.830184 
L 127.685613 219.830184 
L 127.90011 218.995788 
L 128.115691 218.995788 
L 128.330188 218.301354 
L 128.97693 218.301354 
L 129.194677 217.46837 
L 129.409174 217.46837 
L 129.624755 216.636382 
L 129.841419 216.636382 
L 130.056999 215.805375 
L 130.274746 215.805375 
L 130.48816 214.975341 
L 131.131652 214.975341 
L 131.352649 214.146272 
L 131.567146 214.146272 
L 131.782727 213.318192 
L 131.997224 213.318192 
L 132.217138 212.491053 
L 132.639632 212.491053 
L 132.855213 211.79984 
L 133.075127 211.79984 
L 133.290707 210.974056 
L 133.510621 210.974056 
L 133.721868 210.149229 
L 134.36536 210.149229 
L 134.578774 209.325335 
L 134.801938 209.325335 
L 135.017518 208.502398 
L 135.232015 208.502398 
L 135.445429 207.680386 
L 135.662093 207.680386 
L 135.87659 206.859299 
L 136.524415 206.859299 
L 136.738913 206.039137 
L 136.954493 206.039137 
L 137.170074 205.219892 
L 137.384571 205.219892 
L 137.595818 204.531981 
L 138.024813 204.531981 
L 138.240393 203.714012 
L 138.455974 203.714012 
L 138.675887 202.896952 
L 139.318296 202.896952 
L 139.532793 202.080801 
L 139.749457 202.080801 
L 139.963954 201.265535 
L 140.179535 201.265535 
L 140.395115 200.451178 
L 141.045107 200.451178 
L 141.256354 199.63769 
L 141.471935 199.63769 
L 141.687515 198.952099 
L 141.904179 198.952099 
L 142.118676 198.13984 
L 142.33859 198.13984 
L 142.556337 197.328441 
L 142.770834 197.328441 
L 142.985332 196.51792 
L 143.420826 196.51792 
L 143.636407 195.70826 
L 143.847654 195.70826 
L 144.273398 194.899461 
L 144.493312 194.899461 
L 144.709976 194.091531 
L 144.924473 194.091531 
L 145.141137 193.284439 
L 145.786795 193.284439 
L 146.002376 192.4782 
L 146.217956 192.4782 
L 146.433537 191.672798 
L 146.649118 191.672798 
L 147.084612 191.795328 
L 147.294776 190.185951 
L 147.941518 190.185951 
L 148.156015 189.382511 
L 148.372679 189.382511 
L 148.587176 188.579884 
L 149.228501 188.579884 
L 149.658579 186.977118 
L 149.874159 186.977118 
L 150.08974 186.176939 
L 150.30857 186.176939 
L 150.736481 186.296105 
L 150.957478 185.496205 
L 151.173059 185.496205 
L 151.38864 184.697094 
L 151.606387 184.697094 
L 151.820884 183.898798 
L 152.035381 183.898798 
L 152.250962 183.101282 
L 152.465459 183.101282 
L 152.681039 182.304564 
L 153.328864 182.304564 
L 153.547695 181.508627 
L 153.758942 181.508627 
L 153.974523 180.713472 
L 154.621264 180.713472 
L 154.840095 179.125482 
L 155.266923 179.125482 
L 155.48142 178.332639 
L 155.697 178.332639 
L 155.912581 177.540562 
L 156.131411 177.540562 
L 156.559323 177.654233 
L 156.77382 176.862387 
L 156.990484 176.862387 
L 157.204981 176.071283 
L 157.851722 176.071283 
L 158.06622 174.491323 
L 158.712961 174.491323 
L 158.928542 173.702451 
L 159.148456 173.702451 
L 159.35862 172.914321 
L 159.5742 172.914321 
L 159.790864 172.237295 
L 160.006445 172.237295 
L 160.220942 171.45009 
L 160.648853 171.45009 
L 160.865517 170.663611 
L 161.081097 170.663611 
L 161.294511 169.877857 
L 161.510092 169.877857 
L 161.728922 169.092813 
L 162.372414 169.092813 
L 162.586911 168.308479 
L 162.804658 168.308479 
L 163.021322 167.524854 
L 163.232569 167.524854 
L 163.44815 166.741931 
L 163.662647 166.741931 
L 163.879311 165.959702 
L 164.092725 165.959702 
L 164.313722 165.178174 
L 164.955047 165.178174 
L 165.170628 164.397325 
L 165.386208 164.397325 
L 165.601789 163.617169 
L 166.031867 163.722132 
L 166.24853 162.942136 
L 166.464111 162.942136 
L 166.678608 162.162801 
L 166.898522 162.162801 
L 167.109769 161.384153 
L 167.32535 161.384153 
L 167.539847 160.606166 
L 168.188755 160.606166 
L 168.404336 159.828841 
L 168.621 159.828841 
L 168.835497 159.052177 
L 169.052161 159.052177 
L 169.267741 158.276176 
L 169.483322 158.276176 
L 169.702152 157.500821 
L 170.344561 157.500821 
L 170.560141 156.726103 
L 170.776805 156.726103 
L 170.991302 155.952031 
L 171.20255 155.952031 
L 171.420297 155.278226 
L 171.851458 155.278226 
L 172.065955 154.504912 
L 172.286952 154.504912 
L 172.497116 153.732236 
L 172.712697 153.732236 
L 172.928277 152.960182 
L 173.150358 152.960182 
L 173.367022 152.188742 
L 173.582602 152.188742 
L 173.793849 151.417924 
L 174.011597 151.417924 
L 174.22501 150.647727 
L 174.870669 150.647727 
L 175.088416 149.878129 
L 175.29858 149.878129 
L 175.51741 149.109137 
L 175.732991 149.109137 
L 175.951821 148.340751 
L 176.59423 148.340751 
L 176.80981 146.805757 
L 177.244221 146.805757 
L 177.455469 146.039149 
L 177.672132 146.039149 
L 177.88663 145.366437 
L 178.536621 145.366437 
L 178.748952 144.600483 
L 178.963449 144.600483 
L 179.174696 143.835103 
L 179.393527 143.835103 
L 179.610191 143.070297 
L 179.825771 143.070297 
L 180.040268 142.306058 
L 180.255849 142.306058 
L 180.47143 141.542384 
L 181.118171 141.542384 
L 181.332668 140.779269 
L 181.758413 140.779269 
L 181.758413 140.016712 
L 181.978327 140.016712 
L 182.409488 139.254705 
L 182.629402 139.254705 
L 183.056229 137.732335 
L 183.702971 137.732335 
L 183.918552 136.971962 
L 184.134132 136.971962 
L 184.348629 136.212125 
L 184.565293 136.212125 
L 184.780874 135.539898 
L 184.999704 135.539898 
L 185.210951 134.780627 
L 185.858776 134.780627 
L 186.076524 134.021865 
L 186.291021 134.021865 
L 186.504435 133.26363 
L 186.720015 133.26363 
L 186.934513 132.505906 
L 187.147926 132.505906 
L 187.36784 131.748699 
L 188.011332 131.748699 
L 188.442493 130.235802 
L 188.658074 130.235802 
L 188.873654 129.48011 
L 189.089235 129.48011 
L 189.305898 128.724906 
L 189.521479 128.724906 
L 189.735976 127.970203 
L 190.380551 127.970203 
L 190.596132 127.215979 
L 190.811712 127.215979 
L 191.028376 126.462241 
L 191.24504 126.462241 
L 191.460621 125.70899 
L 191.677284 125.70899 
L 191.886365 124.95621 
L 192.535273 124.95621 
L 192.746521 124.203899 
L 192.959934 124.203899 
L 193.178765 123.45206 
L 193.393262 123.45206 
L 193.608843 122.70069 
L 194.043254 122.70069 
L 194.259918 122.028241 
L 194.474415 122.028241 
L 194.691079 121.277294 
L 194.906659 121.277294 
L 195.121156 120.526802 
L 195.767898 120.526802 
L 195.983479 119.776756 
L 196.202309 119.776756 
L 196.413556 119.027157 
L 196.629137 119.027157 
L 196.844717 118.277997 
L 197.059215 118.277997 
L 197.279129 117.529275 
L 197.494709 117.529275 
L 197.70704 116.780992 
L 197.920454 116.780992 
L 198.137117 116.033139 
L 198.351615 116.033139 
L 198.569362 115.285701 
L 199.21177 115.285701 
L 199.642931 113.792109 
L 199.860678 113.792109 
L 200.071926 113.04593 
L 200.718667 113.04593 
L 200.934248 112.300167 
L 201.149828 112.300167 
L 201.364326 111.554802 
L 201.579906 111.554802 
L 201.794403 110.809852 
L 202.009984 110.809852 
L 202.225564 110.065293 
L 202.441145 110.065293 
L 202.656726 109.321132 
L 202.871223 109.321132 
L 203.086803 108.577362 
L 203.733545 108.577362 
L 203.953459 107.833983 
L 204.163623 107.833983 
L 204.379203 107.090986 
L 204.594784 107.090986 
L 205.030278 105.606126 
L 205.672687 105.606126 
L 205.887184 104.864261 
L 206.102764 104.864261 
L 206.322678 104.122756 
L 206.538259 104.122756 
L 206.751673 103.381626 
L 206.96617 103.381626 
L 207.182834 102.640854 
L 207.399497 102.640854 
L 207.616161 101.900441 
L 207.834992 101.900441 
L 208.045156 101.160371 
L 208.692981 101.225559 
L 208.907478 100.48537 
L 209.133892 100.48537 
L 209.338639 99.745531 
L 209.555303 99.745531 
L 209.7698 99.006027 
L 209.986464 99.006027 
L 210.419792 97.528048 
L 210.632122 97.528048 
L 210.848786 96.789557 
L 211.497694 96.789557 
L 211.710025 96.051393 
L 211.927772 96.051393 
L 212.141186 95.313548 
L 212.787928 95.313548 
L 213.003508 94.57603 
L 213.223422 94.57603 
L 213.432503 93.83883 
L 213.649167 93.83883 
L 213.864747 93.101942 
L 214.074911 93.101942 
L 214.289408 92.365365 
L 214.509322 92.365365 
L 214.719486 91.62909 
L 214.935067 91.62909 
L 215.150647 90.893119 
L 215.366228 90.893119 
L 215.581808 90.157451 
L 215.801722 90.157451 
L 216.012969 89.42207 
L 216.448464 89.42207 
L 216.665127 88.686983 
L 216.880708 88.686983 
L 217.099539 87.952184 
L 217.310786 87.952184 
L 217.526366 87.217672 
L 217.740864 87.217672 
L 217.957527 86.483439 
L 218.604269 86.483439 
L 218.818766 85.749478 
L 219.03543 85.749478 
L 219.249927 85.015795 
L 219.468758 85.015795 
L 219.681088 84.282383 
L 219.895586 84.282383 
L 220.110083 83.549227 
L 220.973488 83.549227 
L 221.189069 82.083711 
L 221.62023 82.083711 
L 221.834727 81.351337 
L 222.050308 81.351337 
L 222.265888 80.619217 
L 222.481469 80.619217 
L 222.697049 79.887344 
L 222.91263 79.887344 
L 223.127127 79.155711 
L 223.773869 79.155711 
L 223.988366 78.424317 
L 224.207196 78.424317 
L 224.424944 77.693162 
L 224.636191 77.693162 
L 224.851771 76.962238 
L 225.067352 76.962238 
L 225.281849 76.231554 
L 225.49418 76.231554 
L 225.710844 75.501084 
L 225.927508 75.501084 
L 226.144171 74.770839 
L 226.144171 74.770839 
L 226.78983 74.770839 
L 227.009744 74.040816 
L 227.222074 74.040816 
L 227.653235 72.581409 
L 227.868816 72.581409 
L 228.083313 71.852016 
L 228.728971 71.852016 
L 228.944552 70.393845 
L 229.594543 70.393845 
L 229.806874 69.665058 
L 230.022454 69.665058 
L 230.238035 68.936463 
L 230.454699 68.936463 
L 230.669196 68.208059 
L 230.88911 68.208059 
L 231.101441 67.479847 
L 231.315938 67.479847 
L 231.531518 66.75181 
L 231.746015 66.75181 
L 231.960513 66.023956 
L 232.607254 66.023956 
L 233.037332 64.568775 
L 233.253996 64.568775 
L 233.471743 63.841432 
L 233.684074 63.841432 
L 233.899654 63.114264 
L 234.547479 63.114264 
L 234.765226 62.387248 
L 234.976474 62.387248 
L 235.193138 61.660399 
L 235.408718 61.660399 
L 235.622132 60.933701 
L 235.837713 60.933701 
L 236.05221 60.207156 
L 236.263457 60.207156 
L 236.480121 59.480753 
L 236.696785 59.480753 
L 236.910199 58.754502 
L 237.558024 58.754502 
L 237.772521 58.028387 
L 237.987018 58.028387 
L 238.206932 57.302407 
L 238.423596 57.302407 
L 238.639176 56.576563 
L 239.066004 56.576563 
L 239.281585 55.850847 
L 239.927243 55.850847 
L 240.142823 56.576563 
L 240.357321 56.576563 
L 240.571818 57.302407 
L 240.787398 57.302407 
L 241.007312 58.028387 
L 241.222893 58.028387 
L 241.43414 58.754502 
L 241.649721 58.754502 
L 241.866384 60.207156 
L 242.079798 60.207156 
L 242.298629 60.933701 
L 242.515293 60.933701 
L 242.731957 62.387248 
L 242.946454 62.387248 
L 243.158784 63.114264 
L 243.373282 63.114264 
L 243.804443 65.296278 
L 244.020023 65.296278 
L 244.23452 66.75181 
L 244.450101 66.75181 
L 244.665682 67.479847 
L 244.882345 67.479847 
L 245.097926 68.208059 
L 245.31459 68.208059 
L 245.531254 68.936463 
L 245.746834 68.936463 
L 245.962415 69.665058 
L 246.176912 69.665058 
L 246.392492 70.393845 
L 246.61024 70.393845 
L 246.82582 71.122831 
L 247.039234 71.122831 
L 247.258065 71.852016 
L 247.901556 71.852016 
L 248.117137 72.581409 
L 248.332717 72.581409 
L 248.552631 73.311009 
L 248.764962 73.311009 
L 248.984876 74.040816 
L 249.41387 74.040816 
L 249.626201 74.770839 
L 249.845031 74.770839 
L 250.060612 75.501084 
L 250.704103 75.501084 
L 250.920767 76.231554 
L 251.134181 76.231554 
L 251.354095 76.962238 
L 251.569675 76.962238 
L 251.780923 77.693162 
L 252.645412 77.693162 
L 252.645412 79.155711 
L 253.288903 79.155711 
L 253.5034 79.887344 
L 253.718981 79.887344 
L 253.934561 80.619217 
L 254.147975 80.619217 
L 254.366806 81.351337 
L 254.578053 81.351337 
L 254.796884 82.083711 
L 255.226961 82.083711 
L 255.443625 83.549227 
L 256.089284 83.549227 
L 256.303781 84.282383 
L 256.524778 84.282383 
L 256.736025 85.015795 
L 256.951606 85.015795 
L 257.166103 85.749478 
L 257.382767 85.749478 
L 257.592931 86.483439 
L 258.238589 86.483439 
L 258.45417 87.217672 
L 258.673 87.217672 
L 259.099828 87.952184 
L 259.316492 87.952184 
L 259.529906 88.686983 
L 259.751986 88.686983 
L 259.96865 89.42207 
L 260.186397 89.42207 
L 260.396561 90.157451 
L 260.608892 90.157451 
L 260.828806 90.893119 
L 261.258883 90.893119 
L 261.474464 92.365365 
L 262.116872 92.365365 
L 262.336786 93.101942 
L 262.552367 93.101942 
L 262.766864 93.83883 
L 263.410355 93.83883 
L 263.624853 95.313548 
L 264.272678 95.313548 
L 264.489341 96.051393 
L 264.701672 96.051393 
L 264.917253 96.789557 
L 265.132833 96.789557 
L 265.348414 97.528048 
L 265.565078 97.528048 
L 265.778491 98.266874 
L 266.209652 98.266874 
L 266.425233 99.006027 
L 266.63973 99.006027 
L 266.855311 99.745531 
L 267.070891 99.745531 
L 267.291888 100.48537 
L 267.502052 100.48537 
L 267.718716 101.225559 
L 268.370875 101.225559 
L 268.582122 101.9661 
L 268.800952 101.9661 
L 269.017616 102.706991 
L 269.233197 102.706991 
L 269.448777 103.448241 
L 269.668691 103.448241 
L 269.878855 104.189858 
L 270.094436 104.189858 
L 270.308933 104.931834 
L 270.524513 104.931834 
L 270.737927 105.674185 
L 271.384669 105.674185 
L 271.601333 107.160002 
L 272.03141 107.160002 
L 272.246991 107.903485 
L 272.462572 107.903485 
L 272.678152 108.647343 
L 273.328144 108.647343 
L 273.539391 110.136238 
L 274.185049 110.136238 
L 274.40063 110.809852 
L 274.620544 110.809852 
L 274.831791 111.554802 
L 275.046288 111.554802 
L 275.262952 112.300167 
L 275.476366 112.300167 
L 275.695196 113.04593 
L 275.910777 113.04593 
L 276.122024 113.792109 
L 276.766599 113.792109 
L 276.98218 114.538693 
L 277.19776 114.538693 
L 277.628921 116.033139 
L 277.844502 116.033139 
L 278.060082 116.780992 
L 278.704657 116.780992 
L 278.920238 117.529275 
L 279.134735 117.529275 
L 279.351399 118.277997 
L 279.565896 118.277997 
L 279.781477 119.027157 
L 280.001391 119.027157 
L 280.210471 119.776756 
L 280.427135 119.776756 
L 280.643799 120.526802 
L 281.29379 120.526802 
L 281.505038 121.277294 
L 281.723868 121.277294 
L 281.936199 122.028241 
L 282.151779 122.028241 
L 282.366277 122.77965 
L 282.798521 122.77965 
L 283.014102 123.531514 
L 283.228599 123.531514 
L 283.449596 124.283848 
L 283.661926 124.283848 
L 283.88184 125.036645 
L 284.093088 125.036645 
L 284.309751 125.78992 
L 284.95541 125.78992 
L 285.17749 126.543665 
L 285.387654 126.543665 
L 285.603235 127.297897 
L 285.818815 127.297897 
L 286.035479 128.052616 
L 286.252143 128.052616 
L 286.467723 128.807821 
L 287.112298 128.807821 
L 287.326796 129.563512 
L 287.54346 129.563512 
L 287.761207 130.319713 
L 287.974621 130.319713 
L 288.406865 131.833608 
L 289.05794 131.833608 
L 289.271354 132.591309 
L 289.481518 132.591309 
L 289.697098 133.349536 
L 289.912679 133.349536 
L 290.128259 134.021865 
L 290.34384 134.021865 
L 290.55942 134.780627 
L 290.773918 134.780627 
L 290.990582 135.539898 
L 291.640573 135.539898 
L 291.85182 136.299712 
L 292.066318 136.299712 
L 292.282981 137.060053 
L 292.498562 137.060053 
L 292.718476 137.820927 
L 292.932973 137.820927 
L 293.143137 138.582344 
L 293.359801 138.582344 
L 293.575381 139.344311 
L 294.005459 139.344311 
L 294.228623 140.10682 
L 294.43662 140.10682 
L 294.652201 140.869887 
L 295.298942 140.869887 
L 295.517773 141.633505 
L 295.72902 141.633505 
L 295.945684 143.16243 
L 296.594592 143.16243 
L 296.810173 143.927746 
L 297.022503 143.927746 
L 297.238084 144.693636 
L 297.668162 144.693636 
L 297.884826 145.460101 
L 298.530484 145.460101 
L 298.744981 146.227147 
L 298.960562 146.227147 
L 299.177226 146.994776 
L 299.392806 146.994776 
L 299.607303 147.763002 
L 300.038464 147.763002 
L 300.247545 149.205002 
L 300.89862 149.205002 
L 301.108784 149.974512 
L 301.756609 149.974512 
L 301.971106 150.744613 
L 302.192103 150.744613 
L 302.404434 151.515335 
L 302.621098 151.515335 
L 302.836678 152.286664 
L 303.053342 152.286664 
L 303.268923 153.058622 
L 303.484503 153.058622 
L 303.701167 153.732236 
L 303.916747 153.732236 
L 304.132328 154.504912 
L 304.340325 154.504912 
L 304.566739 155.278226 
L 304.776903 155.278226 
L 304.992484 156.052178 
L 305.424728 156.052178 
L 305.639225 156.82676 
L 305.858056 156.82676 
L 306.070386 157.601988 
L 306.285967 157.601988 
L 306.501547 158.37787 
L 307.151539 158.37787 
L 307.364953 159.154398 
L 307.581617 159.154398 
L 307.793947 159.931579 
L 308.011694 159.931579 
L 308.225108 160.709423 
L 308.87185 160.709423 
L 309.086347 161.487928 
L 309.301928 161.487928 
L 309.517508 162.267111 
L 309.732006 162.267111 
L 309.948669 163.046964 
L 310.16425 163.046964 
L 310.378747 163.827486 
L 310.809908 163.722132 
L 311.025489 164.502814 
L 311.244319 164.502814 
L 311.455567 165.284182 
L 311.671147 165.284182 
L 311.886728 166.066244 
L 312.102308 166.066244 
L 312.321139 166.848992 
L 312.962464 166.848992 
L 313.179128 167.632449 
L 313.393625 167.632449 
L 313.610289 168.4166 
L 313.830202 168.4166 
L 314.04145 169.20146 
L 314.683858 169.20146 
L 314.899439 169.877857 
L 315.113936 169.877857 
L 315.3306 170.663611 
L 315.545097 170.663611 
L 315.760677 171.45009 
L 315.977341 171.45009 
L 316.407419 173.025218 
L 317.051994 173.025218 
L 317.267575 173.813882 
L 317.487488 173.813882 
L 317.698736 174.60328 
L 318.344394 174.60328 
L 318.563224 175.393419 
L 318.778805 175.393419 
L 318.990052 176.184308 
L 319.206716 176.184308 
L 319.421213 176.862387 
L 319.636794 176.862387 
L 319.853458 177.654233 
L 320.069038 177.654233 
L 320.283536 178.446853 
L 320.500199 178.446853 
L 320.714697 179.24023 
L 321.361438 179.24023 
L 321.791516 180.829296 
L 322.441508 180.829296 
L 322.651672 181.624986 
L 322.872669 181.624986 
L 323.084999 182.421464 
L 323.30058 182.421464 
L 323.515077 183.218725 
L 324.165069 183.218725 
L 324.376316 184.016775 
L 324.591896 184.016775 
L 324.813977 184.815622 
L 325.027391 184.815622 
L 325.244055 185.615266 
L 325.461802 185.615266 
L 325.675216 186.296105 
L 325.890796 186.296105 
L 326.10746 187.096818 
L 326.755285 187.096818 
L 327.184279 188.700684 
L 327.835354 188.700684 
L 328.043352 189.503845 
L 328.260016 189.503845 
L 328.475596 190.307828 
L 328.691177 190.307828 
L 328.906757 191.112664 
L 329.126671 191.112664 
L 329.336835 191.795328 
L 329.983577 191.795328 
L 330.198074 192.601272 
L 330.414738 192.601272 
L 330.630318 193.408062 
L 330.845899 193.408062 
L 331.060396 194.215696 
L 331.274893 194.215696 
L 331.491557 195.024184 
L 332.138299 195.024184 
L 332.352796 195.833533 
L 332.56946 195.833533 
L 332.999538 197.454823 
L 333.646279 197.454823 
L 333.864026 198.266764 
L 334.076357 198.266764 
L 334.295187 198.952099 
L 334.507518 198.952099 
L 334.725265 199.765252 
L 335.368757 199.765252 
L 335.368757 199.765252 
L 336.229996 201.394205 
L 336.445576 201.394205 
L 336.661157 202.210029 
L 336.881071 202.210029 
L 337.092318 203.026731 
L 337.307898 203.026731 
L 337.523479 202.896952 
L 337.740143 202.896952 
L 337.95464 203.714012 
L 338.174554 203.714012 
L 338.385801 204.531981 
L 338.600298 204.531981 
L 338.816962 205.350867 
L 339.24704 205.350867 
L 339.461537 206.170654 
L 339.679284 206.170654 
L 339.893782 206.991375 
L 340.103946 206.991375 
L 340.323859 207.81302 
L 340.969518 207.81302 
L 341.187265 208.635598 
L 341.400679 208.635598 
L 341.616259 209.459093 
L 342.264084 209.459093 
L 342.479665 210.149229 
L 342.695245 210.149229 
L 342.909743 210.974056 
L 343.126406 210.974056 
L 343.33982 211.79984 
L 343.554317 211.79984 
L 343.773148 212.626573 
L 344.201059 212.626573 
L 344.415556 213.454262 
L 344.627887 213.454262 
L 344.844551 214.282925 
L 345.060131 214.282925 
L 345.060131 215.112552 
L 345.489126 215.112552 
L 345.70579 215.943144 
L 345.92137 215.943144 
L 346.136951 215.805375 
L 346.350365 215.805375 
L 346.565945 216.636382 
L 346.788026 216.636382 
L 347.003606 217.46837 
L 347.21702 217.46837 
L 347.433684 218.301354 
L 347.648181 218.301354 
L 347.863762 219.135319 
L 348.51592 219.135319 
L 348.725001 219.970265 
L 348.941664 219.970265 
L 349.157245 220.80624 
L 349.371742 220.80624 
L 349.587323 221.643212 
L 350.018484 221.643212 
L 350.236231 222.48118 
L 350.449645 222.48118 
L 350.665225 223.320177 
L 350.884056 223.320177 
L 351.099636 224.01725 
L 351.743128 224.01725 
L 351.957625 224.857714 
L 352.176456 224.857714 
L 352.388786 225.699215 
L 353.033361 225.699215 
L 353.245692 226.541745 
L 353.462356 226.541745 
L 353.676853 227.385311 
L 353.895684 227.385311 
L 354.109097 228.229921 
L 354.324678 228.229921 
L 354.539175 229.075577 
L 354.969253 229.075577 
L 355.18375 229.922285 
L 355.400414 229.922285 
L 355.613828 230.623058 
L 355.830492 230.623058 
L 356.044989 231.471321 
L 356.691731 231.471321 
L 356.906228 232.320636 
L 357.122892 232.320636 
L 357.341722 233.171036 
L 357.986297 233.171036 
L 358.200794 234.022513 
L 358.418542 234.022513 
L 358.630872 234.875057 
L 358.849703 234.875057 
L 359.06095 235.728703 
L 359.278697 235.728703 
L 359.493194 236.583433 
L 360.144269 236.583433 
L 360.3566 237.439255 
L 360.57218 237.439255 
L 360.785594 238.296178 
L 361.220005 238.296178 
L 361.437753 239.001975 
L 361.651166 239.001975 
L 361.865664 239.86054 
L 362.514572 239.86054 
L 362.733402 240.720214 
L 362.942483 240.720214 
L 363.159147 241.581012 
L 363.808055 241.581012 
L 364.021469 242.442935 
L 364.238133 242.442935 
L 364.453713 243.305982 
L 365.100455 243.305982 
L 365.320369 244.170177 
L 365.5327 244.170177 
L 365.746113 245.035488 
L 365.962777 245.035488 
L 366.391772 246.612657 
L 367.033097 246.612657 
L 367.248677 247.480839 
L 367.464258 247.480839 
L 367.679838 248.350178 
L 368.325497 248.350178 
L 368.542161 249.22068 
L 368.762074 249.22068 
L 368.980905 250.092355 
L 369.620063 250.092355 
L 369.838894 251.839213 
L 370.058808 251.839213 
L 370.270055 251.679348 
L 370.485635 251.679348 
L 370.700133 252.553966 
L 371.347958 252.553966 
L 371.778035 254.306765 
L 371.993616 254.306765 
L 372.208113 255.184946 
L 372.849438 255.184946 
L 373.070435 256.064348 
L 373.286016 256.064348 
L 373.501596 256.944938 
L 374.357419 256.944938 
L 374.572999 257.66335 
L 374.793996 257.66335 
L 375.01066 258.545774 
L 375.655235 258.545774 
L 375.865399 259.429434 
L 376.08098 259.429434 
L 376.295477 260.314306 
L 376.518641 260.314306 
L 376.733138 261.200414 
L 377.380963 261.200414 
L 377.804541 262.809982 
L 378.455615 262.809982 
L 378.671196 263.699224 
L 378.88786 263.699224 
L 379.10019 264.589694 
L 379.743682 264.589694 
L 379.964679 265.481431 
L 380.179176 265.481431 
L 380.39584 266.374421 
L 381.042582 266.374421 
L 381.257079 267.268671 
L 381.47266 267.268671 
L 381.68499 268.164188 
L 381.903821 268.164188 
L 382.118318 268.891101 
L 382.76506 268.891101 
L 382.982807 269.78858 
L 383.412885 269.78858 
L 383.628465 270.687335 
L 383.847296 270.687335 
L 384.058543 271.587381 
L 384.275207 271.587381 
L 384.491871 272.488712 
L 385.131029 272.488712 
L 385.34986 273.219109 
L 385.56544 273.219109 
L 385.781021 274.122449 
L 385.995518 274.122449 
L 386.212182 275.027081 
L 386.855673 275.027081 
L 387.073421 275.933037 
L 387.290084 275.933037 
L 387.504582 276.840308 
L 388.144823 276.840308 
L 388.361487 277.748879 
L 388.579234 277.574302 
L 388.791565 277.574302 
L 389.006062 278.483623 
L 389.653887 278.483623 
L 389.868384 279.394259 
L 390.088298 279.394259 
L 390.299545 280.306235 
L 390.946287 280.306235 
L 391.160784 281.219551 
L 391.376365 281.219551 
L 391.591945 282.134198 
L 391.808609 282.134198 
L 392.02419 281.957276 
L 392.23977 281.957276 
L 392.454268 283.789442 
L 393.531087 283.789442 
L 393.746667 284.707558 
L 393.961165 284.707558 
L 394.176745 285.627029 
L 394.610073 285.627029 
L 394.82782 286.368622 
L 395.043401 286.368622 
L 395.257898 287.290231 
L 395.90139 287.290231 
L 396.11697 288.21322 
L 396.332551 288.21322 
L 396.548131 289.137587 
L 397.193789 289.137587 
L 397.410453 290.063335 
L 397.410453 290.063335 
L 398.057195 290.063335 
L 398.271692 290.808907 
L 398.487273 290.808907 
L 398.487273 290.808907 
" clip-path="url(#pc6b1a99588)" style="fill: none; stroke: #ff7f0e; stroke-width: 1.5; stroke-linecap: square"/>
   </g>
   <g id="line2d_16">
    <path d="M 73.832727 292.38169 
L 236.05221 53.568 
L 236.263457 53.671664 
L 398.487273 292.491733 
L 398.487273 292.491733 
" clip-path="url(#pc6b1a99588)" style="fill: none; stroke: #2ca02c; stroke-width: 1.5; stroke-linecap: square"/>
   </g>
   <g id="patch_3">
    <path d="M 57.6 307.584 
L 57.6 41.472 
" style="fill: none; stroke: #000000; stroke-width: 0.8; stroke-linejoin: miter; stroke-linecap: square"/>
   </g>
   <g id="patch_4">
    <path d="M 414.72 307.584 
L 414.72 41.472 
" style="fill: none; stroke: #000000; stroke-width: 0.8; stroke-linejoin: miter; stroke-linecap: square"/>
   </g>
   <g id="patch_5">
    <path d="M 57.6 307.584 
L 414.72 307.584 
" style="fill: none; stroke: #000000; stroke-width: 0.8; stroke-linejoin: miter; stroke-linecap: square"/>
   </g>
   <g id="patch_6">
    <path d="M 57.6 41.472 
L 414.72 41.472 
" style="fill: none; stroke: #000000; stroke-width: 0.8; stroke-linejoin: miter; stroke-linecap: square"/>
   </g>
   <g id="text_16">
    <!-- 200mm/s -->
    <g transform="translate(207.871875 35.472) scale(0.12 -0.12)">
     <defs>
      <path id="DejaVuSans-2f" d="M 1625 4666 
L 2156 4666 
L 531 -594 
L 0 -594 
L 1625 4666 
z
" transform="scale(0.015625)"/>
     </defs>
     <use xlink:href="#DejaVuSans-32"/>
     <use xlink:href="#DejaVuSans-30" x="63.623047"/>
     <use xlink:href="#DejaVuSans-30" x="127.246094"/>
     <use xlink:href="#DejaVuSans-6d" x="190.869141"/>
     <use xlink:href="#DejaVuSans-6d" x="288.28125"/>
     <use xlink:href="#DejaVuSans-2f" x="385.693359"/>
     <use xlink:href="#DejaVuSans-73" x="419.384766"/>
    </g>
   </g>
   <g id="legend_1">
    <g id="patch_7">
     <path d="M 325.8075 93.506375 
L 407.72 93.506375 
Q 409.72 93.506375 409.72 91.506375 
L 409.72 48.472 
Q 409.72 46.472 407.72 46.472 
L 325.8075 46.472 
Q 323.8075 46.472 323.8075 48.472 
L 323.8075 91.506375 
Q 323.8075 93.506375 325.8075 93.506375 
z
" style="fill: #ffffff; opacity: 0.8; stroke: #cccccc; stroke-linejoin: miter"/>
    </g>
    <g id="line2d_17">
     <path d="M 327.8075 54.570438 
L 337.8075 54.570438 
L 347.8075 54.570438 
" style="fill: none; stroke: #1f77b4; stroke-width: 1.5; stroke-linecap: square"/>
    </g>
    <g id="text_17">
     <!-- cam0 -->
     <g transform="translate(355.8075 58.070438) scale(0.1 -0.1)">
      <defs>
       <path id="DejaVuSans-63" d="M 3122 3366 
L 3122 2828 
Q 2878 2963 2633 3030 
Q 2388 3097 2138 3097 
Q 1578 3097 1268 2742 
Q 959 2388 959 1747 
Q 959 1106 1268 751 
Q 1578 397 2138 397 
Q 2388 397 2633 464 
Q 2878 531 3122 666 
L 3122 134 
Q 2881 22 2623 -34 
Q 2366 -91 2075 -91 
Q 1284 -91 818 406 
Q 353 903 353 1747 
Q 353 2603 823 3093 
Q 1294 3584 2113 3584 
Q 2378 3584 2631 3529 
Q 2884 3475 3122 3366 
z
" transform="scale(0.015625)"/>
       <path id="DejaVuSans-61" d="M 2194 1759 
Q 1497 1759 1228 1600 
Q 959 1441 959 1056 
Q 959 750 1161 570 
Q 1363 391 1709 391 
Q 2188 391 2477 730 
Q 2766 1069 2766 1631 
L 2766 1759 
L 2194 1759 
z
M 3341 1997 
L 3341 0 
L 2766 0 
L 2766 531 
Q 2569 213 2275 61 
Q 1981 -91 1556 -91 
Q 1019 -91 701 211 
Q 384 513 384 1019 
Q 384 1609 779 1909 
Q 1175 2209 1959 2209 
L 2766 2209 
L 2766 2266 
Q 2766 2663 2505 2880 
Q 2244 3097 1772 3097 
Q 1472 3097 1187 3025 
Q 903 2953 641 2809 
L 641 3341 
Q 956 3463 1253 3523 
Q 1550 3584 1831 3584 
Q 2591 3584 2966 3190 
Q 3341 2797 3341 1997 
z
" transform="scale(0.015625)"/>
      </defs>
      <use xlink:href="#DejaVuSans-63"/>
      <use xlink:href="#DejaVuSans-61" x="54.980469"/>
      <use xlink:href="#DejaVuSans-6d" x="116.259766"/>
      <use xlink:href="#DejaVuSans-30" x="213.671875"/>
     </g>
    </g>
    <g id="line2d_18">
     <path d="M 327.8075 69.248563 
L 337.8075 69.248563 
L 347.8075 69.248563 
" style="fill: none; stroke: #ff7f0e; stroke-width: 1.5; stroke-linecap: square"/>
    </g>
    <g id="text_18">
     <!-- cam5 -->
     <g transform="translate(355.8075 72.748563) scale(0.1 -0.1)">
      <use xlink:href="#DejaVuSans-63"/>
      <use xlink:href="#DejaVuSans-61" x="54.980469"/>
      <use xlink:href="#DejaVuSans-6d" x="116.259766"/>
      <use xlink:href="#DejaVuSans-35" x="213.671875"/>
     </g>
    </g>
    <g id="line2d_19">
     <path d="M 327.8075 83.926688 
L 337.8075 83.926688 
L 347.8075 83.926688 
" style="fill: none; stroke: #2ca02c; stroke-width: 1.5; stroke-linecap: square"/>
    </g>
    <g id="text_19">
     <!-- command -->
     <g transform="translate(355.8075 87.426688) scale(0.1 -0.1)">
      <defs>
       <path id="DejaVuSans-64" d="M 2906 2969 
L 2906 4863 
L 3481 4863 
L 3481 0 
L 2906 0 
L 2906 525 
Q 2725 213 2448 61 
Q 2172 -91 1784 -91 
Q 1150 -91 751 415 
Q 353 922 353 1747 
Q 353 2572 751 3078 
Q 1150 3584 1784 3584 
Q 2172 3584 2448 3432 
Q 2725 3281 2906 2969 
z
M 947 1747 
Q 947 1113 1208 752 
Q 1469 391 1925 391 
Q 2381 391 2643 752 
Q 2906 1113 2906 1747 
Q 2906 2381 2643 2742 
Q 2381 3103 1925 3103 
Q 1469 3103 1208 2742 
Q 947 2381 947 1747 
z
" transform="scale(0.015625)"/>
      </defs>
      <use xlink:href="#DejaVuSans-63"/>
      <use xlink:href="#DejaVuSans-6f" x="54.980469"/>
      <use xlink:href="#DejaVuSans-6d" x="116.162109"/>
      <use xlink:href="#DejaVuSans-6d" x="213.574219"/>
      <use xlink:href="#DejaVuSans-61" x="310.986328"/>
      <use xlink:href="#DejaVuSans-6e" x="372.265625"/>
      <use xlink:href="#DejaVuSans-64" x="435.644531"/>
     </g>
    </g>
   </g>
  </g>
 </g>
 <defs>
  <clipPath id="pc6b1a99588">
   <rect x="57.6" y="41.472" width="357.12" height="266.112"/>
  </clipPath>
 </defs>
</svg>
