<?xml version="1.0" encoding="utf-8" standalone="no"?>
<!DOCTYPE svg PUBLIC "-//W3C//DTD SVG 1.1//EN"
  "http://www.w3.org/Graphics/SVG/1.1/DTD/svg11.dtd">
<svg xmlns:xlink="http://www.w3.org/1999/xlink" width="1382.4pt" height="702pt" viewBox="0 0 1382.4 702" xmlns="http://www.w3.org/2000/svg" version="1.1">
 <metadata>
  <rdf:RDF xmlns:dc="http://purl.org/dc/elements/1.1/" xmlns:cc="http://creativecommons.org/ns#" xmlns:rdf="http://www.w3.org/1999/02/22-rdf-syntax-ns#">
   <cc:Work>
    <dc:type rdf:resource="http://purl.org/dc/dcmitype/StillImage"/>
    <dc:date>2023-06-01T14:31:19.038023</dc:date>
    <dc:format>image/svg+xml</dc:format>
    <dc:creator>
     <cc:Agent>
      <dc:title>Matplotlib v3.7.1, https://matplotlib.org/</dc:title>
     </cc:Agent>
    </dc:creator>
   </cc:Work>
  </rdf:RDF>
 </metadata>
 <defs>
  <style type="text/css">*{stroke-linejoin: round; stroke-linecap: butt}</style>
 </defs>
 <g id="figure_1">
  <g id="patch_1">
   <path d="M 0 702 
L 1382.4 702 
L 1382.4 0 
L 0 0 
z
" style="fill: #ffffff"/>
  </g>
  <g id="axes_1">
   <g id="patch_2">
    <path d="M 172.8 624.78 
L 1244.16 624.78 
L 1244.16 84.24 
L 172.8 84.24 
z
" style="fill: #ffffff"/>
   </g>
   <g id="matplotlib.axis_1">
    <g id="xtick_1">
     <g id="line2d_1">
      <defs>
       <path id="m7992dbca19" d="M 0 0 
L 0 3.5 
" style="stroke: #000000; stroke-width: 0.8"/>
      </defs>
      <g>
       <use xlink:href="#m7992dbca19" x="221.498182" y="624.78" style="stroke: #000000; stroke-width: 0.8"/>
      </g>
     </g>
     <g id="text_1">
      <!-- 0.0 -->
      <g transform="translate(213.546619 639.378438) scale(0.1 -0.1)">
       <defs>
        <path id="DejaVuSans-30" d="M 2034 4250 
Q 1547 4250 1301 3770 
Q 1056 3291 1056 2328 
Q 1056 1369 1301 889 
Q 1547 409 2034 409 
Q 2525 409 2770 889 
Q 3016 1369 3016 2328 
Q 3016 3291 2770 3770 
Q 2525 4250 2034 4250 
z
M 2034 4750 
Q 2819 4750 3233 4129 
Q 3647 3509 3647 2328 
Q 3647 1150 3233 529 
Q 2819 -91 2034 -91 
Q 1250 -91 836 529 
Q 422 1150 422 2328 
Q 422 3509 836 4129 
Q 1250 4750 2034 4750 
z
" transform="scale(0.015625)"/>
        <path id="DejaVuSans-2e" d="M 684 794 
L 1344 794 
L 1344 0 
L 684 0 
L 684 794 
z
" transform="scale(0.015625)"/>
       </defs>
       <use xlink:href="#DejaVuSans-30"/>
       <use xlink:href="#DejaVuSans-2e" x="63.623047"/>
       <use xlink:href="#DejaVuSans-30" x="95.410156"/>
      </g>
     </g>
    </g>
    <g id="xtick_2">
     <g id="line2d_2">
      <g>
       <use xlink:href="#m7992dbca19" x="351.576798" y="624.78" style="stroke: #000000; stroke-width: 0.8"/>
      </g>
     </g>
     <g id="text_2">
      <!-- 0.2 -->
      <g transform="translate(343.625235 639.378438) scale(0.1 -0.1)">
       <defs>
        <path id="DejaVuSans-32" d="M 1228 531 
L 3431 531 
L 3431 0 
L 469 0 
L 469 531 
Q 828 903 1448 1529 
Q 2069 2156 2228 2338 
Q 2531 2678 2651 2914 
Q 2772 3150 2772 3378 
Q 2772 3750 2511 3984 
Q 2250 4219 1831 4219 
Q 1534 4219 1204 4116 
Q 875 4013 500 3803 
L 500 4441 
Q 881 4594 1212 4672 
Q 1544 4750 1819 4750 
Q 2544 4750 2975 4387 
Q 3406 4025 3406 3419 
Q 3406 3131 3298 2873 
Q 3191 2616 2906 2266 
Q 2828 2175 2409 1742 
Q 1991 1309 1228 531 
z
" transform="scale(0.015625)"/>
       </defs>
       <use xlink:href="#DejaVuSans-30"/>
       <use xlink:href="#DejaVuSans-2e" x="63.623047"/>
       <use xlink:href="#DejaVuSans-32" x="95.410156"/>
      </g>
     </g>
    </g>
    <g id="xtick_3">
     <g id="line2d_3">
      <g>
       <use xlink:href="#m7992dbca19" x="481.655414" y="624.78" style="stroke: #000000; stroke-width: 0.8"/>
      </g>
     </g>
     <g id="text_3">
      <!-- 0.4 -->
      <g transform="translate(473.703851 639.378438) scale(0.1 -0.1)">
       <defs>
        <path id="DejaVuSans-34" d="M 2419 4116 
L 825 1625 
L 2419 1625 
L 2419 4116 
z
M 2253 4666 
L 3047 4666 
L 3047 1625 
L 3713 1625 
L 3713 1100 
L 3047 1100 
L 3047 0 
L 2419 0 
L 2419 1100 
L 313 1100 
L 313 1709 
L 2253 4666 
z
" transform="scale(0.015625)"/>
       </defs>
       <use xlink:href="#DejaVuSans-30"/>
       <use xlink:href="#DejaVuSans-2e" x="63.623047"/>
       <use xlink:href="#DejaVuSans-34" x="95.410156"/>
      </g>
     </g>
    </g>
    <g id="xtick_4">
     <g id="line2d_4">
      <g>
       <use xlink:href="#m7992dbca19" x="611.734029" y="624.78" style="stroke: #000000; stroke-width: 0.8"/>
      </g>
     </g>
     <g id="text_4">
      <!-- 0.6 -->
      <g transform="translate(603.782467 639.378438) scale(0.1 -0.1)">
       <defs>
        <path id="DejaVuSans-36" d="M 2113 2584 
Q 1688 2584 1439 2293 
Q 1191 2003 1191 1497 
Q 1191 994 1439 701 
Q 1688 409 2113 409 
Q 2538 409 2786 701 
Q 3034 994 3034 1497 
Q 3034 2003 2786 2293 
Q 2538 2584 2113 2584 
z
M 3366 4563 
L 3366 3988 
Q 3128 4100 2886 4159 
Q 2644 4219 2406 4219 
Q 1781 4219 1451 3797 
Q 1122 3375 1075 2522 
Q 1259 2794 1537 2939 
Q 1816 3084 2150 3084 
Q 2853 3084 3261 2657 
Q 3669 2231 3669 1497 
Q 3669 778 3244 343 
Q 2819 -91 2113 -91 
Q 1303 -91 875 529 
Q 447 1150 447 2328 
Q 447 3434 972 4092 
Q 1497 4750 2381 4750 
Q 2619 4750 2861 4703 
Q 3103 4656 3366 4563 
z
" transform="scale(0.015625)"/>
       </defs>
       <use xlink:href="#DejaVuSans-30"/>
       <use xlink:href="#DejaVuSans-2e" x="63.623047"/>
       <use xlink:href="#DejaVuSans-36" x="95.410156"/>
      </g>
     </g>
    </g>
    <g id="xtick_5">
     <g id="line2d_5">
      <g>
       <use xlink:href="#m7992dbca19" x="741.812645" y="624.78" style="stroke: #000000; stroke-width: 0.8"/>
      </g>
     </g>
     <g id="text_5">
      <!-- 0.8 -->
      <g transform="translate(733.861083 639.378438) scale(0.1 -0.1)">
       <defs>
        <path id="DejaVuSans-38" d="M 2034 2216 
Q 1584 2216 1326 1975 
Q 1069 1734 1069 1313 
Q 1069 891 1326 650 
Q 1584 409 2034 409 
Q 2484 409 2743 651 
Q 3003 894 3003 1313 
Q 3003 1734 2745 1975 
Q 2488 2216 2034 2216 
z
M 1403 2484 
Q 997 2584 770 2862 
Q 544 3141 544 3541 
Q 544 4100 942 4425 
Q 1341 4750 2034 4750 
Q 2731 4750 3128 4425 
Q 3525 4100 3525 3541 
Q 3525 3141 3298 2862 
Q 3072 2584 2669 2484 
Q 3125 2378 3379 2068 
Q 3634 1759 3634 1313 
Q 3634 634 3220 271 
Q 2806 -91 2034 -91 
Q 1263 -91 848 271 
Q 434 634 434 1313 
Q 434 1759 690 2068 
Q 947 2378 1403 2484 
z
M 1172 3481 
Q 1172 3119 1398 2916 
Q 1625 2713 2034 2713 
Q 2441 2713 2670 2916 
Q 2900 3119 2900 3481 
Q 2900 3844 2670 4047 
Q 2441 4250 2034 4250 
Q 1625 4250 1398 4047 
Q 1172 3844 1172 3481 
z
" transform="scale(0.015625)"/>
       </defs>
       <use xlink:href="#DejaVuSans-30"/>
       <use xlink:href="#DejaVuSans-2e" x="63.623047"/>
       <use xlink:href="#DejaVuSans-38" x="95.410156"/>
      </g>
     </g>
    </g>
    <g id="xtick_6">
     <g id="line2d_6">
      <g>
       <use xlink:href="#m7992dbca19" x="871.891261" y="624.78" style="stroke: #000000; stroke-width: 0.8"/>
      </g>
     </g>
     <g id="text_6">
      <!-- 1.0 -->
      <g transform="translate(863.939699 639.378438) scale(0.1 -0.1)">
       <defs>
        <path id="DejaVuSans-31" d="M 794 531 
L 1825 531 
L 1825 4091 
L 703 3866 
L 703 4441 
L 1819 4666 
L 2450 4666 
L 2450 531 
L 3481 531 
L 3481 0 
L 794 0 
L 794 531 
z
" transform="scale(0.015625)"/>
       </defs>
       <use xlink:href="#DejaVuSans-31"/>
       <use xlink:href="#DejaVuSans-2e" x="63.623047"/>
       <use xlink:href="#DejaVuSans-30" x="95.410156"/>
      </g>
     </g>
    </g>
    <g id="xtick_7">
     <g id="line2d_7">
      <g>
       <use xlink:href="#m7992dbca19" x="1001.969877" y="624.78" style="stroke: #000000; stroke-width: 0.8"/>
      </g>
     </g>
     <g id="text_7">
      <!-- 1.2 -->
      <g transform="translate(994.018315 639.378438) scale(0.1 -0.1)">
       <use xlink:href="#DejaVuSans-31"/>
       <use xlink:href="#DejaVuSans-2e" x="63.623047"/>
       <use xlink:href="#DejaVuSans-32" x="95.410156"/>
      </g>
     </g>
    </g>
    <g id="xtick_8">
     <g id="line2d_8">
      <g>
       <use xlink:href="#m7992dbca19" x="1132.048493" y="624.78" style="stroke: #000000; stroke-width: 0.8"/>
      </g>
     </g>
     <g id="text_8">
      <!-- 1.4 -->
      <g transform="translate(1124.09693 639.378438) scale(0.1 -0.1)">
       <use xlink:href="#DejaVuSans-31"/>
       <use xlink:href="#DejaVuSans-2e" x="63.623047"/>
       <use xlink:href="#DejaVuSans-34" x="95.410156"/>
      </g>
     </g>
    </g>
    <g id="text_9">
     <!-- time [s] -->
     <g transform="translate(689.088594 653.056563) scale(0.1 -0.1)">
      <defs>
       <path id="DejaVuSans-74" d="M 1172 4494 
L 1172 3500 
L 2356 3500 
L 2356 3053 
L 1172 3053 
L 1172 1153 
Q 1172 725 1289 603 
Q 1406 481 1766 481 
L 2356 481 
L 2356 0 
L 1766 0 
Q 1100 0 847 248 
Q 594 497 594 1153 
L 594 3053 
L 172 3053 
L 172 3500 
L 594 3500 
L 594 4494 
L 1172 4494 
z
" transform="scale(0.015625)"/>
       <path id="DejaVuSans-69" d="M 603 3500 
L 1178 3500 
L 1178 0 
L 603 0 
L 603 3500 
z
M 603 4863 
L 1178 4863 
L 1178 4134 
L 603 4134 
L 603 4863 
z
" transform="scale(0.015625)"/>
       <path id="DejaVuSans-6d" d="M 3328 2828 
Q 3544 3216 3844 3400 
Q 4144 3584 4550 3584 
Q 5097 3584 5394 3201 
Q 5691 2819 5691 2113 
L 5691 0 
L 5113 0 
L 5113 2094 
Q 5113 2597 4934 2840 
Q 4756 3084 4391 3084 
Q 3944 3084 3684 2787 
Q 3425 2491 3425 1978 
L 3425 0 
L 2847 0 
L 2847 2094 
Q 2847 2600 2669 2842 
Q 2491 3084 2119 3084 
Q 1678 3084 1418 2786 
Q 1159 2488 1159 1978 
L 1159 0 
L 581 0 
L 581 3500 
L 1159 3500 
L 1159 2956 
Q 1356 3278 1631 3431 
Q 1906 3584 2284 3584 
Q 2666 3584 2933 3390 
Q 3200 3197 3328 2828 
z
" transform="scale(0.015625)"/>
       <path id="DejaVuSans-65" d="M 3597 1894 
L 3597 1613 
L 953 1613 
Q 991 1019 1311 708 
Q 1631 397 2203 397 
Q 2534 397 2845 478 
Q 3156 559 3463 722 
L 3463 178 
Q 3153 47 2828 -22 
Q 2503 -91 2169 -91 
Q 1331 -91 842 396 
Q 353 884 353 1716 
Q 353 2575 817 3079 
Q 1281 3584 2069 3584 
Q 2775 3584 3186 3129 
Q 3597 2675 3597 1894 
z
M 3022 2063 
Q 3016 2534 2758 2815 
Q 2500 3097 2075 3097 
Q 1594 3097 1305 2825 
Q 1016 2553 972 2059 
L 3022 2063 
z
" transform="scale(0.015625)"/>
       <path id="DejaVuSans-20" transform="scale(0.015625)"/>
       <path id="DejaVuSans-5b" d="M 550 4863 
L 1875 4863 
L 1875 4416 
L 1125 4416 
L 1125 -397 
L 1875 -397 
L 1875 -844 
L 550 -844 
L 550 4863 
z
" transform="scale(0.015625)"/>
       <path id="DejaVuSans-73" d="M 2834 3397 
L 2834 2853 
Q 2591 2978 2328 3040 
Q 2066 3103 1784 3103 
Q 1356 3103 1142 2972 
Q 928 2841 928 2578 
Q 928 2378 1081 2264 
Q 1234 2150 1697 2047 
L 1894 2003 
Q 2506 1872 2764 1633 
Q 3022 1394 3022 966 
Q 3022 478 2636 193 
Q 2250 -91 1575 -91 
Q 1294 -91 989 -36 
Q 684 19 347 128 
L 347 722 
Q 666 556 975 473 
Q 1284 391 1588 391 
Q 1994 391 2212 530 
Q 2431 669 2431 922 
Q 2431 1156 2273 1281 
Q 2116 1406 1581 1522 
L 1381 1569 
Q 847 1681 609 1914 
Q 372 2147 372 2553 
Q 372 3047 722 3315 
Q 1072 3584 1716 3584 
Q 2034 3584 2315 3537 
Q 2597 3491 2834 3397 
z
" transform="scale(0.015625)"/>
       <path id="DejaVuSans-5d" d="M 1947 4863 
L 1947 -844 
L 622 -844 
L 622 -397 
L 1369 -397 
L 1369 4416 
L 622 4416 
L 622 4863 
L 1947 4863 
z
" transform="scale(0.015625)"/>
      </defs>
      <use xlink:href="#DejaVuSans-74"/>
      <use xlink:href="#DejaVuSans-69" x="39.208984"/>
      <use xlink:href="#DejaVuSans-6d" x="66.992188"/>
      <use xlink:href="#DejaVuSans-65" x="164.404297"/>
      <use xlink:href="#DejaVuSans-20" x="225.927734"/>
      <use xlink:href="#DejaVuSans-5b" x="257.714844"/>
      <use xlink:href="#DejaVuSans-73" x="296.728516"/>
      <use xlink:href="#DejaVuSans-5d" x="348.828125"/>
     </g>
    </g>
   </g>
   <g id="matplotlib.axis_2">
    <g id="ytick_1">
     <g id="line2d_9">
      <defs>
       <path id="mafa0c33122" d="M 0 0 
L -3.5 0 
" style="stroke: #000000; stroke-width: 0.8"/>
      </defs>
      <g>
       <use xlink:href="#mafa0c33122" x="172.8" y="559.053417" style="stroke: #000000; stroke-width: 0.8"/>
      </g>
     </g>
     <g id="text_10">
      <!-- −250 -->
      <g transform="translate(138.332812 562.852636) scale(0.1 -0.1)">
       <defs>
        <path id="DejaVuSans-2212" d="M 678 2272 
L 4684 2272 
L 4684 1741 
L 678 1741 
L 678 2272 
z
" transform="scale(0.015625)"/>
        <path id="DejaVuSans-35" d="M 691 4666 
L 3169 4666 
L 3169 4134 
L 1269 4134 
L 1269 2991 
Q 1406 3038 1543 3061 
Q 1681 3084 1819 3084 
Q 2600 3084 3056 2656 
Q 3513 2228 3513 1497 
Q 3513 744 3044 326 
Q 2575 -91 1722 -91 
Q 1428 -91 1123 -41 
Q 819 9 494 109 
L 494 744 
Q 775 591 1075 516 
Q 1375 441 1709 441 
Q 2250 441 2565 725 
Q 2881 1009 2881 1497 
Q 2881 1984 2565 2268 
Q 2250 2553 1709 2553 
Q 1456 2553 1204 2497 
Q 953 2441 691 2322 
L 691 4666 
z
" transform="scale(0.015625)"/>
       </defs>
       <use xlink:href="#DejaVuSans-2212"/>
       <use xlink:href="#DejaVuSans-32" x="83.789062"/>
       <use xlink:href="#DejaVuSans-35" x="147.412109"/>
       <use xlink:href="#DejaVuSans-30" x="211.035156"/>
      </g>
     </g>
    </g>
    <g id="ytick_2">
     <g id="line2d_10">
      <g>
       <use xlink:href="#mafa0c33122" x="172.8" y="478.651658" style="stroke: #000000; stroke-width: 0.8"/>
      </g>
     </g>
     <g id="text_11">
      <!-- −200 -->
      <g transform="translate(138.332812 482.450877) scale(0.1 -0.1)">
       <use xlink:href="#DejaVuSans-2212"/>
       <use xlink:href="#DejaVuSans-32" x="83.789062"/>
       <use xlink:href="#DejaVuSans-30" x="147.412109"/>
       <use xlink:href="#DejaVuSans-30" x="211.035156"/>
      </g>
     </g>
    </g>
    <g id="ytick_3">
     <g id="line2d_11">
      <g>
       <use xlink:href="#mafa0c33122" x="172.8" y="398.249899" style="stroke: #000000; stroke-width: 0.8"/>
      </g>
     </g>
     <g id="text_12">
      <!-- −150 -->
      <g transform="translate(138.332812 402.049118) scale(0.1 -0.1)">
       <use xlink:href="#DejaVuSans-2212"/>
       <use xlink:href="#DejaVuSans-31" x="83.789062"/>
       <use xlink:href="#DejaVuSans-35" x="147.412109"/>
       <use xlink:href="#DejaVuSans-30" x="211.035156"/>
      </g>
     </g>
    </g>
    <g id="ytick_4">
     <g id="line2d_12">
      <g>
       <use xlink:href="#mafa0c33122" x="172.8" y="317.848141" style="stroke: #000000; stroke-width: 0.8"/>
      </g>
     </g>
     <g id="text_13">
      <!-- −100 -->
      <g transform="translate(138.332812 321.647359) scale(0.1 -0.1)">
       <use xlink:href="#DejaVuSans-2212"/>
       <use xlink:href="#DejaVuSans-31" x="83.789062"/>
       <use xlink:href="#DejaVuSans-30" x="147.412109"/>
       <use xlink:href="#DejaVuSans-30" x="211.035156"/>
      </g>
     </g>
    </g>
    <g id="ytick_5">
     <g id="line2d_13">
      <g>
       <use xlink:href="#mafa0c33122" x="172.8" y="237.446382" style="stroke: #000000; stroke-width: 0.8"/>
      </g>
     </g>
     <g id="text_14">
      <!-- −50 -->
      <g transform="translate(144.695312 241.245601) scale(0.1 -0.1)">
       <use xlink:href="#DejaVuSans-2212"/>
       <use xlink:href="#DejaVuSans-35" x="83.789062"/>
       <use xlink:href="#DejaVuSans-30" x="147.412109"/>
      </g>
     </g>
    </g>
    <g id="ytick_6">
     <g id="line2d_14">
      <g>
       <use xlink:href="#mafa0c33122" x="172.8" y="157.044623" style="stroke: #000000; stroke-width: 0.8"/>
      </g>
     </g>
     <g id="text_15">
      <!-- 0 -->
      <g transform="translate(159.4375 160.843842) scale(0.1 -0.1)">
       <use xlink:href="#DejaVuSans-30"/>
      </g>
     </g>
    </g>
    <g id="text_16">
     <!-- position [mm] -->
     <g transform="translate(132.253125 389.545938) rotate(-90) scale(0.1 -0.1)">
      <defs>
       <path id="DejaVuSans-70" d="M 1159 525 
L 1159 -1331 
L 581 -1331 
L 581 3500 
L 1159 3500 
L 1159 2969 
Q 1341 3281 1617 3432 
Q 1894 3584 2278 3584 
Q 2916 3584 3314 3078 
Q 3713 2572 3713 1747 
Q 3713 922 3314 415 
Q 2916 -91 2278 -91 
Q 1894 -91 1617 61 
Q 1341 213 1159 525 
z
M 3116 1747 
Q 3116 2381 2855 2742 
Q 2594 3103 2138 3103 
Q 1681 3103 1420 2742 
Q 1159 2381 1159 1747 
Q 1159 1113 1420 752 
Q 1681 391 2138 391 
Q 2594 391 2855 752 
Q 3116 1113 3116 1747 
z
" transform="scale(0.015625)"/>
       <path id="DejaVuSans-6f" d="M 1959 3097 
Q 1497 3097 1228 2736 
Q 959 2375 959 1747 
Q 959 1119 1226 758 
Q 1494 397 1959 397 
Q 2419 397 2687 759 
Q 2956 1122 2956 1747 
Q 2956 2369 2687 2733 
Q 2419 3097 1959 3097 
z
M 1959 3584 
Q 2709 3584 3137 3096 
Q 3566 2609 3566 1747 
Q 3566 888 3137 398 
Q 2709 -91 1959 -91 
Q 1206 -91 779 398 
Q 353 888 353 1747 
Q 353 2609 779 3096 
Q 1206 3584 1959 3584 
z
" transform="scale(0.015625)"/>
       <path id="DejaVuSans-6e" d="M 3513 2113 
L 3513 0 
L 2938 0 
L 2938 2094 
Q 2938 2591 2744 2837 
Q 2550 3084 2163 3084 
Q 1697 3084 1428 2787 
Q 1159 2491 1159 1978 
L 1159 0 
L 581 0 
L 581 3500 
L 1159 3500 
L 1159 2956 
Q 1366 3272 1645 3428 
Q 1925 3584 2291 3584 
Q 2894 3584 3203 3211 
Q 3513 2838 3513 2113 
z
" transform="scale(0.015625)"/>
      </defs>
      <use xlink:href="#DejaVuSans-70"/>
      <use xlink:href="#DejaVuSans-6f" x="63.476562"/>
      <use xlink:href="#DejaVuSans-73" x="124.658203"/>
      <use xlink:href="#DejaVuSans-69" x="176.757812"/>
      <use xlink:href="#DejaVuSans-74" x="204.541016"/>
      <use xlink:href="#DejaVuSans-69" x="243.75"/>
      <use xlink:href="#DejaVuSans-6f" x="271.533203"/>
      <use xlink:href="#DejaVuSans-6e" x="332.714844"/>
      <use xlink:href="#DejaVuSans-20" x="396.09375"/>
      <use xlink:href="#DejaVuSans-5b" x="427.880859"/>
      <use xlink:href="#DejaVuSans-6d" x="466.894531"/>
      <use xlink:href="#DejaVuSans-6d" x="564.306641"/>
      <use xlink:href="#DejaVuSans-5d" x="661.71875"/>
     </g>
    </g>
   </g>
   <g id="line2d_15">
    <path d="M 221.498182 584.427842 
L 222.78596 581.33908 
L 224.080242 581.33908 
L 225.394036 587.524307 
L 231.845936 587.524307 
L 233.15973 593.740682 
L 243.507484 593.740682 
L 244.801766 599.988799 
L 246.096048 596.86072 
L 251.266673 596.86072 
L 252.560955 593.740682 
L 255.136512 593.740682 
L 257.738084 587.524307 
L 257.738084 587.524307 
L 260.300633 584.427842 
L 261.627435 581.33908 
L 262.889197 581.33908 
L 268.098846 569.059352 
L 269.399632 569.059352 
L 270.680906 566.007864 
L 271.975189 563.488764 
L 277.13931 551.365835 
L 278.440096 551.365835 
L 279.727874 548.352441 
L 281.02866 548.352441 
L 282.316439 542.34598 
L 282.316439 542.34598 
L 284.898499 539.352735 
L 286.199285 539.352735 
L 287.493568 536.366067 
L 288.781346 536.366067 
L 290.082132 533.385895 
L 291.36991 533.8744 
L 292.664193 530.896721 
L 295.252757 530.896721 
L 296.540535 527.92541 
L 299.1291 527.92541 
L 300.423382 524.960418 
L 301.71116 524.960418 
L 303.011946 522.001666 
L 304.299725 522.001666 
L 305.600511 522.478062 
L 306.888289 519.521609 
L 309.476854 519.521609 
L 310.771136 516.571266 
L 314.647479 516.571266 
L 315.941761 513.626986 
L 318.50431 513.626986 
L 319.824608 510.68872 
L 321.125394 510.68872 
L 323.70095 507.756371 
L 324.995233 507.756371 
L 327.590301 504.829892 
L 328.884583 501.909202 
L 331.473148 501.909202 
L 332.760926 498.994268 
L 334.022688 498.994268 
L 336.643773 493.181317 
L 339.225833 493.181317 
L 340.520115 490.283172 
L 341.781878 490.283172 
L 344.396458 484.503314 
L 347.004534 484.503314 
L 348.279305 482.048102 
L 349.573587 482.048102 
L 350.861365 479.167838 
L 352.136136 479.167838 
L 353.423914 476.292864 
L 354.731204 476.292864 
L 354.731204 476.292864 
L 357.326273 473.423068 
L 358.627059 470.558385 
L 361.215623 470.558385 
L 362.48389 468.1102 
L 363.797684 468.1102 
L 365.104974 465.251998 
L 366.392752 465.251998 
L 368.974813 459.550436 
L 370.282103 459.550436 
L 370.282103 459.550436 
L 372.857659 456.706963 
L 374.151941 456.706963 
L 375.446224 453.868282 
L 378.008772 453.868282 
L 378.008772 453.868282 
L 380.616849 448.205088 
L 384.47368 448.205088 
L 387.05574 442.560354 
L 388.382542 442.560354 
L 389.644305 439.744797 
L 392.226365 439.744797 
L 393.520647 436.933678 
L 396.102708 436.933678 
L 397.436014 434.49847 
L 398.723792 431.692609 
L 401.312356 431.692609 
L 403.868401 426.093768 
L 406.489485 426.093768 
L 407.777264 423.300643 
L 409.091058 423.300643 
L 410.365828 420.511683 
L 411.66011 420.511683 
L 411.66011 420.511683 
L 414.235667 417.726791 
L 415.536453 417.726791 
L 416.824231 414.945904 
L 418.144529 414.945904 
L 419.425804 412.16902 
L 420.713582 409.739054 
L 423.276131 409.739054 
L 424.570413 406.96656 
L 425.877703 406.96656 
L 427.158977 404.197909 
L 429.741038 404.197909 
L 431.041824 401.433021 
L 432.34261 401.433021 
L 433.617381 398.671848 
L 434.937679 398.671848 
L 436.218953 395.914389 
L 437.500227 395.914389 
L 438.814021 393.160516 
L 440.108304 393.160516 
L 441.396082 390.41023 
L 442.696868 390.41023 
L 443.984646 387.66348 
L 446.547195 387.66348 
L 447.834973 384.920188 
L 449.168279 382.491894 
L 450.430042 382.491894 
L 451.71782 379.752076 
L 453.012102 379.752076 
L 454.306385 377.01557 
L 458.189231 377.01557 
L 460.777796 371.552335 
L 463.36636 371.552335 
L 464.667146 368.825525 
L 465.961429 368.825525 
L 467.242703 366.101835 
L 468.543489 366.101835 
L 471.145061 360.663653 
L 475.027908 360.663653 
L 477.622976 355.237403 
L 478.917259 355.237403 
L 480.198533 352.528619 
L 481.525335 352.528619 
L 482.793601 349.822682 
L 485.35615 349.822682 
L 487.951219 344.419137 
L 490.546287 344.419137 
L 491.840569 341.985971 
L 493.11534 341.985971 
L 494.461653 339.287688 
L 497.030706 339.287688 
L 498.292469 336.59201 
L 498.292469 336.59201 
L 500.868025 333.898905 
L 502.168811 333.898905 
L 504.776888 328.520172 
L 507.332932 328.520172 
L 508.659734 325.83448 
L 509.947513 325.83448 
L 511.222283 323.151135 
L 513.810847 323.151135 
L 515.10513 320.470122 
L 516.399412 320.470122 
L 517.68719 317.791393 
L 518.981472 317.791393 
L 520.275755 315.114899 
L 521.563533 315.114899 
L 522.864319 312.440592 
L 524.197625 312.440592 
L 525.485403 309.768423 
L 526.786189 309.768423 
L 528.073968 307.098361 
L 529.342234 307.098361 
L 531.95031 301.764332 
L 534.532371 301.764332 
L 535.826653 299.100284 
L 537.127439 299.100284 
L 538.415218 296.438165 
L 540.971262 296.438165 
L 542.259041 293.777912 
L 543.553323 293.777912 
L 544.847605 291.119476 
L 546.141887 291.119476 
L 547.43617 288.462809 
L 548.723948 288.462809 
L 550.01823 285.807895 
L 551.338528 285.807895 
L 553.920589 283.154685 
L 555.214871 283.154685 
L 555.214871 283.154685 
L 557.796931 277.853122 
L 559.097718 277.853122 
L 560.35948 275.20472 
L 562.961052 275.20472 
L 565.562625 269.912403 
L 566.863411 269.912403 
L 568.157693 267.268407 
L 569.451975 267.268407 
L 570.746258 264.625794 
L 572.021028 264.625794 
L 573.334822 261.984516 
L 574.6226 261.984516 
L 575.92989 259.344541 
L 577.185149 259.344541 
L 578.511951 256.705819 
L 579.806233 256.705819 
L 581.094011 254.231214 
L 582.368782 254.231214 
L 583.676072 251.591817 
L 586.258133 251.591817 
L 588.859705 246.316368 
L 590.147483 246.316368 
L 591.441765 243.68022 
L 592.742552 243.68022 
L 594.03033 241.045084 
L 595.318108 241.045084 
L 596.618894 238.410881 
L 597.906673 238.410881 
L 599.200955 235.777611 
L 601.796023 235.777611 
L 603.083801 233.145193 
L 604.384588 233.145193 
L 605.672366 230.513612 
L 606.960144 230.513612 
L 608.267434 227.882802 
L 609.555213 227.882802 
L 610.849495 225.252732 
L 612.163289 225.252732 
L 613.438059 222.623353 
L 614.725838 222.623353 
L 616.026624 219.99465 
L 617.307898 219.99465 
L 618.6347 217.366541 
L 619.928982 217.366541 
L 621.184241 214.738996 
L 623.779309 214.738996 
L 626.374378 209.485464 
L 627.681668 209.485464 
L 628.949934 206.859382 
L 631.531995 206.859382 
L 632.832781 204.233702 
L 634.153079 204.233702 
L 635.440857 201.608359 
L 636.715628 201.608359 
L 638.003406 198.983338 
L 639.297688 198.983338 
L 640.585466 196.358591 
L 641.853733 196.358591 
L 644.442297 191.109755 
L 647.030862 191.109755 
L 648.325144 188.48557 
L 649.619426 188.48557 
L 650.920212 185.861482 
L 652.194983 185.861482 
L 653.495769 183.237458 
L 654.796555 183.237458 
L 656.090837 180.613434 
L 657.378616 180.613434 
L 658.679402 177.98941 
L 659.96718 177.98941 
L 661.261462 175.365306 
L 663.850027 175.365306 
L 665.170325 172.741089 
L 666.445095 172.741089 
L 667.752385 170.116727 
L 669.014148 170.116727 
L 670.30843 167.492172 
L 672.896995 167.492172 
L 675.505071 162.242291 
L 679.361902 162.242291 
L 680.656184 156.991124 
L 683.26426 156.991124 
L 685.833313 151.738332 
L 688.421877 151.738332 
L 691.029954 146.483579 
L 694.886785 146.483579 
L 697.475349 141.22651 
L 698.802151 141.192757 
L 700.070417 138.566257 
L 701.358196 138.566257 
L 702.67199 135.939033 
L 705.25405 135.939033 
L 707.842615 130.682334 
L 710.424675 130.682334 
L 713.01324 125.42229 
L 715.601804 125.42229 
L 718.196873 120.158596 
L 719.497659 120.158596 
L 720.785437 117.525245 
L 723.374002 117.525245 
L 724.668284 114.890865 
L 727.256848 114.890865 
L 728.55113 112.255392 
L 738.898884 112.255392 
L 740.186663 117.525245 
L 744.063005 117.525245 
L 745.363792 125.42229 
L 749.23363 125.42229 
L 750.54092 130.682334 
L 751.828699 130.682334 
L 753.116477 135.939033 
L 754.417263 135.939033 
L 755.698538 141.192757 
L 757.005828 141.192757 
L 758.293606 146.443844 
L 759.594392 146.443844 
L 762.176453 156.939425 
L 763.464231 156.939425 
L 764.765017 162.184611 
L 767.314558 162.184611 
L 768.634856 167.428494 
L 769.935642 167.428494 
L 771.22342 172.671445 
L 775.073747 172.671445 
L 776.361526 177.913784 
L 780.250876 177.913784 
L 781.538655 183.15585 
L 785.421501 183.15585 
L 786.70928 188.39798 
L 791.918928 188.39798 
L 793.206706 193.640529 
L 798.390339 193.734084 
L 799.691125 198.983338 
L 803.55446 198.983338 
L 804.855247 204.233702 
L 808.738093 204.233702 
L 810.025871 209.485464 
L 815.170481 209.485464 
L 816.477771 214.738996 
L 816.477771 214.738996 
L 820.386633 214.738996 
L 821.687419 219.99465 
L 825.557258 219.99465 
L 826.85154 225.252732 
L 830.727883 225.252732 
L 832.022165 230.513612 
L 837.19279 230.513612 
L 838.480569 235.777611 
L 841.075637 235.777611 
L 842.369919 241.045084 
L 846.265774 241.045084 
L 847.553552 246.316368 
L 852.711169 246.316368 
L 854.018459 251.591817 
L 859.176076 251.591817 
L 860.470359 256.871785 
L 863.058923 256.871785 
L 864.353205 262.156592 
L 868.236052 262.156592 
L 869.52383 267.44661 
L 873.406677 267.44661 
L 874.687951 272.742175 
L 878.577302 272.742175 
L 879.878088 278.043658 
L 885.035705 278.043658 
L 886.342995 283.351396 
L 890.199826 283.351396 
L 891.494109 288.665743 
L 895.357443 288.665743 
L 896.65823 293.987053 
L 900.541076 293.987053 
L 901.828855 299.315696 
L 907.038503 299.315696 
L 908.293762 304.652041 
L 913.464387 304.652041 
L 914.765173 309.99641 
L 917.347234 309.99641 
L 918.64802 315.349206 
L 923.812141 315.349206 
L 925.106423 320.710797 
L 927.707995 320.710797 
L 928.995774 320.470122 
L 930.29656 325.83448 
L 935.486696 325.83448 
L 936.780979 331.208324 
L 940.650818 331.208324 
L 941.9451 336.59201 
L 947.14174 336.59201 
L 948.410007 341.985971 
L 952.305862 341.985971 
L 953.606648 347.390545 
L 958.777273 347.390545 
L 960.071555 352.806102 
L 963.947898 352.806102 
L 963.947898 352.806102 
L 966.51695 358.23306 
L 969.138034 358.23306 
L 970.425813 363.381216 
L 974.289148 363.381216 
L 975.58343 368.825525 
L 979.47278 368.825525 
L 980.780071 374.282344 
L 984.636902 374.282344 
L 985.931184 379.752076 
L 989.81403 379.752076 
L 991.114817 385.235122 
L 996.278938 385.235122 
L 997.599236 390.731869 
L 1001.449563 390.731869 
L 1002.743845 396.242782 
L 1007.920974 396.242782 
L 1009.215256 401.7682 
L 1013.124118 401.7682 
L 1014.385881 407.308573 
L 1016.974445 406.96656 
L 1018.268728 406.96656 
L 1019.556506 412.515439 
L 1024.733635 412.515439 
L 1026.021413 418.080061 
L 1029.90426 418.080061 
L 1031.205046 423.660843 
L 1032.48632 423.660843 
L 1033.787107 423.300643 
L 1036.395183 423.300643 
L 1037.663449 428.891074 
L 1041.52028 428.891074 
L 1042.814562 434.49847 
L 1045.403127 434.49847 
L 1046.690905 440.123312 
L 1051.900554 440.123312 
L 1053.194836 445.766004 
L 1057.071179 445.766004 
L 1058.365461 451.427044 
L 1063.549094 451.427044 
L 1064.81736 457.106833 
L 1068.739231 457.106833 
L 1070.007497 462.805887 
L 1076.478908 462.805887 
L 1077.77319 468.1102 
L 1080.348747 468.1102 
L 1081.669045 473.841768 
L 1086.820158 473.841768 
L 1088.107937 479.593919 
L 1089.402219 479.593919 
L 1090.703005 479.167838 
L 1091.984279 484.933657 
L 1098.45569 484.933657 
L 1099.756477 490.720943 
L 1104.946613 490.720943 
L 1106.21488 496.530244 
L 1110.078215 496.530244 
L 1111.392009 502.36204 
L 1116.536618 502.36204 
L 1117.8309 508.216848 
L 1121.720251 508.216848 
L 1123.014533 514.095182 
L 1128.17215 514.095182 
L 1129.498952 519.997571 
L 1130.767219 519.521609 
L 1133.355783 519.521609 
L 1134.656569 525.44069 
L 1139.814186 525.44069 
L 1141.101965 531.384872 
L 1146.279094 531.384872 
L 1147.57988 536.858528 
L 1151.456222 536.858528 
L 1152.770016 542.846433 
L 1157.927634 542.846433 
L 1159.247932 548.860983 
L 1165.712839 548.860983 
L 1167.000617 554.902805 
L 1172.138722 554.902805 
L 1173.511052 560.972446 
L 1178.623141 560.972446 
L 1179.917424 566.537213 
L 1182.532004 566.537213 
L 1183.826286 572.655899 
L 1185.120568 569.592898 
L 1186.408347 569.592898 
L 1187.715637 575.726298 
L 1189.016423 575.726298 
L 1190.297697 575.184325 
L 1192.892766 575.184325 
L 1194.17404 581.33908 
L 1195.461818 581.33908 
L 1195.461818 581.33908 
" clip-path="url(#p218a6cc0f9)" style="fill: none; stroke: #1f77b4; stroke-width: 1.5; stroke-linecap: square"/>
   </g>
   <g id="line2d_16">
    <path d="M 221.498182 582.190631 
L 222.78596 585.556554 
L 224.080242 585.556554 
L 225.394036 589.296249 
L 229.257371 589.296249 
L 230.54515 593.047184 
L 231.845936 593.047184 
L 233.15973 592.678751 
L 234.4345 592.678751 
L 235.722278 596.438707 
L 237.029569 596.438707 
L 238.323851 600.21 
L 249.972391 600.21 
L 251.266673 598.322906 
L 253.835726 598.322906 
L 255.136512 596.438707 
L 256.42429 596.438707 
L 257.738084 592.678751 
L 257.738084 592.678751 
L 260.300633 588.93018 
L 261.627435 588.93018 
L 262.889197 584.054682 
L 264.196487 584.054682 
L 265.477762 580.329363 
L 266.804564 580.329363 
L 268.098846 574.762152 
L 269.399632 574.762152 
L 270.680906 569.21956 
L 271.975189 569.21956 
L 273.269471 565.538124 
L 274.557249 565.538124 
L 275.858035 560.736531 
L 277.13931 560.736531 
L 278.440096 557.077142 
L 279.727874 557.077142 
L 281.02866 551.607893 
L 282.316439 551.607893 
L 282.316439 547.97481 
L 284.898499 547.97481 
L 286.199285 545.036094 
L 287.493568 545.036094 
L 290.082132 537.812205 
L 291.36991 537.812205 
L 292.664193 536.012621 
L 293.958475 536.012621 
L 295.252757 534.215545 
L 296.540535 534.215545 
L 297.847825 532.421042 
L 299.1291 532.421042 
L 300.423382 528.839497 
L 301.71116 528.839497 
L 303.011946 527.052504 
L 304.299725 527.052504 
L 305.600511 525.267955 
L 306.888289 525.267955 
L 308.182571 524.146173 
L 309.476854 524.146173 
L 310.771136 522.364213 
L 312.039402 522.364213 
L 313.3597 520.584745 
L 314.647479 520.584745 
L 315.941761 518.80769 
L 317.242547 518.80769 
L 318.50431 517.03311 
L 319.824608 517.03311 
L 323.70095 511.723844 
L 324.995233 511.723844 
L 324.995233 509.958897 
L 327.590301 509.958897 
L 328.884583 508.196378 
L 330.172361 508.196378 
L 331.473148 504.678415 
L 332.760926 504.678415 
L 334.022688 502.922971 
L 335.34949 502.922971 
L 336.643773 501.169891 
L 337.925047 501.169891 
L 339.225833 498.300272 
L 340.520115 498.300272 
L 341.781878 496.55184 
L 343.102176 496.55184 
L 344.396458 493.061905 
L 345.697244 493.061905 
L 347.004534 491.320387 
L 348.279305 491.320387 
L 349.573587 487.844216 
L 350.861365 487.844216 
L 352.136136 484.377116 
L 353.423914 484.377116 
L 354.731204 482.646934 
L 354.731204 479.193277 
L 357.326273 479.193277 
L 358.627059 477.469769 
L 359.927845 477.469769 
L 361.215623 475.748463 
L 362.48389 475.748463 
L 363.797684 472.312462 
L 365.104974 472.312462 
L 366.392752 469.479442 
L 367.706546 469.479442 
L 368.974813 467.76674 
L 370.282103 467.76674 
L 370.282103 464.347735 
L 372.857659 464.347735 
L 374.151941 462.641433 
L 375.446224 462.641433 
L 376.727498 459.235229 
L 378.008772 459.235229 
L 378.008772 457.535246 
L 380.616849 457.535246 
L 381.917635 454.1416 
L 383.16639 454.1416 
L 384.47368 452.447905 
L 385.761458 452.447905 
L 387.05574 449.066657 
L 388.382542 447.379121 
L 389.644305 447.379121 
L 390.945091 444.57408 
L 392.226365 444.57408 
L 393.520647 442.890355 
L 394.808426 442.890355 
L 396.102708 441.208607 
L 397.436014 441.208607 
L 398.723792 437.851078 
L 400.018074 437.851078 
L 401.312356 434.501477 
L 402.600135 434.501477 
L 403.868401 432.829602 
L 405.201707 432.829602 
L 406.489485 431.159722 
L 407.777264 431.159722 
L 409.091058 427.825719 
L 410.365828 427.825719 
L 414.235667 422.839121 
L 415.536453 422.839121 
L 416.824231 419.524205 
L 418.144529 419.524205 
L 419.425804 418.401266 
L 420.713582 418.401266 
L 421.994856 415.093071 
L 423.276131 413.441731 
L 424.570413 413.441731 
L 425.877703 410.144584 
L 427.158977 410.144584 
L 428.446756 408.49876 
L 429.741038 408.49876 
L 431.041824 405.212515 
L 432.34261 405.212515 
L 433.617381 401.933426 
L 434.937679 401.933426 
L 436.218953 400.296526 
L 437.500227 400.296526 
L 438.814021 397.028034 
L 440.108304 397.028034 
L 441.396082 395.396425 
L 442.696868 395.396425 
L 443.984646 392.138385 
L 445.278929 392.138385 
L 446.547195 391.009592 
L 447.834973 391.009592 
L 449.168279 387.757406 
L 450.430042 387.757406 
L 451.71782 386.133853 
L 453.012102 386.133853 
L 455.626683 379.656382 
L 456.901453 379.656382 
L 458.189231 378.041159 
L 459.490017 378.041159 
L 460.777796 376.427544 
L 462.072078 376.427544 
L 463.36636 373.205218 
L 464.667146 373.205218 
L 465.961429 371.596475 
L 467.242703 371.596475 
L 468.543489 368.383782 
L 469.850779 368.383782 
L 471.145061 365.177392 
L 472.43284 365.177392 
L 473.759642 364.04064 
L 475.027908 364.04064 
L 476.32219 360.839299 
L 477.622976 360.839299 
L 478.917259 359.240928 
L 480.198533 359.240928 
L 481.525335 356.048801 
L 482.793601 356.048801 
L 484.087884 352.862705 
L 485.35615 352.862705 
L 486.643928 351.271892 
L 487.951219 348.094736 
L 489.252005 348.094736 
L 490.546287 346.508361 
L 491.840569 346.508361 
L 493.11534 343.339985 
L 494.461653 343.339985 
L 495.710408 340.177365 
L 497.030706 340.177365 
L 500.868025 335.444066 
L 502.168811 335.444066 
L 503.463094 333.869108 
L 504.776888 333.869108 
L 506.045154 331.1459 
L 507.332932 331.1459 
L 508.659734 329.572984 
L 509.947513 329.572984 
L 511.222283 326.222691 
L 512.542581 326.222691 
L 513.810847 323.088406 
L 515.10513 323.088406 
L 516.399412 321.934753 
L 517.68719 321.934753 
L 518.981472 318.804214 
L 520.275755 318.804214 
L 521.563533 317.037932 
L 522.864319 313.917299 
L 524.197625 313.917299 
L 525.485403 312.358904 
L 526.786189 312.358904 
L 528.073968 309.245908 
L 529.342234 309.245908 
L 530.649524 307.691292 
L 531.95031 307.691292 
L 533.238089 304.585774 
L 534.532371 304.585774 
L 535.826653 301.485193 
L 537.127439 301.485193 
L 538.415218 299.936703 
L 539.683484 299.936703 
L 540.971262 297.223112 
L 542.259041 297.223112 
L 543.553323 294.130394 
L 544.847605 294.130394 
L 546.141887 292.585796 
L 547.43617 292.585796 
L 548.723948 289.500073 
L 550.01823 289.500073 
L 551.338528 287.958932 
L 553.920589 287.958932 
L 555.214871 284.880059 
L 555.214871 281.805672 
L 557.796931 281.805672 
L 559.097718 278.735708 
L 560.35948 278.735708 
L 561.660266 277.202366 
L 562.961052 277.202366 
L 564.242327 274.138898 
L 565.562625 274.138898 
L 566.863411 272.608756 
L 568.157693 272.608756 
L 569.451975 269.551656 
L 570.746258 269.551656 
L 572.021028 266.498705 
L 573.334822 266.498705 
L 574.6226 264.973773 
L 575.92989 264.973773 
L 577.185149 261.926949 
L 578.511951 261.926949 
L 579.806233 260.405024 
L 581.094011 260.405024 
L 582.368782 257.364165 
L 583.676072 257.364165 
L 584.957346 255.845199 
L 586.258133 255.845199 
L 587.552415 252.810161 
L 588.859705 252.810161 
L 590.147483 249.778934 
L 591.441765 248.264728 
L 592.742552 248.264728 
L 594.03033 245.239081 
L 595.318108 245.239081 
L 596.618894 242.527066 
L 597.906673 242.527066 
L 599.200955 241.015448 
L 600.508245 241.015448 
L 601.796023 237.842554 
L 603.083801 237.842554 
L 604.384588 236.33457 
L 605.672366 236.33457 
L 606.960144 233.321177 
L 608.267434 233.321177 
L 609.555213 230.311176 
L 610.849495 230.311176 
L 612.163289 228.807438 
L 613.438059 228.807438 
L 614.725838 225.802438 
L 616.026624 225.802438 
L 617.307898 222.800687 
L 618.6347 222.800687 
L 619.928982 221.301001 
L 621.184241 221.301001 
L 623.779309 215.310089 
L 625.086599 215.310089 
L 626.374378 213.814279 
L 627.681668 213.814279 
L 628.949934 211.095027 
L 630.237713 211.095027 
L 631.531995 209.599506 
L 632.832781 209.599506 
L 634.153079 206.478262 
L 635.440857 206.478262 
L 636.715628 203.494182 
L 638.003406 203.494182 
L 639.297688 200.512917 
L 640.585466 200.512917 
L 641.853733 199.023314 
L 643.154519 199.023314 
L 644.442297 196.046117 
L 645.73658 196.046117 
L 647.030862 193.071574 
L 648.325144 193.071574 
L 649.619426 191.585267 
L 650.920212 191.585267 
L 652.194983 188.614567 
L 653.495769 188.614567 
L 654.796555 185.646359 
L 656.090837 185.646359 
L 657.378616 184.163172 
L 658.679402 181.198598 
L 659.96718 181.198598 
L 661.261462 178.236372 
L 662.555745 178.236372 
L 663.850027 176.756111 
L 665.170325 176.756111 
L 666.445095 173.797294 
L 667.752385 173.797294 
L 669.014148 172.318722 
L 670.30843 172.318722 
L 671.602712 169.36317 
L 672.896995 169.36317 
L 674.184773 166.40974 
L 675.505071 166.40974 
L 676.773337 163.458352 
L 678.06762 163.458352 
L 679.361902 161.983414 
L 680.656184 161.983414 
L 681.976482 159.035001 
L 683.26426 159.035001 
L 684.539031 156.088501 
L 685.833313 156.088501 
L 687.127595 153.143851 
L 688.421877 153.143851 
L 689.703152 151.672194 
L 691.029954 148.730213 
L 692.291716 148.730213 
L 693.585998 145.789921 
L 694.886785 145.789921 
L 696.174563 142.851285 
L 697.475349 142.851285 
L 698.802151 141.382553 
L 700.070417 141.382553 
L 701.358196 138.446281 
L 702.67199 138.446281 
L 703.959768 136.978708 
L 705.25405 136.978708 
L 706.574348 134.044671 
L 707.842615 134.044671 
L 709.136897 131.112033 
L 710.424675 131.112033 
L 711.725461 128.180778 
L 713.01324 128.180778 
L 714.333538 126.715632 
L 715.601804 126.715632 
L 716.896086 123.786291 
L 718.196873 123.786291 
L 719.497659 120.858187 
L 720.785437 120.858187 
L 722.079719 119.394554 
L 723.374002 116.468155 
L 724.668284 116.468155 
L 725.962566 115.154004 
L 729.851917 115.079584 
L 731.133191 113.616128 
L 737.637122 113.616128 
L 738.898884 116.543298 
L 740.186663 116.543298 
L 741.480945 119.471547 
L 745.363792 119.471547 
L 746.65157 123.866049 
L 747.945852 123.866049 
L 749.23363 128.263302 
L 750.54092 128.263302 
L 751.828699 132.663481 
L 753.116477 132.663481 
L 754.417263 137.066796 
L 755.698538 142.943071 
L 757.005828 142.943071 
L 758.293606 147.354442 
L 759.594392 147.354442 
L 760.88217 153.242167 
L 762.176453 153.242167 
L 763.464231 157.662639 
L 764.765017 157.662639 
L 766.052795 162.087357 
L 767.314558 162.087357 
L 768.634856 166.516481 
L 769.935642 166.516481 
L 771.22342 170.950252 
L 772.517703 170.950252 
L 773.785969 173.908747 
L 775.073747 173.908747 
L 776.361526 178.350655 
L 777.662312 178.350655 
L 780.250876 181.314778 
L 784.133723 181.314778 
L 785.421501 185.646359 
L 789.336868 185.646359 
L 790.63115 190.099603 
L 793.206706 190.099603 
L 794.507493 193.071574 
L 795.801775 193.071574 
L 797.096057 196.046117 
L 800.985408 196.046117 
L 802.266682 199.023314 
L 803.55446 199.023314 
L 804.855247 202.003212 
L 808.738093 202.003212 
L 810.025871 204.98586 
L 811.287634 204.98586 
L 812.575412 207.971354 
L 813.876199 207.971354 
L 815.170481 210.959711 
L 819.079343 210.959711 
L 820.386633 215.447817 
L 822.994709 215.447817 
L 824.275984 219.942726 
L 825.557258 219.942726 
L 826.85154 222.943239 
L 828.132815 222.943239 
L 829.433601 225.946936 
L 833.322952 225.946936 
L 834.61073 230.458617 
L 835.898508 230.458617 
L 837.19279 233.470547 
L 841.075637 233.470547 
L 842.369919 237.842554 
L 843.683713 237.842554 
L 844.95198 240.861157 
L 846.265774 240.861157 
L 847.553552 243.883315 
L 848.84133 243.883315 
L 850.122605 246.909106 
L 854.018459 246.909106 
L 855.29323 251.4547 
L 856.587512 254.489818 
L 860.470359 254.489818 
L 861.764641 259.049707 
L 865.640984 259.049707 
L 866.94177 263.618441 
L 870.818113 263.618441 
L 872.112395 266.669302 
L 873.406677 266.669302 
L 874.687951 269.724263 
L 875.988738 269.724263 
L 877.289524 272.608756 
L 881.165867 272.608756 
L 882.440637 277.202366 
L 883.734919 277.202366 
L 885.035705 280.270127 
L 888.89904 280.270127 
L 890.199826 284.880059 
L 892.781887 284.880059 
L 894.082673 289.500073 
L 895.357443 289.500073 
L 896.65823 292.39862 
L 900.541076 292.39862 
L 901.828855 297.032881 
L 905.705197 297.032881 
L 907.038503 301.677803 
L 910.882326 301.677803 
L 912.170105 306.333628 
L 913.464387 306.333628 
L 914.765173 309.443697 
L 916.052951 309.443697 
L 917.347234 312.55875 
L 921.236584 312.55875 
L 922.524362 317.240914 
L 923.812141 317.037932 
L 925.106423 317.037932 
L 926.413713 321.728619 
L 927.707995 321.728619 
L 928.995774 324.862342 
L 932.891628 324.862342 
L 934.179406 329.572984 
L 938.075261 329.572984 
L 939.363039 334.082108 
L 940.650818 334.082108 
L 941.9451 337.235529 
L 945.827946 337.235529 
L 947.14174 341.976242 
L 951.011579 341.976242 
L 952.305862 346.729851 
L 956.182204 346.729851 
L 957.489494 351.271892 
L 960.071555 351.271892 
L 961.391853 356.048801 
L 963.947898 356.048801 
L 963.947898 356.048801 
L 966.51695 360.839299 
L 967.82424 360.839299 
L 969.138034 364.04064 
L 970.425813 364.04064 
L 971.707087 363.808166 
L 973.001369 363.808166 
L 974.289148 368.618635 
L 978.16549 368.618635 
L 979.47278 373.443336 
L 980.780071 373.443336 
L 982.048337 376.427544 
L 985.931184 376.427544 
L 987.218962 381.273245 
L 989.81403 381.273245 
L 991.114817 386.133853 
L 994.991159 386.133853 
L 996.278938 390.760299 
L 1000.161784 390.760299 
L 1001.449563 395.648099 
L 1005.358425 395.648099 
L 1006.626692 400.551545 
L 1007.920974 400.551545 
L 1009.215256 403.829299 
L 1013.124118 403.829299 
L 1014.385881 406.854721 
L 1016.974445 406.854721 
L 1018.268728 410.144584 
L 1019.556506 410.144584 
L 1020.883308 413.441731 
L 1022.14507 413.441731 
L 1023.439353 413.178753 
L 1024.733635 413.178753 
L 1026.021413 418.134927 
L 1028.635993 418.134927 
L 1029.90426 423.107856 
L 1033.787107 423.107856 
L 1035.081389 428.097862 
L 1038.93822 428.097862 
L 1040.225998 432.829602 
L 1044.102341 432.829602 
L 1045.403127 437.851078 
L 1046.690905 437.851078 
L 1047.978684 441.208607 
L 1049.272966 441.208607 
L 1050.573752 440.928375 
L 1051.900554 440.928375 
L 1053.194836 444.291597 
L 1054.489118 444.291597 
L 1055.770393 447.662891 
L 1057.071179 447.662891 
L 1058.365461 451.042289 
L 1060.954025 451.042289 
L 1062.248308 455.837386 
L 1066.12465 455.837386 
L 1067.425437 460.937269 
L 1071.295275 460.937269 
L 1072.596062 466.05616 
L 1076.478908 466.05616 
L 1077.77319 471.194331 
L 1079.060969 471.194331 
L 1080.348747 470.895477 
L 1081.669045 470.895477 
L 1082.956823 474.329437 
L 1084.231594 474.329437 
L 1085.519372 477.77216 
L 1086.820158 477.77216 
L 1088.107937 481.223727 
L 1090.703005 481.223727 
L 1091.984279 486.109549 
L 1095.867126 486.109549 
L 1097.187424 489.581168 
L 1098.45569 489.581168 
L 1099.756477 493.061905 
L 1103.632819 493.061905 
L 1104.946613 496.55184 
L 1106.21488 496.55184 
L 1107.502658 499.734527 
L 1111.392009 499.734527 
L 1112.712307 504.997272 
L 1116.536618 504.997272 
L 1117.8309 510.281324 
L 1119.125182 510.281324 
L 1120.419465 509.958897 
L 1121.720251 509.958897 
L 1124.308815 517.03311 
L 1128.17215 517.03311 
L 1129.498952 522.364213 
L 1133.355783 522.364213 
L 1134.656569 527.384402 
L 1138.526408 527.384402 
L 1139.814186 530.963278 
L 1141.101965 530.963278 
L 1142.396247 534.552187 
L 1143.690529 534.552187 
L 1145.017331 534.215545 
L 1146.279094 534.215545 
L 1147.57988 539.614314 
L 1151.456222 539.614314 
L 1152.770016 543.226267 
L 1154.051291 543.226267 
L 1155.345573 546.504745 
L 1157.927634 546.504745 
L 1159.247932 550.134965 
L 1163.111266 550.134965 
L 1164.392541 555.251427 
L 1168.314411 555.251427 
L 1169.589181 558.90551 
L 1170.889968 558.90551 
L 1172.138722 562.570238 
L 1173.511052 562.570238 
L 1174.733791 562.218223 
L 1176.041081 562.218223 
L 1177.328859 565.891265 
L 1178.623141 565.891265 
L 1179.917424 569.575097 
L 1183.826286 569.575097 
L 1185.120568 575.121226 
L 1189.016423 575.121226 
L 1190.297697 578.470876 
L 1192.892766 578.470876 
L 1194.17404 582.190631 
L 1195.461818 582.190631 
L 1195.461818 582.190631 
" clip-path="url(#p218a6cc0f9)" style="fill: none; stroke: #ff7f0e; stroke-width: 1.5; stroke-linecap: square"/>
   </g>
   <g id="line2d_17">
    <path d="M 221.498182 591.053317 
L 709.136897 108.81 
L 1195.461818 589.766889 
L 1195.461818 589.766889 
" clip-path="url(#p218a6cc0f9)" style="fill: none; stroke: #2ca02c; stroke-width: 1.5; stroke-linecap: square"/>
   </g>
   <g id="patch_3">
    <path d="M 172.8 624.78 
L 172.8 84.24 
" style="fill: none; stroke: #000000; stroke-width: 0.8; stroke-linejoin: miter; stroke-linecap: square"/>
   </g>
   <g id="patch_4">
    <path d="M 1244.16 624.78 
L 1244.16 84.24 
" style="fill: none; stroke: #000000; stroke-width: 0.8; stroke-linejoin: miter; stroke-linecap: square"/>
   </g>
   <g id="patch_5">
    <path d="M 172.8 624.78 
L 1244.16 624.78 
" style="fill: none; stroke: #000000; stroke-width: 0.8; stroke-linejoin: miter; stroke-linecap: square"/>
   </g>
   <g id="patch_6">
    <path d="M 172.8 84.24 
L 1244.16 84.24 
" style="fill: none; stroke: #000000; stroke-width: 0.8; stroke-linejoin: miter; stroke-linecap: square"/>
   </g>
   <g id="text_17">
    <!-- 400mm/s -->
    <g transform="translate(680.191875 78.24) scale(0.12 -0.12)">
     <defs>
      <path id="DejaVuSans-2f" d="M 1625 4666 
L 2156 4666 
L 531 -594 
L 0 -594 
L 1625 4666 
z
" transform="scale(0.015625)"/>
     </defs>
     <use xlink:href="#DejaVuSans-34"/>
     <use xlink:href="#DejaVuSans-30" x="63.623047"/>
     <use xlink:href="#DejaVuSans-30" x="127.246094"/>
     <use xlink:href="#DejaVuSans-6d" x="190.869141"/>
     <use xlink:href="#DejaVuSans-6d" x="288.28125"/>
     <use xlink:href="#DejaVuSans-2f" x="385.693359"/>
     <use xlink:href="#DejaVuSans-73" x="419.384766"/>
    </g>
   </g>
   <g id="legend_1">
    <g id="patch_7">
     <path d="M 1155.2475 136.274375 
L 1237.16 136.274375 
Q 1239.16 136.274375 1239.16 134.274375 
L 1239.16 91.24 
Q 1239.16 89.24 1237.16 89.24 
L 1155.2475 89.24 
Q 1153.2475 89.24 1153.2475 91.24 
L 1153.2475 134.274375 
Q 1153.2475 136.274375 1155.2475 136.274375 
z
" style="fill: #ffffff; opacity: 0.8; stroke: #cccccc; stroke-linejoin: miter"/>
    </g>
    <g id="line2d_18">
     <path d="M 1157.2475 97.338438 
L 1167.2475 97.338438 
L 1177.2475 97.338438 
" style="fill: none; stroke: #1f77b4; stroke-width: 1.5; stroke-linecap: square"/>
    </g>
    <g id="text_18">
     <!-- cam0 -->
     <g transform="translate(1185.2475 100.838438) scale(0.1 -0.1)">
      <defs>
       <path id="DejaVuSans-63" d="M 3122 3366 
L 3122 2828 
Q 2878 2963 2633 3030 
Q 2388 3097 2138 3097 
Q 1578 3097 1268 2742 
Q 959 2388 959 1747 
Q 959 1106 1268 751 
Q 1578 397 2138 397 
Q 2388 397 2633 464 
Q 2878 531 3122 666 
L 3122 134 
Q 2881 22 2623 -34 
Q 2366 -91 2075 -91 
Q 1284 -91 818 406 
Q 353 903 353 1747 
Q 353 2603 823 3093 
Q 1294 3584 2113 3584 
Q 2378 3584 2631 3529 
Q 2884 3475 3122 3366 
z
" transform="scale(0.015625)"/>
       <path id="DejaVuSans-61" d="M 2194 1759 
Q 1497 1759 1228 1600 
Q 959 1441 959 1056 
Q 959 750 1161 570 
Q 1363 391 1709 391 
Q 2188 391 2477 730 
Q 2766 1069 2766 1631 
L 2766 1759 
L 2194 1759 
z
M 3341 1997 
L 3341 0 
L 2766 0 
L 2766 531 
Q 2569 213 2275 61 
Q 1981 -91 1556 -91 
Q 1019 -91 701 211 
Q 384 513 384 1019 
Q 384 1609 779 1909 
Q 1175 2209 1959 2209 
L 2766 2209 
L 2766 2266 
Q 2766 2663 2505 2880 
Q 2244 3097 1772 3097 
Q 1472 3097 1187 3025 
Q 903 2953 641 2809 
L 641 3341 
Q 956 3463 1253 3523 
Q 1550 3584 1831 3584 
Q 2591 3584 2966 3190 
Q 3341 2797 3341 1997 
z
" transform="scale(0.015625)"/>
      </defs>
      <use xlink:href="#DejaVuSans-63"/>
      <use xlink:href="#DejaVuSans-61" x="54.980469"/>
      <use xlink:href="#DejaVuSans-6d" x="116.259766"/>
      <use xlink:href="#DejaVuSans-30" x="213.671875"/>
     </g>
    </g>
    <g id="line2d_19">
     <path d="M 1157.2475 112.016563 
L 1167.2475 112.016563 
L 1177.2475 112.016563 
" style="fill: none; stroke: #ff7f0e; stroke-width: 1.5; stroke-linecap: square"/>
    </g>
    <g id="text_19">
     <!-- cam5 -->
     <g transform="translate(1185.2475 115.516563) scale(0.1 -0.1)">
      <use xlink:href="#DejaVuSans-63"/>
      <use xlink:href="#DejaVuSans-61" x="54.980469"/>
      <use xlink:href="#DejaVuSans-6d" x="116.259766"/>
      <use xlink:href="#DejaVuSans-35" x="213.671875"/>
     </g>
    </g>
    <g id="line2d_20">
     <path d="M 1157.2475 126.694688 
L 1167.2475 126.694688 
L 1177.2475 126.694688 
" style="fill: none; stroke: #2ca02c; stroke-width: 1.5; stroke-linecap: square"/>
    </g>
    <g id="text_20">
     <!-- command -->
     <g transform="translate(1185.2475 130.194688) scale(0.1 -0.1)">
      <defs>
       <path id="DejaVuSans-64" d="M 2906 2969 
L 2906 4863 
L 3481 4863 
L 3481 0 
L 2906 0 
L 2906 525 
Q 2725 213 2448 61 
Q 2172 -91 1784 -91 
Q 1150 -91 751 415 
Q 353 922 353 1747 
Q 353 2572 751 3078 
Q 1150 3584 1784 3584 
Q 2172 3584 2448 3432 
Q 2725 3281 2906 2969 
z
M 947 1747 
Q 947 1113 1208 752 
Q 1469 391 1925 391 
Q 2381 391 2643 752 
Q 2906 1113 2906 1747 
Q 2906 2381 2643 2742 
Q 2381 3103 1925 3103 
Q 1469 3103 1208 2742 
Q 947 2381 947 1747 
z
" transform="scale(0.015625)"/>
      </defs>
      <use xlink:href="#DejaVuSans-63"/>
      <use xlink:href="#DejaVuSans-6f" x="54.980469"/>
      <use xlink:href="#DejaVuSans-6d" x="116.162109"/>
      <use xlink:href="#DejaVuSans-6d" x="213.574219"/>
      <use xlink:href="#DejaVuSans-61" x="310.986328"/>
      <use xlink:href="#DejaVuSans-6e" x="372.265625"/>
      <use xlink:href="#DejaVuSans-64" x="435.644531"/>
     </g>
    </g>
   </g>
  </g>
 </g>
 <defs>
  <clipPath id="p218a6cc0f9">
   <rect x="172.8" y="84.24" width="1071.36" height="540.54"/>
  </clipPath>
 </defs>
</svg>
