<?xml version="1.0" encoding="utf-8" standalone="no"?>
<!DOCTYPE svg PUBLIC "-//W3C//DTD SVG 1.1//EN"
  "http://www.w3.org/Graphics/SVG/1.1/DTD/svg11.dtd">
<svg xmlns:xlink="http://www.w3.org/1999/xlink" width="460.8pt" height="345.6pt" viewBox="0 0 460.8 345.6" xmlns="http://www.w3.org/2000/svg" version="1.1">
 <metadata>
  <rdf:RDF xmlns:dc="http://purl.org/dc/elements/1.1/" xmlns:cc="http://creativecommons.org/ns#" xmlns:rdf="http://www.w3.org/1999/02/22-rdf-syntax-ns#">
   <cc:Work>
    <dc:type rdf:resource="http://purl.org/dc/dcmitype/StillImage"/>
    <dc:date>2023-06-01T14:42:22.859696</dc:date>
    <dc:format>image/svg+xml</dc:format>
    <dc:creator>
     <cc:Agent>
      <dc:title>Matplotlib v3.7.1, https://matplotlib.org/</dc:title>
     </cc:Agent>
    </dc:creator>
   </cc:Work>
  </rdf:RDF>
 </metadata>
 <defs>
  <style type="text/css">*{stroke-linejoin: round; stroke-linecap: butt}</style>
 </defs>
 <g id="figure_1">
  <g id="patch_1">
   <path d="M 0 345.6 
L 460.8 345.6 
L 460.8 0 
L 0 0 
z
" style="fill: #ffffff"/>
  </g>
  <g id="axes_1">
   <g id="patch_2">
    <path d="M 57.6 307.584 
L 414.72 307.584 
L 414.72 41.472 
L 57.6 41.472 
z
" style="fill: #ffffff"/>
   </g>
   <g id="matplotlib.axis_1">
    <g id="xtick_1">
     <g id="line2d_1">
      <defs>
       <path id="m3997cbc43a" d="M 0 0 
L 0 3.5 
" style="stroke: #000000; stroke-width: 0.8"/>
      </defs>
      <g>
       <use xlink:href="#m3997cbc43a" x="73.832727" y="307.584" style="stroke: #000000; stroke-width: 0.8"/>
      </g>
     </g>
     <g id="text_1">
      <!-- 0.0 -->
      <g transform="translate(65.881165 322.182437) scale(0.1 -0.1)">
       <defs>
        <path id="DejaVuSans-30" d="M 2034 4250 
Q 1547 4250 1301 3770 
Q 1056 3291 1056 2328 
Q 1056 1369 1301 889 
Q 1547 409 2034 409 
Q 2525 409 2770 889 
Q 3016 1369 3016 2328 
Q 3016 3291 2770 3770 
Q 2525 4250 2034 4250 
z
M 2034 4750 
Q 2819 4750 3233 4129 
Q 3647 3509 3647 2328 
Q 3647 1150 3233 529 
Q 2819 -91 2034 -91 
Q 1250 -91 836 529 
Q 422 1150 422 2328 
Q 422 3509 836 4129 
Q 1250 4750 2034 4750 
z
" transform="scale(0.015625)"/>
        <path id="DejaVuSans-2e" d="M 684 794 
L 1344 794 
L 1344 0 
L 684 0 
L 684 794 
z
" transform="scale(0.015625)"/>
       </defs>
       <use xlink:href="#DejaVuSans-30"/>
       <use xlink:href="#DejaVuSans-2e" x="63.623047"/>
       <use xlink:href="#DejaVuSans-30" x="95.410156"/>
      </g>
     </g>
    </g>
    <g id="xtick_2">
     <g id="line2d_2">
      <g>
       <use xlink:href="#m3997cbc43a" x="117.192266" y="307.584" style="stroke: #000000; stroke-width: 0.8"/>
      </g>
     </g>
     <g id="text_2">
      <!-- 0.2 -->
      <g transform="translate(109.240703 322.182437) scale(0.1 -0.1)">
       <defs>
        <path id="DejaVuSans-32" d="M 1228 531 
L 3431 531 
L 3431 0 
L 469 0 
L 469 531 
Q 828 903 1448 1529 
Q 2069 2156 2228 2338 
Q 2531 2678 2651 2914 
Q 2772 3150 2772 3378 
Q 2772 3750 2511 3984 
Q 2250 4219 1831 4219 
Q 1534 4219 1204 4116 
Q 875 4013 500 3803 
L 500 4441 
Q 881 4594 1212 4672 
Q 1544 4750 1819 4750 
Q 2544 4750 2975 4387 
Q 3406 4025 3406 3419 
Q 3406 3131 3298 2873 
Q 3191 2616 2906 2266 
Q 2828 2175 2409 1742 
Q 1991 1309 1228 531 
z
" transform="scale(0.015625)"/>
       </defs>
       <use xlink:href="#DejaVuSans-30"/>
       <use xlink:href="#DejaVuSans-2e" x="63.623047"/>
       <use xlink:href="#DejaVuSans-32" x="95.410156"/>
      </g>
     </g>
    </g>
    <g id="xtick_3">
     <g id="line2d_3">
      <g>
       <use xlink:href="#m3997cbc43a" x="160.551805" y="307.584" style="stroke: #000000; stroke-width: 0.8"/>
      </g>
     </g>
     <g id="text_3">
      <!-- 0.4 -->
      <g transform="translate(152.600242 322.182437) scale(0.1 -0.1)">
       <defs>
        <path id="DejaVuSans-34" d="M 2419 4116 
L 825 1625 
L 2419 1625 
L 2419 4116 
z
M 2253 4666 
L 3047 4666 
L 3047 1625 
L 3713 1625 
L 3713 1100 
L 3047 1100 
L 3047 0 
L 2419 0 
L 2419 1100 
L 313 1100 
L 313 1709 
L 2253 4666 
z
" transform="scale(0.015625)"/>
       </defs>
       <use xlink:href="#DejaVuSans-30"/>
       <use xlink:href="#DejaVuSans-2e" x="63.623047"/>
       <use xlink:href="#DejaVuSans-34" x="95.410156"/>
      </g>
     </g>
    </g>
    <g id="xtick_4">
     <g id="line2d_4">
      <g>
       <use xlink:href="#m3997cbc43a" x="203.911343" y="307.584" style="stroke: #000000; stroke-width: 0.8"/>
      </g>
     </g>
     <g id="text_4">
      <!-- 0.6 -->
      <g transform="translate(195.959781 322.182437) scale(0.1 -0.1)">
       <defs>
        <path id="DejaVuSans-36" d="M 2113 2584 
Q 1688 2584 1439 2293 
Q 1191 2003 1191 1497 
Q 1191 994 1439 701 
Q 1688 409 2113 409 
Q 2538 409 2786 701 
Q 3034 994 3034 1497 
Q 3034 2003 2786 2293 
Q 2538 2584 2113 2584 
z
M 3366 4563 
L 3366 3988 
Q 3128 4100 2886 4159 
Q 2644 4219 2406 4219 
Q 1781 4219 1451 3797 
Q 1122 3375 1075 2522 
Q 1259 2794 1537 2939 
Q 1816 3084 2150 3084 
Q 2853 3084 3261 2657 
Q 3669 2231 3669 1497 
Q 3669 778 3244 343 
Q 2819 -91 2113 -91 
Q 1303 -91 875 529 
Q 447 1150 447 2328 
Q 447 3434 972 4092 
Q 1497 4750 2381 4750 
Q 2619 4750 2861 4703 
Q 3103 4656 3366 4563 
z
" transform="scale(0.015625)"/>
       </defs>
       <use xlink:href="#DejaVuSans-30"/>
       <use xlink:href="#DejaVuSans-2e" x="63.623047"/>
       <use xlink:href="#DejaVuSans-36" x="95.410156"/>
      </g>
     </g>
    </g>
    <g id="xtick_5">
     <g id="line2d_5">
      <g>
       <use xlink:href="#m3997cbc43a" x="247.270882" y="307.584" style="stroke: #000000; stroke-width: 0.8"/>
      </g>
     </g>
     <g id="text_5">
      <!-- 0.8 -->
      <g transform="translate(239.319319 322.182437) scale(0.1 -0.1)">
       <defs>
        <path id="DejaVuSans-38" d="M 2034 2216 
Q 1584 2216 1326 1975 
Q 1069 1734 1069 1313 
Q 1069 891 1326 650 
Q 1584 409 2034 409 
Q 2484 409 2743 651 
Q 3003 894 3003 1313 
Q 3003 1734 2745 1975 
Q 2488 2216 2034 2216 
z
M 1403 2484 
Q 997 2584 770 2862 
Q 544 3141 544 3541 
Q 544 4100 942 4425 
Q 1341 4750 2034 4750 
Q 2731 4750 3128 4425 
Q 3525 4100 3525 3541 
Q 3525 3141 3298 2862 
Q 3072 2584 2669 2484 
Q 3125 2378 3379 2068 
Q 3634 1759 3634 1313 
Q 3634 634 3220 271 
Q 2806 -91 2034 -91 
Q 1263 -91 848 271 
Q 434 634 434 1313 
Q 434 1759 690 2068 
Q 947 2378 1403 2484 
z
M 1172 3481 
Q 1172 3119 1398 2916 
Q 1625 2713 2034 2713 
Q 2441 2713 2670 2916 
Q 2900 3119 2900 3481 
Q 2900 3844 2670 4047 
Q 2441 4250 2034 4250 
Q 1625 4250 1398 4047 
Q 1172 3844 1172 3481 
z
" transform="scale(0.015625)"/>
       </defs>
       <use xlink:href="#DejaVuSans-30"/>
       <use xlink:href="#DejaVuSans-2e" x="63.623047"/>
       <use xlink:href="#DejaVuSans-38" x="95.410156"/>
      </g>
     </g>
    </g>
    <g id="xtick_6">
     <g id="line2d_6">
      <g>
       <use xlink:href="#m3997cbc43a" x="290.63042" y="307.584" style="stroke: #000000; stroke-width: 0.8"/>
      </g>
     </g>
     <g id="text_6">
      <!-- 1.0 -->
      <g transform="translate(282.678858 322.182437) scale(0.1 -0.1)">
       <defs>
        <path id="DejaVuSans-31" d="M 794 531 
L 1825 531 
L 1825 4091 
L 703 3866 
L 703 4441 
L 1819 4666 
L 2450 4666 
L 2450 531 
L 3481 531 
L 3481 0 
L 794 0 
L 794 531 
z
" transform="scale(0.015625)"/>
       </defs>
       <use xlink:href="#DejaVuSans-31"/>
       <use xlink:href="#DejaVuSans-2e" x="63.623047"/>
       <use xlink:href="#DejaVuSans-30" x="95.410156"/>
      </g>
     </g>
    </g>
    <g id="xtick_7">
     <g id="line2d_7">
      <g>
       <use xlink:href="#m3997cbc43a" x="333.989959" y="307.584" style="stroke: #000000; stroke-width: 0.8"/>
      </g>
     </g>
     <g id="text_7">
      <!-- 1.2 -->
      <g transform="translate(326.038397 322.182437) scale(0.1 -0.1)">
       <use xlink:href="#DejaVuSans-31"/>
       <use xlink:href="#DejaVuSans-2e" x="63.623047"/>
       <use xlink:href="#DejaVuSans-32" x="95.410156"/>
      </g>
     </g>
    </g>
    <g id="xtick_8">
     <g id="line2d_8">
      <g>
       <use xlink:href="#m3997cbc43a" x="377.349498" y="307.584" style="stroke: #000000; stroke-width: 0.8"/>
      </g>
     </g>
     <g id="text_8">
      <!-- 1.4 -->
      <g transform="translate(369.397935 322.182437) scale(0.1 -0.1)">
       <use xlink:href="#DejaVuSans-31"/>
       <use xlink:href="#DejaVuSans-2e" x="63.623047"/>
       <use xlink:href="#DejaVuSans-34" x="95.410156"/>
      </g>
     </g>
    </g>
    <g id="text_9">
     <!-- time [s] -->
     <g transform="translate(216.768594 335.860562) scale(0.1 -0.1)">
      <defs>
       <path id="DejaVuSans-74" d="M 1172 4494 
L 1172 3500 
L 2356 3500 
L 2356 3053 
L 1172 3053 
L 1172 1153 
Q 1172 725 1289 603 
Q 1406 481 1766 481 
L 2356 481 
L 2356 0 
L 1766 0 
Q 1100 0 847 248 
Q 594 497 594 1153 
L 594 3053 
L 172 3053 
L 172 3500 
L 594 3500 
L 594 4494 
L 1172 4494 
z
" transform="scale(0.015625)"/>
       <path id="DejaVuSans-69" d="M 603 3500 
L 1178 3500 
L 1178 0 
L 603 0 
L 603 3500 
z
M 603 4863 
L 1178 4863 
L 1178 4134 
L 603 4134 
L 603 4863 
z
" transform="scale(0.015625)"/>
       <path id="DejaVuSans-6d" d="M 3328 2828 
Q 3544 3216 3844 3400 
Q 4144 3584 4550 3584 
Q 5097 3584 5394 3201 
Q 5691 2819 5691 2113 
L 5691 0 
L 5113 0 
L 5113 2094 
Q 5113 2597 4934 2840 
Q 4756 3084 4391 3084 
Q 3944 3084 3684 2787 
Q 3425 2491 3425 1978 
L 3425 0 
L 2847 0 
L 2847 2094 
Q 2847 2600 2669 2842 
Q 2491 3084 2119 3084 
Q 1678 3084 1418 2786 
Q 1159 2488 1159 1978 
L 1159 0 
L 581 0 
L 581 3500 
L 1159 3500 
L 1159 2956 
Q 1356 3278 1631 3431 
Q 1906 3584 2284 3584 
Q 2666 3584 2933 3390 
Q 3200 3197 3328 2828 
z
" transform="scale(0.015625)"/>
       <path id="DejaVuSans-65" d="M 3597 1894 
L 3597 1613 
L 953 1613 
Q 991 1019 1311 708 
Q 1631 397 2203 397 
Q 2534 397 2845 478 
Q 3156 559 3463 722 
L 3463 178 
Q 3153 47 2828 -22 
Q 2503 -91 2169 -91 
Q 1331 -91 842 396 
Q 353 884 353 1716 
Q 353 2575 817 3079 
Q 1281 3584 2069 3584 
Q 2775 3584 3186 3129 
Q 3597 2675 3597 1894 
z
M 3022 2063 
Q 3016 2534 2758 2815 
Q 2500 3097 2075 3097 
Q 1594 3097 1305 2825 
Q 1016 2553 972 2059 
L 3022 2063 
z
" transform="scale(0.015625)"/>
       <path id="DejaVuSans-20" transform="scale(0.015625)"/>
       <path id="DejaVuSans-5b" d="M 550 4863 
L 1875 4863 
L 1875 4416 
L 1125 4416 
L 1125 -397 
L 1875 -397 
L 1875 -844 
L 550 -844 
L 550 4863 
z
" transform="scale(0.015625)"/>
       <path id="DejaVuSans-73" d="M 2834 3397 
L 2834 2853 
Q 2591 2978 2328 3040 
Q 2066 3103 1784 3103 
Q 1356 3103 1142 2972 
Q 928 2841 928 2578 
Q 928 2378 1081 2264 
Q 1234 2150 1697 2047 
L 1894 2003 
Q 2506 1872 2764 1633 
Q 3022 1394 3022 966 
Q 3022 478 2636 193 
Q 2250 -91 1575 -91 
Q 1294 -91 989 -36 
Q 684 19 347 128 
L 347 722 
Q 666 556 975 473 
Q 1284 391 1588 391 
Q 1994 391 2212 530 
Q 2431 669 2431 922 
Q 2431 1156 2273 1281 
Q 2116 1406 1581 1522 
L 1381 1569 
Q 847 1681 609 1914 
Q 372 2147 372 2553 
Q 372 3047 722 3315 
Q 1072 3584 1716 3584 
Q 2034 3584 2315 3537 
Q 2597 3491 2834 3397 
z
" transform="scale(0.015625)"/>
       <path id="DejaVuSans-5d" d="M 1947 4863 
L 1947 -844 
L 622 -844 
L 622 -397 
L 1369 -397 
L 1369 4416 
L 622 4416 
L 622 4863 
L 1947 4863 
z
" transform="scale(0.015625)"/>
      </defs>
      <use xlink:href="#DejaVuSans-74"/>
      <use xlink:href="#DejaVuSans-69" x="39.208984"/>
      <use xlink:href="#DejaVuSans-6d" x="66.992188"/>
      <use xlink:href="#DejaVuSans-65" x="164.404297"/>
      <use xlink:href="#DejaVuSans-20" x="225.927734"/>
      <use xlink:href="#DejaVuSans-5b" x="257.714844"/>
      <use xlink:href="#DejaVuSans-73" x="296.728516"/>
      <use xlink:href="#DejaVuSans-5d" x="348.828125"/>
     </g>
    </g>
   </g>
   <g id="matplotlib.axis_2">
    <g id="ytick_1">
     <g id="line2d_9">
      <defs>
       <path id="m733e77b462" d="M 0 0 
L -3.5 0 
" style="stroke: #000000; stroke-width: 0.8"/>
      </defs>
      <g>
       <use xlink:href="#m733e77b462" x="57.6" y="275.226298" style="stroke: #000000; stroke-width: 0.8"/>
      </g>
     </g>
     <g id="text_10">
      <!-- −250 -->
      <g transform="translate(23.132812 279.025516) scale(0.1 -0.1)">
       <defs>
        <path id="DejaVuSans-2212" d="M 678 2272 
L 4684 2272 
L 4684 1741 
L 678 1741 
L 678 2272 
z
" transform="scale(0.015625)"/>
        <path id="DejaVuSans-35" d="M 691 4666 
L 3169 4666 
L 3169 4134 
L 1269 4134 
L 1269 2991 
Q 1406 3038 1543 3061 
Q 1681 3084 1819 3084 
Q 2600 3084 3056 2656 
Q 3513 2228 3513 1497 
Q 3513 744 3044 326 
Q 2575 -91 1722 -91 
Q 1428 -91 1123 -41 
Q 819 9 494 109 
L 494 744 
Q 775 591 1075 516 
Q 1375 441 1709 441 
Q 2250 441 2565 725 
Q 2881 1009 2881 1497 
Q 2881 1984 2565 2268 
Q 2250 2553 1709 2553 
Q 1456 2553 1204 2497 
Q 953 2441 691 2322 
L 691 4666 
z
" transform="scale(0.015625)"/>
       </defs>
       <use xlink:href="#DejaVuSans-2212"/>
       <use xlink:href="#DejaVuSans-32" x="83.789062"/>
       <use xlink:href="#DejaVuSans-35" x="147.412109"/>
       <use xlink:href="#DejaVuSans-30" x="211.035156"/>
      </g>
     </g>
    </g>
    <g id="ytick_2">
     <g id="line2d_10">
      <g>
       <use xlink:href="#m733e77b462" x="57.6" y="235.643893" style="stroke: #000000; stroke-width: 0.8"/>
      </g>
     </g>
     <g id="text_11">
      <!-- −200 -->
      <g transform="translate(23.132812 239.443112) scale(0.1 -0.1)">
       <use xlink:href="#DejaVuSans-2212"/>
       <use xlink:href="#DejaVuSans-32" x="83.789062"/>
       <use xlink:href="#DejaVuSans-30" x="147.412109"/>
       <use xlink:href="#DejaVuSans-30" x="211.035156"/>
      </g>
     </g>
    </g>
    <g id="ytick_3">
     <g id="line2d_11">
      <g>
       <use xlink:href="#m733e77b462" x="57.6" y="196.061489" style="stroke: #000000; stroke-width: 0.8"/>
      </g>
     </g>
     <g id="text_12">
      <!-- −150 -->
      <g transform="translate(23.132812 199.860708) scale(0.1 -0.1)">
       <use xlink:href="#DejaVuSans-2212"/>
       <use xlink:href="#DejaVuSans-31" x="83.789062"/>
       <use xlink:href="#DejaVuSans-35" x="147.412109"/>
       <use xlink:href="#DejaVuSans-30" x="211.035156"/>
      </g>
     </g>
    </g>
    <g id="ytick_4">
     <g id="line2d_12">
      <g>
       <use xlink:href="#m733e77b462" x="57.6" y="156.479085" style="stroke: #000000; stroke-width: 0.8"/>
      </g>
     </g>
     <g id="text_13">
      <!-- −100 -->
      <g transform="translate(23.132812 160.278303) scale(0.1 -0.1)">
       <use xlink:href="#DejaVuSans-2212"/>
       <use xlink:href="#DejaVuSans-31" x="83.789062"/>
       <use xlink:href="#DejaVuSans-30" x="147.412109"/>
       <use xlink:href="#DejaVuSans-30" x="211.035156"/>
      </g>
     </g>
    </g>
    <g id="ytick_5">
     <g id="line2d_13">
      <g>
       <use xlink:href="#m733e77b462" x="57.6" y="116.89668" style="stroke: #000000; stroke-width: 0.8"/>
      </g>
     </g>
     <g id="text_14">
      <!-- −50 -->
      <g transform="translate(29.495313 120.695899) scale(0.1 -0.1)">
       <use xlink:href="#DejaVuSans-2212"/>
       <use xlink:href="#DejaVuSans-35" x="83.789062"/>
       <use xlink:href="#DejaVuSans-30" x="147.412109"/>
      </g>
     </g>
    </g>
    <g id="ytick_6">
     <g id="line2d_14">
      <g>
       <use xlink:href="#m733e77b462" x="57.6" y="77.314276" style="stroke: #000000; stroke-width: 0.8"/>
      </g>
     </g>
     <g id="text_15">
      <!-- 0 -->
      <g transform="translate(44.2375 81.113495) scale(0.1 -0.1)">
       <use xlink:href="#DejaVuSans-30"/>
      </g>
     </g>
    </g>
    <g id="text_16">
     <!-- position [mm] -->
     <g transform="translate(17.053125 209.563938) rotate(-90) scale(0.1 -0.1)">
      <defs>
       <path id="DejaVuSans-70" d="M 1159 525 
L 1159 -1331 
L 581 -1331 
L 581 3500 
L 1159 3500 
L 1159 2969 
Q 1341 3281 1617 3432 
Q 1894 3584 2278 3584 
Q 2916 3584 3314 3078 
Q 3713 2572 3713 1747 
Q 3713 922 3314 415 
Q 2916 -91 2278 -91 
Q 1894 -91 1617 61 
Q 1341 213 1159 525 
z
M 3116 1747 
Q 3116 2381 2855 2742 
Q 2594 3103 2138 3103 
Q 1681 3103 1420 2742 
Q 1159 2381 1159 1747 
Q 1159 1113 1420 752 
Q 1681 391 2138 391 
Q 2594 391 2855 752 
Q 3116 1113 3116 1747 
z
" transform="scale(0.015625)"/>
       <path id="DejaVuSans-6f" d="M 1959 3097 
Q 1497 3097 1228 2736 
Q 959 2375 959 1747 
Q 959 1119 1226 758 
Q 1494 397 1959 397 
Q 2419 397 2687 759 
Q 2956 1122 2956 1747 
Q 2956 2369 2687 2733 
Q 2419 3097 1959 3097 
z
M 1959 3584 
Q 2709 3584 3137 3096 
Q 3566 2609 3566 1747 
Q 3566 888 3137 398 
Q 2709 -91 1959 -91 
Q 1206 -91 779 398 
Q 353 888 353 1747 
Q 353 2609 779 3096 
Q 1206 3584 1959 3584 
z
" transform="scale(0.015625)"/>
       <path id="DejaVuSans-6e" d="M 3513 2113 
L 3513 0 
L 2938 0 
L 2938 2094 
Q 2938 2591 2744 2837 
Q 2550 3084 2163 3084 
Q 1697 3084 1428 2787 
Q 1159 2491 1159 1978 
L 1159 0 
L 581 0 
L 581 3500 
L 1159 3500 
L 1159 2956 
Q 1366 3272 1645 3428 
Q 1925 3584 2291 3584 
Q 2894 3584 3203 3211 
Q 3513 2838 3513 2113 
z
" transform="scale(0.015625)"/>
      </defs>
      <use xlink:href="#DejaVuSans-70"/>
      <use xlink:href="#DejaVuSans-6f" x="63.476562"/>
      <use xlink:href="#DejaVuSans-73" x="124.658203"/>
      <use xlink:href="#DejaVuSans-69" x="176.757812"/>
      <use xlink:href="#DejaVuSans-74" x="204.541016"/>
      <use xlink:href="#DejaVuSans-69" x="243.75"/>
      <use xlink:href="#DejaVuSans-6f" x="271.533203"/>
      <use xlink:href="#DejaVuSans-6e" x="332.714844"/>
      <use xlink:href="#DejaVuSans-20" x="396.09375"/>
      <use xlink:href="#DejaVuSans-5b" x="427.880859"/>
      <use xlink:href="#DejaVuSans-6d" x="466.894531"/>
      <use xlink:href="#DejaVuSans-6d" x="564.306641"/>
      <use xlink:href="#DejaVuSans-5d" x="661.71875"/>
     </g>
    </g>
   </g>
   <g id="line2d_15">
    <path d="M 73.832727 287.718322 
L 74.261987 286.197701 
L 74.693414 286.197701 
L 75.131345 289.242736 
L 77.281979 289.242736 
L 77.71991 292.303105 
L 81.169161 292.303105 
L 81.600589 295.379101 
L 82.032016 293.839124 
L 83.755558 293.839124 
L 84.186985 292.303105 
L 85.045504 292.303105 
L 85.912695 289.242736 
L 85.912695 289.242736 
L 86.766878 287.718322 
L 87.209145 286.197701 
L 87.629732 286.197701 
L 89.366282 280.152296 
L 89.799877 280.152296 
L 92.37977 271.441642 
L 92.813365 271.441642 
L 93.242625 269.958125 
L 93.67622 269.958125 
L 94.10548 267.001098 
L 94.10548 267.001098 
L 94.966166 265.5275 
L 95.399762 265.5275 
L 95.831189 264.057141 
L 96.260449 264.057141 
L 96.694044 262.589979 
L 97.123303 262.830474 
L 97.554731 261.36454 
L 98.417586 261.36454 
L 98.846845 259.90174 
L 99.7097 259.90174 
L 100.141127 258.442052 
L 100.570387 258.442052 
L 101.003982 256.985435 
L 101.433242 256.985435 
L 101.866837 257.219969 
L 102.296096 255.764484 
L 103.158951 255.764484 
L 103.590379 254.312008 
L 104.882493 254.312008 
L 105.31392 252.862516 
L 106.168103 252.862516 
L 106.608203 251.415985 
L 107.041798 251.415985 
L 107.900317 249.972367 
L 108.331744 249.972367 
L 108.331744 249.972367 
L 109.196767 248.531639 
L 109.628194 247.093761 
L 110.491049 247.093761 
L 110.920309 245.658717 
L 111.340896 245.658717 
L 112.214591 242.796956 
L 113.075278 242.796956 
L 113.506705 241.370177 
L 113.927293 241.370177 
L 114.798819 238.524709 
L 115.668178 238.524709 
L 116.093102 237.315989 
L 116.524529 237.315989 
L 116.953788 235.898012 
L 117.378712 235.898012 
L 117.807971 234.482641 
L 118.243735 234.482641 
L 119.108758 233.069818 
L 119.542353 231.659513 
L 120.405208 231.659513 
L 120.827963 230.454252 
L 121.265895 230.454252 
L 121.701658 229.047137 
L 122.130917 229.047137 
L 122.991604 226.240214 
L 123.427368 226.240214 
L 123.427368 226.240214 
L 124.285886 224.840351 
L 124.717314 224.840351 
L 125.148741 223.442847 
L 126.002924 223.442847 
L 126.002924 223.442847 
L 126.872283 220.654813 
L 128.157893 220.654813 
L 129.01858 217.875867 
L 129.460847 217.875867 
L 129.881435 216.489746 
L 130.742122 216.489746 
L 131.173549 215.105811 
L 132.034236 215.105811 
L 132.907931 212.525592 
L 133.770785 212.525592 
L 134.6228 209.76924 
L 135.496495 209.76924 
L 135.925755 208.394163 
L 136.363686 208.394163 
L 136.788609 207.021136 
L 137.220037 207.021136 
L 137.220037 207.021136 
L 138.078556 205.650113 
L 138.512151 205.650113 
L 138.94141 204.28106 
L 139.38151 204.28106 
L 140.237861 201.717688 
L 141.092044 201.717688 
L 141.523471 200.352768 
L 141.959234 200.352768 
L 142.386326 198.98974 
L 143.247013 198.98974 
L 143.680608 197.628564 
L 144.114203 197.628564 
L 144.539127 196.269217 
L 144.979226 196.269217 
L 145.406318 194.911699 
L 145.833409 194.911699 
L 146.27134 193.555947 
L 146.702768 193.555947 
L 147.132027 192.201959 
L 147.565623 192.201959 
L 147.994882 190.849713 
L 148.849065 190.849713 
L 149.72276 188.303702 
L 150.143347 188.303702 
L 150.572607 186.954868 
L 151.004034 186.954868 
L 151.435462 185.607665 
L 152.729744 185.607665 
L 153.592599 182.918072 
L 154.455453 182.918072 
L 154.889049 181.575643 
L 155.320476 181.575643 
L 155.747568 180.23475 
L 156.181163 180.23475 
L 157.048354 177.557491 
L 158.342636 177.557491 
L 159.207659 174.886106 
L 159.639086 174.886106 
L 160.066178 173.552551 
L 160.508445 173.552551 
L 160.9312 172.220397 
L 161.785383 172.220397 
L 162.650406 169.560191 
L 163.515429 169.560191 
L 163.946856 168.362324 
L 164.37178 168.362324 
L 164.820551 167.033939 
L 165.676902 167.033939 
L 166.09749 165.706836 
L 166.09749 165.706836 
L 166.956008 164.380999 
L 167.389604 164.380999 
L 168.258963 161.733008 
L 169.110977 161.733008 
L 169.553245 160.410821 
L 169.982504 160.410821 
L 170.407428 159.08979 
L 171.270282 159.08979 
L 171.70171 157.769906 
L 172.133137 157.769906 
L 172.562397 156.451147 
L 172.993824 156.451147 
L 173.425252 155.133489 
L 173.854511 155.133489 
L 174.288106 153.816907 
L 174.732542 153.816907 
L 175.161801 152.501378 
L 175.595396 152.501378 
L 176.024656 151.186886 
L 176.447411 151.186886 
L 177.31677 148.560902 
L 178.177457 148.560902 
L 178.608884 147.24937 
L 179.04248 147.24937 
L 179.471739 145.938789 
L 180.323754 145.938789 
L 180.753014 144.629126 
L 181.184441 144.629126 
L 181.615868 143.320358 
L 182.047296 143.320358 
L 182.478723 142.01246 
L 182.907983 142.01246 
L 183.33941 140.705425 
L 183.779509 140.705425 
L 184.640196 139.39923 
L 185.071624 139.39923 
L 185.071624 139.39923 
L 185.93231 136.789229 
L 186.365906 136.789229 
L 186.786493 135.485401 
L 187.653684 135.485401 
L 188.520875 132.879952 
L 188.95447 132.879952 
L 189.385898 131.578293 
L 189.817325 131.578293 
L 190.248753 130.277314 
L 190.673676 130.277314 
L 191.111607 128.976993 
L 191.540867 128.976993 
L 191.97663 127.677312 
L 192.39505 127.677312 
L 192.837317 126.378249 
L 193.268744 126.378249 
L 193.698004 125.159982 
L 194.122927 125.159982 
L 194.558691 123.860587 
L 195.419378 123.860587 
L 196.286568 121.263443 
L 196.715828 121.263443 
L 197.147255 119.965647 
L 197.580851 119.965647 
L 198.01011 118.668349 
L 198.439369 118.668349 
L 198.872965 117.371511 
L 199.302224 117.371511 
L 199.733652 116.075132 
L 200.598674 116.075132 
L 201.027934 114.779172 
L 201.461529 114.779172 
L 201.890789 113.483624 
L 202.320048 113.483624 
L 202.755811 112.188456 
L 203.185071 112.188456 
L 203.616498 110.893652 
L 204.05443 110.893652 
L 204.479353 109.599189 
L 204.908613 109.599189 
L 205.342208 108.305058 
L 205.769299 108.305058 
L 206.211567 107.01122 
L 206.642994 107.01122 
L 207.061414 105.717659 
L 207.926436 105.717659 
L 208.791459 103.131305 
L 209.227223 103.131305 
L 209.649978 101.838465 
L 210.510665 101.838465 
L 210.94426 100.545822 
L 211.38436 100.545822 
L 211.813619 99.253346 
L 212.238543 99.253346 
L 212.667802 97.961028 
L 213.099229 97.961028 
L 213.528489 96.668845 
L 213.951244 96.668845 
L 214.814099 94.084802 
L 215.676954 94.084802 
L 216.108381 92.792896 
L 216.539809 92.792896 
L 216.973404 91.501037 
L 217.398328 91.501037 
L 217.831923 90.20921 
L 218.265518 90.20921 
L 218.696946 88.917383 
L 219.126205 88.917383 
L 219.559801 87.625556 
L 219.98906 87.625556 
L 220.420487 86.333689 
L 221.283342 86.333689 
L 221.723442 85.041767 
L 222.148365 85.041767 
L 222.584128 83.749773 
L 223.004716 83.749773 
L 223.436143 82.457685 
L 224.298998 82.457685 
L 225.168357 79.873128 
L 226.453967 79.873128 
L 226.885395 77.287938 
L 227.754753 77.287938 
L 228.611104 74.701948 
L 229.473959 74.701948 
L 230.343318 72.114993 
L 231.628928 72.114993 
L 232.491783 69.526897 
L 232.93405 69.51028 
L 233.356806 68.217234 
L 233.786065 68.217234 
L 234.223997 66.923832 
L 235.084683 66.923832 
L 235.947538 64.335918 
L 236.808225 64.335918 
L 237.67108 61.746358 
L 238.533935 61.746358 
L 239.398958 59.155001 
L 239.832553 59.155001 
L 240.261812 57.858582 
L 241.124667 57.858582 
L 241.556095 56.561657 
L 242.418949 56.561657 
L 242.850377 55.264193 
L 246.299628 55.264193 
L 246.728888 57.858582 
L 248.021002 57.858582 
L 248.454597 61.746358 
L 249.744543 61.746358 
L 250.180307 64.335918 
L 250.609566 64.335918 
L 251.038826 66.923832 
L 251.472421 66.923832 
L 251.899513 69.51028 
L 252.335276 69.51028 
L 252.764535 72.095431 
L 253.198131 72.095431 
L 254.058818 77.262486 
L 254.488077 77.262486 
L 254.921672 79.844732 
L 255.771519 79.844732 
L 256.211619 82.426336 
L 256.645214 82.426336 
L 257.074473 85.00748 
L 258.357916 85.00748 
L 258.787175 87.588324 
L 260.083625 87.588324 
L 260.512885 90.169034 
L 261.807167 90.169034 
L 262.236427 92.749775 
L 263.972976 92.749775 
L 264.402235 95.330722 
L 266.130113 95.37678 
L 266.563708 97.961028 
L 267.851487 97.961028 
L 268.285082 100.545822 
L 269.579364 100.545822 
L 270.008624 103.131305 
L 271.723494 103.131305 
L 272.159257 105.717659 
L 272.159257 105.717659 
L 273.462211 105.717659 
L 273.895806 108.305058 
L 275.185753 108.305058 
L 275.61718 110.893652 
L 276.909294 110.893652 
L 277.340722 113.483624 
L 279.064263 113.483624 
L 279.493523 116.075132 
L 280.358546 116.075132 
L 280.789973 118.668349 
L 282.088591 118.668349 
L 282.517851 121.263443 
L 284.237056 121.263443 
L 284.67282 123.860587 
L 286.392025 123.860587 
L 286.823453 126.459955 
L 287.686308 126.459955 
L 288.117735 129.061707 
L 289.412017 129.061707 
L 289.841277 131.666023 
L 291.135559 131.666023 
L 291.56265 134.273071 
L 292.859101 134.273071 
L 293.292696 136.883032 
L 295.011902 136.883032 
L 295.447665 139.496072 
L 296.733275 139.496072 
L 297.164703 142.112366 
L 298.452481 142.112366 
L 298.886077 144.732088 
L 300.180359 144.732088 
L 300.609618 147.35542 
L 302.346168 147.35542 
L 302.764587 149.982543 
L 304.488129 149.982543 
L 304.921724 152.613617 
L 305.782411 152.613617 
L 306.216007 155.24884 
L 307.93738 155.24884 
L 308.368808 157.888392 
L 309.235998 157.888392 
L 309.665258 157.769906 
L 310.098853 160.410821 
L 311.828899 160.410821 
L 312.260326 163.056406 
L 313.550273 163.056406 
L 313.9817 165.706836 
L 315.713913 165.706836 
L 316.136669 168.362324 
L 317.435287 168.362324 
L 317.868883 171.023037 
L 319.592424 171.023037 
L 320.023852 173.689158 
L 321.315966 173.689158 
L 321.315966 173.689158 
L 322.172317 176.360891 
L 323.046011 176.360891 
L 323.475271 178.895368 
L 324.763049 178.895368 
L 325.194477 181.575643 
L 326.490927 181.575643 
L 326.92669 184.262077 
L 328.212301 184.262077 
L 328.643728 186.954868 
L 329.93801 186.954868 
L 330.371606 189.654214 
L 332.092979 189.654214 
L 332.533079 192.360305 
L 333.816521 192.360305 
L 334.247948 195.07337 
L 335.973658 195.07337 
L 336.405085 197.793575 
L 337.708039 197.793575 
L 338.128627 200.521143 
L 339.422909 200.352768 
L 339.852169 203.084524 
L 341.577878 203.084524 
L 342.007138 205.82403 
L 343.30142 205.82403 
L 343.735015 208.571492 
L 344.162107 208.571492 
L 344.595702 208.394163 
L 345.465061 208.394163 
L 345.887816 211.146375 
L 347.173427 211.146375 
L 347.604854 213.906939 
L 348.467709 213.906939 
L 348.896968 216.676092 
L 350.633518 216.676092 
L 351.064945 219.454033 
L 352.35706 219.454033 
L 352.788487 222.241006 
L 354.516365 222.241006 
L 354.93912 225.03721 
L 356.24641 225.03721 
L 356.669166 227.842898 
L 358.826303 227.842898 
L 359.25773 230.454252 
L 360.116249 230.454252 
L 360.556348 233.275947 
L 362.273386 233.275947 
L 362.702646 236.107775 
L 363.134073 236.107775 
L 363.567668 235.898012 
L 363.99476 238.736569 
L 366.151897 238.736569 
L 366.585492 241.585695 
L 368.315538 241.585695 
L 368.738293 244.445658 
L 370.026072 244.445658 
L 370.464003 247.316697 
L 372.178873 247.316697 
L 372.6103 250.199064 
L 373.90675 250.199064 
L 374.338178 253.093013 
L 376.057383 253.093013 
L 376.499651 255.998804 
L 376.922406 255.764484 
L 377.785261 255.764484 
L 378.218856 258.678494 
L 379.938062 258.678494 
L 380.367322 261.60486 
L 382.093031 261.60486 
L 382.526627 264.299583 
L 383.818741 264.299583 
L 384.256672 267.247474 
L 385.975878 267.247474 
L 386.415977 270.208484 
L 388.570946 270.208484 
L 389.000206 273.182919 
L 390.712907 273.182919 
L 391.170351 276.17105 
L 392.87438 276.17105 
L 393.305808 278.910628 
L 394.177335 278.910628 
L 394.608762 281.922904 
L 395.040189 280.414965 
L 395.469449 280.414965 
L 395.905212 283.434485 
L 396.338808 283.434485 
L 396.765899 283.167668 
L 397.630922 283.167668 
L 398.058013 286.197701 
L 398.487273 286.197701 
L 398.487273 286.197701 
" clip-path="url(#p687e989f73)" style="fill: none; stroke: #1f77b4; stroke-width: 1.5; stroke-linecap: square"/>
   </g>
   <g id="line2d_16">
    <path d="M 73.832727 286.616926 
L 74.261987 288.273996 
L 74.693414 288.273996 
L 75.131345 290.115077 
L 76.419124 290.115077 
L 76.848383 291.961691 
L 77.281979 291.961691 
L 77.71991 291.780308 
L 78.144833 291.780308 
L 78.574093 293.631364 
L 79.009856 293.631364 
L 79.441284 295.488 
L 83.32413 295.488 
L 83.755558 294.558969 
L 84.611909 294.558969 
L 85.045504 293.631364 
L 85.474763 293.631364 
L 85.912695 291.780308 
L 85.912695 291.780308 
L 86.766878 289.934858 
L 87.209145 289.934858 
L 87.629732 287.534613 
L 88.065496 287.534613 
L 88.492587 285.700609 
L 88.934855 285.700609 
L 89.366282 282.959829 
L 89.799877 282.959829 
L 90.226969 280.231168 
L 90.658396 280.231168 
L 91.089824 278.418769 
L 91.519083 278.418769 
L 91.952678 276.054908 
L 92.37977 276.054908 
L 92.813365 274.253362 
L 93.242625 274.253362 
L 93.67622 271.560809 
L 94.10548 271.560809 
L 94.10548 269.772214 
L 94.966166 269.772214 
L 95.399762 268.325462 
L 95.831189 268.325462 
L 96.694044 264.769086 
L 97.123303 264.769086 
L 97.554731 263.883136 
L 97.986158 263.883136 
L 98.417586 262.998422 
L 98.846845 262.998422 
L 99.282608 262.114975 
L 99.7097 262.114975 
L 100.141127 260.351753 
L 100.570387 260.351753 
L 101.003982 259.472002 
L 101.433242 259.472002 
L 101.866837 258.593455 
L 102.296096 258.593455 
L 102.727524 258.041193 
L 103.158951 258.041193 
L 103.590379 257.16392 
L 104.013134 257.16392 
L 104.453233 256.287875 
L 104.882493 256.287875 
L 105.31392 255.413016 
L 105.747516 255.413016 
L 106.168103 254.539377 
L 106.608203 254.539377 
L 107.900317 251.925585 
L 108.331744 251.925585 
L 108.331744 251.056688 
L 109.196767 251.056688 
L 109.628194 250.188986 
L 110.057454 250.188986 
L 110.491049 248.457066 
L 110.920309 248.457066 
L 111.340896 247.592847 
L 111.783163 247.592847 
L 112.214591 246.729793 
L 112.641682 246.729793 
L 113.075278 245.317057 
L 113.506705 245.317057 
L 113.927293 244.45629 
L 114.367392 244.45629 
L 114.798819 242.738168 
L 115.232415 242.738168 
L 115.668178 241.880806 
L 116.093102 241.880806 
L 116.524529 240.16946 
L 116.953788 240.16946 
L 117.378712 238.46258 
L 117.807971 238.46258 
L 118.243735 237.610798 
L 118.243735 235.910536 
L 119.108758 235.910536 
L 119.542353 235.06204 
L 119.975948 235.06204 
L 120.405208 234.214628 
L 120.827963 234.214628 
L 121.265895 232.523058 
L 121.701658 232.523058 
L 122.130917 231.128341 
L 122.568849 231.128341 
L 122.991604 230.285164 
L 123.427368 230.285164 
L 123.427368 228.601962 
L 124.285886 228.601962 
L 124.717314 227.761936 
L 125.148741 227.761936 
L 125.575833 226.085036 
L 126.002924 226.085036 
L 126.002924 225.248121 
L 126.872283 225.248121 
L 127.305878 223.577403 
L 127.72213 223.577403 
L 128.157893 222.743584 
L 128.587153 222.743584 
L 129.01858 221.07897 
L 129.460847 220.248183 
L 129.881435 220.248183 
L 130.31503 218.86724 
L 130.742122 218.86724 
L 131.173549 218.038329 
L 131.602809 218.038329 
L 132.034236 217.210391 
L 132.478671 217.210391 
L 132.907931 215.557454 
L 133.339358 215.557454 
L 133.770785 213.908419 
L 134.200045 213.908419 
L 134.6228 213.085343 
L 135.067236 213.085343 
L 135.496495 212.263248 
L 135.925755 212.263248 
L 136.363686 210.621892 
L 136.788609 210.621892 
L 138.078556 208.166952 
L 138.512151 208.166952 
L 138.94141 206.534993 
L 139.38151 206.534993 
L 139.808601 205.982162 
L 140.237861 205.982162 
L 140.664952 204.353512 
L 141.092044 203.540545 
L 141.523471 203.540545 
L 141.959234 201.917334 
L 142.386326 201.917334 
L 142.815585 201.107082 
L 143.247013 201.107082 
L 143.680608 199.489238 
L 144.114203 199.489238 
L 144.539127 197.874917 
L 144.979226 197.874917 
L 145.406318 197.069059 
L 145.833409 197.069059 
L 146.27134 195.459955 
L 146.702768 195.459955 
L 147.132027 194.656702 
L 147.565623 194.656702 
L 147.994882 193.052743 
L 148.42631 193.052743 
L 148.849065 192.49703 
L 149.278324 192.49703 
L 149.72276 190.895954 
L 150.143347 190.895954 
L 150.572607 190.096666 
L 151.004034 190.096666 
L 151.875561 186.907757 
L 152.300484 186.907757 
L 152.729744 186.11257 
L 153.163339 186.11257 
L 153.592599 185.318175 
L 154.024026 185.318175 
L 154.455453 183.7318 
L 154.889049 183.7318 
L 155.320476 182.939803 
L 155.747568 182.939803 
L 156.181163 181.358169 
L 156.616926 181.358169 
L 157.048354 179.779639 
L 157.477613 179.779639 
L 157.919881 179.220007 
L 158.342636 179.220007 
L 158.774063 177.643962 
L 159.207659 177.643962 
L 159.639086 176.857072 
L 160.066178 176.857072 
L 160.508445 175.285564 
L 160.9312 175.285564 
L 161.362628 173.717024 
L 161.785383 173.717024 
L 162.214643 172.933854 
L 162.650406 171.369716 
L 163.084002 171.369716 
L 163.515429 170.588731 
L 163.946856 170.588731 
L 164.37178 169.028916 
L 164.820551 169.028916 
L 165.236803 167.471934 
L 165.676902 167.471934 
L 166.956008 165.141694 
L 167.389604 165.141694 
L 167.821031 164.36633 
L 168.258963 164.36633 
L 168.681718 163.025674 
L 169.110977 163.025674 
L 169.553245 162.251315 
L 169.982504 162.251315 
L 170.407428 160.60194 
L 170.847527 160.60194 
L 171.270282 159.058907 
L 171.70171 159.058907 
L 172.133137 158.490955 
L 172.562397 158.490955 
L 172.993824 156.949767 
L 173.425252 156.949767 
L 173.854511 156.080213 
L 174.288106 154.543901 
L 174.732542 154.543901 
L 175.161801 153.776691 
L 175.595396 153.776691 
L 176.024656 152.244139 
L 176.447411 152.244139 
L 176.883175 151.47879 
L 177.31677 151.47879 
L 177.74603 149.94992 
L 178.177457 149.94992 
L 178.608884 148.42348 
L 179.04248 148.42348 
L 179.471739 147.661146 
L 179.894495 147.661146 
L 180.323754 146.325224 
L 180.753014 146.325224 
L 181.184441 144.802655 
L 181.615868 144.802655 
L 182.047296 144.042238 
L 182.478723 144.042238 
L 182.907983 142.523113 
L 183.33941 142.523113 
L 183.779509 141.764397 
L 184.640196 141.764397 
L 185.071624 140.248644 
L 185.071624 138.7351 
L 185.93231 138.7351 
L 186.365906 137.223733 
L 186.786493 137.223733 
L 187.220089 136.468857 
L 187.653684 136.468857 
L 188.080776 134.960688 
L 188.520875 134.960688 
L 188.95447 134.207388 
L 189.385898 134.207388 
L 189.817325 132.702354 
L 190.248753 132.702354 
L 190.673676 131.199363 
L 191.111607 131.199363 
L 191.540867 130.448627 
L 191.97663 130.448627 
L 192.39505 128.948652 
L 192.837317 128.948652 
L 193.268744 128.199396 
L 193.698004 128.199396 
L 194.122927 126.702358 
L 194.558691 126.702358 
L 194.985782 125.954559 
L 195.419378 125.954559 
L 195.850805 124.460387 
L 196.286568 124.460387 
L 196.715828 122.968091 
L 197.147255 122.222635 
L 197.580851 122.222635 
L 198.01011 120.733086 
L 198.439369 120.733086 
L 198.872965 119.39794 
L 199.302224 119.39794 
L 199.733652 118.653759 
L 200.169415 118.653759 
L 200.598674 117.091719 
L 201.027934 117.091719 
L 201.461529 116.349327 
L 201.890789 116.349327 
L 202.320048 114.86581 
L 202.755811 114.86581 
L 203.185071 113.383964 
L 203.616498 113.383964 
L 204.05443 112.643662 
L 204.479353 112.643662 
L 204.908613 111.164277 
L 205.342208 111.164277 
L 205.769299 109.686492 
L 206.211567 109.686492 
L 206.642994 108.948185 
L 207.061414 108.948185 
L 207.926436 105.998813 
L 208.3622 105.998813 
L 208.791459 105.262414 
L 209.227223 105.262414 
L 209.649978 103.923706 
L 210.079238 103.923706 
L 210.510665 103.187449 
L 210.94426 103.187449 
L 211.38436 101.650836 
L 211.813619 101.650836 
L 212.238543 100.181751 
L 212.667802 100.181751 
L 213.099229 98.714052 
L 213.528489 98.714052 
L 213.951244 97.980708 
L 214.38484 97.980708 
L 214.814099 96.515012 
L 215.245527 96.515012 
L 215.676954 95.050621 
L 216.108381 95.050621 
L 216.539809 94.318901 
L 216.973404 94.318901 
L 217.398328 92.856402 
L 217.831923 92.856402 
L 218.265518 91.395131 
L 218.696946 91.395131 
L 219.126205 90.664946 
L 219.559801 89.205464 
L 219.98906 89.205464 
L 220.420487 87.747137 
L 220.851915 87.747137 
L 221.283342 87.018393 
L 221.723442 87.018393 
L 222.148365 85.561745 
L 222.584128 85.561745 
L 223.004716 84.833832 
L 223.436143 84.833832 
L 223.867571 83.378791 
L 224.298998 83.378791 
L 224.728258 81.924795 
L 225.168357 81.924795 
L 225.591112 80.471804 
L 226.02254 80.471804 
L 226.453967 79.745681 
L 226.885395 79.745681 
L 227.325494 78.294154 
L 227.754753 78.294154 
L 228.179677 76.84357 
L 228.611104 76.84357 
L 229.042532 75.393896 
L 229.473959 75.393896 
L 229.901051 74.669388 
L 230.343318 73.221028 
L 230.763905 73.221028 
L 231.195333 71.773499 
L 231.628928 71.773499 
L 232.058188 70.326786 
L 232.491783 70.326786 
L 232.93405 69.603719 
L 233.356806 69.603719 
L 233.786065 68.158169 
L 234.223997 68.158169 
L 234.653256 67.435672 
L 235.084683 67.435672 
L 235.524783 65.991223 
L 235.947538 65.991223 
L 236.378966 64.547462 
L 236.808225 64.547462 
L 237.24182 63.104383 
L 237.67108 63.104383 
L 238.111179 62.383081 
L 238.533935 62.383081 
L 238.965362 60.940943 
L 239.398958 60.940943 
L 239.832553 59.499415 
L 240.261812 59.499415 
L 240.69324 58.778857 
L 241.124667 57.338169 
L 241.556095 57.338169 
L 241.987522 56.691202 
L 243.283972 56.654565 
L 243.711064 55.934094 
L 245.879041 55.934094 
L 246.299628 57.375162 
L 246.728888 57.375162 
L 247.160315 58.816761 
L 248.454597 58.816761 
L 248.883857 60.980209 
L 249.315284 60.980209 
L 249.744543 63.14501 
L 250.180307 63.14501 
L 250.609566 65.311252 
L 251.038826 65.311252 
L 251.472421 67.479038 
L 251.899513 70.371974 
L 252.335276 70.371974 
L 252.764535 72.543725 
L 253.198131 72.543725 
L 253.62739 75.442297 
L 254.058818 75.442297 
L 254.488077 77.61853 
L 254.921672 77.61853 
L 255.350932 79.796853 
L 255.771519 79.796853 
L 256.211619 81.977344 
L 256.645214 81.977344 
L 257.074473 84.160124 
L 257.505901 84.160124 
L 257.928656 85.616614 
L 258.357916 85.616614 
L 258.787175 87.803399 
L 259.220771 87.803399 
L 260.083625 89.26266 
L 261.377908 89.26266 
L 261.807167 91.395131 
L 263.112289 91.395131 
L 263.543717 93.587497 
L 264.402235 93.587497 
L 264.835831 95.050621 
L 265.267258 95.050621 
L 265.698686 96.515012 
L 266.995136 96.515012 
L 267.422227 97.980708 
L 267.851487 97.980708 
L 268.285082 99.447735 
L 269.579364 99.447735 
L 270.008624 100.916116 
L 270.429211 100.916116 
L 270.858471 102.385898 
L 271.292066 102.385898 
L 271.723494 103.857088 
L 273.026448 103.857088 
L 273.462211 106.066618 
L 274.33157 106.066618 
L 274.758661 108.279496 
L 275.185753 108.279496 
L 275.61718 109.756672 
L 276.044272 109.756672 
L 276.477867 111.235415 
L 277.774317 111.235415 
L 278.203577 113.45655 
L 278.632836 113.45655 
L 279.064263 114.939346 
L 280.358546 114.939346 
L 280.789973 117.091719 
L 281.227904 117.091719 
L 281.65066 118.5778 
L 282.088591 118.5778 
L 282.517851 120.065632 
L 282.94711 120.065632 
L 283.374202 121.555252 
L 284.67282 121.555252 
L 285.097743 123.793083 
L 285.529171 125.287295 
L 286.823453 125.287295 
L 287.25488 127.532164 
L 288.546995 127.532164 
L 288.98059 129.781386 
L 290.272704 129.781386 
L 290.704132 131.283349 
L 291.135559 131.283349 
L 291.56265 132.787329 
L 291.996246 132.787329 
L 292.429841 134.207388 
L 293.721956 134.207388 
L 294.146879 136.468857 
L 294.578306 136.468857 
L 295.011902 137.97914 
L 296.29968 137.97914 
L 296.733275 140.248644 
L 297.593962 140.248644 
L 298.027558 142.523113 
L 298.452481 142.523113 
L 298.886077 143.95009 
L 300.180359 143.95009 
L 300.609618 146.231572 
L 301.901732 146.231572 
L 302.346168 148.518303 
L 303.627442 148.518303 
L 304.056702 150.810401 
L 304.488129 150.810401 
L 304.921724 152.341512 
L 305.350984 152.341512 
L 305.782411 153.875077 
L 307.078861 153.875077 
L 307.508121 156.180143 
L 308.368808 156.080213 
L 308.804571 158.389474 
L 309.235998 158.389474 
L 309.665258 159.93223 
L 310.963876 159.93223 
L 311.393135 162.251315 
L 312.691754 162.251315 
L 313.121013 164.471192 
L 313.550273 164.471192 
L 313.9817 166.023645 
L 315.275982 166.023645 
L 315.713913 168.357535 
L 317.00386 168.357535 
L 317.435287 170.697773 
L 318.727401 170.697773 
L 319.163165 172.933854 
L 320.023852 172.933854 
L 320.463951 175.285564 
L 321.315966 175.285564 
L 321.315966 175.285564 
L 322.172317 177.643962 
L 322.60808 177.643962 
L 323.046011 179.220007 
L 323.475271 179.220007 
L 323.902362 179.105559 
L 324.33379 179.105559 
L 324.763049 181.47379 
L 326.055163 181.47379 
L 326.490927 183.849027 
L 326.92669 183.849027 
L 327.349446 185.318175 
L 328.643728 185.318175 
L 329.072987 187.703751 
L 329.93801 187.703751 
L 330.371606 190.096666 
L 331.66372 190.096666 
L 332.092979 192.374301 
L 333.387261 192.374301 
L 333.816521 194.780602 
L 335.119475 194.780602 
L 335.542231 197.194607 
L 335.973658 197.194607 
L 336.405085 198.80827 
L 337.708039 198.80827 
L 338.128627 200.297709 
L 338.991482 200.297709 
L 339.422909 201.917334 
L 339.852169 201.917334 
L 340.294436 203.540545 
L 340.715023 203.540545 
L 341.146451 203.411079 
L 341.577878 203.411079 
L 342.007138 205.851041 
L 342.878664 205.851041 
L 343.30142 208.299252 
L 344.595702 208.299252 
L 345.02713 210.755871 
L 346.31274 210.755871 
L 346.741999 213.085343 
L 348.034114 213.085343 
L 348.467709 215.557454 
L 348.896968 215.557454 
L 349.326228 217.210391 
L 349.757655 217.210391 
L 350.191251 217.072431 
L 350.633518 217.072431 
L 351.064945 218.728171 
L 351.496373 218.728171 
L 351.923464 220.387885 
L 352.35706 220.387885 
L 352.788487 222.051589 
L 353.651342 222.051589 
L 354.082769 224.412251 
L 355.374883 224.412251 
L 355.808479 226.922963 
L 357.098425 226.922963 
L 357.532021 229.443033 
L 358.826303 229.443033 
L 359.25773 231.972594 
L 359.68699 231.972594 
L 360.116249 231.825466 
L 360.556348 231.825466 
L 360.985608 233.51603 
L 361.410531 233.51603 
L 361.839791 235.210909 
L 362.273386 235.210909 
L 362.702646 236.910142 
L 363.567668 236.910142 
L 363.99476 239.31547 
L 365.289042 239.31547 
L 365.729141 241.024575 
L 366.151897 241.024575 
L 366.585492 242.738168 
L 367.877606 242.738168 
L 368.315538 244.45629 
L 368.738293 244.45629 
L 369.167553 246.023152 
L 370.464003 246.023152 
L 370.904102 248.614042 
L 372.178873 248.614042 
L 372.6103 251.215421 
L 373.041727 251.215421 
L 373.473155 251.056688 
L 373.90675 251.056688 
L 374.769605 254.539377 
L 376.057383 254.539377 
L 376.499651 257.16392 
L 377.785261 257.16392 
L 378.218856 259.635398 
L 379.508803 259.635398 
L 379.938062 261.397306 
L 380.367322 261.397306 
L 380.798749 263.164154 
L 381.230176 263.164154 
L 381.672444 262.998422 
L 382.093031 262.998422 
L 382.526627 265.656278 
L 383.818741 265.656278 
L 384.256672 267.43447 
L 384.683764 267.43447 
L 385.115191 269.04849 
L 385.975878 269.04849 
L 386.415977 270.835675 
L 387.703755 270.835675 
L 388.130847 273.354549 
L 389.438137 273.354549 
L 389.86306 275.153482 
L 390.296656 275.153482 
L 390.712907 276.957656 
L 391.170351 276.957656 
L 391.57793 276.784356 
L 392.013694 276.784356 
L 392.442953 278.592623 
L 392.87438 278.592623 
L 393.305808 280.406201 
L 394.608762 280.406201 
L 395.040189 283.136604 
L 396.338808 283.136604 
L 396.765899 284.785662 
L 397.630922 284.785662 
L 398.058013 286.616926 
L 398.487273 286.616926 
L 398.487273 286.616926 
" clip-path="url(#p687e989f73)" style="fill: none; stroke: #ff7f0e; stroke-width: 1.5; stroke-linecap: square"/>
   </g>
   <g id="line2d_17">
    <path d="M 73.832727 290.980095 
L 236.378966 53.568 
L 398.487273 290.346776 
L 398.487273 290.346776 
" clip-path="url(#p687e989f73)" style="fill: none; stroke: #2ca02c; stroke-width: 1.5; stroke-linecap: square"/>
   </g>
   <g id="patch_3">
    <path d="M 57.6 307.584 
L 57.6 41.472 
" style="fill: none; stroke: #000000; stroke-width: 0.8; stroke-linejoin: miter; stroke-linecap: square"/>
   </g>
   <g id="patch_4">
    <path d="M 414.72 307.584 
L 414.72 41.472 
" style="fill: none; stroke: #000000; stroke-width: 0.8; stroke-linejoin: miter; stroke-linecap: square"/>
   </g>
   <g id="patch_5">
    <path d="M 57.6 307.584 
L 414.72 307.584 
" style="fill: none; stroke: #000000; stroke-width: 0.8; stroke-linejoin: miter; stroke-linecap: square"/>
   </g>
   <g id="patch_6">
    <path d="M 57.6 41.472 
L 414.72 41.472 
" style="fill: none; stroke: #000000; stroke-width: 0.8; stroke-linejoin: miter; stroke-linecap: square"/>
   </g>
   <g id="text_17">
    <!-- 400mm/s -->
    <g transform="translate(207.871875 35.472) scale(0.12 -0.12)">
     <defs>
      <path id="DejaVuSans-2f" d="M 1625 4666 
L 2156 4666 
L 531 -594 
L 0 -594 
L 1625 4666 
z
" transform="scale(0.015625)"/>
     </defs>
     <use xlink:href="#DejaVuSans-34"/>
     <use xlink:href="#DejaVuSans-30" x="63.623047"/>
     <use xlink:href="#DejaVuSans-30" x="127.246094"/>
     <use xlink:href="#DejaVuSans-6d" x="190.869141"/>
     <use xlink:href="#DejaVuSans-6d" x="288.28125"/>
     <use xlink:href="#DejaVuSans-2f" x="385.693359"/>
     <use xlink:href="#DejaVuSans-73" x="419.384766"/>
    </g>
   </g>
   <g id="legend_1">
    <g id="patch_7">
     <path d="M 325.8075 93.506375 
L 407.72 93.506375 
Q 409.72 93.506375 409.72 91.506375 
L 409.72 48.472 
Q 409.72 46.472 407.72 46.472 
L 325.8075 46.472 
Q 323.8075 46.472 323.8075 48.472 
L 323.8075 91.506375 
Q 323.8075 93.506375 325.8075 93.506375 
z
" style="fill: #ffffff; opacity: 0.8; stroke: #cccccc; stroke-linejoin: miter"/>
    </g>
    <g id="line2d_18">
     <path d="M 327.8075 54.570438 
L 337.8075 54.570438 
L 347.8075 54.570438 
" style="fill: none; stroke: #1f77b4; stroke-width: 1.5; stroke-linecap: square"/>
    </g>
    <g id="text_18">
     <!-- cam0 -->
     <g transform="translate(355.8075 58.070438) scale(0.1 -0.1)">
      <defs>
       <path id="DejaVuSans-63" d="M 3122 3366 
L 3122 2828 
Q 2878 2963 2633 3030 
Q 2388 3097 2138 3097 
Q 1578 3097 1268 2742 
Q 959 2388 959 1747 
Q 959 1106 1268 751 
Q 1578 397 2138 397 
Q 2388 397 2633 464 
Q 2878 531 3122 666 
L 3122 134 
Q 2881 22 2623 -34 
Q 2366 -91 2075 -91 
Q 1284 -91 818 406 
Q 353 903 353 1747 
Q 353 2603 823 3093 
Q 1294 3584 2113 3584 
Q 2378 3584 2631 3529 
Q 2884 3475 3122 3366 
z
" transform="scale(0.015625)"/>
       <path id="DejaVuSans-61" d="M 2194 1759 
Q 1497 1759 1228 1600 
Q 959 1441 959 1056 
Q 959 750 1161 570 
Q 1363 391 1709 391 
Q 2188 391 2477 730 
Q 2766 1069 2766 1631 
L 2766 1759 
L 2194 1759 
z
M 3341 1997 
L 3341 0 
L 2766 0 
L 2766 531 
Q 2569 213 2275 61 
Q 1981 -91 1556 -91 
Q 1019 -91 701 211 
Q 384 513 384 1019 
Q 384 1609 779 1909 
Q 1175 2209 1959 2209 
L 2766 2209 
L 2766 2266 
Q 2766 2663 2505 2880 
Q 2244 3097 1772 3097 
Q 1472 3097 1187 3025 
Q 903 2953 641 2809 
L 641 3341 
Q 956 3463 1253 3523 
Q 1550 3584 1831 3584 
Q 2591 3584 2966 3190 
Q 3341 2797 3341 1997 
z
" transform="scale(0.015625)"/>
      </defs>
      <use xlink:href="#DejaVuSans-63"/>
      <use xlink:href="#DejaVuSans-61" x="54.980469"/>
      <use xlink:href="#DejaVuSans-6d" x="116.259766"/>
      <use xlink:href="#DejaVuSans-30" x="213.671875"/>
     </g>
    </g>
    <g id="line2d_19">
     <path d="M 327.8075 69.248563 
L 337.8075 69.248563 
L 347.8075 69.248563 
" style="fill: none; stroke: #ff7f0e; stroke-width: 1.5; stroke-linecap: square"/>
    </g>
    <g id="text_19">
     <!-- cam5 -->
     <g transform="translate(355.8075 72.748563) scale(0.1 -0.1)">
      <use xlink:href="#DejaVuSans-63"/>
      <use xlink:href="#DejaVuSans-61" x="54.980469"/>
      <use xlink:href="#DejaVuSans-6d" x="116.259766"/>
      <use xlink:href="#DejaVuSans-35" x="213.671875"/>
     </g>
    </g>
    <g id="line2d_20">
     <path d="M 327.8075 83.926688 
L 337.8075 83.926688 
L 347.8075 83.926688 
" style="fill: none; stroke: #2ca02c; stroke-width: 1.5; stroke-linecap: square"/>
    </g>
    <g id="text_20">
     <!-- command -->
     <g transform="translate(355.8075 87.426688) scale(0.1 -0.1)">
      <defs>
       <path id="DejaVuSans-64" d="M 2906 2969 
L 2906 4863 
L 3481 4863 
L 3481 0 
L 2906 0 
L 2906 525 
Q 2725 213 2448 61 
Q 2172 -91 1784 -91 
Q 1150 -91 751 415 
Q 353 922 353 1747 
Q 353 2572 751 3078 
Q 1150 3584 1784 3584 
Q 2172 3584 2448 3432 
Q 2725 3281 2906 2969 
z
M 947 1747 
Q 947 1113 1208 752 
Q 1469 391 1925 391 
Q 2381 391 2643 752 
Q 2906 1113 2906 1747 
Q 2906 2381 2643 2742 
Q 2381 3103 1925 3103 
Q 1469 3103 1208 2742 
Q 947 2381 947 1747 
z
" transform="scale(0.015625)"/>
      </defs>
      <use xlink:href="#DejaVuSans-63"/>
      <use xlink:href="#DejaVuSans-6f" x="54.980469"/>
      <use xlink:href="#DejaVuSans-6d" x="116.162109"/>
      <use xlink:href="#DejaVuSans-6d" x="213.574219"/>
      <use xlink:href="#DejaVuSans-61" x="310.986328"/>
      <use xlink:href="#DejaVuSans-6e" x="372.265625"/>
      <use xlink:href="#DejaVuSans-64" x="435.644531"/>
     </g>
    </g>
   </g>
  </g>
 </g>
 <defs>
  <clipPath id="p687e989f73">
   <rect x="57.6" y="41.472" width="357.12" height="266.112"/>
  </clipPath>
 </defs>
</svg>
