<?xml version="1.0" encoding="utf-8" standalone="no"?>
<!DOCTYPE svg PUBLIC "-//W3C//DTD SVG 1.1//EN"
  "http://www.w3.org/Graphics/SVG/1.1/DTD/svg11.dtd">
<svg xmlns:xlink="http://www.w3.org/1999/xlink" width="1382.4pt" height="702pt" viewBox="0 0 1382.4 702" xmlns="http://www.w3.org/2000/svg" version="1.1">
 <metadata>
  <rdf:RDF xmlns:dc="http://purl.org/dc/elements/1.1/" xmlns:cc="http://creativecommons.org/ns#" xmlns:rdf="http://www.w3.org/1999/02/22-rdf-syntax-ns#">
   <cc:Work>
    <dc:type rdf:resource="http://purl.org/dc/dcmitype/StillImage"/>
    <dc:date>2023-06-01T14:30:14.661051</dc:date>
    <dc:format>image/svg+xml</dc:format>
    <dc:creator>
     <cc:Agent>
      <dc:title>Matplotlib v3.7.1, https://matplotlib.org/</dc:title>
     </cc:Agent>
    </dc:creator>
   </cc:Work>
  </rdf:RDF>
 </metadata>
 <defs>
  <style type="text/css">*{stroke-linejoin: round; stroke-linecap: butt}</style>
 </defs>
 <g id="figure_1">
  <g id="patch_1">
   <path d="M 0 702 
L 1382.4 702 
L 1382.4 0 
L 0 0 
z
" style="fill: #ffffff"/>
  </g>
  <g id="axes_1">
   <g id="patch_2">
    <path d="M 172.8 624.78 
L 1244.16 624.78 
L 1244.16 84.24 
L 172.8 84.24 
z
" style="fill: #ffffff"/>
   </g>
   <g id="matplotlib.axis_1">
    <g id="xtick_1">
     <g id="line2d_1">
      <defs>
       <path id="m192ad2cc6c" d="M 0 0 
L 0 3.5 
" style="stroke: #000000; stroke-width: 0.8"/>
      </defs>
      <g>
       <use xlink:href="#m192ad2cc6c" x="221.498182" y="624.78" style="stroke: #000000; stroke-width: 0.8"/>
      </g>
     </g>
     <g id="text_1">
      <!-- 0 -->
      <g transform="translate(218.316932 639.378438) scale(0.1 -0.1)">
       <defs>
        <path id="DejaVuSans-30" d="M 2034 4250 
Q 1547 4250 1301 3770 
Q 1056 3291 1056 2328 
Q 1056 1369 1301 889 
Q 1547 409 2034 409 
Q 2525 409 2770 889 
Q 3016 1369 3016 2328 
Q 3016 3291 2770 3770 
Q 2525 4250 2034 4250 
z
M 2034 4750 
Q 2819 4750 3233 4129 
Q 3647 3509 3647 2328 
Q 3647 1150 3233 529 
Q 2819 -91 2034 -91 
Q 1250 -91 836 529 
Q 422 1150 422 2328 
Q 422 3509 836 4129 
Q 1250 4750 2034 4750 
z
" transform="scale(0.015625)"/>
       </defs>
       <use xlink:href="#DejaVuSans-30"/>
      </g>
     </g>
    </g>
    <g id="xtick_2">
     <g id="line2d_2">
      <g>
       <use xlink:href="#m192ad2cc6c" x="383.831136" y="624.78" style="stroke: #000000; stroke-width: 0.8"/>
      </g>
     </g>
     <g id="text_2">
      <!-- 2 -->
      <g transform="translate(380.649886 639.378438) scale(0.1 -0.1)">
       <defs>
        <path id="DejaVuSans-32" d="M 1228 531 
L 3431 531 
L 3431 0 
L 469 0 
L 469 531 
Q 828 903 1448 1529 
Q 2069 2156 2228 2338 
Q 2531 2678 2651 2914 
Q 2772 3150 2772 3378 
Q 2772 3750 2511 3984 
Q 2250 4219 1831 4219 
Q 1534 4219 1204 4116 
Q 875 4013 500 3803 
L 500 4441 
Q 881 4594 1212 4672 
Q 1544 4750 1819 4750 
Q 2544 4750 2975 4387 
Q 3406 4025 3406 3419 
Q 3406 3131 3298 2873 
Q 3191 2616 2906 2266 
Q 2828 2175 2409 1742 
Q 1991 1309 1228 531 
z
" transform="scale(0.015625)"/>
       </defs>
       <use xlink:href="#DejaVuSans-32"/>
      </g>
     </g>
    </g>
    <g id="xtick_3">
     <g id="line2d_3">
      <g>
       <use xlink:href="#m192ad2cc6c" x="546.164091" y="624.78" style="stroke: #000000; stroke-width: 0.8"/>
      </g>
     </g>
     <g id="text_3">
      <!-- 4 -->
      <g transform="translate(542.982841 639.378438) scale(0.1 -0.1)">
       <defs>
        <path id="DejaVuSans-34" d="M 2419 4116 
L 825 1625 
L 2419 1625 
L 2419 4116 
z
M 2253 4666 
L 3047 4666 
L 3047 1625 
L 3713 1625 
L 3713 1100 
L 3047 1100 
L 3047 0 
L 2419 0 
L 2419 1100 
L 313 1100 
L 313 1709 
L 2253 4666 
z
" transform="scale(0.015625)"/>
       </defs>
       <use xlink:href="#DejaVuSans-34"/>
      </g>
     </g>
    </g>
    <g id="xtick_4">
     <g id="line2d_4">
      <g>
       <use xlink:href="#m192ad2cc6c" x="708.497045" y="624.78" style="stroke: #000000; stroke-width: 0.8"/>
      </g>
     </g>
     <g id="text_4">
      <!-- 6 -->
      <g transform="translate(705.315795 639.378438) scale(0.1 -0.1)">
       <defs>
        <path id="DejaVuSans-36" d="M 2113 2584 
Q 1688 2584 1439 2293 
Q 1191 2003 1191 1497 
Q 1191 994 1439 701 
Q 1688 409 2113 409 
Q 2538 409 2786 701 
Q 3034 994 3034 1497 
Q 3034 2003 2786 2293 
Q 2538 2584 2113 2584 
z
M 3366 4563 
L 3366 3988 
Q 3128 4100 2886 4159 
Q 2644 4219 2406 4219 
Q 1781 4219 1451 3797 
Q 1122 3375 1075 2522 
Q 1259 2794 1537 2939 
Q 1816 3084 2150 3084 
Q 2853 3084 3261 2657 
Q 3669 2231 3669 1497 
Q 3669 778 3244 343 
Q 2819 -91 2113 -91 
Q 1303 -91 875 529 
Q 447 1150 447 2328 
Q 447 3434 972 4092 
Q 1497 4750 2381 4750 
Q 2619 4750 2861 4703 
Q 3103 4656 3366 4563 
z
" transform="scale(0.015625)"/>
       </defs>
       <use xlink:href="#DejaVuSans-36"/>
      </g>
     </g>
    </g>
    <g id="xtick_5">
     <g id="line2d_5">
      <g>
       <use xlink:href="#m192ad2cc6c" x="870.829999" y="624.78" style="stroke: #000000; stroke-width: 0.8"/>
      </g>
     </g>
     <g id="text_5">
      <!-- 8 -->
      <g transform="translate(867.648749 639.378438) scale(0.1 -0.1)">
       <defs>
        <path id="DejaVuSans-38" d="M 2034 2216 
Q 1584 2216 1326 1975 
Q 1069 1734 1069 1313 
Q 1069 891 1326 650 
Q 1584 409 2034 409 
Q 2484 409 2743 651 
Q 3003 894 3003 1313 
Q 3003 1734 2745 1975 
Q 2488 2216 2034 2216 
z
M 1403 2484 
Q 997 2584 770 2862 
Q 544 3141 544 3541 
Q 544 4100 942 4425 
Q 1341 4750 2034 4750 
Q 2731 4750 3128 4425 
Q 3525 4100 3525 3541 
Q 3525 3141 3298 2862 
Q 3072 2584 2669 2484 
Q 3125 2378 3379 2068 
Q 3634 1759 3634 1313 
Q 3634 634 3220 271 
Q 2806 -91 2034 -91 
Q 1263 -91 848 271 
Q 434 634 434 1313 
Q 434 1759 690 2068 
Q 947 2378 1403 2484 
z
M 1172 3481 
Q 1172 3119 1398 2916 
Q 1625 2713 2034 2713 
Q 2441 2713 2670 2916 
Q 2900 3119 2900 3481 
Q 2900 3844 2670 4047 
Q 2441 4250 2034 4250 
Q 1625 4250 1398 4047 
Q 1172 3844 1172 3481 
z
" transform="scale(0.015625)"/>
       </defs>
       <use xlink:href="#DejaVuSans-38"/>
      </g>
     </g>
    </g>
    <g id="xtick_6">
     <g id="line2d_6">
      <g>
       <use xlink:href="#m192ad2cc6c" x="1033.162954" y="624.78" style="stroke: #000000; stroke-width: 0.8"/>
      </g>
     </g>
     <g id="text_6">
      <!-- 10 -->
      <g transform="translate(1026.800454 639.378438) scale(0.1 -0.1)">
       <defs>
        <path id="DejaVuSans-31" d="M 794 531 
L 1825 531 
L 1825 4091 
L 703 3866 
L 703 4441 
L 1819 4666 
L 2450 4666 
L 2450 531 
L 3481 531 
L 3481 0 
L 794 0 
L 794 531 
z
" transform="scale(0.015625)"/>
       </defs>
       <use xlink:href="#DejaVuSans-31"/>
       <use xlink:href="#DejaVuSans-30" x="63.623047"/>
      </g>
     </g>
    </g>
    <g id="xtick_7">
     <g id="line2d_7">
      <g>
       <use xlink:href="#m192ad2cc6c" x="1195.495908" y="624.78" style="stroke: #000000; stroke-width: 0.8"/>
      </g>
     </g>
     <g id="text_7">
      <!-- 12 -->
      <g transform="translate(1189.133408 639.378438) scale(0.1 -0.1)">
       <use xlink:href="#DejaVuSans-31"/>
       <use xlink:href="#DejaVuSans-32" x="63.623047"/>
      </g>
     </g>
    </g>
    <g id="text_8">
     <!-- time [s] -->
     <g transform="translate(689.088594 653.056563) scale(0.1 -0.1)">
      <defs>
       <path id="DejaVuSans-74" d="M 1172 4494 
L 1172 3500 
L 2356 3500 
L 2356 3053 
L 1172 3053 
L 1172 1153 
Q 1172 725 1289 603 
Q 1406 481 1766 481 
L 2356 481 
L 2356 0 
L 1766 0 
Q 1100 0 847 248 
Q 594 497 594 1153 
L 594 3053 
L 172 3053 
L 172 3500 
L 594 3500 
L 594 4494 
L 1172 4494 
z
" transform="scale(0.015625)"/>
       <path id="DejaVuSans-69" d="M 603 3500 
L 1178 3500 
L 1178 0 
L 603 0 
L 603 3500 
z
M 603 4863 
L 1178 4863 
L 1178 4134 
L 603 4134 
L 603 4863 
z
" transform="scale(0.015625)"/>
       <path id="DejaVuSans-6d" d="M 3328 2828 
Q 3544 3216 3844 3400 
Q 4144 3584 4550 3584 
Q 5097 3584 5394 3201 
Q 5691 2819 5691 2113 
L 5691 0 
L 5113 0 
L 5113 2094 
Q 5113 2597 4934 2840 
Q 4756 3084 4391 3084 
Q 3944 3084 3684 2787 
Q 3425 2491 3425 1978 
L 3425 0 
L 2847 0 
L 2847 2094 
Q 2847 2600 2669 2842 
Q 2491 3084 2119 3084 
Q 1678 3084 1418 2786 
Q 1159 2488 1159 1978 
L 1159 0 
L 581 0 
L 581 3500 
L 1159 3500 
L 1159 2956 
Q 1356 3278 1631 3431 
Q 1906 3584 2284 3584 
Q 2666 3584 2933 3390 
Q 3200 3197 3328 2828 
z
" transform="scale(0.015625)"/>
       <path id="DejaVuSans-65" d="M 3597 1894 
L 3597 1613 
L 953 1613 
Q 991 1019 1311 708 
Q 1631 397 2203 397 
Q 2534 397 2845 478 
Q 3156 559 3463 722 
L 3463 178 
Q 3153 47 2828 -22 
Q 2503 -91 2169 -91 
Q 1331 -91 842 396 
Q 353 884 353 1716 
Q 353 2575 817 3079 
Q 1281 3584 2069 3584 
Q 2775 3584 3186 3129 
Q 3597 2675 3597 1894 
z
M 3022 2063 
Q 3016 2534 2758 2815 
Q 2500 3097 2075 3097 
Q 1594 3097 1305 2825 
Q 1016 2553 972 2059 
L 3022 2063 
z
" transform="scale(0.015625)"/>
       <path id="DejaVuSans-20" transform="scale(0.015625)"/>
       <path id="DejaVuSans-5b" d="M 550 4863 
L 1875 4863 
L 1875 4416 
L 1125 4416 
L 1125 -397 
L 1875 -397 
L 1875 -844 
L 550 -844 
L 550 4863 
z
" transform="scale(0.015625)"/>
       <path id="DejaVuSans-73" d="M 2834 3397 
L 2834 2853 
Q 2591 2978 2328 3040 
Q 2066 3103 1784 3103 
Q 1356 3103 1142 2972 
Q 928 2841 928 2578 
Q 928 2378 1081 2264 
Q 1234 2150 1697 2047 
L 1894 2003 
Q 2506 1872 2764 1633 
Q 3022 1394 3022 966 
Q 3022 478 2636 193 
Q 2250 -91 1575 -91 
Q 1294 -91 989 -36 
Q 684 19 347 128 
L 347 722 
Q 666 556 975 473 
Q 1284 391 1588 391 
Q 1994 391 2212 530 
Q 2431 669 2431 922 
Q 2431 1156 2273 1281 
Q 2116 1406 1581 1522 
L 1381 1569 
Q 847 1681 609 1914 
Q 372 2147 372 2553 
Q 372 3047 722 3315 
Q 1072 3584 1716 3584 
Q 2034 3584 2315 3537 
Q 2597 3491 2834 3397 
z
" transform="scale(0.015625)"/>
       <path id="DejaVuSans-5d" d="M 1947 4863 
L 1947 -844 
L 622 -844 
L 622 -397 
L 1369 -397 
L 1369 4416 
L 622 4416 
L 622 4863 
L 1947 4863 
z
" transform="scale(0.015625)"/>
      </defs>
      <use xlink:href="#DejaVuSans-74"/>
      <use xlink:href="#DejaVuSans-69" x="39.208984"/>
      <use xlink:href="#DejaVuSans-6d" x="66.992188"/>
      <use xlink:href="#DejaVuSans-65" x="164.404297"/>
      <use xlink:href="#DejaVuSans-20" x="225.927734"/>
      <use xlink:href="#DejaVuSans-5b" x="257.714844"/>
      <use xlink:href="#DejaVuSans-73" x="296.728516"/>
      <use xlink:href="#DejaVuSans-5d" x="348.828125"/>
     </g>
    </g>
   </g>
   <g id="matplotlib.axis_2">
    <g id="ytick_1">
     <g id="line2d_8">
      <defs>
       <path id="m20c0679b2f" d="M 0 0 
L -3.5 0 
" style="stroke: #000000; stroke-width: 0.8"/>
      </defs>
      <g>
       <use xlink:href="#m20c0679b2f" x="172.8" y="561.69101" style="stroke: #000000; stroke-width: 0.8"/>
      </g>
     </g>
     <g id="text_9">
      <!-- −250 -->
      <g transform="translate(138.332812 565.490229) scale(0.1 -0.1)">
       <defs>
        <path id="DejaVuSans-2212" d="M 678 2272 
L 4684 2272 
L 4684 1741 
L 678 1741 
L 678 2272 
z
" transform="scale(0.015625)"/>
        <path id="DejaVuSans-35" d="M 691 4666 
L 3169 4666 
L 3169 4134 
L 1269 4134 
L 1269 2991 
Q 1406 3038 1543 3061 
Q 1681 3084 1819 3084 
Q 2600 3084 3056 2656 
Q 3513 2228 3513 1497 
Q 3513 744 3044 326 
Q 2575 -91 1722 -91 
Q 1428 -91 1123 -41 
Q 819 9 494 109 
L 494 744 
Q 775 591 1075 516 
Q 1375 441 1709 441 
Q 2250 441 2565 725 
Q 2881 1009 2881 1497 
Q 2881 1984 2565 2268 
Q 2250 2553 1709 2553 
Q 1456 2553 1204 2497 
Q 953 2441 691 2322 
L 691 4666 
z
" transform="scale(0.015625)"/>
       </defs>
       <use xlink:href="#DejaVuSans-2212"/>
       <use xlink:href="#DejaVuSans-32" x="83.789062"/>
       <use xlink:href="#DejaVuSans-35" x="147.412109"/>
       <use xlink:href="#DejaVuSans-30" x="211.035156"/>
      </g>
     </g>
    </g>
    <g id="ytick_2">
     <g id="line2d_9">
      <g>
       <use xlink:href="#m20c0679b2f" x="172.8" y="480.818101" style="stroke: #000000; stroke-width: 0.8"/>
      </g>
     </g>
     <g id="text_10">
      <!-- −200 -->
      <g transform="translate(138.332812 484.61732) scale(0.1 -0.1)">
       <use xlink:href="#DejaVuSans-2212"/>
       <use xlink:href="#DejaVuSans-32" x="83.789062"/>
       <use xlink:href="#DejaVuSans-30" x="147.412109"/>
       <use xlink:href="#DejaVuSans-30" x="211.035156"/>
      </g>
     </g>
    </g>
    <g id="ytick_3">
     <g id="line2d_10">
      <g>
       <use xlink:href="#m20c0679b2f" x="172.8" y="399.945193" style="stroke: #000000; stroke-width: 0.8"/>
      </g>
     </g>
     <g id="text_11">
      <!-- −150 -->
      <g transform="translate(138.332812 403.744411) scale(0.1 -0.1)">
       <use xlink:href="#DejaVuSans-2212"/>
       <use xlink:href="#DejaVuSans-31" x="83.789062"/>
       <use xlink:href="#DejaVuSans-35" x="147.412109"/>
       <use xlink:href="#DejaVuSans-30" x="211.035156"/>
      </g>
     </g>
    </g>
    <g id="ytick_4">
     <g id="line2d_11">
      <g>
       <use xlink:href="#m20c0679b2f" x="172.8" y="319.072284" style="stroke: #000000; stroke-width: 0.8"/>
      </g>
     </g>
     <g id="text_12">
      <!-- −100 -->
      <g transform="translate(138.332812 322.871503) scale(0.1 -0.1)">
       <use xlink:href="#DejaVuSans-2212"/>
       <use xlink:href="#DejaVuSans-31" x="83.789062"/>
       <use xlink:href="#DejaVuSans-30" x="147.412109"/>
       <use xlink:href="#DejaVuSans-30" x="211.035156"/>
      </g>
     </g>
    </g>
    <g id="ytick_5">
     <g id="line2d_12">
      <g>
       <use xlink:href="#m20c0679b2f" x="172.8" y="238.199375" style="stroke: #000000; stroke-width: 0.8"/>
      </g>
     </g>
     <g id="text_13">
      <!-- −50 -->
      <g transform="translate(144.695312 241.998594) scale(0.1 -0.1)">
       <use xlink:href="#DejaVuSans-2212"/>
       <use xlink:href="#DejaVuSans-35" x="83.789062"/>
       <use xlink:href="#DejaVuSans-30" x="147.412109"/>
      </g>
     </g>
    </g>
    <g id="ytick_6">
     <g id="line2d_13">
      <g>
       <use xlink:href="#m20c0679b2f" x="172.8" y="157.326467" style="stroke: #000000; stroke-width: 0.8"/>
      </g>
     </g>
     <g id="text_14">
      <!-- 0 -->
      <g transform="translate(159.4375 161.125685) scale(0.1 -0.1)">
       <use xlink:href="#DejaVuSans-30"/>
      </g>
     </g>
    </g>
    <g id="text_15">
     <!-- position [mm] -->
     <g transform="translate(132.253125 389.545938) rotate(-90) scale(0.1 -0.1)">
      <defs>
       <path id="DejaVuSans-70" d="M 1159 525 
L 1159 -1331 
L 581 -1331 
L 581 3500 
L 1159 3500 
L 1159 2969 
Q 1341 3281 1617 3432 
Q 1894 3584 2278 3584 
Q 2916 3584 3314 3078 
Q 3713 2572 3713 1747 
Q 3713 922 3314 415 
Q 2916 -91 2278 -91 
Q 1894 -91 1617 61 
Q 1341 213 1159 525 
z
M 3116 1747 
Q 3116 2381 2855 2742 
Q 2594 3103 2138 3103 
Q 1681 3103 1420 2742 
Q 1159 2381 1159 1747 
Q 1159 1113 1420 752 
Q 1681 391 2138 391 
Q 2594 391 2855 752 
Q 3116 1113 3116 1747 
z
" transform="scale(0.015625)"/>
       <path id="DejaVuSans-6f" d="M 1959 3097 
Q 1497 3097 1228 2736 
Q 959 2375 959 1747 
Q 959 1119 1226 758 
Q 1494 397 1959 397 
Q 2419 397 2687 759 
Q 2956 1122 2956 1747 
Q 2956 2369 2687 2733 
Q 2419 3097 1959 3097 
z
M 1959 3584 
Q 2709 3584 3137 3096 
Q 3566 2609 3566 1747 
Q 3566 888 3137 398 
Q 2709 -91 1959 -91 
Q 1206 -91 779 398 
Q 353 888 353 1747 
Q 353 2609 779 3096 
Q 1206 3584 1959 3584 
z
" transform="scale(0.015625)"/>
       <path id="DejaVuSans-6e" d="M 3513 2113 
L 3513 0 
L 2938 0 
L 2938 2094 
Q 2938 2591 2744 2837 
Q 2550 3084 2163 3084 
Q 1697 3084 1428 2787 
Q 1159 2491 1159 1978 
L 1159 0 
L 581 0 
L 581 3500 
L 1159 3500 
L 1159 2956 
Q 1366 3272 1645 3428 
Q 1925 3584 2291 3584 
Q 2894 3584 3203 3211 
Q 3513 2838 3513 2113 
z
" transform="scale(0.015625)"/>
      </defs>
      <use xlink:href="#DejaVuSans-70"/>
      <use xlink:href="#DejaVuSans-6f" x="63.476562"/>
      <use xlink:href="#DejaVuSans-73" x="124.658203"/>
      <use xlink:href="#DejaVuSans-69" x="176.757812"/>
      <use xlink:href="#DejaVuSans-74" x="204.541016"/>
      <use xlink:href="#DejaVuSans-69" x="243.75"/>
      <use xlink:href="#DejaVuSans-6f" x="271.533203"/>
      <use xlink:href="#DejaVuSans-6e" x="332.714844"/>
      <use xlink:href="#DejaVuSans-20" x="396.09375"/>
      <use xlink:href="#DejaVuSans-5b" x="427.880859"/>
      <use xlink:href="#DejaVuSans-6d" x="466.894531"/>
      <use xlink:href="#DejaVuSans-6d" x="564.306641"/>
      <use xlink:href="#DejaVuSans-5d" x="661.71875"/>
     </g>
    </g>
   </g>
   <g id="line2d_14">
    <path d="M 221.498182 597.460386 
L 222.628831 597.460386 
L 222.78954 596.906245 
L 222.952685 597.460386 
L 226.340574 597.460386 
L 226.502095 596.906245 
L 226.664428 597.460386 
L 227.632744 597.460386 
L 227.793454 591.226476 
L 233.927204 591.226476 
L 234.088726 585.02375 
L 235.217751 585.02375 
L 235.379273 585.565113 
L 235.541606 585.02375 
L 237.800469 585.02375 
L 237.96199 585.565113 
L 238.1227 585.02375 
L 238.608075 585.02375 
L 238.77122 585.565113 
L 238.931929 585.565113 
L 239.091827 585.02375 
L 239.251725 585.565113 
L 240.217606 585.565113 
L 240.379939 579.384563 
L 245.708519 579.384563 
L 245.87004 573.234 
L 252.811397 573.234 
L 252.974542 567.112778 
L 258.623728 567.112778 
L 258.78525 561.020282 
L 259.4289 561.020282 
L 259.588798 561.532709 
L 259.751131 561.020282 
L 262.494558 561.020282 
L 262.657702 561.532709 
L 262.82247 561.020282 
L 263.13902 561.020282 
L 263.303788 561.532709 
L 263.468556 561.020282 
L 263.788351 561.020282 
L 263.949061 555.460302 
L 264.127627 554.955914 
L 264.436872 554.955914 
L 264.595958 555.460302 
L 264.756668 554.955914 
L 264.919812 555.460302 
L 265.078898 554.955914 
L 265.564274 554.955914 
L 265.725795 555.460302 
L 267.016342 555.460302 
L 267.178675 554.955914 
L 267.341008 555.460302 
L 270.726462 555.460302 
L 270.88636 548.919059 
L 271.047069 552.434491 
L 274.280742 552.434491 
L 274.442263 546.403329 
L 280.412058 546.403329 
L 280.574391 540.398904 
L 284.451713 540.398904 
L 284.609176 540.887247 
L 284.769886 540.398904 
L 284.93303 540.887247 
L 285.901346 540.887247 
L 286.062868 534.901196 
L 286.224389 534.901196 
L 286.387534 534.420633 
L 286.549867 534.901196 
L 286.709765 534.420633 
L 286.870474 534.901196 
L 292.194995 534.901196 
L 292.355705 528.940879 
L 297.681849 528.940879 
L 297.842559 523.005681 
L 298.00408 523.005681 
L 298.165601 525.970158 
L 301.394404 525.970158 
L 301.554302 520.047366 
L 305.272538 520.047366 
L 305.435683 520.512223 
L 305.593957 520.047366 
L 306.885316 520.047366 
L 307.045214 514.148932 
L 307.206735 517.095133 
L 309.3057 517.095133 
L 309.46641 511.208669 
L 311.078376 511.208669 
L 311.242332 511.662171 
L 311.405477 511.208669 
L 311.565375 511.662171 
L 311.885982 511.208669 
L 311.885982 511.208669 
L 312.857545 511.208669 
L 313.018255 511.662171 
L 313.018255 511.662171 
L 313.342921 511.208669 
L 313.501195 511.662171 
L 313.825861 511.662171 
L 313.986571 511.208669 
L 314.309613 511.208669 
L 314.472758 511.662171 
L 315.118843 511.662171 
L 315.278741 505.791801 
L 317.859835 505.791801 
L 318.019733 505.345755 
L 318.186124 505.791801 
L 320.92874 505.791801 
L 321.090261 499.944528 
L 326.734578 499.944528 
L 326.896911 494.119867 
L 330.948741 494.119867 
L 331.094029 494.554365 
L 331.579405 494.554365 
L 331.740926 494.119867 
L 331.900824 494.554365 
L 332.066404 494.554365 
L 332.22549 494.119867 
L 332.548533 494.119867 
L 332.710054 488.317317 
L 332.872387 488.317317 
L 333.033096 488.744487 
L 333.193806 488.317317 
L 333.516849 488.317317 
L 333.677558 488.744487 
L 333.837456 488.317317 
L 334.324455 488.317317 
L 334.48273 488.744487 
L 334.649121 488.317317 
L 334.97054 488.317317 
L 335.134497 488.744487 
L 338.200154 488.744487 
L 338.357617 488.317317 
L 338.524009 488.744487 
L 338.843805 488.744487 
L 339.006138 482.956284 
L 339.167659 485.847701 
L 339.649788 485.847701 
L 339.816991 485.424185 
L 339.97283 485.847701 
L 340.132728 485.847701 
L 340.297496 485.424185 
L 340.457394 485.847701 
L 341.426522 485.847701 
L 341.588043 480.070156 
L 346.428812 480.070156 
L 346.589521 474.313542 
L 352.726519 474.313542 
L 352.88804 468.577404 
L 356.112784 468.577404 
L 356.273494 468.982367 
L 356.435827 468.577404 
L 356.595725 468.577404 
L 356.759681 468.982367 
L 357.083535 468.982367 
L 357.245057 468.577404 
L 357.405766 468.982367 
L 358.210126 468.982367 
L 358.373271 468.577404 
L 358.69469 468.577404 
L 358.873256 462.861259 
L 359.030719 465.716865 
L 361.119133 465.716865 
L 361.280654 460.404841 
L 361.440552 462.861259 
L 362.572012 462.861259 
L 362.731099 463.259089 
L 362.893432 462.861259 
L 363.219721 462.861259 
L 363.380431 463.259089 
L 363.541952 462.861259 
L 363.70185 463.259089 
L 364.025704 463.259089 
L 364.187225 462.861259 
L 364.509456 462.861259 
L 364.670166 457.164652 
L 364.849544 460.010537 
L 366.28619 460.010537 
L 366.4469 460.404841 
L 366.606798 460.404841 
L 366.767508 460.010537 
L 366.930652 460.010537 
L 367.091362 460.404841 
L 367.254507 454.710806 
L 371.773044 454.710806 
L 371.933754 454.323538 
L 372.095275 454.710806 
L 372.742172 454.710806 
L 372.90207 449.03563 
L 378.232273 449.03563 
L 378.392171 443.37891 
L 383.875778 443.37891 
L 384.036487 437.740176 
L 388.879691 437.740176 
L 389.043647 432.118991 
L 389.373995 432.118991 
L 389.525776 432.481286 
L 389.688921 432.118991 
L 393.08168 432.118991 
L 393.240766 432.481286 
L 393.401476 432.118991 
L 394.692834 432.118991 
L 394.853544 432.481286 
L 395.015877 432.481286 
L 395.177398 432.118991 
L 395.335673 426.514903 
L 397.922448 426.514903 
L 398.0791 426.870372 
L 398.243056 426.870372 
L 398.405389 426.514903 
L 398.725996 426.870372 
L 400.503542 426.870372 
L 400.665064 421.276215 
L 401.149627 421.276215 
L 401.314395 420.927475 
L 401.471858 421.276215 
L 401.953987 421.276215 
L 402.120379 420.927475 
L 402.278653 421.276215 
L 402.441798 420.927475 
L 402.603319 421.276215 
L 406.153541 421.276215 
L 406.315062 415.698313 
L 412.122523 415.698313 
L 412.284856 410.136279 
L 412.446378 412.915363 
L 413.738548 412.915363 
L 413.899258 407.361093 
L 414.221489 407.361093 
L 414.384633 410.136279 
L 417.449479 410.136279 
L 417.611001 404.589708 
L 423.101101 404.589708 
L 423.261811 399.058146 
L 423.908708 399.058146 
L 424.070229 399.38256 
L 424.230939 399.058146 
L 428.42968 399.058146 
L 428.59039 393.54119 
L 430.042458 393.54119 
L 430.203168 393.859005 
L 430.367124 393.859005 
L 430.525399 393.54119 
L 430.68692 393.54119 
L 430.849253 393.859005 
L 431.011586 393.54119 
L 433.43197 393.54119 
L 433.595927 393.859005 
L 433.755013 393.54119 
L 433.916534 393.54119 
L 434.077244 388.038468 
L 434.238765 388.038468 
L 434.402721 388.349716 
L 434.562619 388.038468 
L 435.046372 388.038468 
L 435.210328 388.349716 
L 435.531747 388.349716 
L 435.693268 388.038468 
L 435.853978 388.349716 
L 436.016311 388.349716 
L 436.177021 388.038468 
L 436.660773 388.038468 
L 436.822294 388.349716 
L 436.980569 388.038468 
L 437.144525 388.349716 
L 437.30767 388.038468 
L 437.467568 388.349716 
L 437.628277 388.038468 
L 438.275174 388.038468 
L 438.435884 388.349716 
L 439.564098 388.349716 
L 439.727242 382.854256 
L 442.305901 382.854256 
L 442.467423 382.549527 
L 442.629756 382.854256 
L 443.274217 382.854256 
L 443.439797 382.549527 
L 443.598072 382.854256 
L 444.414606 382.854256 
L 444.565576 377.372221 
L 450.219633 377.372221 
L 450.381154 371.903239 
L 455.70811 371.903239 
L 455.86882 366.44689 
L 461.203892 366.44689 
L 461.35405 361.002801 
L 466.037356 361.002801 
L 466.197254 361.283802 
L 466.360399 361.002801 
L 466.684253 361.002801 
L 466.844151 355.570567 
L 471.682484 355.570567 
L 471.846441 350.149802 
L 476.368225 350.149802 
L 476.53137 350.418073 
L 476.687209 350.149802 
L 477.33573 350.149802 
L 477.498874 345.002112 
L 477.660395 344.740132 
L 478.305669 344.740132 
L 478.466379 345.002112 
L 478.627088 344.740132 
L 478.951754 344.740132 
L 479.112464 345.002112 
L 479.277232 344.740132 
L 479.598651 344.740132 
L 479.758549 345.002112 
L 479.919259 344.740132 
L 480.079968 345.002112 
L 480.885951 345.002112 
L 481.049096 344.740132 
L 481.210617 345.002112 
L 481.532036 345.002112 
L 481.693558 344.740132 
L 481.853456 345.002112 
L 482.0166 345.002112 
L 482.178122 344.740132 
L 482.34289 345.002112 
L 482.662685 345.002112 
L 482.824207 339.596858 
L 484.277087 339.596858 
L 484.43942 339.34117 
L 484.758404 339.596858 
L 484.92236 339.34117 
L 485.084693 339.34117 
L 485.245403 339.596858 
L 486.862239 339.596858 
L 487.021325 339.34117 
L 487.18447 339.596858 
L 488.150351 339.596858 
L 488.309437 334.201988 
L 488.474205 333.952576 
L 488.636538 334.201988 
L 488.798059 334.201988 
L 488.957957 333.952576 
L 489.117044 334.201988 
L 489.29074 333.952576 
L 489.442521 334.201988 
L 489.92465 334.201988 
L 490.086983 333.952576 
L 490.247693 334.201988 
L 493.801161 334.201988 
L 493.962682 328.817114 
L 494.123392 328.817114 
L 494.284102 328.573896 
L 494.448058 328.817114 
L 499.28558 328.817114 
L 499.445478 323.441863 
L 504.614971 323.441863 
L 504.774869 318.075849 
L 509.780406 318.075849 
L 509.941115 312.718714 
L 514.943405 312.718714 
L 515.104926 307.37012 
L 517.7055 307.37012 
L 517.850788 307.590207 
L 518.014745 307.37012 
L 520.438376 307.37012 
L 520.614507 302.029661 
L 525.598129 302.029661 
L 525.760462 296.696998 
L 528.984394 296.696998 
L 529.146727 296.904842 
L 529.306625 296.696998 
L 529.632103 296.696998 
L 529.792 296.904842 
L 529.953522 296.696998 
L 530.115043 296.696998 
L 530.276564 296.904842 
L 530.438897 296.696998 
L 531.24488 296.696998 
L 531.40559 291.371776 
L 531.567923 291.371776 
L 531.729444 291.573538 
L 531.890966 291.371776 
L 532.214008 291.371776 
L 532.388516 291.573538 
L 532.859282 291.573538 
L 533.021615 291.371776 
L 533.183136 291.573538 
L 534.15064 291.573538 
L 534.31622 291.371776 
L 534.475306 291.573538 
L 534.799972 291.573538 
L 534.961493 291.371776 
L 535.283724 291.371776 
L 535.441999 291.573538 
L 535.605144 291.371776 
L 536.576706 291.371776 
L 536.732546 291.573538 
L 536.893256 291.573538 
L 537.055589 286.249318 
L 537.21711 286.053622 
L 537.383501 286.053622 
L 537.548269 286.249318 
L 537.864818 286.249318 
L 538.024716 286.053622 
L 538.187861 286.053622 
L 538.349382 286.249318 
L 540.445101 286.249318 
L 540.609057 286.053622 
L 540.768955 286.249318 
L 541.091186 286.249318 
L 541.252707 286.053622 
L 541.413417 286.249318 
L 541.57575 286.053622 
L 541.897981 286.053622 
L 541.897981 286.053622 
L 542.221023 280.931844 
L 542.545689 280.931844 
L 542.703964 280.742213 
L 542.867108 280.931844 
L 543.35086 280.931844 
L 543.51157 280.742213 
L 543.673091 280.931844 
L 546.260679 280.931844 
L 546.423012 280.742213 
L 546.58291 280.742213 
L 546.744431 280.931844 
L 547.225748 280.931844 
L 547.387269 275.620774 
L 547.548791 275.437161 
L 547.711124 275.437161 
L 547.872645 275.620774 
L 550.779216 275.620774 
L 550.943173 275.437161 
L 551.102259 275.620774 
L 551.584388 275.620774 
L 551.749156 275.437161 
L 551.909865 275.620774 
L 552.069763 275.437161 
L 552.230473 275.620774 
L 552.715849 275.620774 
L 552.87737 270.315738 
L 557.23114 270.315738 
L 557.393473 270.138141 
L 557.554994 270.315738 
L 557.716515 265.016395 
L 562.883573 265.016395 
L 563.045906 259.72239 
L 564.016657 259.72239 
L 564.176555 259.556746 
L 564.338076 259.72239 
L 568.212152 259.72239 
L 568.37205 254.433382 
L 573.376775 254.433382 
L 573.538297 249.149017 
L 578.863629 249.149017 
L 579.025962 243.868954 
L 583.867543 243.868954 
L 584.030687 238.592854 
L 589.19044 238.592854 
L 589.353585 233.320361 
L 594.679729 233.320361 
L 594.844497 228.051152 
L 599.686889 228.051152 
L 600.005873 222.78487 
L 605.012222 222.78487 
L 605.172931 217.521175 
L 610.50151 217.521175 
L 610.663843 212.259746 
L 615.986741 212.259746 
L 616.151509 207.000225 
L 621.332365 207.000225 
L 621.4809 201.742289 
L 626.320045 201.742289 
L 626.481566 196.485582 
L 631.323147 196.485582 
L 631.483045 191.229781 
L 637.299434 191.229781 
L 637.459332 185.974546 
L 641.979494 185.974546 
L 642.139392 180.719538 
L 647.306449 180.719538 
L 647.461477 175.464416 
L 652.629347 175.464416 
L 652.793303 170.208858 
L 657.791535 170.208858 
L 657.953056 164.952507 
L 663.283259 164.952507 
L 663.446403 159.69504 
L 668.288795 159.69504 
L 668.448693 154.436117 
L 673.936359 154.436117 
L 674.093822 149.175383 
L 679.101794 149.175383 
L 679.263315 143.91253 
L 684.105707 143.91253 
L 684.267228 138.647202 
L 684.751792 138.647202 
L 689.589314 138.61639 
L 689.754082 133.354103 
L 695.08185 133.354103 
L 695.242559 128.088662 
L 700.407994 128.088662 
L 700.407994 128.088662 
L 700.726978 122.819727 
L 702.019148 122.819727 
L 705.258503 122.819727 
L 705.434634 117.546975 
L 707.67564 117.554335 
L 710.255923 117.546975 
L 712.513974 117.546975 
L 713.641376 117.546975 
L 713.805333 120.183853 
L 715.094256 120.183853 
L 715.254966 122.832974 
L 716.708657 122.819727 
L 718.322247 122.819727 
L 718.482957 125.454647 
L 722.842408 125.454647 
L 723.007988 128.088662 
L 723.809913 128.088662 
L 723.97468 130.721787 
L 727.525714 130.721787 
L 727.688858 133.354103 
L 729.138492 133.37906 
L 729.138492 133.37906 
L 729.459099 135.98561 
L 733.015003 136.013511 
L 733.173277 138.647202 
L 734.13997 138.61639 
L 734.303115 141.280198 
L 734.786867 141.280198 
L 737.048977 141.280198 
L 737.210498 143.875879 
L 737.863076 143.91253 
L 739.308651 143.91253 
L 739.470173 146.504685 
L 739.954737 146.544248 
L 741.084574 146.544248 
L 741.244472 149.132893 
L 741.578878 149.175383 
L 741.891369 149.175383 
L 744.472463 149.175383 
L 744.794694 151.806001 
L 744.794694 151.806001 
L 748.344915 151.806001 
L 748.50806 154.436117 
L 749.961751 154.436117 
L 750.120838 157.065781 
L 751.091589 157.065781 
L 751.251487 159.69504 
L 755.450229 159.69504 
L 755.614185 162.323927 
L 756.095502 162.323927 
L 756.258647 164.952507 
L 760.454142 164.952507 
L 760.614852 167.580796 
L 764.488928 167.580796 
L 764.650449 170.208858 
L 765.943431 170.208858 
L 766.103329 172.83671 
L 769.332943 172.83671 
L 769.492029 175.464416 
L 771.268763 175.464416 
L 771.439213 178.092009 
L 774.979695 178.092009 
L 775.140404 180.719538 
L 776.592473 180.719538 
L 776.753994 183.347034 
L 779.98442 183.347034 
L 780.148376 185.974546 
L 781.598821 185.974546 
L 781.759531 188.602107 
L 785.470462 188.602107 
L 785.633607 191.229781 
L 786.761821 191.229781 
L 786.924965 193.857601 
L 787.894093 193.857601 
L 787.894093 193.857601 
L 788.213077 196.485582 
L 791.777909 196.485582 
L 791.928879 199.113806 
L 793.704801 199.113806 
L 793.876062 201.742289 
L 797.416544 201.742289 
L 797.578877 204.371079 
L 800.970824 204.371079 
L 801.125852 207.000225 
L 802.578732 207.000225 
L 802.741065 209.629775 
L 805.00074 209.629775 
L 805.163073 212.259746 
L 807.747413 212.259746 
L 807.908935 214.890202 
L 808.554208 214.890202 
L 808.715729 217.521175 
L 813.236702 217.521175 
L 813.398223 220.152731 
L 814.042685 220.152731 
L 814.204207 222.78487 
L 818.239804 222.78487 
L 818.400513 225.417671 
L 819.853393 225.417671 
L 820.014915 228.051152 
L 823.565948 228.051152 
L 823.727469 230.68536 
L 827.601545 230.68536 
L 827.762255 233.320361 
L 828.892904 233.320361 
L 829.052802 235.956171 
L 830.826289 235.956171 
L 830.990246 238.592854 
L 834.065643 238.592854 
L 834.215801 241.230427 
L 837.930791 241.230427 
L 838.094747 243.868954 
L 839.706714 243.868954 
L 839.868235 246.508468 
L 843.257747 246.508468 
L 843.416833 249.149017 
L 845.029611 249.149017 
L 845.196003 251.79065 
L 848.593631 251.79065 
L 848.742978 254.433382 
L 850.036771 254.433382 
L 850.199104 257.077296 
L 850.360625 257.077296 
L 850.521335 256.914612 
L 850.683668 257.077296 
L 854.234701 257.077296 
L 854.395411 259.72239 
L 854.718454 259.72239 
L 854.879975 259.556746 
L 855.04312 259.72239 
L 855.364539 259.72239 
L 855.523625 262.368745 
L 859.073847 262.368745 
L 859.234556 265.016395 
L 860.687436 265.016395 
L 860.848146 267.665387 
L 861.172 267.665387 
L 861.335145 267.490766 
L 861.494231 267.665387 
L 864.241716 267.665387 
L 864.402426 270.315738 
L 865.231947 270.315738 
L 865.371554 270.138141 
L 865.533075 270.138141 
L 865.69622 270.315738 
L 865.856929 270.315738 
L 866.017639 270.138141 
L 866.17916 272.967528 
L 867.1491 272.967528 
L 867.308998 275.620774 
L 871.18145 275.620774 
L 871.346218 278.275541 
L 871.666826 278.275541 
L 871.84458 278.088902 
L 871.989868 278.275541 
L 874.733295 278.275541 
L 874.897252 278.088902 
L 875.056338 280.931844 
L 876.34445 280.931844 
L 876.505971 280.742213 
L 876.668304 280.931844 
L 876.83226 283.589764 
L 879.738832 283.589764 
L 879.895483 286.053622 
L 880.061063 286.249318 
L 880.383294 286.249318 
L 880.544815 286.053622 
L 881.028567 286.053622 
L 881.190088 286.249318 
L 881.35161 286.053622 
L 881.675464 286.053622 
L 881.836985 286.249318 
L 881.998507 288.711834 
L 882.320738 288.711834 
L 882.482259 288.910555 
L 883.127532 288.910555 
L 883.289054 288.711834 
L 883.448952 288.910555 
L 883.610473 288.910555 
L 883.774429 288.711834 
L 883.934327 288.910555 
L 884.098283 288.711834 
L 884.256558 288.910555 
L 884.420514 288.910555 
L 884.579601 291.573538 
L 884.741122 291.573538 
L 884.904266 291.371776 
L 885.064164 291.573538 
L 885.224874 291.573538 
L 885.38883 291.371776 
L 885.870959 291.371776 
L 886.033292 291.573538 
L 886.194813 291.573538 
L 886.356335 291.371776 
L 886.675319 291.371776 
L 886.836029 291.573538 
L 886.999173 291.371776 
L 887.159071 291.371776 
L 887.320593 294.033482 
L 888.288909 294.033482 
L 888.45043 294.238268 
L 888.611951 294.033482 
L 888.773472 294.033482 
L 888.934994 294.238268 
L 889.097327 294.033482 
L 889.25966 294.238268 
L 889.419558 294.033482 
L 889.741789 294.033482 
L 889.905745 294.238268 
L 890.064831 294.238268 
L 890.227976 294.033482 
L 890.387062 294.033482 
L 890.548583 296.696998 
L 890.872438 296.696998 
L 891.035582 296.904842 
L 891.196292 296.696998 
L 891.680856 296.696998 
L 891.841565 296.904842 
L 892.002275 296.904842 
L 892.16542 296.696998 
L 892.48765 296.696998 
L 892.649172 299.362375 
L 895.395034 299.362375 
L 895.55412 302.029661 
L 897.815418 302.029661 
L 897.978563 304.698887 
L 899.268298 304.698887 
L 899.429819 304.915918 
L 899.589717 304.698887 
L 899.754485 304.915918 
L 899.916006 304.698887 
L 900.721178 304.698887 
L 900.882699 307.37012 
L 903.305519 307.37012 
L 903.468663 310.04339 
L 904.272211 310.04339 
L 904.433733 310.266551 
L 904.593631 310.04339 
L 906.047322 310.04339 
L 906.21209 312.94498 
L 906.371176 312.718714 
L 908.146287 312.718714 
L 908.305374 315.39619 
L 910.080484 315.39619 
L 910.244441 318.075849 
L 914.280038 318.075849 
L 914.441559 320.757724 
L 916.215858 320.757724 
L 916.374133 323.441863 
L 919.927601 323.441863 
L 920.088311 326.128316 
L 921.543626 326.128316 
L 921.703524 328.817114 
L 923.156404 328.817114 
L 923.316302 328.573896 
L 923.480258 328.817114 
L 925.091413 328.817114 
L 925.252122 331.508338 
L 926.545916 331.508338 
L 926.705002 334.201988 
L 927.836463 334.201988 
L 927.997984 333.952576 
L 928.157882 334.201988 
L 928.318592 333.952576 
L 928.481736 334.201988 
L 930.260094 334.201988 
L 930.424862 336.898161 
L 932.359059 336.898161 
L 932.519769 339.596858 
L 933.326563 339.596858 
L 933.484838 339.34117 
L 933.649606 339.34117 
L 933.810316 339.596858 
L 933.972649 339.596858 
L 934.133358 339.34117 
L 934.294068 339.596858 
L 934.457212 339.596858 
L 934.619545 339.34117 
L 934.780255 339.596858 
L 935.58705 339.596858 
L 935.745324 339.34117 
L 935.906846 342.298158 
L 936.2307 342.298158 
L 936.393033 342.039349 
L 936.716076 342.039349 
L 936.87922 342.298158 
L 937.037495 342.039349 
L 937.362161 342.039349 
L 937.524494 344.740132 
L 937.684392 345.002112 
L 938.009058 345.002112 
L 938.168144 344.740132 
L 938.330477 345.002112 
L 938.493621 345.002112 
L 938.653519 344.740132 
L 939.134837 344.740132 
L 939.295546 345.002112 
L 939.458691 344.740132 
L 939.617777 345.002112 
L 939.78011 344.740132 
L 940.107211 344.740132 
L 940.267109 345.002112 
L 940.42863 344.740132 
L 941.073092 344.740132 
L 941.236237 345.002112 
L 941.400193 344.740132 
L 941.557656 347.4436 
L 941.720801 347.708734 
L 941.882322 347.4436 
L 942.04222 347.708734 
L 942.206988 347.4436 
L 943.33439 347.4436 
L 943.498346 350.418073 
L 943.654186 350.149802 
L 944.141185 350.149802 
L 944.300271 350.418073 
L 944.461792 350.149802 
L 944.622502 350.149802 
L 944.785647 350.418073 
L 944.946356 350.149802 
L 946.721467 350.149802 
L 946.882177 352.858769 
L 948.496578 352.858769 
L 948.657288 355.570567 
L 951.728627 355.570567 
L 951.886902 355.845196 
L 952.052481 358.285228 
L 952.374712 358.285228 
L 952.535422 358.563043 
L 952.696943 358.285228 
L 953.988302 358.285228 
L 954.149823 361.002801 
L 957.700045 361.002801 
L 957.861566 363.723349 
L 959.471909 363.723349 
L 959.471909 363.723349 
L 959.79901 366.44689 
L 962.866291 366.44689 
L 963.027812 369.173504 
L 965.123531 369.173504 
L 965.285864 371.903239 
L 968.19487 371.903239 
L 968.353957 374.636129 
L 970.774341 374.636129 
L 970.936674 377.372221 
L 973.838376 377.372221 
L 973.999897 380.111597 
L 976.41947 380.111597 
L 976.583426 382.854256 
L 977.874784 382.854256 
L 978.046046 382.549527 
L 978.197015 382.854256 
L 978.842289 382.854256 
L 979.00868 385.60028 
L 979.974561 385.60028 
L 980.138518 385.292283 
L 980.297604 385.292283 
L 980.459125 385.60028 
L 980.623081 385.292283 
L 981.750484 385.292283 
L 981.911193 385.60028 
L 982.557279 385.60028 
L 982.719611 388.349716 
L 982.880321 388.349716 
L 983.043466 388.038468 
L 983.204175 388.038468 
L 983.364885 388.349716 
L 983.526406 388.038468 
L 983.848637 388.038468 
L 984.010158 388.349716 
L 984.168433 388.349716 
L 984.333201 388.038468 
L 984.493911 390.788083 
L 986.915107 390.788083 
L 987.076628 391.102597 
L 987.238961 391.102597 
L 987.400482 390.788083 
L 987.561192 391.102597 
L 987.721901 393.859005 
L 988.367987 393.859005 
L 988.529508 393.54119 
L 990.144721 393.54119 
L 990.30543 396.297889 
L 993.369465 396.297889 
L 993.536668 399.058146 
L 993.693319 399.38256 
L 993.855652 399.058146 
L 994.019608 399.38256 
L 994.179506 399.058146 
L 995.471677 399.058146 
L 995.638068 401.822075 
L 998.698044 401.822075 
L 998.861189 404.589708 
L 1000.798633 404.589708 
L 1000.958531 407.361093 
L 1003.378103 407.361093 
L 1003.538001 410.136279 
L 1006.283051 410.136279 
L 1006.442949 412.915363 
L 1009.351956 412.915363 
L 1009.510231 415.698313 
L 1012.256904 415.698313 
L 1012.436282 418.485242 
L 1014.6781 418.485242 
L 1014.839621 421.276215 
L 1015.48733 421.276215 
L 1015.646416 420.927475 
L 1015.810373 421.276215 
L 1016.128545 421.276215 
L 1016.292501 420.927475 
L 1016.453211 421.276215 
L 1016.613921 420.927475 
L 1016.937775 421.276215 
L 1016.937775 421.276215 
L 1017.257571 420.927475 
L 1017.42315 421.276215 
L 1017.583048 421.276215 
L 1017.745381 420.927475 
L 1017.902033 424.071231 
L 1019.035928 424.071231 
L 1019.200696 423.719127 
L 1019.359783 424.071231 
L 1019.679579 424.071231 
L 1019.84597 423.719127 
L 1020.011549 424.071231 
L 1020.166577 423.719127 
L 1020.327287 423.719127 
L 1020.491243 426.870372 
L 1020.651953 426.514903 
L 1022.261484 426.514903 
L 1022.42544 426.870372 
L 1022.599137 426.514903 
L 1022.910004 426.514903 
L 1023.073149 426.870372 
L 1023.233859 429.673718 
L 1023.391322 429.673718 
L 1023.556901 429.314836 
L 1024.685927 429.314836 
L 1024.847448 429.673718 
L 1025.011404 429.314836 
L 1025.170491 429.314836 
L 1025.3312 432.118991 
L 1028.398482 432.118991 
L 1028.560003 432.481286 
L 1028.720712 432.118991 
L 1029.043755 432.118991 
L 1029.205276 434.9274 
L 1030.495823 434.9274 
L 1030.655721 437.740176 
L 1034.528986 437.740176 
L 1034.689695 440.557335 
L 1035.982677 440.557335 
L 1036.143387 443.37891 
L 1039.698478 443.37891 
L 1039.86 446.204998 
L 1041.30801 446.204998 
L 1041.472778 449.03563 
L 1042.926469 449.03563 
L 1043.087179 448.655334 
L 1043.247889 449.03563 
L 1045.185332 449.03563 
L 1045.346042 451.870889 
L 1046.795675 451.870889 
L 1046.960443 451.487099 
L 1047.122776 451.870889 
L 1047.287544 451.870889 
L 1047.445007 454.710806 
L 1048.898699 454.710806 
L 1049.058597 454.323538 
L 1049.221741 454.710806 
L 1049.867015 454.710806 
L 1050.028536 454.323538 
L 1050.190869 454.710806 
L 1050.509853 454.710806 
L 1050.671375 454.323538 
L 1050.996852 454.323538 
L 1051.159185 457.555446 
L 1051.324765 457.164652 
L 1051.481416 457.555446 
L 1051.642126 457.555446 
L 1051.8004 457.164652 
L 1053.578758 457.164652 
L 1053.738656 460.010537 
L 1054.060075 460.010537 
L 1054.224843 460.404841 
L 1054.387988 460.010537 
L 1054.543827 460.404841 
L 1054.86687 460.404841 
L 1055.031638 460.010537 
L 1056.806749 460.010537 
L 1056.969893 462.861259 
L 1059.869971 462.861259 
L 1060.033116 463.259089 
L 1060.194637 462.861259 
L 1060.354535 463.259089 
L 1060.518492 462.861259 
L 1060.679201 462.861259 
L 1060.856956 463.259089 
L 1060.999809 465.716865 
L 1062.4535 465.716865 
L 1062.617457 468.577404 
L 1065.036218 468.577404 
L 1065.209102 468.982367 
L 1065.368189 468.577404 
L 1065.521593 471.442958 
L 1065.683926 471.442958 
L 1065.847882 471.851463 
L 1066.00778 471.442958 
L 1067.463095 471.442958 
L 1067.622182 474.313542 
L 1071.011694 474.313542 
L 1071.169968 477.189269 
L 1073.593599 477.189269 
L 1073.755932 480.070156 
L 1075.208812 480.070156 
L 1075.369522 479.653871 
L 1075.532666 480.070156 
L 1076.501794 480.070156 
L 1076.662504 482.956284 
L 1077.146256 482.956284 
L 1077.304531 482.536376 
L 1077.466864 482.956284 
L 1077.792341 482.956284 
L 1077.952239 482.536376 
L 1078.11376 482.956284 
L 1078.599948 482.956284 
L 1078.759846 482.536376 
L 1078.921367 482.956284 
L 1079.081265 482.956284 
L 1079.243598 485.847701 
L 1080.53171 485.847701 
L 1080.695666 485.424185 
L 1080.857187 485.424185 
L 1081.020332 485.847701 
L 1081.18023 485.847701 
L 1081.341751 485.424185 
L 1081.506519 485.424185 
L 1081.667229 485.847701 
L 1082.310879 485.847701 
L 1082.485387 485.424185 
L 1082.635545 485.847701 
L 1082.796255 485.424185 
L 1083.118485 485.424185 
L 1083.279195 488.317317 
L 1084.247511 488.317317 
L 1084.408221 488.744487 
L 1084.570554 488.317317 
L 1085.051871 488.317317 
L 1085.215016 488.744487 
L 1085.861912 488.744487 
L 1086.020999 491.646693 
L 1086.508809 491.646693 
L 1086.668707 491.215866 
L 1088.443006 491.215866 
L 1088.603716 494.119867 
L 1091.507041 494.119867 
L 1091.680737 497.029416 
L 1093.606818 497.029416 
L 1093.767527 499.944528 
L 1097.645662 499.944528 
L 1097.805559 502.865318 
L 1099.74138 502.865318 
L 1099.904525 502.422975 
L 1100.065234 505.791801 
L 1100.55061 505.791801 
L 1100.713754 505.345755 
L 1100.873652 505.791801 
L 1101.195883 505.791801 
L 1101.357405 505.345755 
L 1101.518114 505.791801 
L 1102.970182 505.791801 
L 1102.970182 505.791801 
L 1103.129269 508.724075 
L 1103.613021 508.724075 
L 1103.778601 508.274292 
L 1103.935252 508.724075 
L 1105.067524 508.724075 
L 1105.233915 508.274292 
L 1105.393002 508.274292 
L 1105.5529 511.208669 
L 1106.038275 511.208669 
L 1106.20142 511.662171 
L 1106.522027 511.662171 
L 1106.685172 511.208669 
L 1106.842635 511.662171 
L 1107.166489 511.662171 
L 1107.327199 511.208669 
L 1108.457036 511.208669 
L 1108.619369 511.662171 
L 1108.780079 511.208669 
L 1108.967573 511.208669 
L 1109.10231 514.148932 
L 1111.042189 514.148932 
L 1111.205333 517.095133 
L 1114.428454 517.095133 
L 1114.59241 520.047366 
L 1117.175128 520.047366 
L 1117.335026 523.005681 
L 1120.723726 523.005681 
L 1120.885247 525.970158 
L 1123.811299 525.970158 
L 1123.956587 528.940879 
L 1126.214638 528.940879 
L 1126.376159 531.917859 
L 1127.021433 531.917859 
L 1127.182954 531.441162 
L 1127.344476 531.441162 
L 1127.505185 531.917859 
L 1129.605774 531.917859 
L 1129.765672 534.901196 
L 1130.411757 534.901196 
L 1130.572466 534.420633 
L 1130.735611 534.420633 
L 1130.895509 534.901196 
L 1131.699057 534.901196 
L 1131.699057 534.901196 
L 1132.025346 537.89097 
L 1132.672243 537.89097 
L 1132.834576 537.406525 
L 1132.995286 537.406525 
L 1133.151937 537.89097 
L 1133.640559 537.89097 
L 1133.79721 537.406525 
L 1133.959543 537.89097 
L 1134.122688 537.406525 
L 1135.267947 537.406525 
L 1135.412423 540.398904 
L 1138.320618 540.398904 
L 1138.479705 543.397784 
L 1140.096541 543.397784 
L 1140.258062 543.890074 
L 1140.420395 543.397784 
L 1141.72474 543.397784 
L 1141.87084 546.403329 
L 1144.13295 546.403329 
L 1144.292036 549.415538 
L 1147.033028 549.415538 
L 1147.193738 548.919059 
L 1147.358505 549.415538 
L 1147.839823 549.415538 
L 1148.002156 552.434491 
L 1148.162054 551.934082 
L 1148.32601 552.434491 
L 1150.263454 552.434491 
L 1150.42254 555.460302 
L 1151.715522 555.460302 
L 1151.87542 554.955914 
L 1152.037753 554.955914 
L 1152.213884 555.460302 
L 1152.847794 555.460302 
L 1153.009316 554.955914 
L 1153.170025 554.955914 
L 1153.333982 555.460302 
L 1153.493068 555.460302 
L 1153.654589 558.49302 
L 1153.812864 557.984637 
L 1156.23893 557.984637 
L 1156.398016 561.020282 
L 1156.717812 561.020282 
L 1156.88258 561.532709 
L 1157.04329 561.020282 
L 1159.78834 561.020282 
L 1159.950673 564.062964 
L 1162.046391 564.062964 
L 1162.211159 567.112778 
L 1166.566552 567.112778 
L 1166.728885 570.169758 
L 1168.503996 570.169758 
L 1168.663894 573.234 
L 1172.865071 573.234 
L 1173.023346 576.305569 
L 1173.993285 576.305569 
L 1174.153183 575.776693 
L 1174.314704 576.305569 
L 1174.797645 576.305569 
L 1174.958354 579.384563 
L 1175.927482 579.384563 
L 1176.08738 578.851562 
L 1176.24809 579.384563 
L 1178.508576 579.384563 
L 1178.670097 582.471061 
L 1178.83243 581.933871 
L 1179.154661 581.933871 
L 1179.324299 582.471061 
L 1180.126224 582.471061 
L 1180.28531 581.933871 
L 1180.445208 582.471061 
L 1180.624586 581.933871 
L 1180.781237 582.471061 
L 1180.932207 582.471061 
L 1181.096163 581.933871 
L 1181.256061 582.471061 
L 1181.417583 585.02375 
L 1183.679692 585.02375 
L 1183.83959 585.565113 
L 1184.002735 585.02375 
L 1185.126891 585.02375 
L 1185.2876 588.121247 
L 1186.583017 588.121247 
L 1186.742915 591.226476 
L 1191.10399 591.226476 
L 1191.263076 594.339468 
L 1193.362853 594.339468 
L 1193.524374 597.460386 
L 1195.461818 597.460386 
L 1195.461818 597.460386 
" clip-path="url(#pcb708eccd9)" style="fill: none; stroke: #1f77b4; stroke-width: 1.5; stroke-linecap: square"/>
   </g>
   <g id="line2d_15">
    <path d="M 221.498182 600.21 
L 222.628831 600.21 
L 222.78954 599.851135 
L 225.21236 599.851135 
L 225.371446 597.966537 
L 226.985847 597.966537 
L 227.14818 596.084819 
L 228.277206 596.084819 
L 228.438727 594.205931 
L 228.60106 594.205931 
L 228.759335 594.561286 
L 230.536069 594.561286 
L 230.695155 592.684145 
L 232.473513 592.684145 
L 232.635846 590.809851 
L 234.413392 590.809851 
L 234.574913 588.938403 
L 235.707185 588.938403 
L 235.866272 587.069802 
L 237.96199 587.069802 
L 238.1227 585.203999 
L 239.572333 585.203999 
L 239.739536 585.554842 
L 239.895376 585.554842 
L 240.056897 583.690706 
L 241.832008 583.690706 
L 241.994341 581.829416 
L 244.095741 581.829416 
L 244.253204 579.970908 
L 245.386288 579.970908 
L 245.546997 578.115198 
L 247.163022 578.115198 
L 247.338341 576.26227 
L 248.776611 576.26227 
L 248.940568 574.412092 
L 250.713244 574.412092 
L 250.874765 574.757193 
L 251.360952 574.757193 
L 251.521662 572.908616 
L 252.974542 572.908616 
L 253.132816 571.062821 
L 255.072695 571.062821 
L 255.233405 569.21976 
L 256.36243 569.21976 
L 256.525575 567.379416 
L 258.301498 567.379416 
L 258.461396 565.541822 
L 260.885027 565.541822 
L 261.044113 564.046304 
L 262.494558 564.046304 
L 262.657702 562.212948 
L 264.127627 562.212948 
L 264.272104 560.382292 
L 266.047214 560.382292 
L 266.207924 558.554338 
L 267.664862 558.554338 
L 267.82476 556.729053 
L 269.596625 556.729053 
L 269.756522 554.90642 
L 271.534068 554.90642 
L 271.693966 553.086456 
L 272.823804 553.086456 
L 272.984513 553.420057 
L 273.146035 553.420057 
L 273.314861 551.601581 
L 275.411391 551.601581 
L 275.572101 549.785741 
L 277.024981 549.785741 
L 277.186502 547.972522 
L 278.963236 547.972522 
L 279.121511 546.16194 
L 280.253783 546.16194 
L 280.412058 544.353945 
L 282.834877 544.353945 
L 282.996398 542.548554 
L 284.286134 542.548554 
L 284.451713 541.072446 
L 285.901346 541.072446 
L 286.062868 539.271034 
L 287.676457 539.271034 
L 287.837979 537.472243 
L 290.257551 537.472243 
L 290.419884 535.675991 
L 291.873576 535.675991 
L 292.038344 533.882278 
L 293.81102 533.882278 
L 293.975788 532.091105 
L 295.424609 532.091105 
L 295.586942 530.302439 
L 297.035764 530.302439 
L 297.196473 528.516344 
L 298.326311 528.516344 
L 298.487832 528.8361 
L 298.649353 528.8361 
L 298.810875 527.051364 
L 300.262943 527.051364 
L 300.424464 525.269071 
L 302.199575 525.269071 
L 302.363531 523.489317 
L 304.141077 523.489317 
L 304.301787 521.712005 
L 305.754667 521.712005 
L 305.916188 519.937168 
L 308.014342 519.937168 
L 308.178298 518.47882 
L 308.660427 518.47882 
L 308.821948 516.707767 
L 310.920101 516.707767 
L 311.078376 514.939126 
L 312.210648 514.939126 
L 312.210648 514.939126 
L 312.535314 513.172926 
L 314.955699 513.172926 
L 315.118843 511.409136 
L 316.247057 511.409136 
L 316.40939 509.647773 
L 317.859835 509.647773 
L 318.019733 507.888803 
L 319.47586 507.888803 
L 319.636569 506.132195 
L 321.090261 506.132195 
L 321.250971 504.378013 
L 323.026081 504.378013 
L 323.187603 502.62616 
L 324.640483 502.62616 
L 324.797946 500.876685 
L 325.286568 500.876685 
L 325.447277 501.180428 
L 325.928595 501.180428 
L 326.089304 499.43215 
L 328.349791 499.43215 
L 328.512935 497.686217 
L 329.641961 497.686217 
L 329.803482 495.942629 
L 331.579405 495.942629 
L 331.740926 494.201355 
L 332.872387 494.201355 
L 333.033096 492.462377 
L 334.809831 492.462377 
L 334.97054 490.725712 
L 336.42342 490.725712 
L 336.58413 491.023745 
L 336.742404 491.023745 
L 336.907172 489.288228 
L 338.357617 489.288228 
L 338.524009 487.555009 
L 339.97283 487.555009 
L 340.132728 485.824021 
L 341.749564 485.824021 
L 341.911086 484.09533 
L 343.687008 484.09533 
L 343.847718 482.368888 
L 345.301409 482.368888 
L 345.464554 480.644694 
L 346.589521 480.644694 
L 346.755101 478.922699 
L 348.526965 478.922699 
L 348.687675 477.202953 
L 349.172239 477.202953 
L 349.335383 477.493028 
L 350.142178 477.493028 
L 350.303699 475.774333 
L 352.080434 475.774333 
L 352.241143 474.05787 
L 353.373416 474.05787 
L 353.534937 472.343591 
L 355.305178 472.343591 
L 355.469946 470.631495 
L 356.918767 470.631495 
L 357.083535 468.921567 
L 358.210126 468.921567 
L 358.373271 467.213806 
L 359.825339 467.213806 
L 360.003093 465.508197 
L 360.148381 465.508197 
L 360.309903 465.791478 
L 361.765218 465.791478 
L 361.925927 464.086871 
L 363.70185 464.086871 
L 363.871488 462.384448 
L 364.993209 462.384448 
L 365.155541 460.684111 
L 366.930652 460.684111 
L 367.091362 458.985877 
L 369.027994 458.985877 
L 369.189515 457.289778 
L 370.803105 457.289778 
L 370.962191 455.595734 
L 372.095275 455.595734 
L 372.267348 453.903808 
L 374.031907 453.903808 
L 374.190182 452.213936 
L 375.326513 452.213936 
L 375.484787 450.800455 
L 376.937667 450.800455 
L 377.098377 449.113592 
L 378.232273 449.113592 
L 378.392171 447.428767 
L 380.165658 447.428767 
L 380.326368 445.745996 
L 381.781683 445.745996 
L 381.940769 444.065262 
L 384.036487 444.065262 
L 384.199632 442.386503 
L 385.004803 442.386503 
L 385.166325 440.709781 
L 386.946306 440.709781 
L 387.103769 439.302641 
L 388.235229 439.302641 
L 388.394316 437.628782 
L 390.173485 437.628782 
L 390.335006 435.956928 
L 391.787886 435.956928 
L 391.949407 434.287016 
L 393.401476 434.287016 
L 393.560562 432.619077 
L 394.692834 432.619077 
L 394.853544 430.953095 
L 396.630278 430.953095 
L 396.790988 429.289038 
L 398.243056 429.289038 
L 398.405389 427.626922 
L 400.021413 427.626922 
L 400.181311 425.966714 
L 401.634191 425.966714 
L 401.794901 424.308399 
L 402.603319 424.308399 
L 402.762405 424.56716 
L 403.253463 424.56716 
L 403.407679 422.90967 
L 404.53914 422.90967 
L 404.703096 421.25404 
L 406.47983 421.25404 
L 406.637293 419.60035 
L 408.253318 419.60035 
L 408.413215 417.948489 
L 410.512181 417.948489 
L 410.67289 416.298504 
L 411.801916 416.298504 
L 411.963437 414.650395 
L 413.413882 414.650395 
L 413.575403 413.004097 
L 414.706864 413.004097 
L 414.866762 411.610689 
L 416.31883 411.610689 
L 416.480352 409.96698 
L 417.934043 409.96698 
L 418.097188 408.325098 
L 419.550879 408.325098 
L 419.711589 406.685028 
L 421.165281 406.685028 
L 421.327614 405.04672 
L 422.779682 405.04672 
L 422.941203 403.410241 
L 424.070229 403.410241 
L 424.230939 401.775492 
L 426.32828 401.775492 
L 426.492237 400.142539 
L 427.460553 400.142539 
L 427.622074 398.511364 
L 429.397185 398.511364 
L 429.558706 396.881889 
L 431.011586 396.881889 
L 431.172296 395.254192 
L 432.623552 395.254192 
L 432.79806 393.62821 
L 433.269637 393.62821 
L 433.43197 393.868435 
L 434.238765 393.868435 
L 434.402721 392.243099 
L 435.210328 392.243099 
L 435.369414 390.619495 
L 437.144525 390.619495 
L 437.30767 388.997589 
L 438.76055 388.997589 
L 438.920448 387.377381 
L 440.048662 387.377381 
L 440.211806 385.758855 
L 442.305901 385.758855 
L 442.467423 384.141995 
L 443.598072 384.141995 
L 443.761216 382.526818 
L 443.921926 382.526818 
L 444.081824 382.760541 
L 445.211661 382.760541 
L 445.373994 381.145962 
L 446.50302 381.145962 
L 446.666165 379.533032 
L 448.606043 379.533032 
L 448.766753 377.92172 
L 449.89659 377.92172 
L 450.0573 376.312075 
L 451.833222 376.312075 
L 451.994744 374.70403 
L 452.80235 374.70403 
L 452.96306 373.097603 
L 454.738982 373.097603 
L 454.901315 371.492777 
L 456.510847 371.492777 
L 456.676426 369.889536 
L 458.125248 369.889536 
L 458.289204 368.287881 
L 459.420665 368.287881 
L 459.582186 366.68781 
L 461.35405 366.68781 
L 461.518818 365.089292 
L 462.647844 365.089292 
L 462.810988 363.492344 
L 464.258998 363.492344 
L 464.424578 361.896931 
L 465.230561 361.896931 
L 465.391271 362.117973 
L 466.197254 362.117973 
L 466.360399 360.523079 
L 467.490236 360.523079 
L 467.653381 358.929688 
L 469.10626 358.929688 
L 469.266158 357.337851 
L 470.714168 357.337851 
L 470.876501 355.747517 
L 472.00715 355.747517 
L 472.167048 354.158688 
L 473.623987 354.158688 
L 473.780638 352.571331 
L 475.234329 352.571331 
L 475.412084 350.985494 
L 476.853601 350.985494 
L 477.013499 349.401113 
L 478.144148 349.401113 
L 478.305669 347.818204 
L 479.758549 347.818204 
L 479.919259 346.448346 
L 481.049096 346.448346 
L 481.210617 344.867345 
L 483.307959 344.867345 
L 483.46948 343.287768 
L 484.277087 343.287768 
L 484.43942 341.709614 
L 486.050574 341.709614 
L 486.212907 340.1329 
L 487.666599 340.1329 
L 487.828932 338.557592 
L 489.442521 338.557592 
L 489.600796 336.983708 
L 491.380777 336.983708 
L 491.540675 335.411199 
L 492.667265 335.411199 
L 492.832845 333.840098 
L 494.284102 333.840098 
L 494.448058 332.270371 
L 495.917171 332.270371 
L 496.061648 330.702019 
L 496.866819 330.702019 
L 497.029152 330.904282 
L 497.189862 330.904282 
L 497.351383 329.336285 
L 498.803451 329.336285 
L 498.961726 327.769648 
L 500.091563 327.769648 
L 500.253084 326.204353 
L 501.709211 326.204353 
L 501.867486 324.6404 
L 503.319554 324.6404 
L 503.482699 323.077774 
L 504.937202 323.077774 
L 505.103593 321.516474 
L 506.22856 321.516474 
L 506.392517 319.956484 
L 507.843773 319.956484 
L 508.005295 318.397804 
L 509.45574 318.397804 
L 509.619696 316.840402 
L 511.071764 316.840402 
L 511.234909 315.284294 
L 512.685354 315.284294 
L 512.846875 313.729464 
L 514.4629 313.729464 
L 514.620363 312.175911 
L 515.752635 312.175911 
L 515.914156 310.623621 
L 517.362978 310.623621 
L 517.524499 309.072575 
L 517.7055 309.072575 
L 517.850788 309.26164 
L 518.66083 309.26164 
L 518.817481 307.71087 
L 520.271984 307.71087 
L 520.438376 306.161328 
L 521.2403 306.161328 
L 521.401822 304.613 
L 523.176121 304.613 
L 523.336831 303.065902 
L 524.468291 303.065902 
L 524.630624 301.520016 
L 526.083504 301.520016 
L 526.245025 299.975327 
L 527.370804 299.975327 
L 527.531514 298.431836 
L 529.792 298.431836 
L 529.953522 296.889541 
L 530.761128 296.889541 
L 530.921838 295.34841 
L 532.696949 295.34841 
L 532.859282 293.808461 
L 533.989931 293.808461 
L 534.15064 292.26966 
L 535.605144 292.26966 
L 535.765042 290.732039 
L 537.21711 290.732039 
L 537.383501 289.195535 
L 537.864818 289.195535 
L 538.024716 289.372598 
L 538.834758 289.372598 
L 538.995467 287.836271 
L 540.12287 287.836271 
L 540.283579 286.301077 
L 541.897981 286.301077 
L 541.897981 284.767015 
L 543.51157 284.767015 
L 543.673091 283.234053 
L 544.806175 283.234053 
L 544.96932 281.702191 
L 546.423012 281.702191 
L 546.58291 280.171428 
L 548.034166 280.171428 
L 548.197311 278.641766 
L 549.663989 278.641766 
L 549.808465 277.113171 
L 550.943173 277.113171 
L 551.102259 275.585659 
L 552.568937 275.585659 
L 552.715849 274.059199 
L 553.845686 274.059199 
L 554.007207 272.533823 
L 555.460087 272.533823 
L 555.620797 271.009466 
L 556.425157 271.009466 
L 556.586678 271.175643 
L 557.072053 271.175643 
L 557.23114 269.651367 
L 558.361789 269.651367 
L 558.52331 268.128142 
L 560.298421 268.128142 
L 560.459942 266.605936 
L 561.924997 266.605936 
L 562.075967 265.084765 
L 563.208239 265.084765 
L 563.36976 263.564597 
L 564.821829 263.564597 
L 564.984973 262.045416 
L 566.43623 262.045416 
L 566.599375 260.527237 
L 567.727589 260.527237 
L 567.88911 259.010045 
L 569.018947 259.010045 
L 569.179657 257.493824 
L 570.795681 257.493824 
L 571.113042 255.978589 
L 572.892212 255.978589 
L 573.053733 254.464292 
L 574.186005 254.464292 
L 574.34428 252.950966 
L 575.794725 252.950966 
L 575.957058 251.438578 
L 577.08933 251.438578 
L 577.253286 249.927128 
L 578.703731 249.927128 
L 578.863629 248.416616 
L 580.316509 248.416616 
L 580.478842 246.907026 
L 581.60868 246.907026 
L 581.770201 245.398358 
L 583.222269 245.398358 
L 583.381355 243.89058 
L 584.515251 243.89058 
L 584.677584 242.383707 
L 585.80174 242.383707 
L 585.963261 240.877724 
L 587.416141 240.877724 
L 587.578474 239.372631 
L 588.7075 239.372631 
L 588.869833 237.868395 
L 589.043529 237.868395 
L 589.19044 238.014419 
L 590.323524 238.014419 
L 590.484234 236.510134 
L 591.295899 236.510134 
L 591.454985 235.006723 
L 593.232531 235.006723 
L 593.391617 233.504153 
L 594.522266 233.504153 
L 594.679729 232.002424 
L 596.458898 232.002424 
L 596.620419 230.501536 
L 597.750257 230.501536 
L 597.910966 229.001489 
L 599.383326 229.001489 
L 599.526179 227.502251 
L 600.81348 227.502251 
L 600.977436 226.003838 
L 602.431128 226.003838 
L 602.594272 224.506233 
L 603.71924 224.506233 
L 603.884008 223.009421 
L 605.337699 223.009421 
L 605.498409 221.513418 
L 606.628246 221.513418 
L 606.789767 220.018175 
L 608.242647 220.018175 
L 608.403357 218.523724 
L 609.696339 218.523724 
L 609.857049 217.03005 
L 611.632159 217.03005 
L 611.792869 215.537136 
L 613.243314 215.537136 
L 613.40727 214.044967 
L 614.533049 214.044967 
L 614.694571 212.553541 
L 615.502177 212.553541 
L 615.666945 211.062875 
L 617.442868 211.062875 
L 617.599519 209.572921 
L 619.055645 209.572921 
L 619.215543 208.083711 
L 620.67167 208.083711 
L 620.833191 206.595197 
L 621.963029 206.595197 
L 622.122115 205.10741 
L 623.252764 205.10741 
L 623.414285 203.620319 
L 624.544123 203.620319 
L 624.868789 203.745705 
L 625.03031 202.258403 
L 626.158524 202.258403 
L 626.320045 200.771781 
L 627.769678 200.771781 
L 627.934446 199.285855 
L 629.548848 199.285855 
L 629.707122 197.800592 
L 630.516352 197.800592 
L 630.677873 196.315991 
L 632.456231 196.315991 
L 632.615317 194.832054 
L 633.430229 194.832054 
L 633.582822 193.348781 
L 635.359556 193.348781 
L 635.520265 191.866138 
L 636.974769 191.866138 
L 637.135478 190.384125 
L 638.263692 190.384125 
L 638.425214 188.90276 
L 639.233632 188.90276 
L 639.394341 187.422009 
L 641.171075 187.422009 
L 641.330973 185.941873 
L 642.139392 185.941873 
L 642.300101 184.462336 
L 643.913691 184.462336 
L 644.075212 182.983413 
L 645.529715 182.983413 
L 645.686367 181.505072 
L 647.143305 181.505072 
L 647.306449 180.02733 
L 648.432229 180.02733 
L 648.594561 178.550154 
L 650.532817 178.550154 
L 650.693527 177.073544 
L 651.501133 177.073544 
L 651.661843 175.597517 
L 653.437765 175.597517 
L 653.597663 174.122023 
L 654.407705 174.122023 
L 654.567603 172.647095 
L 656.341902 172.647095 
L 656.5018 171.172701 
L 656.986364 171.172701 
L 657.146262 169.698857 
L 659.246038 169.698857 
L 659.40756 168.225531 
L 660.213543 168.225531 
L 660.376687 166.752722 
L 661.829567 166.752722 
L 661.989465 165.28043 
L 663.141218 165.28043 
L 663.283259 163.808641 
L 665.056746 163.808641 
L 665.222326 162.337352 
L 665.705267 162.337352 
L 665.866788 160.866549 
L 667.641899 160.866549 
L 667.802608 159.396231 
L 668.610215 159.396231 
L 668.771736 157.926398 
L 670.54847 157.926398 
L 670.70918 156.457034 
L 671.998103 156.457034 
L 672.16206 154.98814 
L 673.292709 154.98814 
L 673.451795 153.519682 
L 674.905487 153.519682 
L 675.066196 152.051693 
L 676.196034 152.051693 
L 676.354308 150.584141 
L 677.810435 150.584141 
L 677.97358 149.117025 
L 679.425648 149.117025 
L 679.585546 147.65033 
L 680.394776 147.65033 
L 680.555485 146.184056 
L 682.653639 146.184056 
L 682.814348 144.718186 
L 683.944997 144.718186 
L 684.105707 143.252737 
L 685.235544 143.252737 
L 685.408429 141.787692 
L 686.524468 141.787692 
L 686.684366 140.323035 
L 688.138057 140.323035 
L 688.298767 138.85875 
L 688.784954 138.85875 
L 688.944852 137.394853 
L 690.882296 137.394853 
L 691.043817 135.931328 
L 692.17609 135.931328 
L 692.339234 134.46816 
L 694.113534 134.46816 
L 694.275055 133.005363 
L 695.405704 133.005363 
L 695.566413 131.542906 
L 696.696251 131.542906 
L 696.858584 130.080788 
L 697.663755 130.080788 
L 697.827712 128.61901 
L 700.407994 128.61901 
L 700.407994 127.157572 
L 701.698541 127.157572 
L 701.860874 125.696441 
L 702.998828 125.696441 
L 703.152232 124.235634 
L 704.28207 124.235634 
L 704.443591 122.775118 
L 705.894036 122.775118 
L 706.056369 121.314925 
L 707.510872 121.390962 
L 707.67564 119.930187 
L 708.481623 119.930187 
L 708.641521 118.469687 
L 710.41582 118.469687 
L 710.577342 117.009478 
L 712.035903 117.009478 
L 712.190931 119.930187 
L 713.968477 119.930187 
L 714.125128 122.852044 
L 716.545513 122.852044 
L 716.708657 125.775098 
L 719.454519 125.775098 
L 719.623346 128.699414 
L 722.360279 128.699414 
L 722.523424 131.625056 
L 725.264416 131.625056 
L 725.425937 134.552073 
L 727.847945 134.552073 
L 728.009466 137.480514 
L 730.914414 137.480514 
L 731.075936 140.410442 
L 733.988189 140.410442 
L 734.13997 143.341923 
L 736.884209 143.341923 
L 737.048977 146.27499 
L 739.792404 146.27499 
L 739.954737 149.209722 
L 742.390543 149.209722 
L 742.536642 152.146169 
L 745.279257 152.146169 
L 745.438344 155.084362 
L 748.182582 154.98814 
L 748.344915 157.926398 
L 751.091589 157.926398 
L 751.251487 160.866549 
L 753.995725 160.866549 
L 754.158058 163.808641 
L 756.901485 163.808641 
L 757.06463 166.752722 
L 759.969578 166.752722 
L 760.131099 169.698857 
L 762.551484 169.698857 
L 762.71544 172.647095 
L 765.780286 172.647095 
L 765.943431 175.597517 
L 768.362192 175.597517 
L 768.524525 178.550154 
L 771.439213 178.550154 
L 771.590183 181.505072 
L 774.979695 181.505072 
L 775.140404 184.462336 
L 777.562412 184.462336 
L 777.72231 187.422009 
L 780.468984 187.422009 
L 780.630505 190.384125 
L 783.374743 190.384125 
L 783.534641 193.348781 
L 786.761821 193.348781 
L 786.924965 196.315991 
L 789.348596 196.315991 
L 789.507683 199.285855 
L 792.575775 199.285855 
L 792.736485 202.258403 
L 795.482347 202.258403 
L 795.641433 205.233701 
L 798.708714 205.233701 
L 798.869424 208.211814 
L 801.610416 208.211814 
L 801.771126 211.192806 
L 804.515364 211.192806 
L 804.677697 214.176741 
L 807.747413 214.176741 
L 807.908935 217.163652 
L 810.333377 217.163652 
L 810.490029 220.153621 
L 813.398223 220.153621 
L 813.560556 223.146711 
L 816.785301 223.146711 
L 816.947633 226.142971 
L 817.432197 226.142971 
L 817.752805 226.003838 
L 819.692684 226.003838 
L 819.853393 229.001489 
L 822.59682 229.001489 
L 822.758342 232.002424 
L 825.50258 232.002424 
L 825.664101 235.006723 
L 828.409152 235.006723 
L 828.570673 238.014419 
L 831.310042 238.014419 
L 831.472375 241.025592 
L 834.538844 241.025592 
L 834.699554 244.040324 
L 837.126431 244.040324 
L 837.287141 247.058647 
L 840.03138 247.058647 
L 840.191278 250.080625 
L 842.932269 250.080625 
L 843.093791 253.106339 
L 845.681378 253.106339 
L 845.842088 252.950966 
L 846.645636 252.950966 
L 846.812027 255.978589 
L 849.227541 255.978589 
L 849.389874 259.010045 
L 852.6203 259.010045 
L 852.783445 262.045416 
L 855.849103 262.045416 
L 856.012247 265.084765 
L 858.750804 265.084765 
L 858.911514 268.128142 
L 861.335145 268.128142 
L 861.494231 271.175643 
L 864.563947 271.175643 
L 864.727904 274.227286 
L 867.471331 274.227286 
L 867.62717 277.283182 
L 870.69851 277.283182 
L 870.860031 280.343364 
L 871.989868 280.343364 
L 872.153013 280.171428 
L 874.08721 280.171428 
L 874.249543 283.234053 
L 876.994593 283.234053 
L 877.156115 286.301077 
L 879.895483 286.301077 
L 880.061063 289.372598 
L 883.127532 289.372598 
L 883.289054 292.44868 
L 886.033292 292.44868 
L 886.194813 295.529372 
L 888.934994 295.529372 
L 889.097327 298.614738 
L 892.649172 298.614738 
L 892.820433 301.704875 
L 895.55412 301.704875 
L 895.718076 304.799833 
L 896.847914 304.799833 
L 897.010247 304.613 
L 898.461503 304.613 
L 898.622213 307.71087 
L 901.366451 307.71087 
L 901.687059 310.813672 
L 904.433733 310.813672 
L 904.593631 313.921521 
L 907.657665 313.921521 
L 907.824868 317.034432 
L 910.890526 317.034432 
L 911.066657 320.152503 
L 913.795474 320.152503 
L 913.956995 323.275783 
L 917.02103 323.275783 
L 917.181739 323.077774 
L 917.344072 323.077774 
L 917.505594 326.204353 
L 919.603747 326.204353 
L 919.764457 329.336285 
L 922.836608 329.336285 
L 922.994071 332.473653 
L 925.735875 332.473653 
L 925.899019 335.616503 
L 928.968735 335.616503 
L 929.129445 338.764918 
L 932.035205 338.764918 
L 932.195914 341.918962 
L 934.780255 341.918962 
L 934.940153 341.709614 
L 935.745324 341.709614 
L 935.906846 344.867345 
L 938.978185 344.867345 
L 939.134837 348.030818 
L 941.882322 348.030818 
L 942.04222 351.200147 
L 945.106254 351.200147 
L 945.267776 354.375395 
L 948.335057 354.375395 
L 948.496578 357.556628 
L 951.244063 357.556628 
L 951.404773 360.523079 
L 954.472866 360.523079 
L 954.632764 363.714405 
L 957.700045 363.714405 
L 957.861566 366.911958 
L 960.766514 366.911958 
L 960.924789 370.115754 
L 963.997752 370.115754 
L 964.156026 373.325907 
L 966.898642 373.325907 
L 967.061786 376.312075 
L 969.806025 376.312075 
L 969.965923 379.533032 
L 973.514521 379.533032 
L 973.676043 382.760541 
L 976.41947 382.760541 
L 976.583426 385.994681 
L 979.65233 385.994681 
L 979.813852 389.235549 
L 982.880321 389.235549 
L 983.043466 392.483163 
L 985.463038 392.483163 
L 985.622936 392.243099 
L 986.110747 392.243099 
L 986.269022 395.495468 
L 989.173158 395.495468 
L 989.334679 398.754743 
L 992.406019 398.754743 
L 992.565917 402.021055 
L 995.954617 402.021055 
L 996.116139 405.294418 
L 999.18342 405.294418 
L 999.344129 408.574947 
L 1001.762079 408.574947 
L 1001.924412 408.325098 
L 1002.408164 408.325098 
L 1002.568062 411.610689 
L 1005.332592 411.610689 
L 1005.474633 414.903575 
L 1008.221307 414.903575 
L 1008.382828 418.203885 
L 1012.096195 418.203885 
L 1012.256904 421.511604 
L 1013.709784 421.511604 
L 1013.87374 421.25404 
L 1015.162664 421.25404 
L 1015.324185 424.56716 
L 1018.550553 424.56716 
L 1018.714509 427.887834 
L 1022.102398 427.887834 
L 1022.261484 431.216207 
L 1025.3312 431.216207 
L 1025.51139 434.552344 
L 1025.978909 434.552344 
L 1026.139618 434.287016 
L 1028.560003 434.287016 
L 1028.720712 437.628782 
L 1031.783935 437.628782 
L 1031.946268 440.978473 
L 1035.013549 440.978473 
L 1035.176694 444.336138 
L 1038.248034 444.336138 
L 1038.410366 447.701891 
L 1039.86 447.701891 
L 1040.020709 447.428767 
L 1041.472778 447.428767 
L 1041.633487 450.800455 
L 1044.700768 450.800455 
L 1044.86229 454.180312 
L 1045.023811 454.180312 
L 1045.185332 452.489357 
L 1046.476691 452.489357 
L 1046.639836 455.87337 
L 1046.795675 455.87337 
L 1046.960443 454.180312 
L 1048.413323 454.180312 
L 1048.572409 457.568515 
L 1051.642126 457.568515 
L 1051.8004 460.96508 
L 1052.610442 460.96508 
L 1052.785761 460.684111 
L 1055.031638 460.684111 
L 1055.193159 464.086871 
L 1058.582671 464.086871 
L 1058.745004 467.49822 
L 1061.813097 467.49822 
L 1061.968936 470.918125 
L 1064.390132 470.918125 
L 1064.551654 470.631495 
L 1065.368189 470.631495 
L 1065.521593 474.05787 
L 1068.266643 474.05787 
L 1068.428165 477.493028 
L 1071.818488 477.493028 
L 1071.98001 480.937001 
L 1074.884958 480.937001 
L 1075.047291 484.389918 
L 1075.208812 484.389918 
L 1075.369522 482.662343 
L 1076.824025 482.662343 
L 1076.985546 486.119757 
L 1080.375059 486.119757 
L 1080.53171 489.288228 
L 1083.601426 489.288228 
L 1083.767006 492.761542 
L 1087.151648 492.761542 
L 1087.314792 496.244059 
L 1090.377203 496.244059 
L 1090.538725 499.735876 
L 1093.284587 499.735876 
L 1093.44692 499.43215 
L 1094.415236 499.43215 
L 1094.577569 502.931035 
L 1097.645662 502.931035 
L 1097.805559 506.439367 
L 1100.873652 506.439367 
L 1101.034362 509.957209 
L 1103.613021 509.957209 
L 1103.778601 509.647773 
L 1103.935252 509.647773 
L 1104.098396 513.172926 
L 1107.48872 513.172926 
L 1107.651053 516.707767 
L 1111.042189 516.707767 
L 1111.205333 520.252362 
L 1114.59241 520.252362 
L 1114.75799 523.806775 
L 1118.142632 523.806775 
L 1118.301718 527.051364 
L 1121.368999 527.051364 
L 1121.529709 530.623391 
L 1125.246322 530.623391 
L 1125.407843 534.205511 
L 1129.119586 534.205511 
L 1129.281919 537.797805 
L 1130.088714 537.797805 
L 1130.249424 537.472243 
L 1132.50991 537.472243 
L 1132.672243 541.072446 
L 1136.222465 541.072446 
L 1136.381551 544.682952 
L 1140.096541 544.682952 
L 1140.258062 548.303842 
L 1142.034796 548.303842 
L 1142.195506 547.972522 
L 1143.645951 547.972522 
L 1143.807472 551.601581 
L 1147.839823 551.601581 
L 1148.002156 555.241185 
L 1150.745583 555.241185 
L 1150.918467 558.891416 
L 1154.623717 558.891416 
L 1154.784426 562.212948 
L 1158.173127 562.212948 
L 1158.33546 565.882346 
L 1161.886493 565.882346 
L 1162.046391 569.562597 
L 1164.146168 569.562597 
L 1164.308501 569.21976 
L 1165.757323 569.21976 
L 1165.918032 572.908616 
L 1169.63221 572.908616 
L 1169.796166 576.608503 
L 1173.185679 576.608503 
L 1173.346388 580.31947 
L 1175.602816 580.31947 
L 1175.764337 579.970908 
L 1177.218841 579.970908 
L 1177.380362 583.690706 
L 1181.417583 583.690706 
L 1181.579104 587.421777 
L 1184.967804 587.421777 
L 1185.126891 591.164139 
L 1187.874376 591.164139 
L 1188.035086 590.809851 
L 1188.518838 590.809851 
L 1188.681171 594.561286 
L 1192.553623 594.561286 
L 1192.715956 598.324238 
L 1195.461818 598.324238 
L 1195.461818 598.324238 
" clip-path="url(#pcb708eccd9)" style="fill: none; stroke: #ff7f0e; stroke-width: 1.5; stroke-linecap: square"/>
   </g>
   <g id="line2d_16">
    <path d="M 221.498182 594.017529 
L 708.481623 108.81 
L 1195.461818 594.028851 
L 1195.461818 594.028851 
" clip-path="url(#pcb708eccd9)" style="fill: none; stroke: #2ca02c; stroke-width: 1.5; stroke-linecap: square"/>
   </g>
   <g id="patch_3">
    <path d="M 172.8 624.78 
L 172.8 84.24 
" style="fill: none; stroke: #000000; stroke-width: 0.8; stroke-linejoin: miter; stroke-linecap: square"/>
   </g>
   <g id="patch_4">
    <path d="M 1244.16 624.78 
L 1244.16 84.24 
" style="fill: none; stroke: #000000; stroke-width: 0.8; stroke-linejoin: miter; stroke-linecap: square"/>
   </g>
   <g id="patch_5">
    <path d="M 172.8 624.78 
L 1244.16 624.78 
" style="fill: none; stroke: #000000; stroke-width: 0.8; stroke-linejoin: miter; stroke-linecap: square"/>
   </g>
   <g id="patch_6">
    <path d="M 172.8 84.24 
L 1244.16 84.24 
" style="fill: none; stroke: #000000; stroke-width: 0.8; stroke-linejoin: miter; stroke-linecap: square"/>
   </g>
   <g id="text_16">
    <!-- 50mm/s -->
    <g transform="translate(684.009375 78.24) scale(0.12 -0.12)">
     <defs>
      <path id="DejaVuSans-2f" d="M 1625 4666 
L 2156 4666 
L 531 -594 
L 0 -594 
L 1625 4666 
z
" transform="scale(0.015625)"/>
     </defs>
     <use xlink:href="#DejaVuSans-35"/>
     <use xlink:href="#DejaVuSans-30" x="63.623047"/>
     <use xlink:href="#DejaVuSans-6d" x="127.246094"/>
     <use xlink:href="#DejaVuSans-6d" x="224.658203"/>
     <use xlink:href="#DejaVuSans-2f" x="322.070312"/>
     <use xlink:href="#DejaVuSans-73" x="355.761719"/>
    </g>
   </g>
   <g id="legend_1">
    <g id="patch_7">
     <path d="M 1155.2475 136.274375 
L 1237.16 136.274375 
Q 1239.16 136.274375 1239.16 134.274375 
L 1239.16 91.24 
Q 1239.16 89.24 1237.16 89.24 
L 1155.2475 89.24 
Q 1153.2475 89.24 1153.2475 91.24 
L 1153.2475 134.274375 
Q 1153.2475 136.274375 1155.2475 136.274375 
z
" style="fill: #ffffff; opacity: 0.8; stroke: #cccccc; stroke-linejoin: miter"/>
    </g>
    <g id="line2d_17">
     <path d="M 1157.2475 97.338438 
L 1167.2475 97.338438 
L 1177.2475 97.338438 
" style="fill: none; stroke: #1f77b4; stroke-width: 1.5; stroke-linecap: square"/>
    </g>
    <g id="text_17">
     <!-- cam0 -->
     <g transform="translate(1185.2475 100.838438) scale(0.1 -0.1)">
      <defs>
       <path id="DejaVuSans-63" d="M 3122 3366 
L 3122 2828 
Q 2878 2963 2633 3030 
Q 2388 3097 2138 3097 
Q 1578 3097 1268 2742 
Q 959 2388 959 1747 
Q 959 1106 1268 751 
Q 1578 397 2138 397 
Q 2388 397 2633 464 
Q 2878 531 3122 666 
L 3122 134 
Q 2881 22 2623 -34 
Q 2366 -91 2075 -91 
Q 1284 -91 818 406 
Q 353 903 353 1747 
Q 353 2603 823 3093 
Q 1294 3584 2113 3584 
Q 2378 3584 2631 3529 
Q 2884 3475 3122 3366 
z
" transform="scale(0.015625)"/>
       <path id="DejaVuSans-61" d="M 2194 1759 
Q 1497 1759 1228 1600 
Q 959 1441 959 1056 
Q 959 750 1161 570 
Q 1363 391 1709 391 
Q 2188 391 2477 730 
Q 2766 1069 2766 1631 
L 2766 1759 
L 2194 1759 
z
M 3341 1997 
L 3341 0 
L 2766 0 
L 2766 531 
Q 2569 213 2275 61 
Q 1981 -91 1556 -91 
Q 1019 -91 701 211 
Q 384 513 384 1019 
Q 384 1609 779 1909 
Q 1175 2209 1959 2209 
L 2766 2209 
L 2766 2266 
Q 2766 2663 2505 2880 
Q 2244 3097 1772 3097 
Q 1472 3097 1187 3025 
Q 903 2953 641 2809 
L 641 3341 
Q 956 3463 1253 3523 
Q 1550 3584 1831 3584 
Q 2591 3584 2966 3190 
Q 3341 2797 3341 1997 
z
" transform="scale(0.015625)"/>
      </defs>
      <use xlink:href="#DejaVuSans-63"/>
      <use xlink:href="#DejaVuSans-61" x="54.980469"/>
      <use xlink:href="#DejaVuSans-6d" x="116.259766"/>
      <use xlink:href="#DejaVuSans-30" x="213.671875"/>
     </g>
    </g>
    <g id="line2d_18">
     <path d="M 1157.2475 112.016563 
L 1167.2475 112.016563 
L 1177.2475 112.016563 
" style="fill: none; stroke: #ff7f0e; stroke-width: 1.5; stroke-linecap: square"/>
    </g>
    <g id="text_18">
     <!-- cam5 -->
     <g transform="translate(1185.2475 115.516563) scale(0.1 -0.1)">
      <use xlink:href="#DejaVuSans-63"/>
      <use xlink:href="#DejaVuSans-61" x="54.980469"/>
      <use xlink:href="#DejaVuSans-6d" x="116.259766"/>
      <use xlink:href="#DejaVuSans-35" x="213.671875"/>
     </g>
    </g>
    <g id="line2d_19">
     <path d="M 1157.2475 126.694688 
L 1167.2475 126.694688 
L 1177.2475 126.694688 
" style="fill: none; stroke: #2ca02c; stroke-width: 1.5; stroke-linecap: square"/>
    </g>
    <g id="text_19">
     <!-- command -->
     <g transform="translate(1185.2475 130.194688) scale(0.1 -0.1)">
      <defs>
       <path id="DejaVuSans-64" d="M 2906 2969 
L 2906 4863 
L 3481 4863 
L 3481 0 
L 2906 0 
L 2906 525 
Q 2725 213 2448 61 
Q 2172 -91 1784 -91 
Q 1150 -91 751 415 
Q 353 922 353 1747 
Q 353 2572 751 3078 
Q 1150 3584 1784 3584 
Q 2172 3584 2448 3432 
Q 2725 3281 2906 2969 
z
M 947 1747 
Q 947 1113 1208 752 
Q 1469 391 1925 391 
Q 2381 391 2643 752 
Q 2906 1113 2906 1747 
Q 2906 2381 2643 2742 
Q 2381 3103 1925 3103 
Q 1469 3103 1208 2742 
Q 947 2381 947 1747 
z
" transform="scale(0.015625)"/>
      </defs>
      <use xlink:href="#DejaVuSans-63"/>
      <use xlink:href="#DejaVuSans-6f" x="54.980469"/>
      <use xlink:href="#DejaVuSans-6d" x="116.162109"/>
      <use xlink:href="#DejaVuSans-6d" x="213.574219"/>
      <use xlink:href="#DejaVuSans-61" x="310.986328"/>
      <use xlink:href="#DejaVuSans-6e" x="372.265625"/>
      <use xlink:href="#DejaVuSans-64" x="435.644531"/>
     </g>
    </g>
   </g>
  </g>
 </g>
 <defs>
  <clipPath id="pcb708eccd9">
   <rect x="172.8" y="84.24" width="1071.36" height="540.54"/>
  </clipPath>
 </defs>
</svg>
