<?xml version="1.0" encoding="utf-8" standalone="no"?>
<!DOCTYPE svg PUBLIC "-//W3C//DTD SVG 1.1//EN"
  "http://www.w3.org/Graphics/SVG/1.1/DTD/svg11.dtd">
<svg xmlns:xlink="http://www.w3.org/1999/xlink" width="460.8pt" height="345.6pt" viewBox="0 0 460.8 345.6" xmlns="http://www.w3.org/2000/svg" version="1.1">
 <metadata>
  <rdf:RDF xmlns:dc="http://purl.org/dc/elements/1.1/" xmlns:cc="http://creativecommons.org/ns#" xmlns:rdf="http://www.w3.org/1999/02/22-rdf-syntax-ns#">
   <cc:Work>
    <dc:type rdf:resource="http://purl.org/dc/dcmitype/StillImage"/>
    <dc:date>2023-06-01T14:43:06.568228</dc:date>
    <dc:format>image/svg+xml</dc:format>
    <dc:creator>
     <cc:Agent>
      <dc:title>Matplotlib v3.7.1, https://matplotlib.org/</dc:title>
     </cc:Agent>
    </dc:creator>
   </cc:Work>
  </rdf:RDF>
 </metadata>
 <defs>
  <style type="text/css">*{stroke-linejoin: round; stroke-linecap: butt}</style>
 </defs>
 <g id="figure_1">
  <g id="patch_1">
   <path d="M 0 345.6 
L 460.8 345.6 
L 460.8 0 
L 0 0 
z
" style="fill: #ffffff"/>
  </g>
  <g id="axes_1">
   <g id="patch_2">
    <path d="M 57.6 307.584 
L 414.72 307.584 
L 414.72 41.472 
L 57.6 41.472 
z
" style="fill: #ffffff"/>
   </g>
   <g id="matplotlib.axis_1">
    <g id="xtick_1">
     <g id="line2d_1">
      <defs>
       <path id="m1937fa8ec5" d="M 0 0 
L 0 3.5 
" style="stroke: #000000; stroke-width: 0.8"/>
      </defs>
      <g>
       <use xlink:href="#m1937fa8ec5" x="73.832727" y="307.584" style="stroke: #000000; stroke-width: 0.8"/>
      </g>
     </g>
     <g id="text_1">
      <!-- 0 -->
      <g transform="translate(70.651477 322.182437) scale(0.1 -0.1)">
       <defs>
        <path id="DejaVuSans-30" d="M 2034 4250 
Q 1547 4250 1301 3770 
Q 1056 3291 1056 2328 
Q 1056 1369 1301 889 
Q 1547 409 2034 409 
Q 2525 409 2770 889 
Q 3016 1369 3016 2328 
Q 3016 3291 2770 3770 
Q 2525 4250 2034 4250 
z
M 2034 4750 
Q 2819 4750 3233 4129 
Q 3647 3509 3647 2328 
Q 3647 1150 3233 529 
Q 2819 -91 2034 -91 
Q 1250 -91 836 529 
Q 422 1150 422 2328 
Q 422 3509 836 4129 
Q 1250 4750 2034 4750 
z
" transform="scale(0.015625)"/>
       </defs>
       <use xlink:href="#DejaVuSans-30"/>
      </g>
     </g>
    </g>
    <g id="xtick_2">
     <g id="line2d_2">
      <g>
       <use xlink:href="#m1937fa8ec5" x="127.943712" y="307.584" style="stroke: #000000; stroke-width: 0.8"/>
      </g>
     </g>
     <g id="text_2">
      <!-- 2 -->
      <g transform="translate(124.762462 322.182437) scale(0.1 -0.1)">
       <defs>
        <path id="DejaVuSans-32" d="M 1228 531 
L 3431 531 
L 3431 0 
L 469 0 
L 469 531 
Q 828 903 1448 1529 
Q 2069 2156 2228 2338 
Q 2531 2678 2651 2914 
Q 2772 3150 2772 3378 
Q 2772 3750 2511 3984 
Q 2250 4219 1831 4219 
Q 1534 4219 1204 4116 
Q 875 4013 500 3803 
L 500 4441 
Q 881 4594 1212 4672 
Q 1544 4750 1819 4750 
Q 2544 4750 2975 4387 
Q 3406 4025 3406 3419 
Q 3406 3131 3298 2873 
Q 3191 2616 2906 2266 
Q 2828 2175 2409 1742 
Q 1991 1309 1228 531 
z
" transform="scale(0.015625)"/>
       </defs>
       <use xlink:href="#DejaVuSans-32"/>
      </g>
     </g>
    </g>
    <g id="xtick_3">
     <g id="line2d_3">
      <g>
       <use xlink:href="#m1937fa8ec5" x="182.054697" y="307.584" style="stroke: #000000; stroke-width: 0.8"/>
      </g>
     </g>
     <g id="text_3">
      <!-- 4 -->
      <g transform="translate(178.873447 322.182437) scale(0.1 -0.1)">
       <defs>
        <path id="DejaVuSans-34" d="M 2419 4116 
L 825 1625 
L 2419 1625 
L 2419 4116 
z
M 2253 4666 
L 3047 4666 
L 3047 1625 
L 3713 1625 
L 3713 1100 
L 3047 1100 
L 3047 0 
L 2419 0 
L 2419 1100 
L 313 1100 
L 313 1709 
L 2253 4666 
z
" transform="scale(0.015625)"/>
       </defs>
       <use xlink:href="#DejaVuSans-34"/>
      </g>
     </g>
    </g>
    <g id="xtick_4">
     <g id="line2d_4">
      <g>
       <use xlink:href="#m1937fa8ec5" x="236.165682" y="307.584" style="stroke: #000000; stroke-width: 0.8"/>
      </g>
     </g>
     <g id="text_4">
      <!-- 6 -->
      <g transform="translate(232.984432 322.182437) scale(0.1 -0.1)">
       <defs>
        <path id="DejaVuSans-36" d="M 2113 2584 
Q 1688 2584 1439 2293 
Q 1191 2003 1191 1497 
Q 1191 994 1439 701 
Q 1688 409 2113 409 
Q 2538 409 2786 701 
Q 3034 994 3034 1497 
Q 3034 2003 2786 2293 
Q 2538 2584 2113 2584 
z
M 3366 4563 
L 3366 3988 
Q 3128 4100 2886 4159 
Q 2644 4219 2406 4219 
Q 1781 4219 1451 3797 
Q 1122 3375 1075 2522 
Q 1259 2794 1537 2939 
Q 1816 3084 2150 3084 
Q 2853 3084 3261 2657 
Q 3669 2231 3669 1497 
Q 3669 778 3244 343 
Q 2819 -91 2113 -91 
Q 1303 -91 875 529 
Q 447 1150 447 2328 
Q 447 3434 972 4092 
Q 1497 4750 2381 4750 
Q 2619 4750 2861 4703 
Q 3103 4656 3366 4563 
z
" transform="scale(0.015625)"/>
       </defs>
       <use xlink:href="#DejaVuSans-36"/>
      </g>
     </g>
    </g>
    <g id="xtick_5">
     <g id="line2d_5">
      <g>
       <use xlink:href="#m1937fa8ec5" x="290.276666" y="307.584" style="stroke: #000000; stroke-width: 0.8"/>
      </g>
     </g>
     <g id="text_5">
      <!-- 8 -->
      <g transform="translate(287.095416 322.182437) scale(0.1 -0.1)">
       <defs>
        <path id="DejaVuSans-38" d="M 2034 2216 
Q 1584 2216 1326 1975 
Q 1069 1734 1069 1313 
Q 1069 891 1326 650 
Q 1584 409 2034 409 
Q 2484 409 2743 651 
Q 3003 894 3003 1313 
Q 3003 1734 2745 1975 
Q 2488 2216 2034 2216 
z
M 1403 2484 
Q 997 2584 770 2862 
Q 544 3141 544 3541 
Q 544 4100 942 4425 
Q 1341 4750 2034 4750 
Q 2731 4750 3128 4425 
Q 3525 4100 3525 3541 
Q 3525 3141 3298 2862 
Q 3072 2584 2669 2484 
Q 3125 2378 3379 2068 
Q 3634 1759 3634 1313 
Q 3634 634 3220 271 
Q 2806 -91 2034 -91 
Q 1263 -91 848 271 
Q 434 634 434 1313 
Q 434 1759 690 2068 
Q 947 2378 1403 2484 
z
M 1172 3481 
Q 1172 3119 1398 2916 
Q 1625 2713 2034 2713 
Q 2441 2713 2670 2916 
Q 2900 3119 2900 3481 
Q 2900 3844 2670 4047 
Q 2441 4250 2034 4250 
Q 1625 4250 1398 4047 
Q 1172 3844 1172 3481 
z
" transform="scale(0.015625)"/>
       </defs>
       <use xlink:href="#DejaVuSans-38"/>
      </g>
     </g>
    </g>
    <g id="xtick_6">
     <g id="line2d_6">
      <g>
       <use xlink:href="#m1937fa8ec5" x="344.387651" y="307.584" style="stroke: #000000; stroke-width: 0.8"/>
      </g>
     </g>
     <g id="text_6">
      <!-- 10 -->
      <g transform="translate(338.025151 322.182437) scale(0.1 -0.1)">
       <defs>
        <path id="DejaVuSans-31" d="M 794 531 
L 1825 531 
L 1825 4091 
L 703 3866 
L 703 4441 
L 1819 4666 
L 2450 4666 
L 2450 531 
L 3481 531 
L 3481 0 
L 794 0 
L 794 531 
z
" transform="scale(0.015625)"/>
       </defs>
       <use xlink:href="#DejaVuSans-31"/>
       <use xlink:href="#DejaVuSans-30" x="63.623047"/>
      </g>
     </g>
    </g>
    <g id="xtick_7">
     <g id="line2d_7">
      <g>
       <use xlink:href="#m1937fa8ec5" x="398.498636" y="307.584" style="stroke: #000000; stroke-width: 0.8"/>
      </g>
     </g>
     <g id="text_7">
      <!-- 12 -->
      <g transform="translate(392.136136 322.182437) scale(0.1 -0.1)">
       <use xlink:href="#DejaVuSans-31"/>
       <use xlink:href="#DejaVuSans-32" x="63.623047"/>
      </g>
     </g>
    </g>
    <g id="text_8">
     <!-- time [s] -->
     <g transform="translate(216.768594 335.860562) scale(0.1 -0.1)">
      <defs>
       <path id="DejaVuSans-74" d="M 1172 4494 
L 1172 3500 
L 2356 3500 
L 2356 3053 
L 1172 3053 
L 1172 1153 
Q 1172 725 1289 603 
Q 1406 481 1766 481 
L 2356 481 
L 2356 0 
L 1766 0 
Q 1100 0 847 248 
Q 594 497 594 1153 
L 594 3053 
L 172 3053 
L 172 3500 
L 594 3500 
L 594 4494 
L 1172 4494 
z
" transform="scale(0.015625)"/>
       <path id="DejaVuSans-69" d="M 603 3500 
L 1178 3500 
L 1178 0 
L 603 0 
L 603 3500 
z
M 603 4863 
L 1178 4863 
L 1178 4134 
L 603 4134 
L 603 4863 
z
" transform="scale(0.015625)"/>
       <path id="DejaVuSans-6d" d="M 3328 2828 
Q 3544 3216 3844 3400 
Q 4144 3584 4550 3584 
Q 5097 3584 5394 3201 
Q 5691 2819 5691 2113 
L 5691 0 
L 5113 0 
L 5113 2094 
Q 5113 2597 4934 2840 
Q 4756 3084 4391 3084 
Q 3944 3084 3684 2787 
Q 3425 2491 3425 1978 
L 3425 0 
L 2847 0 
L 2847 2094 
Q 2847 2600 2669 2842 
Q 2491 3084 2119 3084 
Q 1678 3084 1418 2786 
Q 1159 2488 1159 1978 
L 1159 0 
L 581 0 
L 581 3500 
L 1159 3500 
L 1159 2956 
Q 1356 3278 1631 3431 
Q 1906 3584 2284 3584 
Q 2666 3584 2933 3390 
Q 3200 3197 3328 2828 
z
" transform="scale(0.015625)"/>
       <path id="DejaVuSans-65" d="M 3597 1894 
L 3597 1613 
L 953 1613 
Q 991 1019 1311 708 
Q 1631 397 2203 397 
Q 2534 397 2845 478 
Q 3156 559 3463 722 
L 3463 178 
Q 3153 47 2828 -22 
Q 2503 -91 2169 -91 
Q 1331 -91 842 396 
Q 353 884 353 1716 
Q 353 2575 817 3079 
Q 1281 3584 2069 3584 
Q 2775 3584 3186 3129 
Q 3597 2675 3597 1894 
z
M 3022 2063 
Q 3016 2534 2758 2815 
Q 2500 3097 2075 3097 
Q 1594 3097 1305 2825 
Q 1016 2553 972 2059 
L 3022 2063 
z
" transform="scale(0.015625)"/>
       <path id="DejaVuSans-20" transform="scale(0.015625)"/>
       <path id="DejaVuSans-5b" d="M 550 4863 
L 1875 4863 
L 1875 4416 
L 1125 4416 
L 1125 -397 
L 1875 -397 
L 1875 -844 
L 550 -844 
L 550 4863 
z
" transform="scale(0.015625)"/>
       <path id="DejaVuSans-73" d="M 2834 3397 
L 2834 2853 
Q 2591 2978 2328 3040 
Q 2066 3103 1784 3103 
Q 1356 3103 1142 2972 
Q 928 2841 928 2578 
Q 928 2378 1081 2264 
Q 1234 2150 1697 2047 
L 1894 2003 
Q 2506 1872 2764 1633 
Q 3022 1394 3022 966 
Q 3022 478 2636 193 
Q 2250 -91 1575 -91 
Q 1294 -91 989 -36 
Q 684 19 347 128 
L 347 722 
Q 666 556 975 473 
Q 1284 391 1588 391 
Q 1994 391 2212 530 
Q 2431 669 2431 922 
Q 2431 1156 2273 1281 
Q 2116 1406 1581 1522 
L 1381 1569 
Q 847 1681 609 1914 
Q 372 2147 372 2553 
Q 372 3047 722 3315 
Q 1072 3584 1716 3584 
Q 2034 3584 2315 3537 
Q 2597 3491 2834 3397 
z
" transform="scale(0.015625)"/>
       <path id="DejaVuSans-5d" d="M 1947 4863 
L 1947 -844 
L 622 -844 
L 622 -397 
L 1369 -397 
L 1369 4416 
L 622 4416 
L 622 4863 
L 1947 4863 
z
" transform="scale(0.015625)"/>
      </defs>
      <use xlink:href="#DejaVuSans-74"/>
      <use xlink:href="#DejaVuSans-69" x="39.208984"/>
      <use xlink:href="#DejaVuSans-6d" x="66.992188"/>
      <use xlink:href="#DejaVuSans-65" x="164.404297"/>
      <use xlink:href="#DejaVuSans-20" x="225.927734"/>
      <use xlink:href="#DejaVuSans-5b" x="257.714844"/>
      <use xlink:href="#DejaVuSans-73" x="296.728516"/>
      <use xlink:href="#DejaVuSans-5d" x="348.828125"/>
     </g>
    </g>
   </g>
   <g id="matplotlib.axis_2">
    <g id="ytick_1">
     <g id="line2d_8">
      <defs>
       <path id="mbd188b5c5f" d="M 0 0 
L -3.5 0 
" style="stroke: #000000; stroke-width: 0.8"/>
      </defs>
      <g>
       <use xlink:href="#mbd188b5c5f" x="57.6" y="276.524805" style="stroke: #000000; stroke-width: 0.8"/>
      </g>
     </g>
     <g id="text_9">
      <!-- −250 -->
      <g transform="translate(23.132812 280.324024) scale(0.1 -0.1)">
       <defs>
        <path id="DejaVuSans-2212" d="M 678 2272 
L 4684 2272 
L 4684 1741 
L 678 1741 
L 678 2272 
z
" transform="scale(0.015625)"/>
        <path id="DejaVuSans-35" d="M 691 4666 
L 3169 4666 
L 3169 4134 
L 1269 4134 
L 1269 2991 
Q 1406 3038 1543 3061 
Q 1681 3084 1819 3084 
Q 2600 3084 3056 2656 
Q 3513 2228 3513 1497 
Q 3513 744 3044 326 
Q 2575 -91 1722 -91 
Q 1428 -91 1123 -41 
Q 819 9 494 109 
L 494 744 
Q 775 591 1075 516 
Q 1375 441 1709 441 
Q 2250 441 2565 725 
Q 2881 1009 2881 1497 
Q 2881 1984 2565 2268 
Q 2250 2553 1709 2553 
Q 1456 2553 1204 2497 
Q 953 2441 691 2322 
L 691 4666 
z
" transform="scale(0.015625)"/>
       </defs>
       <use xlink:href="#DejaVuSans-2212"/>
       <use xlink:href="#DejaVuSans-32" x="83.789062"/>
       <use xlink:href="#DejaVuSans-35" x="147.412109"/>
       <use xlink:href="#DejaVuSans-30" x="211.035156"/>
      </g>
     </g>
    </g>
    <g id="ytick_2">
     <g id="line2d_9">
      <g>
       <use xlink:href="#mbd188b5c5f" x="57.6" y="236.71045" style="stroke: #000000; stroke-width: 0.8"/>
      </g>
     </g>
     <g id="text_10">
      <!-- −200 -->
      <g transform="translate(23.132812 240.509669) scale(0.1 -0.1)">
       <use xlink:href="#DejaVuSans-2212"/>
       <use xlink:href="#DejaVuSans-32" x="83.789062"/>
       <use xlink:href="#DejaVuSans-30" x="147.412109"/>
       <use xlink:href="#DejaVuSans-30" x="211.035156"/>
      </g>
     </g>
    </g>
    <g id="ytick_3">
     <g id="line2d_10">
      <g>
       <use xlink:href="#mbd188b5c5f" x="57.6" y="196.896095" style="stroke: #000000; stroke-width: 0.8"/>
      </g>
     </g>
     <g id="text_11">
      <!-- −150 -->
      <g transform="translate(23.132812 200.695314) scale(0.1 -0.1)">
       <use xlink:href="#DejaVuSans-2212"/>
       <use xlink:href="#DejaVuSans-31" x="83.789062"/>
       <use xlink:href="#DejaVuSans-35" x="147.412109"/>
       <use xlink:href="#DejaVuSans-30" x="211.035156"/>
      </g>
     </g>
    </g>
    <g id="ytick_4">
     <g id="line2d_11">
      <g>
       <use xlink:href="#mbd188b5c5f" x="57.6" y="157.08174" style="stroke: #000000; stroke-width: 0.8"/>
      </g>
     </g>
     <g id="text_12">
      <!-- −100 -->
      <g transform="translate(23.132812 160.880959) scale(0.1 -0.1)">
       <use xlink:href="#DejaVuSans-2212"/>
       <use xlink:href="#DejaVuSans-31" x="83.789062"/>
       <use xlink:href="#DejaVuSans-30" x="147.412109"/>
       <use xlink:href="#DejaVuSans-30" x="211.035156"/>
      </g>
     </g>
    </g>
    <g id="ytick_5">
     <g id="line2d_12">
      <g>
       <use xlink:href="#mbd188b5c5f" x="57.6" y="117.267385" style="stroke: #000000; stroke-width: 0.8"/>
      </g>
     </g>
     <g id="text_13">
      <!-- −50 -->
      <g transform="translate(29.495313 121.066604) scale(0.1 -0.1)">
       <use xlink:href="#DejaVuSans-2212"/>
       <use xlink:href="#DejaVuSans-35" x="83.789062"/>
       <use xlink:href="#DejaVuSans-30" x="147.412109"/>
      </g>
     </g>
    </g>
    <g id="ytick_6">
     <g id="line2d_13">
      <g>
       <use xlink:href="#mbd188b5c5f" x="57.6" y="77.45303" style="stroke: #000000; stroke-width: 0.8"/>
      </g>
     </g>
     <g id="text_14">
      <!-- 0 -->
      <g transform="translate(44.2375 81.252248) scale(0.1 -0.1)">
       <use xlink:href="#DejaVuSans-30"/>
      </g>
     </g>
    </g>
    <g id="text_15">
     <!-- position [mm] -->
     <g transform="translate(17.053125 209.563938) rotate(-90) scale(0.1 -0.1)">
      <defs>
       <path id="DejaVuSans-70" d="M 1159 525 
L 1159 -1331 
L 581 -1331 
L 581 3500 
L 1159 3500 
L 1159 2969 
Q 1341 3281 1617 3432 
Q 1894 3584 2278 3584 
Q 2916 3584 3314 3078 
Q 3713 2572 3713 1747 
Q 3713 922 3314 415 
Q 2916 -91 2278 -91 
Q 1894 -91 1617 61 
Q 1341 213 1159 525 
z
M 3116 1747 
Q 3116 2381 2855 2742 
Q 2594 3103 2138 3103 
Q 1681 3103 1420 2742 
Q 1159 2381 1159 1747 
Q 1159 1113 1420 752 
Q 1681 391 2138 391 
Q 2594 391 2855 752 
Q 3116 1113 3116 1747 
z
" transform="scale(0.015625)"/>
       <path id="DejaVuSans-6f" d="M 1959 3097 
Q 1497 3097 1228 2736 
Q 959 2375 959 1747 
Q 959 1119 1226 758 
Q 1494 397 1959 397 
Q 2419 397 2687 759 
Q 2956 1122 2956 1747 
Q 2956 2369 2687 2733 
Q 2419 3097 1959 3097 
z
M 1959 3584 
Q 2709 3584 3137 3096 
Q 3566 2609 3566 1747 
Q 3566 888 3137 398 
Q 2709 -91 1959 -91 
Q 1206 -91 779 398 
Q 353 888 353 1747 
Q 353 2609 779 3096 
Q 1206 3584 1959 3584 
z
" transform="scale(0.015625)"/>
       <path id="DejaVuSans-6e" d="M 3513 2113 
L 3513 0 
L 2938 0 
L 2938 2094 
Q 2938 2591 2744 2837 
Q 2550 3084 2163 3084 
Q 1697 3084 1428 2787 
Q 1159 2491 1159 1978 
L 1159 0 
L 581 0 
L 581 3500 
L 1159 3500 
L 1159 2956 
Q 1366 3272 1645 3428 
Q 1925 3584 2291 3584 
Q 2894 3584 3203 3211 
Q 3513 2838 3513 2113 
z
" transform="scale(0.015625)"/>
      </defs>
      <use xlink:href="#DejaVuSans-70"/>
      <use xlink:href="#DejaVuSans-6f" x="63.476562"/>
      <use xlink:href="#DejaVuSans-73" x="124.658203"/>
      <use xlink:href="#DejaVuSans-69" x="176.757812"/>
      <use xlink:href="#DejaVuSans-74" x="204.541016"/>
      <use xlink:href="#DejaVuSans-69" x="243.75"/>
      <use xlink:href="#DejaVuSans-6f" x="271.533203"/>
      <use xlink:href="#DejaVuSans-6e" x="332.714844"/>
      <use xlink:href="#DejaVuSans-20" x="396.09375"/>
      <use xlink:href="#DejaVuSans-5b" x="427.880859"/>
      <use xlink:href="#DejaVuSans-6d" x="466.894531"/>
      <use xlink:href="#DejaVuSans-6d" x="564.306641"/>
      <use xlink:href="#DejaVuSans-5d" x="661.71875"/>
     </g>
    </g>
   </g>
   <g id="line2d_14">
    <path d="M 73.832727 294.134344 
L 74.20961 294.134344 
L 74.26318 293.861536 
L 74.317562 294.134344 
L 75.446858 294.134344 
L 75.500698 293.861536 
L 75.554809 294.134344 
L 75.877581 294.134344 
L 76.038832 291.065342 
L 77.975735 291.065342 
L 78.137797 288.011692 
L 78.405917 288.011692 
L 78.459758 288.27821 
L 78.513869 288.011692 
L 79.266823 288.011692 
L 79.320663 288.27821 
L 79.374233 288.011692 
L 79.536025 288.011692 
L 79.643976 288.27821 
L 79.697276 288.011692 
L 79.750575 288.27821 
L 80.072535 288.27821 
L 80.234598 285.235477 
L 81.90284 285.235477 
L 82.064631 282.207508 
L 84.270466 282.207508 
L 84.431987 279.193983 
L 86.207909 279.193983 
L 86.36889 276.194601 
L 86.4763 276.194601 
L 86.529599 276.446872 
L 86.58371 276.194601 
L 87.498186 276.194601 
L 87.552567 276.446872 
L 87.60749 276.194601 
L 87.713007 276.194601 
L 87.767929 276.446872 
L 87.822852 276.194601 
L 87.92945 276.194601 
L 88.090701 273.209065 
L 88.145624 273.209065 
L 88.306604 273.45738 
L 88.467584 273.209065 
L 88.521425 273.209065 
L 88.682405 273.45738 
L 89.005447 273.45738 
L 89.059558 273.209065 
L 89.113669 273.45738 
L 90.242154 273.45738 
L 90.295453 270.237075 
L 90.349023 271.967749 
L 91.426914 271.967749 
L 91.587894 268.998562 
L 93.470686 268.998562 
L 93.632207 266.042537 
L 94.817238 266.042537 
L 94.977677 266.282952 
L 95.300449 266.282952 
L 95.462511 263.099388 
L 95.623491 263.335973 
L 97.398332 263.335973 
L 97.559582 260.401663 
L 99.227283 260.401663 
L 99.334693 257.47972 
L 99.495944 258.939155 
L 100.464801 258.939155 
L 100.626052 256.023319 
L 101.757513 256.023319 
L 101.811894 256.252171 
L 101.864652 256.023319 
L 102.295105 256.023319 
L 102.348405 253.119474 
L 102.402245 254.569911 
L 103.1019 254.569911 
L 103.263421 251.67196 
L 103.692792 251.67196 
L 103.855125 251.895223 
L 104.070216 251.67196 
L 104.070216 251.67196 
L 104.285848 251.67196 
L 104.339418 251.895223 
L 104.339418 251.895223 
L 104.44764 251.67196 
L 104.60862 251.895223 
L 104.769871 251.67196 
L 104.931392 251.895223 
L 105.039614 251.895223 
L 105.200865 249.005194 
L 105.953278 249.005194 
L 106.006578 248.785602 
L 106.062041 249.005194 
L 106.976247 249.005194 
L 107.13858 246.126537 
L 108.911526 246.126537 
L 109.073047 243.259011 
L 110.316247 243.259011 
L 110.472357 243.472918 
L 110.526468 243.472918 
L 110.580309 243.259011 
L 110.633608 243.472918 
L 110.688801 243.472918 
L 110.849511 243.259011 
L 110.957462 240.402371 
L 111.011032 240.612671 
L 111.064602 240.402371 
L 111.172283 240.402371 
L 111.225853 240.612671 
L 111.279152 240.402371 
L 111.441485 240.402371 
L 111.494243 240.612671 
L 111.549707 240.402371 
L 111.656847 240.402371 
L 111.818097 240.612671 
L 112.733385 240.612671 
L 112.785872 240.402371 
L 112.841336 240.612671 
L 112.947935 240.612671 
L 113.002046 237.763094 
L 113.055886 239.18656 
L 113.216596 239.18656 
L 113.27233 238.978061 
L 113.324277 239.18656 
L 113.377576 239.18656 
L 113.432499 238.978061 
L 113.485798 239.18656 
L 113.808841 239.18656 
L 113.970362 236.342231 
L 115.476271 236.342231 
L 115.638333 233.508205 
L 117.575506 233.508205 
L 117.73811 230.684261 
L 118.704261 230.684261 
L 118.757831 230.883627 
L 118.811942 230.684261 
L 118.865242 230.684261 
L 119.027845 230.883627 
L 119.081686 230.684261 
L 119.135255 230.883627 
L 119.403375 230.883627 
L 119.564897 230.684261 
L 119.624419 227.870158 
L 119.676906 229.275995 
L 120.373044 229.275995 
L 120.426885 226.660845 
L 120.480184 227.870158 
L 120.857337 227.870158 
L 120.910366 228.066013 
L 120.964477 227.870158 
L 121.07324 227.870158 
L 121.23395 228.066013 
L 121.341901 228.066013 
L 121.503152 227.870158 
L 121.556722 225.065675 
L 121.616515 226.466726 
L 122.095397 226.466726 
L 122.202266 226.660845 
L 122.310217 226.466726 
L 122.363787 226.660845 
L 122.52612 223.857628 
L 123.924348 223.857628 
L 123.977918 223.666973 
L 124.031758 223.857628 
L 124.247391 223.857628 
L 124.407289 221.063695 
L 126.077424 221.063695 
L 126.237593 218.278848 
L 127.958593 218.278848 
L 128.120384 215.502856 
L 129.626564 215.502856 
L 129.791332 212.735503 
L 129.841925 212.913864 
L 129.896307 212.735503 
L 131.027227 212.735503 
L 131.080255 212.913864 
L 131.133825 212.735503 
L 131.564278 212.735503 
L 131.671959 212.913864 
L 131.725799 212.735503 
L 131.888132 209.976568 
L 132.640816 209.976568 
L 132.747685 210.151568 
L 132.801796 209.976568 
L 133.017158 210.151568 
L 133.501181 210.151568 
L 133.662973 207.397521 
L 133.716542 207.397521 
L 133.771465 207.225834 
L 133.823953 207.397521 
L 133.984662 207.397521 
L 134.147266 207.225834 
L 134.307164 207.397521 
L 135.384514 207.397521 
L 135.545764 204.651477 
L 137.374174 204.651477 
L 137.428285 201.913245 
L 137.482126 203.28141 
L 137.912849 203.28141 
L 138.07383 200.547 
L 138.235621 201.913245 
L 139.149826 201.913245 
L 139.311348 199.182625 
L 141.0337 199.182625 
L 141.195222 196.459395 
L 141.302903 196.459395 
L 141.356743 196.619106 
L 141.410313 196.459395 
L 142.809893 196.459395 
L 142.969521 193.743355 
L 143.347486 193.743355 
L 143.455708 193.899818 
L 143.562307 193.743355 
L 143.616418 193.899818 
L 143.670529 193.743355 
L 144.477323 193.743355 
L 144.531976 193.899818 
L 144.585004 193.743355 
L 144.638845 193.743355 
L 144.746255 191.034323 
L 144.800907 191.187552 
L 144.854206 191.034323 
L 145.015457 191.034323 
L 145.177249 191.187552 
L 145.231089 191.034323 
L 145.284659 191.187552 
L 145.33877 191.187552 
L 145.499751 191.034323 
L 145.553591 191.034323 
L 145.714842 191.187552 
L 145.876092 191.034323 
L 146.091725 191.034323 
L 146.253517 191.187552 
L 146.521366 191.187552 
L 146.682887 188.482095 
L 147.4353 188.482095 
L 147.489141 188.332075 
L 147.543252 188.482095 
L 147.758072 188.482095 
L 147.813266 188.332075 
L 147.866024 188.482095 
L 148.138202 188.482095 
L 148.296747 185.783247 
L 150.073211 185.783247 
L 150.234462 183.090826 
L 151.902703 183.090826 
L 152.063954 180.404623 
L 153.734631 180.404623 
L 153.892905 177.724456 
L 155.345785 177.724456 
L 155.399085 177.862795 
L 155.453466 177.724456 
L 155.561418 177.724456 
L 155.722127 175.050125 
L 157.227495 175.050125 
L 157.389016 172.381441 
L 158.789408 172.381441 
L 158.84379 172.513513 
L 158.895736 172.381441 
L 159.11191 172.381441 
L 159.273702 169.718219 
L 159.435223 169.718219 
L 159.488793 169.847193 
L 159.542363 169.718219 
L 159.650585 169.718219 
L 159.704155 169.847193 
L 159.759077 169.718219 
L 159.866217 169.718219 
L 160.026656 169.847193 
L 160.295317 169.847193 
L 160.349699 169.718219 
L 160.403539 169.847193 
L 160.510679 169.847193 
L 160.564519 169.718219 
L 160.617819 169.847193 
L 160.6722 169.847193 
L 160.726041 169.718219 
L 160.780963 169.847193 
L 160.887562 169.847193 
L 161.049083 167.186145 
L 161.425696 167.186145 
L 161.479807 167.060268 
L 161.586135 167.186145 
L 161.694898 167.060268 
L 161.855066 167.186145 
L 162.287413 167.186145 
L 162.340442 167.060268 
L 162.394823 167.186145 
L 162.716784 167.186145 
L 162.824735 164.407422 
L 162.878846 164.530209 
L 162.932686 164.530209 
L 163.096913 164.407422 
L 163.254376 164.530209 
L 163.308217 164.530209 
L 163.362328 164.407422 
L 163.415898 164.530209 
L 164.600387 164.530209 
L 164.761367 161.759457 
L 164.922889 161.879194 
L 166.428527 161.879194 
L 166.590048 159.232917 
L 168.20499 159.232917 
L 168.367864 156.591187 
L 169.926802 156.591187 
L 170.087241 153.953829 
L 171.647802 153.953829 
L 171.809864 151.320674 
L 173.479459 151.320674 
L 173.639357 148.691525 
L 175.199376 148.691525 
L 175.361168 146.066215 
L 177.081627 146.066215 
L 177.189308 143.444567 
L 177.243148 143.543896 
L 177.404669 143.444567 
L 177.56565 143.543896 
L 178.964419 143.543896 
L 179.127834 140.826399 
L 179.288273 140.922741 
L 179.395954 140.826399 
L 179.558828 140.922741 
L 180.63266 140.826399 
L 180.63266 140.826399 
L 180.848563 138.304908 
L 180.901321 138.211551 
L 180.955703 138.304908 
L 182.408583 138.304908 
L 182.570375 135.599833 
L 182.732437 135.690227 
L 184.238616 135.690227 
L 184.399867 133.078517 
L 185.851665 133.078517 
L 186.013457 130.46961 
L 187.627858 130.46961 
L 187.78992 127.86333 
L 189.404051 127.86333 
L 189.565031 125.259511 
L 191.125592 125.259511 
L 191.286843 122.657978 
L 192.954543 122.657978 
L 193.116605 120.058562 
L 194.622514 120.058562 
L 194.784847 117.461098 
L 196.396813 117.461098 
L 196.558876 114.865409 
L 198.226576 114.865409 
L 198.390262 112.271336 
L 199.89563 112.271336 
L 200.110721 109.678705 
L 201.670741 109.678705 
L 201.832803 107.087348 
L 203.500503 107.087348 
L 203.662025 104.497106 
L 205.328914 104.497106 
L 205.489894 101.907803 
L 207.110788 101.907803 
L 207.26771 99.319281 
L 207.428149 99.319281 
L 208.773348 99.319281 
L 208.935411 96.731363 
L 210.441049 96.731363 
L 210.602841 94.143892 
L 212.433145 94.143892 
L 212.593313 91.5567 
L 213.993165 91.5567 
L 214.153604 88.969619 
L 215.768816 88.969619 
L 215.928444 86.382482 
L 217.543116 86.382482 
L 217.705449 83.79513 
L 217.705449 83.79513 
L 219.263845 83.79513 
L 219.425637 81.207388 
L 221.09442 81.207388 
L 221.25567 78.619097 
L 222.762932 78.619097 
L 222.923912 76.030089 
L 224.645453 76.030089 
L 224.807515 73.41927 
L 225.130287 73.440189 
L 226.367265 73.440189 
L 226.528515 70.849246 
L 228.035236 70.849246 
L 228.143187 68.241915 
L 228.197027 68.257084 
L 229.863105 68.241915 
L 230.025167 65.651251 
L 231.69395 65.651251 
L 231.855471 63.059034 
L 233.469331 63.059034 
L 233.469331 63.059034 
L 233.684152 60.465096 
L 235.086168 60.465096 
L 235.244172 57.86928 
L 236.859114 57.86928 
L 237.880459 57.86928 
L 238.041709 59.167435 
L 238.364752 59.167435 
L 238.418322 60.471618 
L 238.525732 60.465096 
L 239.440749 60.465096 
L 239.60227 61.762288 
L 240.947469 61.762288 
L 241.056232 63.068438 
L 241.109802 63.059034 
L 241.269971 63.059034 
L 241.432304 64.355341 
L 241.969896 64.366195 
L 242.508571 64.355341 
L 242.669822 65.651251 
L 243.046164 65.663537 
L 243.046164 65.663537 
L 243.262067 66.946762 
L 244.338334 66.960498 
L 244.497962 68.257084 
L 244.713323 68.241915 
L 244.874845 69.553328 
L 245.682992 69.553328 
L 245.844514 70.849246 
L 246.436217 70.849246 
L 246.543898 72.14486 
L 246.597468 72.125383 
L 246.974351 72.14486 
L 247.028191 72.14486 
L 247.192959 73.440189 
L 247.463514 73.440189 
L 248.157488 73.440189 
L 248.317927 74.735262 
L 248.372038 74.712902 
L 249.448305 74.735262 
L 249.609826 76.030089 
L 249.98725 76.030089 
L 250.149042 77.324692 
L 250.363863 77.324692 
L 250.525384 78.619097 
L 251.816743 78.619097 
L 251.977994 79.913318 
L 252.031834 79.913318 
L 252.193085 81.207388 
L 253.484714 81.207388 
L 253.645694 82.501315 
L 254.829643 82.501315 
L 254.991164 83.79513 
L 255.314477 83.79513 
L 255.475457 85.088842 
L 256.444314 85.088842 
L 256.605294 86.382482 
L 257.089588 86.382482 
L 257.250027 87.676066 
L 258.326565 87.676066 
L 258.487816 88.969619 
L 258.864158 88.969619 
L 259.025679 90.263155 
L 259.994807 90.263155 
L 260.156328 91.5567 
L 260.53294 91.5567 
L 260.694462 92.850268 
L 261.823487 92.850268 
L 261.98555 94.143892 
L 262.25394 94.143892 
L 262.416003 95.437588 
L 262.631364 95.437588 
L 262.631364 95.437588 
L 262.847267 96.731363 
L 263.92597 96.731363 
L 264.084515 98.025258 
L 264.568267 98.025258 
L 264.730329 99.319281 
L 265.805515 99.319281 
L 265.967036 100.613454 
L 266.990275 100.613454 
L 267.149361 101.907803 
L 267.526244 101.907803 
L 267.688036 103.202351 
L 268.33358 103.202351 
L 268.494831 104.497106 
L 269.249138 104.497106 
L 269.411471 105.792099 
L 269.518069 105.792099 
L 269.679591 107.087348 
L 271.078901 107.087348 
L 271.239881 108.382883 
L 271.347562 108.382883 
L 271.509083 109.678705 
L 272.746601 109.678705 
L 272.907852 110.974853 
L 273.284464 110.974853 
L 273.445174 112.271336 
L 274.521983 112.271336 
L 274.683504 113.568177 
L 275.867182 113.568177 
L 276.028703 114.865409 
L 276.297635 114.865409 
L 276.458074 116.163038 
L 276.942096 116.163038 
L 277.103347 117.461098 
L 278.021881 117.461098 
L 278.179615 118.759595 
L 279.310264 118.759595 
L 279.472056 120.058562 
L 279.902238 120.058562 
L 280.063759 121.358015 
L 281.085916 121.358015 
L 281.247437 122.657978 
L 281.676537 122.657978 
L 281.839411 123.958474 
L 282.864544 123.958474 
L 283.023089 125.259511 
L 283.34559 125.259511 
L 283.453542 126.56113 
L 283.507112 126.48104 
L 283.668633 126.56113 
L 284.7449 126.56113 
L 284.906151 127.86333 
L 284.959992 127.781783 
L 285.014373 127.86333 
L 285.121513 127.86333 
L 285.283034 129.166152 
L 286.357949 129.166152 
L 286.51947 130.46961 
L 286.895812 130.46961 
L 287.057333 131.773729 
L 287.111715 131.687762 
L 287.164744 131.773729 
L 288.080572 131.773729 
L 288.242635 133.078517 
L 288.672546 132.991085 
L 288.834609 134.384014 
L 289.0497 134.384014 
L 289.209057 135.690227 
L 290.393817 135.690227 
L 290.555609 136.997189 
L 290.61486 136.905306 
L 290.663289 136.997189 
L 291.632417 136.905306 
L 291.793127 138.304908 
L 292.222768 138.304908 
L 292.385372 139.613422 
L 293.246277 139.613422 
L 293.407528 140.922741 
L 293.945662 140.922741 
L 294.106913 142.135057 
L 294.267893 142.232889 
L 294.806838 142.232889 
L 294.913707 143.543896 
L 294.968089 143.444567 
L 295.021388 143.543896 
L 295.71969 143.444567 
L 295.881212 144.754945 
L 296.795687 144.754945 
L 296.957479 146.066215 
L 297.011861 146.168537 
L 297.065431 146.066215 
L 297.495883 146.066215 
L 297.657134 147.3784 
L 298.465011 147.3784 
L 298.627074 148.691525 
L 299.271806 148.691525 
L 299.433327 150.005606 
L 300.240393 150.005606 
L 300.401914 151.320674 
L 301.10184 151.320674 
L 301.262279 152.636746 
L 302.015774 152.636746 
L 302.070697 154.065221 
L 302.177566 153.953829 
L 302.715429 153.953829 
L 302.87668 155.27197 
L 303.360161 155.27197 
L 303.522494 156.591187 
L 304.760013 156.591187 
L 304.921804 157.911495 
L 305.405286 157.911495 
L 305.565725 159.232917 
L 306.642534 159.232917 
L 306.804055 160.555479 
L 307.181209 160.555479 
L 307.288619 161.879194 
L 307.718801 161.879194 
L 307.772101 161.759457 
L 307.826753 161.879194 
L 308.363804 161.879194 
L 308.525055 163.204105 
L 308.848639 163.204105 
L 309.01016 164.530209 
L 309.278821 164.530209 
L 309.439531 164.407422 
L 309.601052 164.530209 
L 310.086698 164.530209 
L 310.248219 165.857556 
L 310.786353 165.857556 
L 310.947874 167.186145 
L 311.108854 167.186145 
L 311.216535 167.060268 
L 311.324216 167.186145 
L 311.377786 167.060268 
L 311.431356 167.186145 
L 311.485737 167.186145 
L 311.539848 167.060268 
L 311.593418 167.186145 
L 311.86235 167.186145 
L 311.915108 167.060268 
L 312.0769 168.516016 
L 312.238692 168.388603 
L 312.293073 168.516016 
L 312.345832 168.388603 
L 312.454054 168.388603 
L 312.616116 169.847193 
L 312.669686 169.847193 
L 312.722715 169.718219 
L 312.776826 169.847193 
L 312.831207 169.847193 
L 312.992728 169.718219 
L 313.044946 169.718219 
L 313.205926 169.847193 
L 313.36907 169.718219 
L 313.42237 169.847193 
L 313.47621 169.718219 
L 313.691031 169.718219 
L 313.745412 169.847193 
L 313.800064 169.718219 
L 313.906934 171.179684 
L 313.960774 171.049157 
L 314.014073 171.179684 
L 314.068996 171.049157 
L 314.444797 171.049157 
L 314.499449 172.513513 
L 314.551395 172.381441 
L 314.713728 172.381441 
L 314.766757 172.513513 
L 314.820597 172.381441 
L 314.874167 172.381441 
L 314.928549 172.513513 
L 314.982119 172.381441 
L 315.573822 172.381441 
L 315.734803 173.715086 
L 316.165526 173.715086 
L 316.327318 175.050125 
L 317.242876 175.050125 
L 317.295634 175.185327 
L 317.458237 176.386574 
L 317.511807 176.523344 
L 317.565648 176.386574 
L 317.996101 176.386574 
L 318.157622 177.724456 
L 319.233348 177.724456 
L 319.394599 179.063803 
L 319.82397 179.063803 
L 319.82397 179.063803 
L 320.039873 180.404623 
L 320.95543 180.404623 
L 321.116952 181.746956 
L 321.707844 181.746956 
L 321.869906 183.090826 
L 322.731623 183.090826 
L 322.892333 184.436248 
L 323.591447 184.436248 
L 323.752698 185.783247 
L 324.612792 185.783247 
L 324.774854 187.131863 
L 325.473157 187.131863 
L 325.63576 188.482095 
L 325.958261 188.482095 
L 326.015349 188.332075 
L 326.065672 188.482095 
L 326.280763 188.482095 
L 326.442555 189.833984 
L 326.658187 189.833984 
L 326.765868 189.682355 
L 326.819708 189.833984 
L 326.87436 189.682355 
L 327.250161 189.682355 
L 327.412224 189.833984 
L 327.519093 189.833984 
L 327.626774 191.187552 
L 327.734725 191.034323 
L 327.788295 191.187552 
L 327.842135 191.034323 
L 327.949546 191.034323 
L 328.056144 191.187552 
L 328.111067 191.034323 
L 328.272318 192.387979 
L 328.971702 192.387979 
L 329.079654 192.542817 
L 329.133494 192.387979 
L 329.187064 192.542817 
L 329.294745 193.899818 
L 329.455996 193.899818 
L 329.616164 193.743355 
L 330.04824 193.743355 
L 330.210032 195.100499 
L 331.123155 195.100499 
L 331.231106 196.619106 
L 331.285217 196.459395 
L 331.339869 196.619106 
L 331.393169 196.459395 
L 331.823892 196.459395 
L 331.984872 197.820098 
L 332.899348 197.820098 
L 333.06114 199.182625 
L 333.599544 199.182625 
L 333.760524 200.547 
L 334.459368 200.547 
L 334.620889 201.913245 
L 335.427684 201.913245 
L 335.588935 203.28141 
L 336.450652 203.28141 
L 336.612444 204.651477 
L 337.418968 204.651477 
L 337.580489 206.023504 
L 338.226033 206.023504 
L 338.387555 207.397521 
L 338.495777 207.397521 
L 338.548805 207.225834 
L 338.603458 207.397521 
L 338.709515 207.397521 
L 338.871307 207.225834 
L 338.979258 207.397521 
L 338.979258 207.397521 
L 339.085857 207.225834 
L 339.194349 207.397521 
L 339.24846 207.225834 
L 339.410252 208.773529 
L 339.678643 208.773529 
L 339.733565 208.600185 
L 339.786594 208.773529 
L 339.893193 208.773529 
L 340.055526 208.600185 
L 340.109096 208.600185 
L 340.163748 210.151568 
L 340.217318 209.976568 
L 340.753828 209.976568 
L 340.80848 210.151568 
L 340.866379 209.976568 
L 340.970001 209.976568 
L 341.024383 210.151568 
L 341.130441 211.531677 
L 341.292773 211.354996 
L 341.561976 211.354996 
L 341.615816 211.531677 
L 341.670468 211.354996 
L 341.723497 211.354996 
L 341.885289 212.735503 
L 342.799494 212.735503 
L 342.853334 212.913864 
L 342.906904 212.735503 
L 343.014585 212.735503 
L 343.175836 214.118105 
L 343.498608 214.118105 
L 343.659858 215.502856 
L 344.842995 215.502856 
L 345.004516 216.889765 
L 345.327559 216.889765 
L 345.48908 218.278848 
L 346.566159 218.278848 
L 346.72741 219.670153 
L 347.10267 219.670153 
L 347.264732 221.063695 
L 347.642156 221.063695 
L 347.695726 220.876472 
L 347.749296 221.063695 
L 348.395111 221.063695 
L 348.556362 222.459515 
L 348.931892 222.459515 
L 348.986814 222.270572 
L 349.040925 222.459515 
L 349.095848 222.459515 
L 349.255205 223.857628 
L 349.6329 223.857628 
L 349.686199 223.666973 
L 349.74058 223.857628 
L 349.955672 223.857628 
L 350.009512 223.666973 
L 350.063623 223.857628 
L 350.169951 223.857628 
L 350.332284 223.666973 
L 350.493805 225.258066 
L 350.547375 225.258066 
L 350.708896 225.065675 
L 351.192919 225.065675 
L 351.353358 226.466726 
L 351.514609 226.660845 
L 351.62229 226.660845 
L 351.784623 226.466726 
L 352.268916 226.466726 
L 352.429626 227.870158 
L 353.28999 227.870158 
L 353.451512 228.066013 
L 353.559734 227.870158 
L 353.618985 228.066013 
L 353.774554 229.275995 
L 354.151167 229.275995 
L 354.312688 230.684261 
L 355.012073 230.684261 
L 355.069701 230.883627 
L 355.12273 230.684261 
L 355.282627 232.296105 
L 355.443337 232.094995 
L 355.821032 232.094995 
L 355.98093 233.508205 
L 357.003898 233.508205 
L 357.16596 234.923948 
L 357.864533 234.923948 
L 358.026054 236.342231 
L 358.402937 236.342231 
L 358.456507 236.13729 
L 358.510889 236.342231 
L 358.833931 236.342231 
L 358.995182 237.763094 
L 359.048752 237.763094 
L 359.10151 237.55637 
L 359.155621 237.763094 
L 359.264114 237.763094 
L 359.317413 237.55637 
L 359.371253 237.763094 
L 359.533316 237.763094 
L 359.586615 237.55637 
L 359.640456 237.763094 
L 359.693755 237.763094 
L 359.855276 239.18656 
L 360.177237 239.18656 
L 360.285729 238.978061 
L 360.39341 239.18656 
L 360.502173 238.978061 
L 360.662883 239.18656 
L 360.770293 239.18656 
L 360.932085 238.978061 
L 361.039495 238.978061 
L 361.200475 240.402371 
L 361.415837 240.402371 
L 361.469407 240.612671 
L 361.523518 240.402371 
L 361.683957 240.402371 
L 361.84629 240.612671 
L 361.953971 240.612671 
L 362.115222 242.041449 
L 362.169603 242.041449 
L 362.329501 241.82935 
L 362.814335 241.82935 
L 362.975316 243.259011 
L 363.83568 243.259011 
L 363.997743 244.691405 
L 364.535606 244.691405 
L 364.697668 246.126537 
L 365.881887 246.126537 
L 366.042867 247.564464 
L 366.58046 247.564464 
L 366.634842 247.346696 
L 366.795822 249.005194 
L 366.850203 249.005194 
L 366.904585 248.785602 
L 366.957884 249.005194 
L 367.065294 249.005194 
L 367.119135 248.785602 
L 367.172705 249.005194 
L 367.656727 249.005194 
L 367.656727 249.005194 
L 367.764679 250.448775 
L 367.871007 250.448775 
L 367.9262 250.227344 
L 367.978417 250.448775 
L 368.355841 250.448775 
L 368.464334 250.227344 
L 368.624773 251.67196 
L 368.679425 251.67196 
L 368.840676 251.895223 
L 368.895057 251.67196 
L 368.947545 251.895223 
L 369.055496 251.895223 
L 369.217018 251.67196 
L 369.485679 251.67196 
L 369.53979 251.895223 
L 369.59336 251.67196 
L 369.655858 251.67196 
L 369.809262 253.119474 
L 370.347396 253.119474 
L 370.508647 254.569911 
L 371.476151 254.569911 
L 371.638755 256.023319 
L 372.391709 256.023319 
L 372.552419 257.47972 
L 373.574575 257.47972 
L 373.736638 258.939155 
L 374.603766 258.939155 
L 374.760147 260.401663 
L 375.404879 260.401663 
L 375.56613 261.867254 
L 375.673811 261.867254 
L 375.781492 261.632572 
L 375.942743 261.867254 
L 376.535258 261.867254 
L 376.696238 263.335973 
L 376.803919 263.335973 
L 376.91187 263.099388 
L 377.07285 263.335973 
L 377.233019 263.335973 
L 377.233019 263.335973 
L 377.449463 264.807862 
L 377.557414 264.807862 
L 377.665095 264.569366 
L 377.825805 264.807862 
L 377.880186 264.807862 
L 378.040896 264.569366 
L 378.422649 264.569366 
L 378.5793 266.042537 
L 379.440206 266.042537 
L 379.602268 267.518909 
L 380.03218 267.518909 
L 380.086021 267.761267 
L 380.140132 267.518909 
L 380.574913 267.518909 
L 380.731835 268.998562 
L 381.37765 268.998562 
L 381.53863 270.481495 
L 382.344343 270.481495 
L 382.397913 270.237075 
L 382.452835 270.481495 
L 382.613274 270.481495 
L 382.775337 271.967749 
L 383.421151 271.967749 
L 383.581861 273.45738 
L 383.905174 273.45738 
L 384.012584 273.209065 
L 384.175188 273.45738 
L 384.282598 273.45738 
L 384.390008 273.209065 
L 384.497689 273.45738 
L 384.55153 274.95041 
L 384.604288 274.700129 
L 385.412977 274.700129 
L 385.572604 276.194601 
L 385.627527 276.446872 
L 385.681097 276.194601 
L 386.596113 276.194601 
L 386.757364 277.692536 
L 387.348797 277.692536 
L 387.51113 279.193983 
L 388.855517 279.193983 
L 389.01758 280.698958 
L 389.501332 280.698958 
L 389.663124 282.207508 
L 390.955024 282.207508 
L 391.115463 283.719665 
L 391.331095 283.719665 
L 391.384394 283.459295 
L 391.438235 283.719665 
L 391.599215 283.719665 
L 391.760195 285.235477 
L 391.975827 285.235477 
L 392.029127 284.973077 
L 392.082697 285.235477 
L 392.836192 285.235477 
L 392.890032 286.754984 
L 392.944143 286.490521 
L 393.051554 286.490521 
L 393.213346 286.754984 
L 393.375408 286.754984 
L 393.541529 286.490521 
L 393.644069 286.754984 
L 393.698721 286.490521 
L 393.75202 286.754984 
L 393.914083 288.011692 
L 394.559897 288.011692 
L 394.613197 288.27821 
L 394.667578 288.011692 
L 395.042297 288.011692 
L 395.205171 289.536614 
L 395.527672 289.536614 
L 395.688923 291.065342 
L 397.034663 291.065342 
L 397.196185 292.597892 
L 397.787618 292.597892 
L 397.948868 294.134344 
L 398.487273 294.134344 
L 398.487273 294.134344 
" clip-path="url(#p210d995250)" style="fill: none; stroke: #1f77b4; stroke-width: 1.5; stroke-linecap: square"/>
   </g>
   <g id="line2d_15">
    <path d="M 73.832727 295.488 
L 74.20961 295.488 
L 74.37059 295.311328 
L 75.070787 295.311328 
L 75.230685 294.383526 
L 75.230685 294.383526 
L 75.661949 294.383526 
L 75.82347 293.457141 
L 76.092402 293.457141 
L 76.200353 292.53215 
L 76.362416 292.707095 
L 76.845356 292.707095 
L 77.006337 291.782964 
L 77.491171 291.782964 
L 77.654586 290.860234 
L 78.137797 290.860234 
L 78.299319 289.938906 
L 78.569062 289.938906 
L 78.72896 289.01898 
L 79.320663 289.01898 
L 79.482185 288.10043 
L 79.857444 288.10043 
L 79.965125 288.273153 
L 80.126646 287.355424 
L 80.610669 287.355424 
L 80.772461 286.439097 
L 81.365247 286.439097 
L 81.525957 285.524139 
L 81.795429 285.524139 
L 81.95668 284.610559 
L 82.387674 284.610559 
L 82.549195 283.698348 
L 82.925537 283.698348 
L 83.08787 282.787491 
L 83.571081 282.787491 
L 83.732873 282.957387 
L 83.786984 282.957387 
L 83.948235 282.047319 
L 84.324847 282.047319 
L 84.486639 281.13862 
L 85.024232 281.13862 
L 85.186024 280.231267 
L 85.454143 280.231267 
L 85.615665 279.325251 
L 86.100499 279.325251 
L 86.26175 278.420589 
L 86.961676 278.420589 
L 87.123197 277.684334 
L 87.498186 277.684334 
L 87.66106 276.781759 
L 88.042542 276.781759 
L 88.198653 275.880513 
L 88.682405 275.880513 
L 88.844197 274.980597 
L 89.221621 274.980597 
L 89.38233 274.081995 
L 89.865542 274.081995 
L 90.027333 273.184699 
L 90.511356 273.184699 
L 90.672066 272.288717 
L 90.941268 272.288717 
L 91.048678 272.452951 
L 91.210199 271.557701 
L 91.803797 271.557701 
L 91.965048 270.66375 
L 92.34166 270.66375 
L 92.503993 269.771088 
L 92.987745 269.771088 
L 93.148455 268.879724 
L 93.417928 268.879724 
L 93.578637 267.989634 
L 94.278292 267.989634 
L 94.385703 267.100827 
L 94.762045 267.100827 
L 94.923295 266.374127 
L 95.300449 266.374127 
L 95.462511 265.487278 
L 95.892152 265.487278 
L 96.053133 264.601719 
L 96.752517 264.601719 
L 96.914038 263.717411 
L 97.291192 263.717411 
L 97.451902 262.834352 
L 97.937007 262.834352 
L 98.098257 261.952544 
L 98.47487 261.952544 
L 98.636662 261.07197 
L 99.011921 261.07197 
L 99.173172 260.192662 
L 99.442104 260.192662 
L 99.549784 260.35008 
L 99.711035 259.471441 
L 100.087648 259.471441 
L 100.249439 258.594004 
L 100.733192 258.594004 
L 100.895254 257.717817 
L 101.380359 257.717817 
L 101.54161 256.842833 
L 101.918222 256.842833 
L 102.080014 255.969067 
L 102.671447 255.969067 
L 102.832968 255.251111 
L 102.886809 255.251111 
L 103.04806 254.379209 
L 103.640034 254.379209 
L 103.801826 253.508493 
L 104.070216 253.508493 
L 104.070216 253.508493 
L 104.285848 252.638979 
L 104.985233 252.638979 
L 105.146213 251.770652 
L 105.415686 251.770652 
L 105.576125 250.903519 
L 105.953278 250.903519 
L 106.116152 250.037565 
L 106.491953 250.037565 
L 106.653475 249.172773 
L 107.030087 249.172773 
L 107.191879 248.309176 
L 107.67536 248.309176 
L 107.836882 247.446725 
L 108.213494 247.446725 
L 108.374204 246.585445 
L 108.428856 246.585445 
L 108.589024 246.73498 
L 108.642865 246.73498 
L 108.804386 245.874289 
L 109.44993 245.874289 
L 109.611181 245.014753 
L 109.880654 245.014753 
L 110.041904 244.156371 
L 110.526468 244.156371 
L 110.688801 243.299128 
L 110.957462 243.299128 
L 111.118713 242.443016 
L 111.603277 242.443016 
L 111.764798 241.588043 
L 112.14114 241.588043 
L 112.247468 241.734767 
L 112.410072 240.880359 
L 112.785872 240.880359 
L 112.947935 240.027081 
L 113.324277 240.027081 
L 113.485798 239.174903 
L 113.916521 239.174903 
L 114.077772 238.323855 
L 114.562336 238.323855 
L 114.722775 237.473914 
L 115.10047 237.473914 
L 115.26145 236.62508 
L 115.52984 236.62508 
L 115.692173 235.777329 
L 116.175655 235.777329 
L 116.337176 234.930685 
L 116.390746 234.930685 
L 116.552538 235.073491 
L 116.714059 235.073491 
L 116.87531 234.227364 
L 117.360145 234.227364 
L 117.521666 233.382336 
L 117.791139 233.382336 
L 117.951307 232.538383 
L 118.435059 232.538383 
L 118.596581 231.695505 
L 118.972922 231.695505 
L 119.135255 230.853695 
L 119.403375 230.853695 
L 119.564897 230.012951 
L 119.94178 230.012951 
L 120.04946 229.173266 
L 120.215311 229.312728 
L 120.588406 229.312728 
L 120.749657 228.473537 
L 121.23395 228.473537 
L 121.395742 227.635421 
L 121.664403 227.635421 
L 121.825654 226.798332 
L 122.310217 226.798332 
L 122.471468 225.962278 
L 123.009331 225.962278 
L 123.117553 225.127275 
L 123.601035 225.127275 
L 123.762827 224.293284 
L 124.031758 224.293284 
L 124.19328 223.460336 
L 124.677302 223.460336 
L 124.838553 222.628399 
L 125.108838 222.628399 
L 125.268465 221.932532 
L 125.645889 221.932532 
L 125.80741 221.102076 
L 126.077424 221.102076 
L 126.237593 220.272624 
L 126.721886 220.272624 
L 126.883137 219.444182 
L 127.260561 219.444182 
L 127.420459 218.616745 
L 128.012162 218.616745 
L 128.173413 217.790278 
L 128.334934 217.790278 
L 128.496456 216.964815 
L 128.982102 216.964815 
L 129.14227 216.272069 
L 129.411743 216.272069 
L 129.573805 215.448016 
L 130.057828 215.448016 
L 130.219079 214.624949 
L 130.595962 214.624949 
L 130.757213 213.802839 
L 131.133825 213.802839 
L 131.295346 212.981699 
L 131.564278 212.981699 
L 131.725799 212.161524 
L 132.210093 212.161524 
L 132.371614 211.342296 
L 132.747685 211.342296 
L 132.908665 210.524023 
L 133.340471 210.524023 
L 133.501181 209.70669 
L 133.878064 209.70669 
L 134.040126 208.890289 
L 134.201106 208.890289 
L 134.361004 209.017679 
L 134.417821 209.017679 
L 134.578801 208.201684 
L 134.84638 208.201684 
L 135.007901 207.386604 
L 135.493277 207.386604 
L 135.653986 206.57248 
L 136.084439 206.57248 
L 136.244608 205.759256 
L 136.837394 205.759256 
L 136.998644 204.946956 
L 137.267305 204.946956 
L 137.428285 204.135579 
L 137.804627 204.135579 
L 137.966419 203.325094 
L 138.235621 203.325094 
L 138.396602 202.639109 
L 138.772943 202.639109 
L 138.934465 201.829898 
L 139.311348 201.829898 
L 139.419299 201.021587 
L 139.850293 201.021587 
L 140.012085 200.214167 
L 140.388427 200.214167 
L 140.549948 199.407616 
L 140.926561 199.407616 
L 141.08727 198.601965 
L 141.356743 198.601965 
L 141.518264 197.797165 
L 142.109427 197.797165 
L 142.270948 196.99325 
L 142.486851 196.99325 
L 142.647561 196.19021 
L 143.132395 196.19021 
L 143.293646 195.388007 
L 143.670529 195.388007 
L 143.831509 194.586679 
L 144.207851 194.586679 
L 144.315802 193.786196 
L 144.423212 193.786196 
L 144.585004 193.90446 
L 144.746255 193.90446 
L 144.908588 193.104295 
L 145.070109 193.104295 
L 145.231089 192.304982 
L 145.714842 192.304982 
L 145.876092 191.506505 
L 146.253517 191.506505 
L 146.414497 190.708864 
L 146.682887 190.708864 
L 146.84522 189.912052 
L 147.4353 189.912052 
L 147.597904 189.116059 
L 147.866024 189.116059 
L 147.973975 188.320895 
L 148.138202 188.435958 
L 148.403887 188.435958 
L 148.565408 187.641089 
L 148.83434 187.641089 
L 148.996132 186.847031 
L 149.535348 186.847031 
L 149.69714 186.05377 
L 149.96553 186.05377 
L 150.127051 185.261329 
L 150.611074 185.261329 
L 150.773407 184.469676 
L 150.934117 184.469676 
L 151.09645 183.67882 
L 151.579661 183.67882 
L 151.740912 182.888752 
L 152.170282 182.888752 
L 152.331803 182.099464 
L 152.708416 182.099464 
L 152.870749 181.310957 
L 153.140222 181.310957 
L 153.301743 180.52323 
L 153.784683 180.52323 
L 153.947557 179.736267 
L 154.215948 179.736267 
L 154.37801 178.950077 
L 154.752999 178.950077 
L 154.916144 178.164643 
L 155.399085 178.273464 
L 155.561418 177.488285 
L 155.830079 177.488285 
L 155.991329 176.703847 
L 156.368753 176.703847 
L 156.528651 175.920173 
L 156.904723 175.920173 
L 157.066515 175.137239 
L 157.335717 175.137239 
L 157.496968 174.355046 
L 157.874662 174.355046 
L 158.034831 173.573578 
L 158.411443 173.573578 
L 158.574588 172.792859 
L 158.9512 172.792859 
L 159.11191 172.012856 
L 159.381383 172.012856 
L 159.542363 171.233577 
L 159.919516 171.233577 
L 160.080226 170.559186 
L 160.349699 170.559186 
L 160.510679 169.780847 
L 161.102653 169.780847 
L 161.209793 169.003209 
L 161.425696 169.003209 
L 161.586135 168.226271 
L 162.016858 168.226271 
L 162.17865 167.450043 
L 162.555533 167.450043 
L 162.716784 166.674507 
L 163.147507 166.674507 
L 163.308217 165.899672 
L 163.793592 165.899672 
L 163.953761 165.125514 
L 164.222422 165.125514 
L 164.385025 164.352048 
L 164.761367 164.352048 
L 164.922889 163.579259 
L 165.305724 163.579259 
L 165.460752 162.807148 
L 165.729954 162.906723 
L 165.892016 162.134787 
L 166.267817 162.134787 
L 166.428527 161.363519 
L 166.697188 161.363519 
L 166.858709 160.592912 
L 167.236404 160.592912 
L 167.400089 159.822966 
L 167.773185 159.822966 
L 167.934976 159.053673 
L 168.312401 159.053673 
L 168.429551 158.285033 
L 168.742853 158.285033 
L 168.904375 157.517038 
L 169.281258 157.517038 
L 169.443591 156.749688 
L 169.81858 156.749688 
L 169.980372 155.982967 
L 170.357255 155.982967 
L 170.518505 155.216883 
L 170.895118 155.216883 
L 171.056639 154.451428 
L 171.487633 154.451428 
L 171.647802 153.686603 
L 171.917545 153.686603 
L 172.078796 152.922398 
L 172.454326 152.922398 
L 172.5685 152.158806 
L 172.725151 152.251884 
L 172.886943 152.251884 
L 173.047923 151.488428 
L 173.423995 151.488428 
L 173.585516 150.725577 
L 173.746767 150.725577 
L 173.9091 149.963323 
L 174.39204 149.963323 
L 174.553291 149.201675 
L 174.822764 149.201675 
L 174.984285 148.440623 
L 175.361168 148.440623 
L 175.522689 147.680161 
L 175.790268 147.680161 
L 175.951789 146.920288 
L 176.597333 146.920288 
L 176.758855 146.161005 
L 176.920376 146.161005 
L 177.081627 145.402294 
L 177.56565 145.402294 
L 177.727712 144.644165 
L 177.996644 144.644165 
L 178.158435 143.886602 
L 178.535048 143.886602 
L 178.696028 143.129619 
L 179.07237 143.129619 
L 179.234432 142.373186 
L 179.611586 142.460356 
L 179.772837 141.704011 
L 180.040957 141.704011 
L 180.203019 140.948223 
L 180.63266 140.948223 
L 180.63266 140.192992 
L 180.740341 140.192992 
L 181.170523 140.192992 
L 181.335021 139.438303 
L 181.602058 139.438303 
L 181.76358 138.684155 
L 182.141004 138.684155 
L 182.302255 137.930549 
L 182.678055 137.930549 
L 182.839847 137.177485 
L 183.22133 137.177485 
L 183.376628 136.424946 
L 183.647724 136.424946 
L 183.808975 135.67294 
L 184.189646 135.67294 
L 184.346297 134.921452 
L 184.615229 134.921452 
L 184.777291 134.170498 
L 185.153362 134.170498 
L 185.314343 133.420045 
L 185.690684 133.501855 
L 185.851665 132.751442 
L 186.120596 132.751442 
L 186.281847 132.001547 
L 186.76614 132.001547 
L 186.927932 131.252153 
L 187.308332 131.252153 
L 187.466607 130.503269 
L 187.73608 130.503269 
L 187.898954 129.754879 
L 188.273943 129.754879 
L 188.435464 129.006974 
L 188.812077 129.006974 
L 188.973327 128.259563 
L 189.24253 128.259563 
L 189.404051 127.512638 
L 189.672982 127.512638 
L 189.834233 126.76619 
L 190.265227 126.76619 
L 190.480048 126.020228 
L 190.964071 126.020228 
L 191.125592 125.274728 
L 191.395335 125.274728 
L 191.556045 124.529706 
L 191.931575 124.529706 
L 192.094449 123.785146 
L 192.36311 123.785146 
L 192.524361 123.041048 
L 192.901244 123.041048 
L 193.062765 122.297411 
L 193.438836 122.297411 
L 193.601169 121.554228 
L 193.86956 121.554228 
L 194.031352 120.811499 
L 194.407423 120.811499 
L 194.569756 120.069209 
L 194.838417 120.069209 
L 194.998856 119.327364 
L 195.267247 119.327364 
L 195.429309 118.585957 
L 195.80538 118.585957 
L 195.966902 117.844988 
L 196.235833 117.844988 
L 196.347843 117.104441 
L 196.505035 117.176329 
L 196.774508 117.176329 
L 196.936029 116.435758 
L 197.098633 116.435758 
L 197.259342 115.695618 
L 197.744177 115.695618 
L 197.904887 114.955891 
L 198.174089 114.955891 
L 198.335339 114.216578 
L 198.819633 114.216578 
L 198.980072 113.477679 
L 199.250086 113.477679 
L 199.411336 112.739195 
L 199.794442 112.739195 
L 199.89563 112.001108 
L 200.27116 112.001108 
L 200.433222 111.263428 
L 200.810376 111.263428 
L 200.971627 110.526146 
L 201.239747 110.526146 
L 201.40235 109.789254 
L 201.779233 109.789254 
L 201.940213 109.05276 
L 202.209415 109.05276 
L 202.370396 108.31664 
L 202.747549 108.31664 
L 202.90907 107.580911 
L 203.232113 107.580911 
L 203.392823 106.845563 
L 203.877386 106.845563 
L 204.037555 106.11059 
L 204.414438 106.11059 
L 204.575689 105.375984 
L 204.84435 105.375984 
L 205.005871 104.641743 
L 205.167392 104.641743 
L 205.328914 103.907877 
L 205.814289 103.907877 
L 205.974999 103.174361 
L 206.351882 103.174361 
L 206.512321 102.441212 
L 206.890557 102.441212 
L 207.051807 101.708405 
L 207.32101 101.708405 
L 207.48226 100.975956 
L 207.750921 100.975956 
L 207.912713 100.24385 
L 208.289596 100.305578 
L 208.449224 99.573368 
L 208.719508 99.573368 
L 208.881029 98.841492 
L 209.256559 98.841492 
L 209.418622 98.109959 
L 209.849616 98.109959 
L 210.010867 97.378753 
L 210.172117 97.378753 
L 210.333909 96.647873 
L 210.818744 96.647873 
L 210.979724 95.917319 
L 211.14341 95.917319 
L 211.301955 95.187092 
L 211.786519 95.187092 
L 211.946958 94.457175 
L 212.324923 94.457175 
L 212.486444 93.727569 
L 212.754564 93.727569 
L 212.916085 92.998282 
L 213.077877 92.998282 
L 213.239128 92.269297 
L 213.723692 92.269297 
L 213.884672 91.540615 
L 214.046464 91.540615 
L 214.207715 90.812227 
L 214.637897 90.812227 
L 214.799148 90.084142 
L 215.176572 90.084142 
L 215.337281 89.356343 
L 215.714435 89.356343 
L 215.877038 88.62884 
L 216.144076 88.62884 
L 216.30668 87.901614 
L 216.844272 87.901614 
L 217.005252 87.174668 
L 217.167044 87.174668 
L 217.328295 86.448008 
L 217.812588 86.448008 
L 217.973839 85.721611 
L 218.135902 85.721611 
L 218.296882 84.995493 
L 218.780634 84.995493 
L 218.941344 84.269637 
L 218.995455 84.269637 
L 219.156164 83.544053 
L 219.748679 83.544053 
L 219.90993 82.818723 
L 220.071181 82.818723 
L 220.232432 82.093648 
L 220.609856 82.093648 
L 220.770836 81.368827 
L 221.047073 81.368827 
L 221.202371 80.644254 
L 221.685582 80.644254 
L 221.847915 79.919927 
L 221.901756 79.919927 
L 222.063006 79.195839 
L 222.5473 79.195839 
L 222.708821 78.471991 
L 222.870072 78.471991 
L 223.031322 77.748381 
L 223.516157 77.748381 
L 223.677137 77.025002 
L 223.999368 77.025002 
L 224.16116 76.301853 
L 224.430903 76.301853 
L 224.592424 75.57892 
L 224.968496 75.57892 
L 225.130287 74.856218 
L 225.398678 74.856218 
L 225.559929 74.133731 
L 225.936812 74.133731 
L 226.098333 73.411459 
L 226.475216 73.411459 
L 226.636737 72.689393 
L 226.798259 72.689393 
L 226.962756 71.967535 
L 227.551213 71.967535 
L 227.712464 71.245876 
L 227.981666 71.245876 
L 228.143187 70.524424 
L 228.411848 70.524424 
L 228.572558 69.803171 
L 228.841489 69.803171 
L 229.00274 69.082109 
L 229.379352 69.082109 
L 229.540874 68.361231 
L 229.594985 68.361231 
L 229.755965 67.640543 
L 230.294099 67.640543 
L 230.455891 66.920039 
L 230.725363 66.920039 
L 230.886614 66.199709 
L 231.371178 66.199709 
L 231.532429 65.479563 
L 231.801901 65.479563 
L 231.963423 64.759584 
L 232.232084 64.759584 
L 232.394146 64.039773 
L 232.554585 64.039773 
L 232.716647 63.320128 
L 233.469331 63.320128 
L 233.469331 62.600651 
L 233.575659 62.600651 
L 233.899514 62.600651 
L 234.061305 61.881325 
L 234.332943 61.881325 
L 234.491758 61.162158 
L 234.76069 61.162158 
L 234.92167 60.443135 
L 235.298012 60.443135 
L 235.406234 59.724271 
L 235.836957 59.761704 
L 235.998749 59.042553 
L 236.160541 59.042553 
L 236.321251 58.323538 
L 236.805273 58.323538 
L 236.966524 57.604666 
L 237.345301 57.604666 
L 237.504658 59.042553 
L 237.989492 59.042553 
L 238.14939 60.481006 
L 238.848504 60.481006 
L 239.010026 61.920048 
L 239.818173 61.920048 
L 239.982671 63.359712 
L 240.78676 63.359712 
L 240.947469 64.800028 
L 241.754805 64.800028 
L 241.917409 66.241021 
L 242.615982 66.241021 
L 242.776962 67.682714 
L 243.638138 67.682714 
L 243.799118 69.125141 
L 244.66273 69.125141 
L 244.821545 70.568331 
L 245.62807 70.568331 
L 245.790403 72.012303 
L 246.597468 72.012303 
L 246.758989 73.457094 
L 247.463514 73.457094 
L 247.619895 74.902729 
L 248.426419 74.902729 
L 248.5341 76.349225 
L 248.587129 76.301853 
L 249.394194 76.301853 
L 249.555986 77.748381 
L 250.363863 77.748381 
L 250.525384 79.195839 
L 251.331908 79.195839 
L 251.4937 80.644254 
L 252.300495 80.644254 
L 252.462016 82.093648 
L 253.323193 82.093648 
L 253.484714 83.544053 
L 254.183828 83.544053 
L 254.344538 84.995493 
L 255.260095 84.995493 
L 255.421887 86.448008 
L 256.120731 86.448008 
L 256.283334 87.901614 
L 257.146404 87.901614 
L 257.304408 89.356343 
L 258.326565 89.356343 
L 258.487816 90.812227 
L 259.187471 90.812227 
L 259.349533 92.269297 
L 260.156328 92.269297 
L 260.317579 93.727569 
L 261.124914 93.727569 
L 261.286165 95.187092 
L 262.25394 95.187092 
L 262.416003 96.647873 
L 263.116199 96.647873 
L 263.277449 98.109959 
L 264.191925 98.109959 
L 264.352905 99.573368 
L 265.160782 99.573368 
L 265.321492 101.03813 
L 266.236238 101.03813 
L 266.397489 102.504278 
L 267.203472 102.504278 
L 267.365534 103.971843 
L 268.171788 103.971843 
L 268.33358 105.440857 
L 269.249138 105.440857 
L 269.411471 106.911337 
L 270.111126 106.911337 
L 270.272106 108.383321 
L 271.132741 108.383321 
L 271.293451 109.856842 
L 272.261767 109.856842 
L 272.423559 111.331924 
L 273.230895 111.263428 
L 273.392416 112.739195 
L 274.19894 112.739195 
L 274.361002 114.216578 
L 275.167527 114.216578 
L 275.328777 115.695618 
L 276.136384 115.695618 
L 276.297635 117.176329 
L 277.103347 117.176329 
L 277.265139 118.658753 
L 278.179615 118.658753 
L 278.341136 120.142929 
L 279.042144 120.142929 
L 279.202853 121.628872 
L 280.01046 121.628872 
L 280.17144 123.116615 
L 280.977423 123.116615 
L 281.138944 124.606198 
L 282.215212 124.529706 
L 282.377274 126.020228 
L 283.075847 126.020228 
L 283.23791 127.512638 
L 284.206767 127.512638 
L 284.368559 129.006974 
L 285.283034 129.006974 
L 285.445367 130.503269 
L 286.250268 130.503269 
L 286.411519 132.001547 
L 287.111715 132.001547 
L 287.272425 133.501855 
L 288.187982 133.501855 
L 288.350045 135.004202 
L 289.15711 135.004202 
L 289.31809 136.508643 
L 290.232837 136.508643 
L 290.393817 138.015195 
L 291.362403 137.930549 
L 291.524195 139.438303 
L 292.331531 139.438303 
L 292.491429 140.948223 
L 293.298494 140.948223 
L 293.461098 142.460356 
L 294.375844 142.460356 
L 294.536824 143.974735 
L 295.344431 143.974735 
L 295.50514 145.491383 
L 296.311665 145.491383 
L 296.473186 147.010332 
L 297.549724 147.010332 
L 297.712057 148.531631 
L 298.51804 148.531631 
L 298.680643 150.055302 
L 299.487168 149.963323 
L 299.648689 151.488428 
L 300.455484 151.488428 
L 300.670846 153.015962 
L 301.477911 153.015962 
L 301.63862 154.545979 
L 302.552555 154.545979 
L 302.715429 156.07849 
L 303.630175 156.07849 
L 303.791426 157.61354 
L 304.598491 157.61354 
L 304.760013 159.151155 
L 305.781357 159.053673 
L 305.942608 160.592912 
L 306.534582 160.592912 
L 306.696104 162.134787 
L 307.612203 162.134787 
L 307.772101 163.679337 
L 308.578625 163.679337 
L 308.740146 165.226586 
L 309.656245 165.226586 
L 309.817496 166.776575 
L 310.678402 166.776575 
L 310.839923 168.329335 
L 311.915108 168.226271 
L 312.0769 169.780847 
L 312.992728 169.780847 
L 313.152897 171.338249 
L 313.960774 171.338249 
L 314.121754 172.898534 
L 315.035418 172.898534 
L 315.196939 174.461733 
L 316.111686 174.461733 
L 316.272936 176.027878 
L 317.081354 176.027878 
L 317.242876 177.488285 
L 318.157622 177.488285 
L 318.318602 179.059399 
L 319.233348 179.059399 
L 319.394599 180.633579 
L 320.255505 180.633579 
L 320.416756 182.210833 
L 321.332584 182.210833 
L 321.492211 183.791216 
L 322.299547 183.791216 
L 322.46161 185.261329 
L 323.268675 185.261329 
L 323.429926 186.847031 
L 324.50484 186.847031 
L 324.666632 188.435958 
L 325.473157 188.435958 
L 325.63576 190.02815 
L 326.550777 190.02815 
L 326.712839 191.623655 
L 327.626774 191.623655 
L 327.788295 193.22248 
L 328.487679 193.22248 
L 328.64893 193.104295 
L 328.703582 193.104295 
L 328.864833 194.705461 
L 329.724386 194.705461 
L 329.88726 196.310028 
L 330.802006 196.310028 
L 330.962445 197.918058 
L 331.984872 197.918058 
L 332.146394 199.52956 
L 333.06114 199.52956 
L 333.222391 201.144589 
L 333.920693 201.144589 
L 334.081944 201.021587 
L 334.136055 201.021587 
L 334.297035 202.639109 
L 335.110864 202.639109 
L 335.266433 204.260222 
L 336.073769 204.260222 
L 336.181991 205.88499 
L 337.365398 205.88499 
L 337.526649 207.513405 
L 337.903261 207.513405 
L 338.064783 207.386604 
L 338.387555 207.386604 
L 338.548805 209.017679 
L 339.516851 209.017679 
L 339.678643 210.652472 
L 340.700799 210.652472 
L 340.80848 212.291056 
L 341.777067 212.291056 
L 341.938588 213.933462 
L 341.99297 213.933462 
L 342.15395 213.802839 
L 342.853334 213.802839 
L 343.014585 215.448016 
L 343.927978 215.448016 
L 344.08977 217.097094 
L 345.004516 217.097094 
L 345.165767 218.750099 
L 346.082678 218.750099 
L 346.242576 220.407085 
L 346.62 220.407085 
L 346.781521 220.272624 
L 347.157593 220.272624 
L 347.319114 221.932532 
L 348.233589 221.932532 
L 348.34127 223.596461 
L 348.448681 222.763991 
L 348.825564 222.763991 
L 348.931892 224.429967 
L 349.095848 223.596461 
L 349.471108 223.596461 
L 349.6329 225.2645 
L 350.547375 225.2645 
L 350.708896 226.936655 
L 350.870147 226.936655 
L 351.03248 226.798332 
L 351.677213 226.798332 
L 351.838463 228.473537 
L 352.86089 228.473537 
L 353.022412 230.15297 
L 353.937699 230.15297 
L 354.097867 231.836615 
L 354.796711 231.836615 
L 354.958232 231.695505 
L 355.12273 231.695505 
L 355.282627 233.382336 
L 356.088881 233.382336 
L 356.249861 235.073491 
L 357.272829 235.073491 
L 357.433539 236.768985 
L 358.294986 236.768985 
L 358.402937 238.468883 
L 358.564188 237.618384 
L 358.941342 237.618384 
L 359.10151 239.320496 
L 360.12502 239.320496 
L 360.285729 240.880359 
L 361.200475 240.880359 
L 361.361997 242.590298 
L 362.383883 242.590298 
L 362.545674 244.304767 
L 363.459068 244.304767 
L 363.620319 246.023816 
L 364.428196 246.023816 
L 364.589176 245.874289 
L 364.805079 245.874289 
L 364.967412 247.596817 
L 365.881887 247.596817 
L 366.042867 249.323996 
L 366.957884 249.323996 
L 367.119135 251.055857 
L 367.871007 251.055857 
L 367.978417 250.903519 
L 368.141291 252.638979 
L 369.162907 252.638979 
L 369.270317 254.379209 
L 370.347396 254.379209 
L 370.508647 256.12424 
L 371.530803 256.12424 
L 371.692325 257.874105 
L 372.714211 257.874105 
L 372.876273 259.471441 
L 373.789666 259.471441 
L 373.951188 261.229977 
L 375.082107 261.229977 
L 375.24417 262.993482 
L 376.373195 262.993482 
L 376.535258 264.761996 
L 376.696238 264.761996 
L 376.857489 264.601719 
L 377.503303 264.601719 
L 377.665095 266.374127 
L 378.740822 266.374127 
L 378.903155 268.151607 
L 380.03218 268.151607 
L 380.19316 269.934199 
L 380.678265 269.934199 
L 380.839246 269.771088 
L 381.215317 269.771088 
L 381.37765 271.557701 
L 382.613274 271.557701 
L 382.775337 273.349507 
L 383.581861 273.349507 
L 383.743923 275.146543 
L 384.874572 275.146543 
L 385.036635 276.781759 
L 386.057709 276.781759 
L 386.21923 278.588232 
L 387.295498 278.588232 
L 387.456748 280.400048 
L 388.048723 280.400048 
L 388.210244 280.231267 
L 388.585774 280.231267 
L 388.748648 282.047319 
L 389.877403 282.047319 
L 390.039466 283.868802 
L 391.061893 283.868802 
L 391.223414 285.695739 
L 391.867605 285.695739 
L 392.029127 285.524139 
L 392.40628 285.524139 
L 392.56726 287.355424 
L 393.805861 287.355424 
L 393.967653 289.19226 
L 394.989268 289.19226 
L 395.151601 291.034653 
L 395.958125 291.034653 
L 396.119376 290.860234 
L 396.172946 290.860234 
L 396.334467 292.707095 
L 397.517874 292.707095 
L 397.680207 294.559625 
L 398.487273 294.559625 
L 398.487273 294.559625 
" clip-path="url(#p210d995250)" style="fill: none; stroke: #ff7f0e; stroke-width: 1.5; stroke-linecap: square"/>
   </g>
   <g id="line2d_16">
    <path d="M 73.832727 292.439399 
L 236.160541 53.568 
L 236.21384 53.646434 
L 398.487273 292.444973 
L 398.487273 292.444973 
" clip-path="url(#p210d995250)" style="fill: none; stroke: #2ca02c; stroke-width: 1.5; stroke-linecap: square"/>
   </g>
   <g id="patch_3">
    <path d="M 57.6 307.584 
L 57.6 41.472 
" style="fill: none; stroke: #000000; stroke-width: 0.8; stroke-linejoin: miter; stroke-linecap: square"/>
   </g>
   <g id="patch_4">
    <path d="M 414.72 307.584 
L 414.72 41.472 
" style="fill: none; stroke: #000000; stroke-width: 0.8; stroke-linejoin: miter; stroke-linecap: square"/>
   </g>
   <g id="patch_5">
    <path d="M 57.6 307.584 
L 414.72 307.584 
" style="fill: none; stroke: #000000; stroke-width: 0.8; stroke-linejoin: miter; stroke-linecap: square"/>
   </g>
   <g id="patch_6">
    <path d="M 57.6 41.472 
L 414.72 41.472 
" style="fill: none; stroke: #000000; stroke-width: 0.8; stroke-linejoin: miter; stroke-linecap: square"/>
   </g>
   <g id="text_16">
    <!-- 50mm/s -->
    <g transform="translate(211.689375 35.472) scale(0.12 -0.12)">
     <defs>
      <path id="DejaVuSans-2f" d="M 1625 4666 
L 2156 4666 
L 531 -594 
L 0 -594 
L 1625 4666 
z
" transform="scale(0.015625)"/>
     </defs>
     <use xlink:href="#DejaVuSans-35"/>
     <use xlink:href="#DejaVuSans-30" x="63.623047"/>
     <use xlink:href="#DejaVuSans-6d" x="127.246094"/>
     <use xlink:href="#DejaVuSans-6d" x="224.658203"/>
     <use xlink:href="#DejaVuSans-2f" x="322.070312"/>
     <use xlink:href="#DejaVuSans-73" x="355.761719"/>
    </g>
   </g>
   <g id="legend_1">
    <g id="patch_7">
     <path d="M 325.8075 93.506375 
L 407.72 93.506375 
Q 409.72 93.506375 409.72 91.506375 
L 409.72 48.472 
Q 409.72 46.472 407.72 46.472 
L 325.8075 46.472 
Q 323.8075 46.472 323.8075 48.472 
L 323.8075 91.506375 
Q 323.8075 93.506375 325.8075 93.506375 
z
" style="fill: #ffffff; opacity: 0.8; stroke: #cccccc; stroke-linejoin: miter"/>
    </g>
    <g id="line2d_17">
     <path d="M 327.8075 54.570438 
L 337.8075 54.570438 
L 347.8075 54.570438 
" style="fill: none; stroke: #1f77b4; stroke-width: 1.5; stroke-linecap: square"/>
    </g>
    <g id="text_17">
     <!-- cam0 -->
     <g transform="translate(355.8075 58.070438) scale(0.1 -0.1)">
      <defs>
       <path id="DejaVuSans-63" d="M 3122 3366 
L 3122 2828 
Q 2878 2963 2633 3030 
Q 2388 3097 2138 3097 
Q 1578 3097 1268 2742 
Q 959 2388 959 1747 
Q 959 1106 1268 751 
Q 1578 397 2138 397 
Q 2388 397 2633 464 
Q 2878 531 3122 666 
L 3122 134 
Q 2881 22 2623 -34 
Q 2366 -91 2075 -91 
Q 1284 -91 818 406 
Q 353 903 353 1747 
Q 353 2603 823 3093 
Q 1294 3584 2113 3584 
Q 2378 3584 2631 3529 
Q 2884 3475 3122 3366 
z
" transform="scale(0.015625)"/>
       <path id="DejaVuSans-61" d="M 2194 1759 
Q 1497 1759 1228 1600 
Q 959 1441 959 1056 
Q 959 750 1161 570 
Q 1363 391 1709 391 
Q 2188 391 2477 730 
Q 2766 1069 2766 1631 
L 2766 1759 
L 2194 1759 
z
M 3341 1997 
L 3341 0 
L 2766 0 
L 2766 531 
Q 2569 213 2275 61 
Q 1981 -91 1556 -91 
Q 1019 -91 701 211 
Q 384 513 384 1019 
Q 384 1609 779 1909 
Q 1175 2209 1959 2209 
L 2766 2209 
L 2766 2266 
Q 2766 2663 2505 2880 
Q 2244 3097 1772 3097 
Q 1472 3097 1187 3025 
Q 903 2953 641 2809 
L 641 3341 
Q 956 3463 1253 3523 
Q 1550 3584 1831 3584 
Q 2591 3584 2966 3190 
Q 3341 2797 3341 1997 
z
" transform="scale(0.015625)"/>
      </defs>
      <use xlink:href="#DejaVuSans-63"/>
      <use xlink:href="#DejaVuSans-61" x="54.980469"/>
      <use xlink:href="#DejaVuSans-6d" x="116.259766"/>
      <use xlink:href="#DejaVuSans-30" x="213.671875"/>
     </g>
    </g>
    <g id="line2d_18">
     <path d="M 327.8075 69.248563 
L 337.8075 69.248563 
L 347.8075 69.248563 
" style="fill: none; stroke: #ff7f0e; stroke-width: 1.5; stroke-linecap: square"/>
    </g>
    <g id="text_18">
     <!-- cam5 -->
     <g transform="translate(355.8075 72.748563) scale(0.1 -0.1)">
      <use xlink:href="#DejaVuSans-63"/>
      <use xlink:href="#DejaVuSans-61" x="54.980469"/>
      <use xlink:href="#DejaVuSans-6d" x="116.259766"/>
      <use xlink:href="#DejaVuSans-35" x="213.671875"/>
     </g>
    </g>
    <g id="line2d_19">
     <path d="M 327.8075 83.926688 
L 337.8075 83.926688 
L 347.8075 83.926688 
" style="fill: none; stroke: #2ca02c; stroke-width: 1.5; stroke-linecap: square"/>
    </g>
    <g id="text_19">
     <!-- command -->
     <g transform="translate(355.8075 87.426688) scale(0.1 -0.1)">
      <defs>
       <path id="DejaVuSans-64" d="M 2906 2969 
L 2906 4863 
L 3481 4863 
L 3481 0 
L 2906 0 
L 2906 525 
Q 2725 213 2448 61 
Q 2172 -91 1784 -91 
Q 1150 -91 751 415 
Q 353 922 353 1747 
Q 353 2572 751 3078 
Q 1150 3584 1784 3584 
Q 2172 3584 2448 3432 
Q 2725 3281 2906 2969 
z
M 947 1747 
Q 947 1113 1208 752 
Q 1469 391 1925 391 
Q 2381 391 2643 752 
Q 2906 1113 2906 1747 
Q 2906 2381 2643 2742 
Q 2381 3103 1925 3103 
Q 1469 3103 1208 2742 
Q 947 2381 947 1747 
z
" transform="scale(0.015625)"/>
      </defs>
      <use xlink:href="#DejaVuSans-63"/>
      <use xlink:href="#DejaVuSans-6f" x="54.980469"/>
      <use xlink:href="#DejaVuSans-6d" x="116.162109"/>
      <use xlink:href="#DejaVuSans-6d" x="213.574219"/>
      <use xlink:href="#DejaVuSans-61" x="310.986328"/>
      <use xlink:href="#DejaVuSans-6e" x="372.265625"/>
      <use xlink:href="#DejaVuSans-64" x="435.644531"/>
     </g>
    </g>
   </g>
  </g>
 </g>
 <defs>
  <clipPath id="p210d995250">
   <rect x="57.6" y="41.472" width="357.12" height="266.112"/>
  </clipPath>
 </defs>
</svg>
