<?xml version="1.0" encoding="utf-8" standalone="no"?>
<!DOCTYPE svg PUBLIC "-//W3C//DTD SVG 1.1//EN"
  "http://www.w3.org/Graphics/SVG/1.1/DTD/svg11.dtd">
<svg xmlns:xlink="http://www.w3.org/1999/xlink" width="460.8pt" height="345.6pt" viewBox="0 0 460.8 345.6" xmlns="http://www.w3.org/2000/svg" version="1.1">
 <metadata>
  <rdf:RDF xmlns:dc="http://purl.org/dc/elements/1.1/" xmlns:cc="http://creativecommons.org/ns#" xmlns:rdf="http://www.w3.org/1999/02/22-rdf-syntax-ns#">
   <cc:Work>
    <dc:type rdf:resource="http://purl.org/dc/dcmitype/StillImage"/>
    <dc:date>2023-06-01T15:02:59.589051</dc:date>
    <dc:format>image/svg+xml</dc:format>
    <dc:creator>
     <cc:Agent>
      <dc:title>Matplotlib v3.7.1, https://matplotlib.org/</dc:title>
     </cc:Agent>
    </dc:creator>
   </cc:Work>
  </rdf:RDF>
 </metadata>
 <defs>
  <style type="text/css">*{stroke-linejoin: round; stroke-linecap: butt}</style>
 </defs>
 <g id="figure_1">
  <g id="patch_1">
   <path d="M 0 345.6 
L 460.8 345.6 
L 460.8 0 
L 0 0 
z
" style="fill: #ffffff"/>
  </g>
  <g id="axes_1">
   <g id="patch_2">
    <path d="M 57.6 307.584 
L 414.72 307.584 
L 414.72 41.472 
L 57.6 41.472 
z
" style="fill: #ffffff"/>
   </g>
   <g id="matplotlib.axis_1">
    <g id="xtick_1">
     <g id="line2d_1">
      <defs>
       <path id="m44a5b40a63" d="M 0 0 
L 0 3.5 
" style="stroke: #000000; stroke-width: 0.8"/>
      </defs>
      <g>
       <use xlink:href="#m44a5b40a63" x="86.848843" y="307.584" style="stroke: #000000; stroke-width: 0.8"/>
      </g>
     </g>
     <g id="text_1">
      <!-- 0.0 -->
      <g transform="translate(78.897281 322.182437) scale(0.1 -0.1)">
       <defs>
        <path id="DejaVuSans-30" d="M 2034 4250 
Q 1547 4250 1301 3770 
Q 1056 3291 1056 2328 
Q 1056 1369 1301 889 
Q 1547 409 2034 409 
Q 2525 409 2770 889 
Q 3016 1369 3016 2328 
Q 3016 3291 2770 3770 
Q 2525 4250 2034 4250 
z
M 2034 4750 
Q 2819 4750 3233 4129 
Q 3647 3509 3647 2328 
Q 3647 1150 3233 529 
Q 2819 -91 2034 -91 
Q 1250 -91 836 529 
Q 422 1150 422 2328 
Q 422 3509 836 4129 
Q 1250 4750 2034 4750 
z
" transform="scale(0.015625)"/>
        <path id="DejaVuSans-2e" d="M 684 794 
L 1344 794 
L 1344 0 
L 684 0 
L 684 794 
z
" transform="scale(0.015625)"/>
       </defs>
       <use xlink:href="#DejaVuSans-30"/>
       <use xlink:href="#DejaVuSans-2e" x="63.623047"/>
       <use xlink:href="#DejaVuSans-30" x="95.410156"/>
      </g>
     </g>
    </g>
    <g id="xtick_2">
     <g id="line2d_2">
      <g>
       <use xlink:href="#m44a5b40a63" x="162.615309" y="307.584" style="stroke: #000000; stroke-width: 0.8"/>
      </g>
     </g>
     <g id="text_2">
      <!-- 0.5 -->
      <g transform="translate(154.663746 322.182437) scale(0.1 -0.1)">
       <defs>
        <path id="DejaVuSans-35" d="M 691 4666 
L 3169 4666 
L 3169 4134 
L 1269 4134 
L 1269 2991 
Q 1406 3038 1543 3061 
Q 1681 3084 1819 3084 
Q 2600 3084 3056 2656 
Q 3513 2228 3513 1497 
Q 3513 744 3044 326 
Q 2575 -91 1722 -91 
Q 1428 -91 1123 -41 
Q 819 9 494 109 
L 494 744 
Q 775 591 1075 516 
Q 1375 441 1709 441 
Q 2250 441 2565 725 
Q 2881 1009 2881 1497 
Q 2881 1984 2565 2268 
Q 2250 2553 1709 2553 
Q 1456 2553 1204 2497 
Q 953 2441 691 2322 
L 691 4666 
z
" transform="scale(0.015625)"/>
       </defs>
       <use xlink:href="#DejaVuSans-30"/>
       <use xlink:href="#DejaVuSans-2e" x="63.623047"/>
       <use xlink:href="#DejaVuSans-35" x="95.410156"/>
      </g>
     </g>
    </g>
    <g id="xtick_3">
     <g id="line2d_3">
      <g>
       <use xlink:href="#m44a5b40a63" x="238.381775" y="307.584" style="stroke: #000000; stroke-width: 0.8"/>
      </g>
     </g>
     <g id="text_3">
      <!-- 1.0 -->
      <g transform="translate(230.430212 322.182437) scale(0.1 -0.1)">
       <defs>
        <path id="DejaVuSans-31" d="M 794 531 
L 1825 531 
L 1825 4091 
L 703 3866 
L 703 4441 
L 1819 4666 
L 2450 4666 
L 2450 531 
L 3481 531 
L 3481 0 
L 794 0 
L 794 531 
z
" transform="scale(0.015625)"/>
       </defs>
       <use xlink:href="#DejaVuSans-31"/>
       <use xlink:href="#DejaVuSans-2e" x="63.623047"/>
       <use xlink:href="#DejaVuSans-30" x="95.410156"/>
      </g>
     </g>
    </g>
    <g id="xtick_4">
     <g id="line2d_4">
      <g>
       <use xlink:href="#m44a5b40a63" x="314.14824" y="307.584" style="stroke: #000000; stroke-width: 0.8"/>
      </g>
     </g>
     <g id="text_4">
      <!-- 1.5 -->
      <g transform="translate(306.196678 322.182437) scale(0.1 -0.1)">
       <use xlink:href="#DejaVuSans-31"/>
       <use xlink:href="#DejaVuSans-2e" x="63.623047"/>
       <use xlink:href="#DejaVuSans-35" x="95.410156"/>
      </g>
     </g>
    </g>
    <g id="xtick_5">
     <g id="line2d_5">
      <g>
       <use xlink:href="#m44a5b40a63" x="389.914706" y="307.584" style="stroke: #000000; stroke-width: 0.8"/>
      </g>
     </g>
     <g id="text_5">
      <!-- 2.0 -->
      <g transform="translate(381.963144 322.182437) scale(0.1 -0.1)">
       <defs>
        <path id="DejaVuSans-32" d="M 1228 531 
L 3431 531 
L 3431 0 
L 469 0 
L 469 531 
Q 828 903 1448 1529 
Q 2069 2156 2228 2338 
Q 2531 2678 2651 2914 
Q 2772 3150 2772 3378 
Q 2772 3750 2511 3984 
Q 2250 4219 1831 4219 
Q 1534 4219 1204 4116 
Q 875 4013 500 3803 
L 500 4441 
Q 881 4594 1212 4672 
Q 1544 4750 1819 4750 
Q 2544 4750 2975 4387 
Q 3406 4025 3406 3419 
Q 3406 3131 3298 2873 
Q 3191 2616 2906 2266 
Q 2828 2175 2409 1742 
Q 1991 1309 1228 531 
z
" transform="scale(0.015625)"/>
       </defs>
       <use xlink:href="#DejaVuSans-32"/>
       <use xlink:href="#DejaVuSans-2e" x="63.623047"/>
       <use xlink:href="#DejaVuSans-30" x="95.410156"/>
      </g>
     </g>
    </g>
    <g id="text_6">
     <!-- time [s] -->
     <g transform="translate(216.768594 335.860562) scale(0.1 -0.1)">
      <defs>
       <path id="DejaVuSans-74" d="M 1172 4494 
L 1172 3500 
L 2356 3500 
L 2356 3053 
L 1172 3053 
L 1172 1153 
Q 1172 725 1289 603 
Q 1406 481 1766 481 
L 2356 481 
L 2356 0 
L 1766 0 
Q 1100 0 847 248 
Q 594 497 594 1153 
L 594 3053 
L 172 3053 
L 172 3500 
L 594 3500 
L 594 4494 
L 1172 4494 
z
" transform="scale(0.015625)"/>
       <path id="DejaVuSans-69" d="M 603 3500 
L 1178 3500 
L 1178 0 
L 603 0 
L 603 3500 
z
M 603 4863 
L 1178 4863 
L 1178 4134 
L 603 4134 
L 603 4863 
z
" transform="scale(0.015625)"/>
       <path id="DejaVuSans-6d" d="M 3328 2828 
Q 3544 3216 3844 3400 
Q 4144 3584 4550 3584 
Q 5097 3584 5394 3201 
Q 5691 2819 5691 2113 
L 5691 0 
L 5113 0 
L 5113 2094 
Q 5113 2597 4934 2840 
Q 4756 3084 4391 3084 
Q 3944 3084 3684 2787 
Q 3425 2491 3425 1978 
L 3425 0 
L 2847 0 
L 2847 2094 
Q 2847 2600 2669 2842 
Q 2491 3084 2119 3084 
Q 1678 3084 1418 2786 
Q 1159 2488 1159 1978 
L 1159 0 
L 581 0 
L 581 3500 
L 1159 3500 
L 1159 2956 
Q 1356 3278 1631 3431 
Q 1906 3584 2284 3584 
Q 2666 3584 2933 3390 
Q 3200 3197 3328 2828 
z
" transform="scale(0.015625)"/>
       <path id="DejaVuSans-65" d="M 3597 1894 
L 3597 1613 
L 953 1613 
Q 991 1019 1311 708 
Q 1631 397 2203 397 
Q 2534 397 2845 478 
Q 3156 559 3463 722 
L 3463 178 
Q 3153 47 2828 -22 
Q 2503 -91 2169 -91 
Q 1331 -91 842 396 
Q 353 884 353 1716 
Q 353 2575 817 3079 
Q 1281 3584 2069 3584 
Q 2775 3584 3186 3129 
Q 3597 2675 3597 1894 
z
M 3022 2063 
Q 3016 2534 2758 2815 
Q 2500 3097 2075 3097 
Q 1594 3097 1305 2825 
Q 1016 2553 972 2059 
L 3022 2063 
z
" transform="scale(0.015625)"/>
       <path id="DejaVuSans-20" transform="scale(0.015625)"/>
       <path id="DejaVuSans-5b" d="M 550 4863 
L 1875 4863 
L 1875 4416 
L 1125 4416 
L 1125 -397 
L 1875 -397 
L 1875 -844 
L 550 -844 
L 550 4863 
z
" transform="scale(0.015625)"/>
       <path id="DejaVuSans-73" d="M 2834 3397 
L 2834 2853 
Q 2591 2978 2328 3040 
Q 2066 3103 1784 3103 
Q 1356 3103 1142 2972 
Q 928 2841 928 2578 
Q 928 2378 1081 2264 
Q 1234 2150 1697 2047 
L 1894 2003 
Q 2506 1872 2764 1633 
Q 3022 1394 3022 966 
Q 3022 478 2636 193 
Q 2250 -91 1575 -91 
Q 1294 -91 989 -36 
Q 684 19 347 128 
L 347 722 
Q 666 556 975 473 
Q 1284 391 1588 391 
Q 1994 391 2212 530 
Q 2431 669 2431 922 
Q 2431 1156 2273 1281 
Q 2116 1406 1581 1522 
L 1381 1569 
Q 847 1681 609 1914 
Q 372 2147 372 2553 
Q 372 3047 722 3315 
Q 1072 3584 1716 3584 
Q 2034 3584 2315 3537 
Q 2597 3491 2834 3397 
z
" transform="scale(0.015625)"/>
       <path id="DejaVuSans-5d" d="M 1947 4863 
L 1947 -844 
L 622 -844 
L 622 -397 
L 1369 -397 
L 1369 4416 
L 622 4416 
L 622 4863 
L 1947 4863 
z
" transform="scale(0.015625)"/>
      </defs>
      <use xlink:href="#DejaVuSans-74"/>
      <use xlink:href="#DejaVuSans-69" x="39.208984"/>
      <use xlink:href="#DejaVuSans-6d" x="66.992188"/>
      <use xlink:href="#DejaVuSans-65" x="164.404297"/>
      <use xlink:href="#DejaVuSans-20" x="225.927734"/>
      <use xlink:href="#DejaVuSans-5b" x="257.714844"/>
      <use xlink:href="#DejaVuSans-73" x="296.728516"/>
      <use xlink:href="#DejaVuSans-5d" x="348.828125"/>
     </g>
    </g>
   </g>
   <g id="matplotlib.axis_2">
    <g id="ytick_1">
     <g id="line2d_6">
      <defs>
       <path id="m7f19a68ce2" d="M 0 0 
L -3.5 0 
" style="stroke: #000000; stroke-width: 0.8"/>
      </defs>
      <g>
       <use xlink:href="#m7f19a68ce2" x="57.6" y="269.8063" style="stroke: #000000; stroke-width: 0.8"/>
      </g>
     </g>
     <g id="text_7">
      <!-- −260 -->
      <g transform="translate(23.132812 273.605519) scale(0.1 -0.1)">
       <defs>
        <path id="DejaVuSans-2212" d="M 678 2272 
L 4684 2272 
L 4684 1741 
L 678 1741 
L 678 2272 
z
" transform="scale(0.015625)"/>
        <path id="DejaVuSans-36" d="M 2113 2584 
Q 1688 2584 1439 2293 
Q 1191 2003 1191 1497 
Q 1191 994 1439 701 
Q 1688 409 2113 409 
Q 2538 409 2786 701 
Q 3034 994 3034 1497 
Q 3034 2003 2786 2293 
Q 2538 2584 2113 2584 
z
M 3366 4563 
L 3366 3988 
Q 3128 4100 2886 4159 
Q 2644 4219 2406 4219 
Q 1781 4219 1451 3797 
Q 1122 3375 1075 2522 
Q 1259 2794 1537 2939 
Q 1816 3084 2150 3084 
Q 2853 3084 3261 2657 
Q 3669 2231 3669 1497 
Q 3669 778 3244 343 
Q 2819 -91 2113 -91 
Q 1303 -91 875 529 
Q 447 1150 447 2328 
Q 447 3434 972 4092 
Q 1497 4750 2381 4750 
Q 2619 4750 2861 4703 
Q 3103 4656 3366 4563 
z
" transform="scale(0.015625)"/>
       </defs>
       <use xlink:href="#DejaVuSans-2212"/>
       <use xlink:href="#DejaVuSans-32" x="83.789062"/>
       <use xlink:href="#DejaVuSans-36" x="147.412109"/>
       <use xlink:href="#DejaVuSans-30" x="211.035156"/>
      </g>
     </g>
    </g>
    <g id="ytick_2">
     <g id="line2d_7">
      <g>
       <use xlink:href="#m7f19a68ce2" x="57.6" y="219.642064" style="stroke: #000000; stroke-width: 0.8"/>
      </g>
     </g>
     <g id="text_8">
      <!-- −240 -->
      <g transform="translate(23.132812 223.441282) scale(0.1 -0.1)">
       <defs>
        <path id="DejaVuSans-34" d="M 2419 4116 
L 825 1625 
L 2419 1625 
L 2419 4116 
z
M 2253 4666 
L 3047 4666 
L 3047 1625 
L 3713 1625 
L 3713 1100 
L 3047 1100 
L 3047 0 
L 2419 0 
L 2419 1100 
L 313 1100 
L 313 1709 
L 2253 4666 
z
" transform="scale(0.015625)"/>
       </defs>
       <use xlink:href="#DejaVuSans-2212"/>
       <use xlink:href="#DejaVuSans-32" x="83.789062"/>
       <use xlink:href="#DejaVuSans-34" x="147.412109"/>
       <use xlink:href="#DejaVuSans-30" x="211.035156"/>
      </g>
     </g>
    </g>
    <g id="ytick_3">
     <g id="line2d_8">
      <g>
       <use xlink:href="#m7f19a68ce2" x="57.6" y="169.477827" style="stroke: #000000; stroke-width: 0.8"/>
      </g>
     </g>
     <g id="text_9">
      <!-- −220 -->
      <g transform="translate(23.132812 173.277046) scale(0.1 -0.1)">
       <use xlink:href="#DejaVuSans-2212"/>
       <use xlink:href="#DejaVuSans-32" x="83.789062"/>
       <use xlink:href="#DejaVuSans-32" x="147.412109"/>
       <use xlink:href="#DejaVuSans-30" x="211.035156"/>
      </g>
     </g>
    </g>
    <g id="ytick_4">
     <g id="line2d_9">
      <g>
       <use xlink:href="#m7f19a68ce2" x="57.6" y="119.313591" style="stroke: #000000; stroke-width: 0.8"/>
      </g>
     </g>
     <g id="text_10">
      <!-- −200 -->
      <g transform="translate(23.132812 123.112809) scale(0.1 -0.1)">
       <use xlink:href="#DejaVuSans-2212"/>
       <use xlink:href="#DejaVuSans-32" x="83.789062"/>
       <use xlink:href="#DejaVuSans-30" x="147.412109"/>
       <use xlink:href="#DejaVuSans-30" x="211.035156"/>
      </g>
     </g>
    </g>
    <g id="ytick_5">
     <g id="line2d_10">
      <g>
       <use xlink:href="#m7f19a68ce2" x="57.6" y="69.149354" style="stroke: #000000; stroke-width: 0.8"/>
      </g>
     </g>
     <g id="text_11">
      <!-- −180 -->
      <g transform="translate(23.132812 72.948573) scale(0.1 -0.1)">
       <defs>
        <path id="DejaVuSans-38" d="M 2034 2216 
Q 1584 2216 1326 1975 
Q 1069 1734 1069 1313 
Q 1069 891 1326 650 
Q 1584 409 2034 409 
Q 2484 409 2743 651 
Q 3003 894 3003 1313 
Q 3003 1734 2745 1975 
Q 2488 2216 2034 2216 
z
M 1403 2484 
Q 997 2584 770 2862 
Q 544 3141 544 3541 
Q 544 4100 942 4425 
Q 1341 4750 2034 4750 
Q 2731 4750 3128 4425 
Q 3525 4100 3525 3541 
Q 3525 3141 3298 2862 
Q 3072 2584 2669 2484 
Q 3125 2378 3379 2068 
Q 3634 1759 3634 1313 
Q 3634 634 3220 271 
Q 2806 -91 2034 -91 
Q 1263 -91 848 271 
Q 434 634 434 1313 
Q 434 1759 690 2068 
Q 947 2378 1403 2484 
z
M 1172 3481 
Q 1172 3119 1398 2916 
Q 1625 2713 2034 2713 
Q 2441 2713 2670 2916 
Q 2900 3119 2900 3481 
Q 2900 3844 2670 4047 
Q 2441 4250 2034 4250 
Q 1625 4250 1398 4047 
Q 1172 3844 1172 3481 
z
" transform="scale(0.015625)"/>
       </defs>
       <use xlink:href="#DejaVuSans-2212"/>
       <use xlink:href="#DejaVuSans-31" x="83.789062"/>
       <use xlink:href="#DejaVuSans-38" x="147.412109"/>
       <use xlink:href="#DejaVuSans-30" x="211.035156"/>
      </g>
     </g>
    </g>
    <g id="text_12">
     <!-- position [mm] -->
     <g transform="translate(17.053125 209.563938) rotate(-90) scale(0.1 -0.1)">
      <defs>
       <path id="DejaVuSans-70" d="M 1159 525 
L 1159 -1331 
L 581 -1331 
L 581 3500 
L 1159 3500 
L 1159 2969 
Q 1341 3281 1617 3432 
Q 1894 3584 2278 3584 
Q 2916 3584 3314 3078 
Q 3713 2572 3713 1747 
Q 3713 922 3314 415 
Q 2916 -91 2278 -91 
Q 1894 -91 1617 61 
Q 1341 213 1159 525 
z
M 3116 1747 
Q 3116 2381 2855 2742 
Q 2594 3103 2138 3103 
Q 1681 3103 1420 2742 
Q 1159 2381 1159 1747 
Q 1159 1113 1420 752 
Q 1681 391 2138 391 
Q 2594 391 2855 752 
Q 3116 1113 3116 1747 
z
" transform="scale(0.015625)"/>
       <path id="DejaVuSans-6f" d="M 1959 3097 
Q 1497 3097 1228 2736 
Q 959 2375 959 1747 
Q 959 1119 1226 758 
Q 1494 397 1959 397 
Q 2419 397 2687 759 
Q 2956 1122 2956 1747 
Q 2956 2369 2687 2733 
Q 2419 3097 1959 3097 
z
M 1959 3584 
Q 2709 3584 3137 3096 
Q 3566 2609 3566 1747 
Q 3566 888 3137 398 
Q 2709 -91 1959 -91 
Q 1206 -91 779 398 
Q 353 888 353 1747 
Q 353 2609 779 3096 
Q 1206 3584 1959 3584 
z
" transform="scale(0.015625)"/>
       <path id="DejaVuSans-6e" d="M 3513 2113 
L 3513 0 
L 2938 0 
L 2938 2094 
Q 2938 2591 2744 2837 
Q 2550 3084 2163 3084 
Q 1697 3084 1428 2787 
Q 1159 2491 1159 1978 
L 1159 0 
L 581 0 
L 581 3500 
L 1159 3500 
L 1159 2956 
Q 1366 3272 1645 3428 
Q 1925 3584 2291 3584 
Q 2894 3584 3203 3211 
Q 3513 2838 3513 2113 
z
" transform="scale(0.015625)"/>
      </defs>
      <use xlink:href="#DejaVuSans-70"/>
      <use xlink:href="#DejaVuSans-6f" x="63.476562"/>
      <use xlink:href="#DejaVuSans-73" x="124.658203"/>
      <use xlink:href="#DejaVuSans-69" x="176.757812"/>
      <use xlink:href="#DejaVuSans-74" x="204.541016"/>
      <use xlink:href="#DejaVuSans-69" x="243.75"/>
      <use xlink:href="#DejaVuSans-6f" x="271.533203"/>
      <use xlink:href="#DejaVuSans-6e" x="332.714844"/>
      <use xlink:href="#DejaVuSans-20" x="396.09375"/>
      <use xlink:href="#DejaVuSans-5b" x="427.880859"/>
      <use xlink:href="#DejaVuSans-6d" x="466.894531"/>
      <use xlink:href="#DejaVuSans-6d" x="564.306641"/>
      <use xlink:href="#DejaVuSans-5d" x="661.71875"/>
     </g>
    </g>
   </g>
   <g id="line2d_11">
    <path d="M 86.848843 300.192183 
L 88.959697 300.192183 
L 89.259732 299.33287 
L 89.564313 300.192183 
L 95.889298 300.192183 
L 96.190848 299.33287 
L 96.493914 300.192183 
L 98.301702 300.192183 
L 98.601737 290.525183 
L 110.053081 290.525183 
L 110.354631 280.906542 
L 112.462455 280.906542 
L 112.764005 281.746041 
L 113.067071 280.906542 
L 117.284232 280.906542 
L 117.585783 281.746041 
L 117.885818 280.906542 
L 118.791985 280.906542 
L 119.096566 281.746041 
L 119.396601 281.746041 
L 119.695121 280.906542 
L 119.993641 281.746041 
L 121.796883 281.746041 
L 122.099949 272.161787 
L 132.048086 272.161787 
L 132.349636 262.624036 
L 145.308733 262.624036 
L 145.613314 253.131783 
L 156.160006 253.131783 
L 156.461557 243.684077 
L 157.663213 243.684077 
L 157.961733 244.478703 
L 158.264798 243.684077 
L 163.386611 243.684077 
L 163.691193 244.478703 
L 163.998805 243.684077 
L 164.589783 243.684077 
L 164.897395 244.478703 
L 165.205007 243.684077 
L 165.802046 243.684077 
L 166.102082 235.062149 
L 166.435454 234.279988 
L 167.012795 234.279988 
L 167.309799 235.062149 
L 167.609834 234.279988 
L 167.914415 235.062149 
L 168.21142 234.279988 
L 169.117587 234.279988 
L 169.419137 235.062149 
L 171.828511 235.062149 
L 172.131577 234.279988 
L 172.434643 235.062149 
L 178.755081 235.062149 
L 179.053601 224.918564 
L 179.353636 230.369987 
L 185.390708 230.369987 
L 185.692259 221.017391 
L 196.837506 221.017391 
L 197.140572 211.706257 
L 204.3793 211.706257 
L 204.673274 212.463536 
L 204.973309 211.706257 
L 205.27789 212.463536 
L 207.085678 212.463536 
L 207.387229 203.180895 
L 207.688779 203.180895 
L 207.993361 202.43568 
L 208.296426 203.180895 
L 208.594946 202.43568 
L 208.894981 203.180895 
L 218.835542 203.180895 
L 219.135577 193.93816 
L 229.079168 193.93816 
L 229.379203 184.734377 
L 229.680754 184.734377 
L 229.982304 189.331427 
L 236.010284 189.331427 
L 236.308804 180.146882 
L 243.250528 180.146882 
L 243.555109 180.867742 
L 243.850598 180.146882 
L 246.261487 180.146882 
L 246.560007 171.000111 
L 246.861557 175.568819 
L 250.780199 175.568819 
L 251.080234 166.440608 
L 254.089678 166.440608 
L 254.395775 167.143861 
L 254.700356 166.440608 
L 254.998876 167.143861 
L 255.597431 166.440608 
L 255.597431 166.440608 
L 257.41128 166.440608 
L 257.711315 167.143861 
L 257.711315 167.143861 
L 258.317447 166.440608 
L 258.612936 167.143861 
L 259.219068 167.143861 
L 259.519103 166.440608 
L 260.122204 166.440608 
L 260.426785 167.143861 
L 261.632988 167.143861 
L 261.931508 158.040607 
L 266.750255 158.040607 
L 267.048775 157.348917 
L 267.359417 158.040607 
L 272.479715 158.040607 
L 272.781265 148.97317 
L 283.318865 148.97317 
L 283.621931 139.940799 
L 291.186455 139.940799 
L 291.457699 140.61458 
L 292.363866 140.61458 
L 292.665417 139.940799 
L 292.963937 140.61458 
L 293.273064 140.61458 
L 293.570068 139.940799 
L 294.173169 139.940799 
L 294.47472 130.942714 
L 294.777786 130.942714 
L 295.077821 131.605133 
L 295.377856 130.942714 
L 295.980957 130.942714 
L 296.280992 131.605133 
L 296.579512 130.942714 
L 297.48871 130.942714 
L 297.784199 131.605133 
L 298.094842 130.942714 
L 298.694912 130.942714 
L 299.001009 131.605133 
L 304.724407 131.605133 
L 305.018381 130.942714 
L 305.329024 131.605133 
L 305.926064 131.605133 
L 306.229129 122.629296 
L 306.53068 127.113051 
L 307.430786 127.113051 
L 307.742943 126.456301 
L 308.033887 127.113051 
L 308.332406 127.113051 
L 308.640018 126.456301 
L 308.938538 127.113051 
L 310.747841 127.113051 
L 311.049392 118.153743 
L 320.086816 118.153743 
L 320.386851 109.226892 
L 331.844256 109.226892 
L 332.145807 100.331795 
L 338.16621 100.331795 
L 338.466245 100.959776 
L 338.769311 100.331795 
L 339.067831 100.331795 
L 339.373927 100.959776 
L 339.978544 100.959776 
L 340.280094 100.331795 
L 340.58013 100.959776 
L 342.081821 100.959776 
L 342.386402 100.331795 
L 342.986473 100.331795 
L 343.319845 91.467699 
L 343.613819 95.895922 
L 347.512761 95.895922 
L 347.814312 87.658503 
L 348.112832 91.467699 
L 350.225201 91.467699 
L 350.522205 92.084619 
L 350.825271 91.467699 
L 351.434434 91.467699 
L 351.734469 92.084619 
L 352.036019 91.467699 
L 352.334539 92.084619 
L 352.939156 92.084619 
L 353.240706 91.467699 
L 353.842292 91.467699 
L 354.142327 82.633902 
L 354.477215 87.047051 
L 357.159348 87.047051 
L 357.459383 87.658503 
L 357.757903 87.658503 
L 358.057938 87.047051 
L 358.362519 87.047051 
L 358.662554 87.658503 
L 358.967136 78.828694 
L 367.402974 78.828694 
L 367.703009 78.228153 
L 368.00456 78.828694 
L 369.212277 78.828694 
L 369.510797 70.028131 
L 379.461965 70.028131 
L 379.760484 61.256187 
L 389.998049 61.256187 
L 390.298084 52.512134 
L 399.340054 52.512134 
L 399.646151 43.795295 
L 400.26289 43.795295 
L 400.546257 44.35711 
L 400.850838 43.795295 
L 407.184914 43.795295 
L 407.481919 44.35711 
L 407.781954 43.795295 
L 410.192843 43.795295 
L 410.492878 44.35711 
L 410.795944 44.35711 
L 411.097495 43.795295 
L 411.392984 35.104969 
L 415.013106 35.104969 
L 415.013106 35.104969 
" clip-path="url(#pbedffa91c8)" style="fill: none; stroke: #1f77b4; stroke-width: 1.5; stroke-linecap: square"/>
   </g>
   <g id="line2d_12">
    <path d="M 86.848843 304.456043 
L 88.959697 304.456043 
L 89.259732 303.899546 
L 93.78299 303.899546 
L 94.079995 300.977078 
L 97.093985 300.977078 
L 97.39705 298.059074 
L 99.504874 298.059074 
L 99.806424 295.14546 
L 100.10949 295.14546 
L 100.404979 295.696514 
L 103.722035 295.696514 
L 104.01904 292.785609 
L 107.339126 292.785609 
L 107.642192 289.879118 
L 110.960763 289.879118 
L 111.262314 286.977042 
L 113.376198 286.977042 
L 113.673203 284.07938 
L 117.585783 284.07938 
L 117.885818 281.186057 
L 120.592196 281.186057 
L 120.904354 281.730114 
L 121.195297 281.730114 
L 121.496848 278.839374 
L 124.810873 278.839374 
L 125.113939 275.95305 
L 129.037127 275.95305 
L 129.3311 273.071039 
L 131.4465 273.071039 
L 131.746535 270.193367 
L 134.763556 270.193367 
L 135.090867 267.32001 
L 137.776031 267.32001 
L 138.082127 264.450917 
L 141.391606 264.450917 
L 141.693157 264.986069 
L 142.600839 264.986069 
L 142.900874 262.119459 
L 145.613314 262.119459 
L 145.908803 259.257163 
L 149.53044 259.257163 
L 149.830475 256.399105 
L 151.938298 256.399105 
L 152.24288 253.545262 
L 155.55842 253.545262 
L 155.85694 250.695683 
L 160.381713 250.695683 
L 160.678718 248.376565 
L 163.386611 248.376565 
L 163.691193 245.533557 
L 166.435454 245.533557 
L 166.705183 242.694738 
L 170.019208 242.694738 
L 170.319243 239.860107 
L 173.039259 239.860107 
L 173.337779 237.029615 
L 176.645743 237.029615 
L 176.944263 234.203237 
L 180.262834 234.203237 
L 180.561354 231.380997 
L 182.670692 231.380997 
L 182.970728 231.898315 
L 183.272278 231.898315 
L 183.587467 229.078383 
L 187.501562 229.078383 
L 187.801597 226.262539 
L 190.514037 226.262539 
L 190.815587 223.450758 
L 194.132643 223.450758 
L 194.428133 220.643066 
L 196.542017 220.643066 
L 196.837506 217.839387 
L 201.360764 217.839387 
L 201.662315 215.039746 
L 204.070173 215.039746 
L 204.3793 212.750727 
L 207.085678 212.750727 
L 207.387229 209.957256 
L 210.399703 209.957256 
L 210.701254 207.167848 
L 215.218451 207.167848 
L 215.521517 204.382379 
L 218.235471 204.382379 
L 218.543083 201.600847 
L 221.852562 201.600847 
L 222.160174 198.823253 
L 224.865037 198.823253 
L 225.168103 196.049547 
L 227.872966 196.049547 
L 228.173001 193.279829 
L 230.282339 193.279829 
L 230.58389 193.775678 
L 230.88544 193.775678 
L 231.186991 191.008067 
L 233.897915 191.008067 
L 234.199466 188.244243 
L 237.513491 188.244243 
L 237.819587 185.484357 
L 241.138159 185.484357 
L 241.438194 182.728259 
L 244.150633 182.728259 
L 244.452184 179.975998 
L 248.36931 179.975998 
L 248.675407 177.714519 
L 249.575512 177.714519 
L 249.877063 174.968127 
L 253.794189 174.968127 
L 254.089678 172.225473 
L 256.203563 172.225473 
L 256.203563 172.225473 
L 256.809694 169.486606 
L 261.328406 169.486606 
L 261.632988 166.751476 
L 263.739295 166.751476 
L 264.042361 164.020109 
L 266.750255 164.020109 
L 267.048775 161.292453 
L 269.767275 161.292453 
L 270.067311 158.56846 
L 272.781265 158.56846 
L 273.081301 155.848229 
L 276.395326 155.848229 
L 276.696876 153.13161 
L 279.409316 153.13161 
L 279.70329 150.418678 
L 280.615518 150.418678 
L 280.915553 150.889695 
L 281.814143 150.889695 
L 282.114179 148.178619 
L 286.334371 148.178619 
L 286.638952 145.47118 
L 288.746775 145.47118 
L 289.048326 142.767378 
L 292.363866 142.767378 
L 292.665417 140.067162 
L 294.777786 140.067162 
L 295.077821 137.370509 
L 298.394877 137.370509 
L 298.694912 134.677441 
L 301.407352 134.677441 
L 301.707387 135.139605 
L 302.002876 135.139605 
L 302.310488 132.448318 
L 305.018381 132.448318 
L 305.329024 129.760594 
L 308.033887 129.760594 
L 308.332406 127.076331 
L 311.350942 127.076331 
L 311.652493 124.395629 
L 314.968034 124.395629 
L 315.268069 121.718414 
L 317.982024 121.718414 
L 318.286605 119.044685 
L 320.386851 119.044685 
L 320.695978 116.374368 
L 324.003942 116.374368 
L 324.303977 113.707537 
L 325.208629 113.707537 
L 325.51321 114.157359 
L 327.019448 114.157359 
L 327.320998 111.492158 
L 330.638054 111.492158 
L 330.938089 108.830419 
L 333.051974 108.830419 
L 333.353524 106.172066 
L 336.658457 106.172066 
L 336.966069 103.517098 
L 339.670932 103.517098 
L 339.978544 100.865492 
L 342.081821 100.865492 
L 342.386402 98.217247 
L 345.097326 98.217247 
L 345.429183 95.572337 
L 345.700427 95.572337 
L 346.001978 96.011626 
L 348.718963 96.011626 
L 349.018999 93.368271 
L 352.334539 93.368271 
L 352.651243 90.728303 
L 354.745428 90.728303 
L 355.048494 88.09157 
L 358.362519 88.09157 
L 358.662554 85.458099 
L 362.27813 85.458099 
L 362.579681 82.827937 
L 365.592155 82.827937 
L 365.88916 80.200962 
L 368.00456 80.200962 
L 368.325809 77.577272 
L 371.620135 77.577272 
L 371.915625 74.956767 
L 374.037086 74.956767 
L 374.332575 72.764866 
L 377.045014 72.764866 
L 377.345049 70.149027 
L 379.461965 70.149027 
L 379.760484 67.536348 
L 383.071479 67.536348 
L 383.371514 64.926855 
L 386.0885 64.926855 
L 386.385504 62.320522 
L 390.298084 62.320522 
L 390.602666 59.717249 
L 392.105872 59.717249 
L 392.407423 57.117136 
L 395.73054 57.117136 
L 396.024514 54.935067 
L 398.136883 54.935067 
L 398.433888 52.339394 
L 401.755489 52.339394 
L 402.05704 49.746831 
L 404.769479 49.746831 
L 405.07103 47.157278 
L 407.781954 47.157278 
L 408.078959 44.570784 
L 410.192843 44.570784 
L 410.492878 41.987326 
L 413.809934 41.987326 
L 414.109969 39.406853 
L 415.013106 39.406853 
L 415.013106 39.406853 
" clip-path="url(#pbedffa91c8)" style="fill: none; stroke: #ff7f0e; stroke-width: 1.5; stroke-linecap: square"/>
   </g>
   <g id="line2d_13">
    <path d="M 86.848843 294.853304 
L 415.013106 23.260365 
L 415.013106 23.260365 
" clip-path="url(#pbedffa91c8)" style="fill: none; stroke: #2ca02c; stroke-width: 1.5; stroke-linecap: square"/>
   </g>
   <g id="patch_3">
    <path d="M 57.6 307.584 
L 57.6 41.472 
" style="fill: none; stroke: #000000; stroke-width: 0.8; stroke-linejoin: miter; stroke-linecap: square"/>
   </g>
   <g id="patch_4">
    <path d="M 414.72 307.584 
L 414.72 41.472 
" style="fill: none; stroke: #000000; stroke-width: 0.8; stroke-linejoin: miter; stroke-linecap: square"/>
   </g>
   <g id="patch_5">
    <path d="M 57.6 307.584 
L 414.72 307.584 
" style="fill: none; stroke: #000000; stroke-width: 0.8; stroke-linejoin: miter; stroke-linecap: square"/>
   </g>
   <g id="patch_6">
    <path d="M 57.6 41.472 
L 414.72 41.472 
" style="fill: none; stroke: #000000; stroke-width: 0.8; stroke-linejoin: miter; stroke-linecap: square"/>
   </g>
   <g id="text_13">
    <!-- 50mm/s -->
    <g transform="translate(211.689375 35.472) scale(0.12 -0.12)">
     <defs>
      <path id="DejaVuSans-2f" d="M 1625 4666 
L 2156 4666 
L 531 -594 
L 0 -594 
L 1625 4666 
z
" transform="scale(0.015625)"/>
     </defs>
     <use xlink:href="#DejaVuSans-35"/>
     <use xlink:href="#DejaVuSans-30" x="63.623047"/>
     <use xlink:href="#DejaVuSans-6d" x="127.246094"/>
     <use xlink:href="#DejaVuSans-6d" x="224.658203"/>
     <use xlink:href="#DejaVuSans-2f" x="322.070312"/>
     <use xlink:href="#DejaVuSans-73" x="355.761719"/>
    </g>
   </g>
   <g id="legend_1">
    <g id="patch_7">
     <path d="M 64.6 93.506375 
L 146.5125 93.506375 
Q 148.5125 93.506375 148.5125 91.506375 
L 148.5125 48.472 
Q 148.5125 46.472 146.5125 46.472 
L 64.6 46.472 
Q 62.6 46.472 62.6 48.472 
L 62.6 91.506375 
Q 62.6 93.506375 64.6 93.506375 
z
" style="fill: #ffffff; opacity: 0.8; stroke: #cccccc; stroke-linejoin: miter"/>
    </g>
    <g id="line2d_14">
     <path d="M 66.6 54.570438 
L 76.6 54.570438 
L 86.6 54.570438 
" style="fill: none; stroke: #1f77b4; stroke-width: 1.5; stroke-linecap: square"/>
    </g>
    <g id="text_14">
     <!-- cam0 -->
     <g transform="translate(94.6 58.070438) scale(0.1 -0.1)">
      <defs>
       <path id="DejaVuSans-63" d="M 3122 3366 
L 3122 2828 
Q 2878 2963 2633 3030 
Q 2388 3097 2138 3097 
Q 1578 3097 1268 2742 
Q 959 2388 959 1747 
Q 959 1106 1268 751 
Q 1578 397 2138 397 
Q 2388 397 2633 464 
Q 2878 531 3122 666 
L 3122 134 
Q 2881 22 2623 -34 
Q 2366 -91 2075 -91 
Q 1284 -91 818 406 
Q 353 903 353 1747 
Q 353 2603 823 3093 
Q 1294 3584 2113 3584 
Q 2378 3584 2631 3529 
Q 2884 3475 3122 3366 
z
" transform="scale(0.015625)"/>
       <path id="DejaVuSans-61" d="M 2194 1759 
Q 1497 1759 1228 1600 
Q 959 1441 959 1056 
Q 959 750 1161 570 
Q 1363 391 1709 391 
Q 2188 391 2477 730 
Q 2766 1069 2766 1631 
L 2766 1759 
L 2194 1759 
z
M 3341 1997 
L 3341 0 
L 2766 0 
L 2766 531 
Q 2569 213 2275 61 
Q 1981 -91 1556 -91 
Q 1019 -91 701 211 
Q 384 513 384 1019 
Q 384 1609 779 1909 
Q 1175 2209 1959 2209 
L 2766 2209 
L 2766 2266 
Q 2766 2663 2505 2880 
Q 2244 3097 1772 3097 
Q 1472 3097 1187 3025 
Q 903 2953 641 2809 
L 641 3341 
Q 956 3463 1253 3523 
Q 1550 3584 1831 3584 
Q 2591 3584 2966 3190 
Q 3341 2797 3341 1997 
z
" transform="scale(0.015625)"/>
      </defs>
      <use xlink:href="#DejaVuSans-63"/>
      <use xlink:href="#DejaVuSans-61" x="54.980469"/>
      <use xlink:href="#DejaVuSans-6d" x="116.259766"/>
      <use xlink:href="#DejaVuSans-30" x="213.671875"/>
     </g>
    </g>
    <g id="line2d_15">
     <path d="M 66.6 69.248563 
L 76.6 69.248563 
L 86.6 69.248563 
" style="fill: none; stroke: #ff7f0e; stroke-width: 1.5; stroke-linecap: square"/>
    </g>
    <g id="text_15">
     <!-- cam5 -->
     <g transform="translate(94.6 72.748563) scale(0.1 -0.1)">
      <use xlink:href="#DejaVuSans-63"/>
      <use xlink:href="#DejaVuSans-61" x="54.980469"/>
      <use xlink:href="#DejaVuSans-6d" x="116.259766"/>
      <use xlink:href="#DejaVuSans-35" x="213.671875"/>
     </g>
    </g>
    <g id="line2d_16">
     <path d="M 66.6 83.926688 
L 76.6 83.926688 
L 86.6 83.926688 
" style="fill: none; stroke: #2ca02c; stroke-width: 1.5; stroke-linecap: square"/>
    </g>
    <g id="text_16">
     <!-- command -->
     <g transform="translate(94.6 87.426688) scale(0.1 -0.1)">
      <defs>
       <path id="DejaVuSans-64" d="M 2906 2969 
L 2906 4863 
L 3481 4863 
L 3481 0 
L 2906 0 
L 2906 525 
Q 2725 213 2448 61 
Q 2172 -91 1784 -91 
Q 1150 -91 751 415 
Q 353 922 353 1747 
Q 353 2572 751 3078 
Q 1150 3584 1784 3584 
Q 2172 3584 2448 3432 
Q 2725 3281 2906 2969 
z
M 947 1747 
Q 947 1113 1208 752 
Q 1469 391 1925 391 
Q 2381 391 2643 752 
Q 2906 1113 2906 1747 
Q 2906 2381 2643 2742 
Q 2381 3103 1925 3103 
Q 1469 3103 1208 2742 
Q 947 2381 947 1747 
z
" transform="scale(0.015625)"/>
      </defs>
      <use xlink:href="#DejaVuSans-63"/>
      <use xlink:href="#DejaVuSans-6f" x="54.980469"/>
      <use xlink:href="#DejaVuSans-6d" x="116.162109"/>
      <use xlink:href="#DejaVuSans-6d" x="213.574219"/>
      <use xlink:href="#DejaVuSans-61" x="310.986328"/>
      <use xlink:href="#DejaVuSans-6e" x="372.265625"/>
      <use xlink:href="#DejaVuSans-64" x="435.644531"/>
     </g>
    </g>
   </g>
  </g>
 </g>
 <defs>
  <clipPath id="pbedffa91c8">
   <rect x="57.6" y="41.472" width="357.12" height="266.112"/>
  </clipPath>
 </defs>
</svg>
