<?xml version="1.0" encoding="utf-8" standalone="no"?>
<!DOCTYPE svg PUBLIC "-//W3C//DTD SVG 1.1//EN"
  "http://www.w3.org/Graphics/SVG/1.1/DTD/svg11.dtd">
<svg xmlns:xlink="http://www.w3.org/1999/xlink" width="1382.4pt" height="702pt" viewBox="0 0 1382.4 702" xmlns="http://www.w3.org/2000/svg" version="1.1">
 <metadata>
  <rdf:RDF xmlns:dc="http://purl.org/dc/elements/1.1/" xmlns:cc="http://creativecommons.org/ns#" xmlns:rdf="http://www.w3.org/1999/02/22-rdf-syntax-ns#">
   <cc:Work>
    <dc:type rdf:resource="http://purl.org/dc/dcmitype/StillImage"/>
    <dc:date>2023-06-01T14:31:49.396499</dc:date>
    <dc:format>image/svg+xml</dc:format>
    <dc:creator>
     <cc:Agent>
      <dc:title>Matplotlib v3.7.1, https://matplotlib.org/</dc:title>
     </cc:Agent>
    </dc:creator>
   </cc:Work>
  </rdf:RDF>
 </metadata>
 <defs>
  <style type="text/css">*{stroke-linejoin: round; stroke-linecap: butt}</style>
 </defs>
 <g id="figure_1">
  <g id="patch_1">
   <path d="M 0 702 
L 1382.4 702 
L 1382.4 0 
L 0 0 
z
" style="fill: #ffffff"/>
  </g>
  <g id="axes_1">
   <g id="patch_2">
    <path d="M 172.8 624.78 
L 1244.16 624.78 
L 1244.16 84.24 
L 172.8 84.24 
z
" style="fill: #ffffff"/>
   </g>
   <g id="matplotlib.axis_1">
    <g id="xtick_1">
     <g id="line2d_1">
      <defs>
       <path id="md2ebcbb4e8" d="M 0 0 
L 0 3.5 
" style="stroke: #000000; stroke-width: 0.8"/>
      </defs>
      <g>
       <use xlink:href="#md2ebcbb4e8" x="221.498182" y="624.78" style="stroke: #000000; stroke-width: 0.8"/>
      </g>
     </g>
     <g id="text_1">
      <!-- 0.0 -->
      <g transform="translate(213.546619 639.378438) scale(0.1 -0.1)">
       <defs>
        <path id="DejaVuSans-30" d="M 2034 4250 
Q 1547 4250 1301 3770 
Q 1056 3291 1056 2328 
Q 1056 1369 1301 889 
Q 1547 409 2034 409 
Q 2525 409 2770 889 
Q 3016 1369 3016 2328 
Q 3016 3291 2770 3770 
Q 2525 4250 2034 4250 
z
M 2034 4750 
Q 2819 4750 3233 4129 
Q 3647 3509 3647 2328 
Q 3647 1150 3233 529 
Q 2819 -91 2034 -91 
Q 1250 -91 836 529 
Q 422 1150 422 2328 
Q 422 3509 836 4129 
Q 1250 4750 2034 4750 
z
" transform="scale(0.015625)"/>
        <path id="DejaVuSans-2e" d="M 684 794 
L 1344 794 
L 1344 0 
L 684 0 
L 684 794 
z
" transform="scale(0.015625)"/>
       </defs>
       <use xlink:href="#DejaVuSans-30"/>
       <use xlink:href="#DejaVuSans-2e" x="63.623047"/>
       <use xlink:href="#DejaVuSans-30" x="95.410156"/>
      </g>
     </g>
    </g>
    <g id="xtick_2">
     <g id="line2d_2">
      <g>
       <use xlink:href="#md2ebcbb4e8" x="416.638258" y="624.78" style="stroke: #000000; stroke-width: 0.8"/>
      </g>
     </g>
     <g id="text_2">
      <!-- 0.2 -->
      <g transform="translate(408.686696 639.378438) scale(0.1 -0.1)">
       <defs>
        <path id="DejaVuSans-32" d="M 1228 531 
L 3431 531 
L 3431 0 
L 469 0 
L 469 531 
Q 828 903 1448 1529 
Q 2069 2156 2228 2338 
Q 2531 2678 2651 2914 
Q 2772 3150 2772 3378 
Q 2772 3750 2511 3984 
Q 2250 4219 1831 4219 
Q 1534 4219 1204 4116 
Q 875 4013 500 3803 
L 500 4441 
Q 881 4594 1212 4672 
Q 1544 4750 1819 4750 
Q 2544 4750 2975 4387 
Q 3406 4025 3406 3419 
Q 3406 3131 3298 2873 
Q 3191 2616 2906 2266 
Q 2828 2175 2409 1742 
Q 1991 1309 1228 531 
z
" transform="scale(0.015625)"/>
       </defs>
       <use xlink:href="#DejaVuSans-30"/>
       <use xlink:href="#DejaVuSans-2e" x="63.623047"/>
       <use xlink:href="#DejaVuSans-32" x="95.410156"/>
      </g>
     </g>
    </g>
    <g id="xtick_3">
     <g id="line2d_3">
      <g>
       <use xlink:href="#md2ebcbb4e8" x="611.778335" y="624.78" style="stroke: #000000; stroke-width: 0.8"/>
      </g>
     </g>
     <g id="text_3">
      <!-- 0.4 -->
      <g transform="translate(603.826773 639.378438) scale(0.1 -0.1)">
       <defs>
        <path id="DejaVuSans-34" d="M 2419 4116 
L 825 1625 
L 2419 1625 
L 2419 4116 
z
M 2253 4666 
L 3047 4666 
L 3047 1625 
L 3713 1625 
L 3713 1100 
L 3047 1100 
L 3047 0 
L 2419 0 
L 2419 1100 
L 313 1100 
L 313 1709 
L 2253 4666 
z
" transform="scale(0.015625)"/>
       </defs>
       <use xlink:href="#DejaVuSans-30"/>
       <use xlink:href="#DejaVuSans-2e" x="63.623047"/>
       <use xlink:href="#DejaVuSans-34" x="95.410156"/>
      </g>
     </g>
    </g>
    <g id="xtick_4">
     <g id="line2d_4">
      <g>
       <use xlink:href="#md2ebcbb4e8" x="806.918412" y="624.78" style="stroke: #000000; stroke-width: 0.8"/>
      </g>
     </g>
     <g id="text_4">
      <!-- 0.6 -->
      <g transform="translate(798.966849 639.378438) scale(0.1 -0.1)">
       <defs>
        <path id="DejaVuSans-36" d="M 2113 2584 
Q 1688 2584 1439 2293 
Q 1191 2003 1191 1497 
Q 1191 994 1439 701 
Q 1688 409 2113 409 
Q 2538 409 2786 701 
Q 3034 994 3034 1497 
Q 3034 2003 2786 2293 
Q 2538 2584 2113 2584 
z
M 3366 4563 
L 3366 3988 
Q 3128 4100 2886 4159 
Q 2644 4219 2406 4219 
Q 1781 4219 1451 3797 
Q 1122 3375 1075 2522 
Q 1259 2794 1537 2939 
Q 1816 3084 2150 3084 
Q 2853 3084 3261 2657 
Q 3669 2231 3669 1497 
Q 3669 778 3244 343 
Q 2819 -91 2113 -91 
Q 1303 -91 875 529 
Q 447 1150 447 2328 
Q 447 3434 972 4092 
Q 1497 4750 2381 4750 
Q 2619 4750 2861 4703 
Q 3103 4656 3366 4563 
z
" transform="scale(0.015625)"/>
       </defs>
       <use xlink:href="#DejaVuSans-30"/>
       <use xlink:href="#DejaVuSans-2e" x="63.623047"/>
       <use xlink:href="#DejaVuSans-36" x="95.410156"/>
      </g>
     </g>
    </g>
    <g id="xtick_5">
     <g id="line2d_5">
      <g>
       <use xlink:href="#md2ebcbb4e8" x="1002.058488" y="624.78" style="stroke: #000000; stroke-width: 0.8"/>
      </g>
     </g>
     <g id="text_5">
      <!-- 0.8 -->
      <g transform="translate(994.106926 639.378438) scale(0.1 -0.1)">
       <defs>
        <path id="DejaVuSans-38" d="M 2034 2216 
Q 1584 2216 1326 1975 
Q 1069 1734 1069 1313 
Q 1069 891 1326 650 
Q 1584 409 2034 409 
Q 2484 409 2743 651 
Q 3003 894 3003 1313 
Q 3003 1734 2745 1975 
Q 2488 2216 2034 2216 
z
M 1403 2484 
Q 997 2584 770 2862 
Q 544 3141 544 3541 
Q 544 4100 942 4425 
Q 1341 4750 2034 4750 
Q 2731 4750 3128 4425 
Q 3525 4100 3525 3541 
Q 3525 3141 3298 2862 
Q 3072 2584 2669 2484 
Q 3125 2378 3379 2068 
Q 3634 1759 3634 1313 
Q 3634 634 3220 271 
Q 2806 -91 2034 -91 
Q 1263 -91 848 271 
Q 434 634 434 1313 
Q 434 1759 690 2068 
Q 947 2378 1403 2484 
z
M 1172 3481 
Q 1172 3119 1398 2916 
Q 1625 2713 2034 2713 
Q 2441 2713 2670 2916 
Q 2900 3119 2900 3481 
Q 2900 3844 2670 4047 
Q 2441 4250 2034 4250 
Q 1625 4250 1398 4047 
Q 1172 3844 1172 3481 
z
" transform="scale(0.015625)"/>
       </defs>
       <use xlink:href="#DejaVuSans-30"/>
       <use xlink:href="#DejaVuSans-2e" x="63.623047"/>
       <use xlink:href="#DejaVuSans-38" x="95.410156"/>
      </g>
     </g>
    </g>
    <g id="xtick_6">
     <g id="line2d_6">
      <g>
       <use xlink:href="#md2ebcbb4e8" x="1197.198565" y="624.78" style="stroke: #000000; stroke-width: 0.8"/>
      </g>
     </g>
     <g id="text_6">
      <!-- 1.0 -->
      <g transform="translate(1189.247002 639.378438) scale(0.1 -0.1)">
       <defs>
        <path id="DejaVuSans-31" d="M 794 531 
L 1825 531 
L 1825 4091 
L 703 3866 
L 703 4441 
L 1819 4666 
L 2450 4666 
L 2450 531 
L 3481 531 
L 3481 0 
L 794 0 
L 794 531 
z
" transform="scale(0.015625)"/>
       </defs>
       <use xlink:href="#DejaVuSans-31"/>
       <use xlink:href="#DejaVuSans-2e" x="63.623047"/>
       <use xlink:href="#DejaVuSans-30" x="95.410156"/>
      </g>
     </g>
    </g>
    <g id="text_7">
     <!-- time [s] -->
     <g transform="translate(689.088594 653.056563) scale(0.1 -0.1)">
      <defs>
       <path id="DejaVuSans-74" d="M 1172 4494 
L 1172 3500 
L 2356 3500 
L 2356 3053 
L 1172 3053 
L 1172 1153 
Q 1172 725 1289 603 
Q 1406 481 1766 481 
L 2356 481 
L 2356 0 
L 1766 0 
Q 1100 0 847 248 
Q 594 497 594 1153 
L 594 3053 
L 172 3053 
L 172 3500 
L 594 3500 
L 594 4494 
L 1172 4494 
z
" transform="scale(0.015625)"/>
       <path id="DejaVuSans-69" d="M 603 3500 
L 1178 3500 
L 1178 0 
L 603 0 
L 603 3500 
z
M 603 4863 
L 1178 4863 
L 1178 4134 
L 603 4134 
L 603 4863 
z
" transform="scale(0.015625)"/>
       <path id="DejaVuSans-6d" d="M 3328 2828 
Q 3544 3216 3844 3400 
Q 4144 3584 4550 3584 
Q 5097 3584 5394 3201 
Q 5691 2819 5691 2113 
L 5691 0 
L 5113 0 
L 5113 2094 
Q 5113 2597 4934 2840 
Q 4756 3084 4391 3084 
Q 3944 3084 3684 2787 
Q 3425 2491 3425 1978 
L 3425 0 
L 2847 0 
L 2847 2094 
Q 2847 2600 2669 2842 
Q 2491 3084 2119 3084 
Q 1678 3084 1418 2786 
Q 1159 2488 1159 1978 
L 1159 0 
L 581 0 
L 581 3500 
L 1159 3500 
L 1159 2956 
Q 1356 3278 1631 3431 
Q 1906 3584 2284 3584 
Q 2666 3584 2933 3390 
Q 3200 3197 3328 2828 
z
" transform="scale(0.015625)"/>
       <path id="DejaVuSans-65" d="M 3597 1894 
L 3597 1613 
L 953 1613 
Q 991 1019 1311 708 
Q 1631 397 2203 397 
Q 2534 397 2845 478 
Q 3156 559 3463 722 
L 3463 178 
Q 3153 47 2828 -22 
Q 2503 -91 2169 -91 
Q 1331 -91 842 396 
Q 353 884 353 1716 
Q 353 2575 817 3079 
Q 1281 3584 2069 3584 
Q 2775 3584 3186 3129 
Q 3597 2675 3597 1894 
z
M 3022 2063 
Q 3016 2534 2758 2815 
Q 2500 3097 2075 3097 
Q 1594 3097 1305 2825 
Q 1016 2553 972 2059 
L 3022 2063 
z
" transform="scale(0.015625)"/>
       <path id="DejaVuSans-20" transform="scale(0.015625)"/>
       <path id="DejaVuSans-5b" d="M 550 4863 
L 1875 4863 
L 1875 4416 
L 1125 4416 
L 1125 -397 
L 1875 -397 
L 1875 -844 
L 550 -844 
L 550 4863 
z
" transform="scale(0.015625)"/>
       <path id="DejaVuSans-73" d="M 2834 3397 
L 2834 2853 
Q 2591 2978 2328 3040 
Q 2066 3103 1784 3103 
Q 1356 3103 1142 2972 
Q 928 2841 928 2578 
Q 928 2378 1081 2264 
Q 1234 2150 1697 2047 
L 1894 2003 
Q 2506 1872 2764 1633 
Q 3022 1394 3022 966 
Q 3022 478 2636 193 
Q 2250 -91 1575 -91 
Q 1294 -91 989 -36 
Q 684 19 347 128 
L 347 722 
Q 666 556 975 473 
Q 1284 391 1588 391 
Q 1994 391 2212 530 
Q 2431 669 2431 922 
Q 2431 1156 2273 1281 
Q 2116 1406 1581 1522 
L 1381 1569 
Q 847 1681 609 1914 
Q 372 2147 372 2553 
Q 372 3047 722 3315 
Q 1072 3584 1716 3584 
Q 2034 3584 2315 3537 
Q 2597 3491 2834 3397 
z
" transform="scale(0.015625)"/>
       <path id="DejaVuSans-5d" d="M 1947 4863 
L 1947 -844 
L 622 -844 
L 622 -397 
L 1369 -397 
L 1369 4416 
L 622 4416 
L 622 4863 
L 1947 4863 
z
" transform="scale(0.015625)"/>
      </defs>
      <use xlink:href="#DejaVuSans-74"/>
      <use xlink:href="#DejaVuSans-69" x="39.208984"/>
      <use xlink:href="#DejaVuSans-6d" x="66.992188"/>
      <use xlink:href="#DejaVuSans-65" x="164.404297"/>
      <use xlink:href="#DejaVuSans-20" x="225.927734"/>
      <use xlink:href="#DejaVuSans-5b" x="257.714844"/>
      <use xlink:href="#DejaVuSans-73" x="296.728516"/>
      <use xlink:href="#DejaVuSans-5d" x="348.828125"/>
     </g>
    </g>
   </g>
   <g id="matplotlib.axis_2">
    <g id="ytick_1">
     <g id="line2d_7">
      <defs>
       <path id="m14e6dc04a1" d="M 0 0 
L -3.5 0 
" style="stroke: #000000; stroke-width: 0.8"/>
      </defs>
      <g>
       <use xlink:href="#m14e6dc04a1" x="172.8" y="556.906785" style="stroke: #000000; stroke-width: 0.8"/>
      </g>
     </g>
     <g id="text_8">
      <!-- −250 -->
      <g transform="translate(138.332812 560.706004) scale(0.1 -0.1)">
       <defs>
        <path id="DejaVuSans-2212" d="M 678 2272 
L 4684 2272 
L 4684 1741 
L 678 1741 
L 678 2272 
z
" transform="scale(0.015625)"/>
        <path id="DejaVuSans-35" d="M 691 4666 
L 3169 4666 
L 3169 4134 
L 1269 4134 
L 1269 2991 
Q 1406 3038 1543 3061 
Q 1681 3084 1819 3084 
Q 2600 3084 3056 2656 
Q 3513 2228 3513 1497 
Q 3513 744 3044 326 
Q 2575 -91 1722 -91 
Q 1428 -91 1123 -41 
Q 819 9 494 109 
L 494 744 
Q 775 591 1075 516 
Q 1375 441 1709 441 
Q 2250 441 2565 725 
Q 2881 1009 2881 1497 
Q 2881 1984 2565 2268 
Q 2250 2553 1709 2553 
Q 1456 2553 1204 2497 
Q 953 2441 691 2322 
L 691 4666 
z
" transform="scale(0.015625)"/>
       </defs>
       <use xlink:href="#DejaVuSans-2212"/>
       <use xlink:href="#DejaVuSans-32" x="83.789062"/>
       <use xlink:href="#DejaVuSans-35" x="147.412109"/>
       <use xlink:href="#DejaVuSans-30" x="211.035156"/>
      </g>
     </g>
    </g>
    <g id="ytick_2">
     <g id="line2d_8">
      <g>
       <use xlink:href="#m14e6dc04a1" x="172.8" y="476.722834" style="stroke: #000000; stroke-width: 0.8"/>
      </g>
     </g>
     <g id="text_9">
      <!-- −200 -->
      <g transform="translate(138.332812 480.522053) scale(0.1 -0.1)">
       <use xlink:href="#DejaVuSans-2212"/>
       <use xlink:href="#DejaVuSans-32" x="83.789062"/>
       <use xlink:href="#DejaVuSans-30" x="147.412109"/>
       <use xlink:href="#DejaVuSans-30" x="211.035156"/>
      </g>
     </g>
    </g>
    <g id="ytick_3">
     <g id="line2d_9">
      <g>
       <use xlink:href="#m14e6dc04a1" x="172.8" y="396.538883" style="stroke: #000000; stroke-width: 0.8"/>
      </g>
     </g>
     <g id="text_10">
      <!-- −150 -->
      <g transform="translate(138.332812 400.338102) scale(0.1 -0.1)">
       <use xlink:href="#DejaVuSans-2212"/>
       <use xlink:href="#DejaVuSans-31" x="83.789062"/>
       <use xlink:href="#DejaVuSans-35" x="147.412109"/>
       <use xlink:href="#DejaVuSans-30" x="211.035156"/>
      </g>
     </g>
    </g>
    <g id="ytick_4">
     <g id="line2d_10">
      <g>
       <use xlink:href="#m14e6dc04a1" x="172.8" y="316.354932" style="stroke: #000000; stroke-width: 0.8"/>
      </g>
     </g>
     <g id="text_11">
      <!-- −100 -->
      <g transform="translate(138.332812 320.154151) scale(0.1 -0.1)">
       <use xlink:href="#DejaVuSans-2212"/>
       <use xlink:href="#DejaVuSans-31" x="83.789062"/>
       <use xlink:href="#DejaVuSans-30" x="147.412109"/>
       <use xlink:href="#DejaVuSans-30" x="211.035156"/>
      </g>
     </g>
    </g>
    <g id="ytick_5">
     <g id="line2d_11">
      <g>
       <use xlink:href="#m14e6dc04a1" x="172.8" y="236.170981" style="stroke: #000000; stroke-width: 0.8"/>
      </g>
     </g>
     <g id="text_12">
      <!-- −50 -->
      <g transform="translate(144.695312 239.970199) scale(0.1 -0.1)">
       <use xlink:href="#DejaVuSans-2212"/>
       <use xlink:href="#DejaVuSans-35" x="83.789062"/>
       <use xlink:href="#DejaVuSans-30" x="147.412109"/>
      </g>
     </g>
    </g>
    <g id="ytick_6">
     <g id="line2d_12">
      <g>
       <use xlink:href="#m14e6dc04a1" x="172.8" y="155.98703" style="stroke: #000000; stroke-width: 0.8"/>
      </g>
     </g>
     <g id="text_13">
      <!-- 0 -->
      <g transform="translate(159.4375 159.786248) scale(0.1 -0.1)">
       <use xlink:href="#DejaVuSans-30"/>
      </g>
     </g>
    </g>
    <g id="text_14">
     <!-- position [mm] -->
     <g transform="translate(132.253125 389.545938) rotate(-90) scale(0.1 -0.1)">
      <defs>
       <path id="DejaVuSans-70" d="M 1159 525 
L 1159 -1331 
L 581 -1331 
L 581 3500 
L 1159 3500 
L 1159 2969 
Q 1341 3281 1617 3432 
Q 1894 3584 2278 3584 
Q 2916 3584 3314 3078 
Q 3713 2572 3713 1747 
Q 3713 922 3314 415 
Q 2916 -91 2278 -91 
Q 1894 -91 1617 61 
Q 1341 213 1159 525 
z
M 3116 1747 
Q 3116 2381 2855 2742 
Q 2594 3103 2138 3103 
Q 1681 3103 1420 2742 
Q 1159 2381 1159 1747 
Q 1159 1113 1420 752 
Q 1681 391 2138 391 
Q 2594 391 2855 752 
Q 3116 1113 3116 1747 
z
" transform="scale(0.015625)"/>
       <path id="DejaVuSans-6f" d="M 1959 3097 
Q 1497 3097 1228 2736 
Q 959 2375 959 1747 
Q 959 1119 1226 758 
Q 1494 397 1959 397 
Q 2419 397 2687 759 
Q 2956 1122 2956 1747 
Q 2956 2369 2687 2733 
Q 2419 3097 1959 3097 
z
M 1959 3584 
Q 2709 3584 3137 3096 
Q 3566 2609 3566 1747 
Q 3566 888 3137 398 
Q 2709 -91 1959 -91 
Q 1206 -91 779 398 
Q 353 888 353 1747 
Q 353 2609 779 3096 
Q 1206 3584 1959 3584 
z
" transform="scale(0.015625)"/>
       <path id="DejaVuSans-6e" d="M 3513 2113 
L 3513 0 
L 2938 0 
L 2938 2094 
Q 2938 2591 2744 2837 
Q 2550 3084 2163 3084 
Q 1697 3084 1428 2787 
Q 1159 2491 1159 1978 
L 1159 0 
L 581 0 
L 581 3500 
L 1159 3500 
L 1159 2956 
Q 1366 3272 1645 3428 
Q 1925 3584 2291 3584 
Q 2894 3584 3203 3211 
Q 3513 2838 3513 2113 
z
" transform="scale(0.015625)"/>
      </defs>
      <use xlink:href="#DejaVuSans-70"/>
      <use xlink:href="#DejaVuSans-6f" x="63.476562"/>
      <use xlink:href="#DejaVuSans-73" x="124.658203"/>
      <use xlink:href="#DejaVuSans-69" x="176.757812"/>
      <use xlink:href="#DejaVuSans-74" x="204.541016"/>
      <use xlink:href="#DejaVuSans-69" x="243.75"/>
      <use xlink:href="#DejaVuSans-6f" x="271.533203"/>
      <use xlink:href="#DejaVuSans-6e" x="332.714844"/>
      <use xlink:href="#DejaVuSans-20" x="396.09375"/>
      <use xlink:href="#DejaVuSans-5b" x="427.880859"/>
      <use xlink:href="#DejaVuSans-6d" x="466.894531"/>
      <use xlink:href="#DejaVuSans-6d" x="564.306641"/>
      <use xlink:href="#DejaVuSans-5d" x="661.71875"/>
     </g>
    </g>
   </g>
   <g id="line2d_13">
    <path d="M 221.498182 567.417715 
L 223.55691 573.534499 
L 229.235486 573.534499 
L 231.138102 579.132077 
L 235.05066 579.132077 
L 236.992304 585.300548 
L 240.875591 585.300548 
L 242.826992 591.500082 
L 244.749122 591.500082 
L 246.690766 590.937929 
L 256.389228 590.937929 
L 258.340628 597.160348 
L 260.272515 594.045105 
L 266.107203 594.045105 
L 268.03909 593.482951 
L 271.912621 593.482951 
L 273.864021 591.500082 
L 275.795908 590.937929 
L 279.630411 590.937929 
L 283.503941 584.747102 
L 285.474856 584.747102 
L 287.377472 581.663324 
L 289.328872 579.681144 
L 291.299787 579.681144 
L 299.037091 567.417715 
L 301.017763 564.370308 
L 302.959407 564.370308 
L 302.959407 564.370308 
L 306.862208 555.271097 
L 308.774581 549.240029 
L 310.735739 549.240029 
L 312.657869 543.236368 
L 314.599512 540.244609 
L 316.550913 538.253384 
L 318.4828 535.266821 
L 320.424444 529.313195 
L 333.996436 508.673108 
L 335.93808 502.830151 
L 341.763011 494.108928 
L 343.675384 494.108928 
L 345.597514 488.322838 
L 347.539157 489.199233 
L 355.354517 477.662542 
L 357.296161 477.662542 
L 359.237805 474.791668 
L 361.189206 474.791668 
L 365.052979 469.065411 
L 366.984866 469.065411 
L 368.965538 466.209932 
L 370.848639 466.209932 
L 376.673571 457.673357 
L 380.576372 457.673357 
L 382.508259 454.837587 
L 384.469417 454.837587 
L 384.469417 454.837587 
L 390.284591 446.358744 
L 394.19715 446.358744 
L 398.041409 440.729301 
L 399.99281 441.494063 
L 401.924697 435.491862 
L 403.86634 435.491862 
L 405.78847 432.689256 
L 407.739871 432.689256 
L 409.681515 429.890997 
L 411.613401 429.890997 
L 419.379977 418.74036 
L 421.32162 418.74036 
L 425.195151 413.189658 
L 427.136795 413.189658 
L 429.058924 410.420297 
L 431.05911 408.341415 
L 432.990997 405.23193 
L 434.90337 405.23193 
L 436.845013 402.47078 
L 438.786657 402.47078 
L 442.699216 396.959688 
L 444.601831 396.959688 
L 446.553232 391.463287 
L 448.475362 391.463287 
L 450.407249 388.720451 
L 452.339135 388.720451 
L 458.144553 380.512805 
L 460.086196 380.512805 
L 465.920885 372.335406 
L 467.862529 372.335406 
L 469.794415 369.616095 
L 471.716545 369.616095 
L 473.658189 364.770964 
L 477.531719 364.770964 
L 479.48312 359.340955 
L 481.415007 359.340955 
L 485.298294 353.922893 
L 487.239938 353.922893 
L 491.132983 348.516346 
L 493.064869 348.516346 
L 496.9384 343.120992 
L 498.899558 343.120992 
L 502.773088 337.736399 
L 504.704975 337.736399 
L 508.578506 332.362214 
L 510.529906 332.362214 
L 514.413194 326.998052 
L 516.354838 326.998052 
L 520.247882 321.643561 
L 522.189526 321.643561 
L 526.072813 316.298338 
L 528.024214 316.298338 
L 535.829817 305.634273 
L 537.732433 305.634273 
L 539.683834 302.973497 
L 541.61572 302.973497 
L 545.45998 297.657863 
L 547.401624 297.657863 
L 551.284911 292.34991 
L 553.246069 292.34991 
L 560.983373 281.755461 
L 562.925017 281.755461 
L 566.876603 276.468259 
L 568.798733 276.468259 
L 574.613907 268.549052 
L 576.545794 268.549052 
L 578.497195 263.276764 
L 580.438839 263.276764 
L 582.399997 260.642642 
L 584.312369 260.642642 
L 590.137301 252.747874 
L 592.069187 252.747874 
L 594.010831 250.43856 
L 595.932961 247.804389 
L 597.903876 247.646972 
L 601.777406 242.387931 
L 603.709293 242.387931 
L 609.563495 234.506731 
L 613.427269 234.506731 
L 615.349398 229.256991 
L 617.281285 226.633308 
L 619.242443 226.633308 
L 623.115973 221.388107 
L 625.057617 221.388107 
L 630.892306 213.525108 
L 632.824192 213.525108 
L 636.70748 208.285809 
L 638.639367 208.285809 
L 644.464298 200.430043 
L 648.328071 197.812133 
L 650.279472 195.194496 
L 652.221116 195.194496 
L 659.987691 184.725824 
L 661.958606 184.725824 
L 663.900249 182.108908 
L 665.802865 182.108908 
L 673.579197 171.640973 
L 675.520841 171.640973 
L 677.462485 169.023721 
L 681.336015 166.406276 
L 689.092833 155.933675 
L 691.005206 155.933675 
L 694.888494 150.695113 
L 696.839894 150.695113 
L 700.723182 145.454595 
L 702.664826 145.454595 
L 704.616226 140.178106 
L 708.450729 140.178106 
L 710.441158 134.938614 
L 712.373045 134.938614 
L 716.266089 129.696155 
L 718.197976 129.696155 
L 722.061749 124.450361 
L 723.993636 124.450361 
L 725.964551 119.200926 
L 727.906195 119.200926 
L 729.828324 116.574709 
L 731.73094 116.574709 
L 733.731126 113.947466 
L 739.478001 113.947466 
L 741.419645 111.319132 
L 760.826326 111.319132 
L 762.767969 116.574709 
L 766.6415 116.574709 
L 768.622172 121.826116 
L 772.495702 121.826116 
L 774.447103 129.696155 
L 778.310876 129.696155 
L 780.233006 134.938614 
L 782.184407 134.938614 
L 786.096965 145.414968 
L 788.097151 145.414968 
L 789.980253 150.649521 
L 791.91214 150.649521 
L 795.795427 161.113093 
L 797.727314 161.113093 
L 801.620359 171.571518 
L 803.542488 171.571518 
L 807.435533 182.027521 
L 809.377177 182.027521 
L 811.289549 187.255451 
L 813.250707 187.255451 
L 815.192351 195.098211 
L 817.104724 195.098211 
L 819.056124 202.943008 
L 822.949169 202.943008 
L 824.90057 210.790996 
L 826.842213 210.790996 
L 828.7741 216.266486 
L 830.705987 216.145536 
L 832.647631 221.388107 
L 834.589275 221.388107 
L 836.49189 226.633308 
L 840.414206 226.633308 
L 842.346093 231.881444 
L 846.22938 231.881444 
L 848.131996 237.132867 
L 852.02504 237.132867 
L 853.966684 242.387931 
L 857.849972 242.387931 
L 859.781858 247.646972 
L 863.674903 247.646972 
L 865.616547 252.910343 
L 869.509591 252.910343 
L 871.451235 258.17838 
L 875.34428 258.17838 
L 877.29568 263.451421 
L 881.130183 263.451421 
L 883.130369 268.729834 
L 886.994142 268.729834 
L 888.935786 274.013973 
L 892.819073 274.013973 
L 894.760717 279.304157 
L 898.634248 279.304157 
L 900.575891 284.600772 
L 902.546806 284.600772 
L 904.48845 284.401483 
L 906.41058 292.34991 
L 908.371737 289.698675 
L 910.293867 295.002956 
L 914.177155 295.002956 
L 916.128556 300.314694 
L 920.002086 300.314694 
L 921.973001 305.634273 
L 923.914645 305.634273 
L 925.81726 310.962032 
L 929.690791 310.962032 
L 931.632435 316.298338 
L 935.466937 316.298338 
L 937.408581 321.643561 
L 939.350225 321.643561 
L 941.282111 326.998052 
L 945.19467 326.998052 
L 947.107043 332.362214 
L 950.980573 332.362214 
L 952.931974 337.736399 
L 956.85429 337.736399 
L 958.815447 343.120992 
L 962.669464 343.120992 
L 964.620865 348.516346 
L 968.504152 348.516346 
L 970.436039 353.922893 
L 974.309569 353.922893 
L 976.251213 359.340955 
L 980.134501 359.340955 
L 982.076144 364.770964 
L 985.959432 364.770964 
L 989.832962 369.913642 
L 989.832962 369.913642 
L 993.71625 375.362077 
L 997.609295 375.362077 
L 999.531424 380.823566 
L 1003.424469 380.823566 
L 1005.356356 386.298575 
L 1007.307756 386.298575 
L 1009.2494 391.787423 
L 1013.113174 391.787423 
L 1015.074331 396.959688 
L 1018.928348 396.959688 
L 1020.850478 402.47078 
L 1022.831149 402.47078 
L 1024.763036 407.996913 
L 1028.656081 407.996913 
L 1030.587967 413.538554 
L 1034.471255 413.538554 
L 1036.383628 419.09612 
L 1040.266915 419.09612 
L 1042.218316 424.669995 
L 1046.091847 424.669995 
L 1048.043247 430.260645 
L 1051.946049 430.260645 
L 1053.887693 435.868534 
L 1057.761223 435.868534 
L 1059.69311 441.110303 
L 1063.576397 441.110303 
L 1065.518041 446.358744 
L 1067.459685 446.358744 
L 1069.401329 452.006596 
L 1073.274859 452.006596 
L 1075.216503 457.673357 
L 1079.099791 457.673357 
L 1081.041434 463.359473 
L 1084.924722 463.359473 
L 1086.866366 469.065411 
L 1092.720568 469.065411 
L 1094.652455 474.791668 
L 1096.55507 474.791668 
L 1098.486957 480.538692 
L 1104.311888 480.538692 
L 1106.243775 486.306949 
L 1108.204933 486.306949 
L 1110.107549 485.870925 
L 1112.078463 491.653439 
L 1115.961751 491.653439 
L 1117.903395 497.458147 
L 1121.776925 497.458147 
L 1123.718569 506.207932 
L 1125.660213 503.285564 
L 1127.601857 503.285564 
L 1129.5435 509.136186 
L 1131.485144 509.136186 
L 1133.38776 508.673108 
L 1135.30989 514.539719 
L 1139.193177 514.539719 
L 1141.125064 520.430513 
L 1145.008351 520.430513 
L 1146.959752 526.34602 
L 1152.833468 526.34602 
L 1154.726327 532.286784 
L 1156.667971 532.286784 
L 1158.599858 538.253384 
L 1164.415032 538.253384 
L 1166.356676 543.739474 
L 1172.181607 543.739474 
L 1174.123251 549.751266 
L 1176.055138 549.751266 
L 1177.996781 555.790529 
L 1179.948182 555.790529 
L 1181.880069 555.271097 
L 1183.821713 555.271097 
L 1185.753599 561.330117 
L 1189.646644 561.330117 
L 1191.588288 567.417715 
L 1195.461818 567.417715 
L 1195.461818 567.417715 
" clip-path="url(#p8b868ff0b7)" style="fill: none; stroke: #1f77b4; stroke-width: 1.5; stroke-linecap: square"/>
   </g>
   <g id="line2d_14">
    <path d="M 221.498182 573.290403 
L 223.55691 574.780221 
L 225.352198 574.780221 
L 227.293842 578.486772 
L 229.235486 578.486772 
L 231.138102 582.204357 
L 233.089502 582.204357 
L 235.05066 585.933039 
L 236.992304 585.933039 
L 238.963219 589.304181 
L 240.875591 589.304181 
L 242.826992 593.052957 
L 244.749122 593.052957 
L 246.690766 594.56056 
L 248.632409 594.56056 
L 250.603324 596.440873 
L 252.525454 596.440873 
L 252.525454 598.324009 
L 256.389228 598.324009 
L 258.340628 600.21 
L 271.912621 600.21 
L 273.864021 598.324009 
L 275.795908 594.56056 
L 277.747309 594.56056 
L 279.630411 592.683084 
L 281.591568 592.683084 
L 283.503941 588.936698 
L 285.474856 588.936698 
L 287.377472 587.06769 
L 289.328872 587.06769 
L 291.299787 581.840322 
L 293.221917 581.840322 
L 295.192832 578.125095 
L 299.037091 578.125095 
L 301.017763 572.931067 
L 302.959407 572.931067 
L 302.959407 567.399962 
L 306.862208 567.399962 
L 308.774581 560.41408 
L 310.735739 560.41408 
L 312.657869 555.284584 
L 314.599512 555.284584 
L 316.550913 548.012493 
L 318.4828 548.012493 
L 320.424444 539.320168 
L 322.366087 539.320168 
L 324.307731 534.265307 
L 326.249375 527.106917 
L 328.191019 527.106917 
L 330.122905 520.316972 
L 332.064549 520.316972 
L 333.996436 513.557994 
L 335.93808 513.557994 
L 337.899238 508.266816 
L 339.840881 508.266816 
L 341.763011 503.316259 
L 343.675384 503.316259 
L 345.597514 498.064226 
L 347.539157 498.064226 
L 349.480801 492.833137 
L 351.461473 492.833137 
L 353.39336 489.357243 
L 355.354517 489.357243 
L 357.296161 484.467898 
L 359.237805 484.467898 
L 361.189206 481.012339 
L 363.121092 481.012339 
L 365.052979 477.869545 
L 366.984866 477.869545 
L 368.965538 474.429445 
L 370.848639 474.429445 
L 372.809797 470.998117 
L 374.712413 470.998117 
L 378.644486 464.161457 
L 380.576372 464.161457 
L 382.508259 461.049309 
L 384.469417 461.049309 
L 384.469417 457.650007 
L 388.33319 457.650007 
L 390.284591 454.259092 
L 392.226235 454.259092 
L 394.19715 450.876484 
L 396.119279 450.876484 
L 398.041409 447.502103 
L 399.99281 447.502103 
L 401.924697 444.418805 
L 403.86634 444.418805 
L 405.78847 441.058408 
L 407.739871 441.058408 
L 409.681515 436.032783 
L 411.613401 436.032783 
L 413.564802 432.9682 
L 415.506446 432.9682 
L 417.44809 427.968635 
L 419.379977 427.968635 
L 421.32162 424.64525 
L 423.253507 424.64525 
L 425.195151 421.598501 
L 427.136795 416.635659 
L 429.058924 416.635659 
L 431.05911 413.336427 
L 432.990997 413.336427 
L 434.90337 408.401345 
L 436.845013 408.401345 
L 438.786657 405.379164 
L 440.747815 405.379164 
L 442.699216 402.103168 
L 444.601831 402.103168 
L 446.553232 397.202485 
L 448.475362 397.202485 
L 450.407249 394.196068 
L 452.339135 394.196068 
L 454.280779 389.31819 
L 456.222423 389.31819 
L 458.144553 386.074813 
L 460.086196 386.074813 
L 462.018083 383.083294 
L 463.969484 383.083294 
L 465.920885 378.237586 
L 467.862529 378.237586 
L 469.794415 375.015298 
L 471.716545 375.015298 
L 473.658189 371.79952 
L 475.648618 367.222989 
L 477.531719 367.222989 
L 479.48312 364.020971 
L 481.415007 364.020971 
L 483.356651 360.825192 
L 485.298294 360.825192 
L 487.239938 357.635586 
L 489.171825 357.635586 
L 491.132983 353.088852 
L 493.064869 353.088852 
L 495.006513 349.912236 
L 496.9384 349.912236 
L 498.899558 346.741554 
L 500.821687 346.741554 
L 502.773088 341.996477 
L 504.704975 341.996477 
L 506.656376 339.057735 
L 508.578506 339.057735 
L 510.529906 334.330923 
L 512.461793 334.330923 
L 514.413194 331.186702 
L 516.354838 331.186702 
L 518.296481 328.048013 
L 520.247882 328.048013 
L 522.189526 323.557792 
L 524.140927 323.557792 
L 528.024214 317.308415 
L 529.965858 317.308415 
L 531.917259 312.635086 
L 533.89793 312.635086 
L 535.829817 309.525937 
L 537.732433 309.525937 
L 539.683834 306.61874 
L 541.61572 306.61874 
L 543.547607 301.96876 
L 545.45998 301.96876 
L 547.401624 298.874863 
L 549.333511 298.874863 
L 551.284911 294.243021 
L 553.246069 294.243021 
L 555.177956 291.161022 
L 557.109843 291.161022 
L 559.100271 286.546692 
L 560.983373 286.546692 
L 562.925017 283.658402 
L 564.915446 283.658402 
L 566.876603 279.057912 
L 568.798733 279.057912 
L 570.769648 275.996425 
L 572.682021 275.996425 
L 574.613907 271.41226 
L 576.545794 268.361421 
L 578.497195 268.361421 
L 580.438839 265.314736 
L 582.399997 265.314736 
L 584.312369 260.752365 
L 586.254013 260.752365 
L 588.1859 257.715783 
L 590.137301 257.715783 
L 592.069187 254.846865 
L 594.010831 254.846865 
L 595.932961 250.302135 
L 597.903876 250.302135 
L 599.835762 247.277035 
L 601.777406 247.277035 
L 603.709293 244.25564 
L 605.650937 244.25564 
L 607.621851 239.730378 
L 609.563495 239.730378 
L 611.475868 235.213103 
L 613.427269 235.213103 
L 615.349398 232.205916 
L 617.281285 232.205916 
L 619.242443 229.202145 
L 621.184087 229.202145 
L 623.115973 224.702687 
L 625.057617 224.702687 
L 626.999261 220.352259 
L 628.931148 217.359505 
L 630.892306 217.359505 
L 632.824192 214.36983 
L 634.756079 214.36983 
L 636.70748 209.891011 
L 638.639367 209.891011 
L 640.620038 206.90881 
L 642.522654 206.90881 
L 644.464298 202.440896 
L 648.328071 202.440896 
L 650.279472 197.979269 
L 652.221116 197.979269 
L 654.16276 195.008229 
L 656.104403 195.008229 
L 658.046047 190.556592 
L 659.987691 190.556592 
L 661.958606 187.592047 
L 663.900249 187.592047 
L 665.802865 183.149872 
L 667.744509 183.149872 
L 669.686153 180.191437 
L 671.627797 180.191437 
L 673.579197 175.758163 
L 675.520841 175.758163 
L 677.462485 172.805469 
L 677.462485 168.380534 
L 681.336015 168.380534 
L 683.277659 165.433228 
L 685.219303 165.433228 
L 687.15119 161.016103 
L 689.092833 161.016103 
L 691.005206 158.175923 
L 692.966364 158.175923 
L 694.888494 153.763224 
L 696.839894 153.763224 
L 698.781538 150.823712 
L 700.723182 150.823712 
L 702.664826 146.417732 
L 704.616226 146.417732 
L 706.55787 143.482519 
L 708.450729 143.482519 
L 710.441158 139.082713 
L 712.373045 139.082713 
L 714.334202 134.686355 
L 716.266089 134.686355 
L 718.197976 131.757268 
L 720.071321 131.757268 
L 722.061749 127.366218 
L 723.993636 127.366218 
L 725.964551 124.440498 
L 727.906195 120.054228 
L 729.828324 120.054228 
L 731.73094 117.131506 
L 733.731126 117.131506 
L 735.604471 114.209892 
L 737.536357 114.209892 
L 739.478001 112.749486 
L 741.419645 112.749486 
L 743.351532 111.28932 
L 745.302932 111.28932 
L 747.234819 109.829411 
L 756.943038 109.829411 
L 758.884682 111.28932 
L 760.826326 111.28932 
L 762.767969 112.749486 
L 764.709613 112.749486 
L 766.6415 114.209892 
L 768.622172 114.209892 
L 770.563815 117.131506 
L 772.495702 117.131506 
L 774.447103 120.054228 
L 776.408261 120.054228 
L 780.233006 128.829559 
L 782.184407 128.829559 
L 784.135808 133.221635 
L 786.096965 133.221635 
L 788.097151 139.082713 
L 789.980253 139.082713 
L 791.91214 144.949917 
L 793.853784 144.949917 
L 795.795427 150.823712 
L 797.727314 150.823712 
L 799.659201 158.175923 
L 801.620359 158.175923 
L 803.542488 165.540049 
L 805.484132 165.540049 
L 807.435533 172.917005 
L 809.377177 172.917005 
L 811.289549 180.307704 
L 813.250707 180.307704 
L 815.192351 187.713061 
L 817.104724 187.713061 
L 819.056124 193.648533 
L 821.007525 193.648533 
L 822.949169 199.594462 
L 824.90057 199.594462 
L 826.842213 207.042284 
L 828.7741 211.519596 
L 830.705987 211.519596 
L 832.647631 217.499763 
L 834.589275 217.499763 
L 836.49189 221.849806 
L 838.472562 221.849806 
L 840.414206 226.347292 
L 842.346093 226.347292 
L 844.287736 230.852139 
L 846.22938 230.852139 
L 848.131996 233.859566 
L 850.07364 233.859566 
L 852.02504 238.377178 
L 853.966684 238.377178 
L 855.888814 241.393313 
L 857.849972 241.393313 
L 859.781858 245.924252 
L 861.723502 245.924252 
L 863.674903 248.94948 
L 865.616547 248.94948 
L 867.567947 251.978445 
L 869.509591 251.978445 
L 871.451235 255.011226 
L 873.402636 255.011226 
L 877.29568 261.088448 
L 879.247081 261.088448 
L 881.130183 264.133049 
L 883.130369 264.133049 
L 885.072012 268.534186 
L 886.994142 268.534186 
L 888.935786 271.587029 
L 890.867673 271.587029 
L 892.819073 274.64409 
L 894.760717 274.64409 
L 896.692604 279.237765 
L 898.634248 279.237765 
L 900.575891 282.305683 
L 902.546806 282.305683 
L 904.48845 286.915907 
L 906.41058 286.915907 
L 908.371737 291.348364 
L 910.293867 291.348364 
L 912.255025 294.432415 
L 914.177155 294.432415 
L 916.128556 297.521181 
L 918.060442 297.521181 
L 920.002086 302.163303 
L 921.973001 302.163303 
L 923.914645 306.816409 
L 925.81726 309.724938 
L 927.768661 309.724938 
L 929.690791 312.836187 
L 931.632435 312.836187 
L 933.564321 317.51266 
L 935.466937 317.51266 
L 937.408581 320.636803 
L 939.350225 320.636803 
L 941.282111 325.123448 
L 943.223755 325.123448 
L 945.19467 328.258833 
L 947.107043 328.258833 
L 949.029172 332.972126 
L 950.980573 332.972126 
L 952.931974 336.121238 
L 954.922403 336.121238 
L 956.85429 339.275995 
L 958.815447 339.275995 
L 960.737577 343.797344 
L 962.669464 343.797344 
L 964.620865 346.964321 
L 966.552751 346.964321 
L 968.504152 350.137152 
L 970.436039 350.137152 
L 972.367926 354.907568 
L 974.309569 354.907568 
L 976.251213 358.095377 
L 978.192857 361.056827 
L 980.134501 361.056827 
L 982.076144 365.856077 
L 984.027545 365.856077 
L 985.959432 369.063419 
L 989.832962 369.063419 
L 989.832962 372.037891 
L 993.71625 372.037891 
L 995.667651 375.255849 
L 997.609295 375.255849 
L 999.531424 378.480319 
L 1001.473068 378.480319 
L 1003.424469 383.083294 
L 1005.356356 383.083294 
L 1007.307756 386.322149 
L 1009.2494 386.322149 
L 1011.181287 391.193067 
L 1013.113174 391.193067 
L 1015.074331 394.448937 
L 1017.015975 394.448937 
L 1018.928348 397.456653 
L 1020.850478 397.456653 
L 1022.831149 402.360655 
L 1024.763036 402.360655 
L 1026.694923 405.63888 
L 1028.656081 405.63888 
L 1030.587967 408.662344 
L 1032.539368 413.600777 
L 1034.471255 413.600777 
L 1036.383628 416.902271 
L 1038.325271 416.902271 
L 1040.266915 420.211222 
L 1042.218316 420.211222 
L 1044.150203 424.916529 
L 1046.091847 424.916529 
L 1048.043247 428.242158 
L 1049.994648 428.242158 
L 1051.946049 431.299732 
L 1053.887693 431.299732 
L 1055.809822 434.638608 
L 1057.761223 434.638608 
L 1059.69311 439.661668 
L 1061.644511 439.661668 
L 1063.576397 443.020365 
L 1065.518041 443.020365 
L 1067.459685 446.387081 
L 1069.401329 446.387081 
L 1071.342972 451.163943 
L 1073.274859 451.163943 
L 1075.216503 454.548845 
L 1077.158147 454.548845 
L 1081.041434 461.343681 
L 1083.012349 461.343681 
L 1084.924722 466.164196 
L 1086.866366 466.164196 
L 1088.788495 469.584827 
L 1090.730139 469.584827 
L 1092.720568 473.014118 
L 1094.652455 473.014118 
L 1096.55507 476.148396 
L 1098.486957 476.148396 
L 1100.448115 479.592907 
L 1102.370245 479.592907 
L 1104.311888 483.046333 
L 1106.243775 483.046333 
L 1108.204933 488.243296 
L 1110.107549 488.243296 
L 1112.078463 491.406135 
L 1114.020107 491.406135 
L 1115.961751 494.888909 
L 1117.903395 494.888909 
L 1119.835281 498.380969 
L 1121.776925 498.380969 
L 1123.718569 501.882345 
L 1125.660213 501.882345 
L 1127.601857 505.071614 
L 1129.5435 510.352015 
L 1131.485144 510.352015 
L 1133.38776 513.884231 
L 1135.30989 513.884231 
L 1137.251533 517.097522 
L 1139.193177 517.097522 
L 1141.125064 520.646769 
L 1143.095979 520.646769 
L 1145.008351 524.20583 
L 1146.959752 524.20583 
L 1148.901396 527.774769 
L 1150.882068 527.774769 
L 1152.833468 531.016815 
L 1154.726327 531.016815 
L 1156.667971 534.603395 
L 1158.599858 534.603395 
L 1160.551258 539.660613 
L 1162.483145 539.660613 
L 1164.415032 541.464142 
L 1166.356676 541.464142 
L 1168.29832 545.078931 
L 1170.230206 545.078931 
L 1172.181607 548.70408 
L 1174.123251 548.70408 
L 1176.055138 551.990852 
L 1177.996781 555.634507 
L 1179.948182 555.634507 
L 1181.880069 560.766344 
L 1183.821713 560.766344 
L 1185.753599 562.598932 
L 1187.695243 562.598932 
L 1189.646644 566.272127 
L 1191.588288 566.272127 
L 1193.529931 569.597916 
L 1195.461818 569.597916 
L 1195.461818 569.597916 
" clip-path="url(#p8b868ff0b7)" style="fill: none; stroke: #ff7f0e; stroke-width: 1.5; stroke-linecap: square"/>
   </g>
   <g id="line2d_15">
    <path d="M 221.498182 587.161794 
L 706.55787 108.81 
L 708.450729 108.81 
L 1193.529931 587.181038 
L 1195.461818 588.874523 
L 1195.461818 588.874523 
" clip-path="url(#p8b868ff0b7)" style="fill: none; stroke: #2ca02c; stroke-width: 1.5; stroke-linecap: square"/>
   </g>
   <g id="patch_3">
    <path d="M 172.8 624.78 
L 172.8 84.24 
" style="fill: none; stroke: #000000; stroke-width: 0.8; stroke-linejoin: miter; stroke-linecap: square"/>
   </g>
   <g id="patch_4">
    <path d="M 1244.16 624.78 
L 1244.16 84.24 
" style="fill: none; stroke: #000000; stroke-width: 0.8; stroke-linejoin: miter; stroke-linecap: square"/>
   </g>
   <g id="patch_5">
    <path d="M 172.8 624.78 
L 1244.16 624.78 
" style="fill: none; stroke: #000000; stroke-width: 0.8; stroke-linejoin: miter; stroke-linecap: square"/>
   </g>
   <g id="patch_6">
    <path d="M 172.8 84.24 
L 1244.16 84.24 
" style="fill: none; stroke: #000000; stroke-width: 0.8; stroke-linejoin: miter; stroke-linecap: square"/>
   </g>
   <g id="text_15">
    <!-- 600mm/s -->
    <g transform="translate(680.191875 78.24) scale(0.12 -0.12)">
     <defs>
      <path id="DejaVuSans-2f" d="M 1625 4666 
L 2156 4666 
L 531 -594 
L 0 -594 
L 1625 4666 
z
" transform="scale(0.015625)"/>
     </defs>
     <use xlink:href="#DejaVuSans-36"/>
     <use xlink:href="#DejaVuSans-30" x="63.623047"/>
     <use xlink:href="#DejaVuSans-30" x="127.246094"/>
     <use xlink:href="#DejaVuSans-6d" x="190.869141"/>
     <use xlink:href="#DejaVuSans-6d" x="288.28125"/>
     <use xlink:href="#DejaVuSans-2f" x="385.693359"/>
     <use xlink:href="#DejaVuSans-73" x="419.384766"/>
    </g>
   </g>
   <g id="legend_1">
    <g id="patch_7">
     <path d="M 1155.2475 136.274375 
L 1237.16 136.274375 
Q 1239.16 136.274375 1239.16 134.274375 
L 1239.16 91.24 
Q 1239.16 89.24 1237.16 89.24 
L 1155.2475 89.24 
Q 1153.2475 89.24 1153.2475 91.24 
L 1153.2475 134.274375 
Q 1153.2475 136.274375 1155.2475 136.274375 
z
" style="fill: #ffffff; opacity: 0.8; stroke: #cccccc; stroke-linejoin: miter"/>
    </g>
    <g id="line2d_16">
     <path d="M 1157.2475 97.338438 
L 1167.2475 97.338438 
L 1177.2475 97.338438 
" style="fill: none; stroke: #1f77b4; stroke-width: 1.5; stroke-linecap: square"/>
    </g>
    <g id="text_16">
     <!-- cam0 -->
     <g transform="translate(1185.2475 100.838438) scale(0.1 -0.1)">
      <defs>
       <path id="DejaVuSans-63" d="M 3122 3366 
L 3122 2828 
Q 2878 2963 2633 3030 
Q 2388 3097 2138 3097 
Q 1578 3097 1268 2742 
Q 959 2388 959 1747 
Q 959 1106 1268 751 
Q 1578 397 2138 397 
Q 2388 397 2633 464 
Q 2878 531 3122 666 
L 3122 134 
Q 2881 22 2623 -34 
Q 2366 -91 2075 -91 
Q 1284 -91 818 406 
Q 353 903 353 1747 
Q 353 2603 823 3093 
Q 1294 3584 2113 3584 
Q 2378 3584 2631 3529 
Q 2884 3475 3122 3366 
z
" transform="scale(0.015625)"/>
       <path id="DejaVuSans-61" d="M 2194 1759 
Q 1497 1759 1228 1600 
Q 959 1441 959 1056 
Q 959 750 1161 570 
Q 1363 391 1709 391 
Q 2188 391 2477 730 
Q 2766 1069 2766 1631 
L 2766 1759 
L 2194 1759 
z
M 3341 1997 
L 3341 0 
L 2766 0 
L 2766 531 
Q 2569 213 2275 61 
Q 1981 -91 1556 -91 
Q 1019 -91 701 211 
Q 384 513 384 1019 
Q 384 1609 779 1909 
Q 1175 2209 1959 2209 
L 2766 2209 
L 2766 2266 
Q 2766 2663 2505 2880 
Q 2244 3097 1772 3097 
Q 1472 3097 1187 3025 
Q 903 2953 641 2809 
L 641 3341 
Q 956 3463 1253 3523 
Q 1550 3584 1831 3584 
Q 2591 3584 2966 3190 
Q 3341 2797 3341 1997 
z
" transform="scale(0.015625)"/>
      </defs>
      <use xlink:href="#DejaVuSans-63"/>
      <use xlink:href="#DejaVuSans-61" x="54.980469"/>
      <use xlink:href="#DejaVuSans-6d" x="116.259766"/>
      <use xlink:href="#DejaVuSans-30" x="213.671875"/>
     </g>
    </g>
    <g id="line2d_17">
     <path d="M 1157.2475 112.016563 
L 1167.2475 112.016563 
L 1177.2475 112.016563 
" style="fill: none; stroke: #ff7f0e; stroke-width: 1.5; stroke-linecap: square"/>
    </g>
    <g id="text_17">
     <!-- cam5 -->
     <g transform="translate(1185.2475 115.516563) scale(0.1 -0.1)">
      <use xlink:href="#DejaVuSans-63"/>
      <use xlink:href="#DejaVuSans-61" x="54.980469"/>
      <use xlink:href="#DejaVuSans-6d" x="116.259766"/>
      <use xlink:href="#DejaVuSans-35" x="213.671875"/>
     </g>
    </g>
    <g id="line2d_18">
     <path d="M 1157.2475 126.694688 
L 1167.2475 126.694688 
L 1177.2475 126.694688 
" style="fill: none; stroke: #2ca02c; stroke-width: 1.5; stroke-linecap: square"/>
    </g>
    <g id="text_18">
     <!-- command -->
     <g transform="translate(1185.2475 130.194688) scale(0.1 -0.1)">
      <defs>
       <path id="DejaVuSans-64" d="M 2906 2969 
L 2906 4863 
L 3481 4863 
L 3481 0 
L 2906 0 
L 2906 525 
Q 2725 213 2448 61 
Q 2172 -91 1784 -91 
Q 1150 -91 751 415 
Q 353 922 353 1747 
Q 353 2572 751 3078 
Q 1150 3584 1784 3584 
Q 2172 3584 2448 3432 
Q 2725 3281 2906 2969 
z
M 947 1747 
Q 947 1113 1208 752 
Q 1469 391 1925 391 
Q 2381 391 2643 752 
Q 2906 1113 2906 1747 
Q 2906 2381 2643 2742 
Q 2381 3103 1925 3103 
Q 1469 3103 1208 2742 
Q 947 2381 947 1747 
z
" transform="scale(0.015625)"/>
      </defs>
      <use xlink:href="#DejaVuSans-63"/>
      <use xlink:href="#DejaVuSans-6f" x="54.980469"/>
      <use xlink:href="#DejaVuSans-6d" x="116.162109"/>
      <use xlink:href="#DejaVuSans-6d" x="213.574219"/>
      <use xlink:href="#DejaVuSans-61" x="310.986328"/>
      <use xlink:href="#DejaVuSans-6e" x="372.265625"/>
      <use xlink:href="#DejaVuSans-64" x="435.644531"/>
     </g>
    </g>
   </g>
  </g>
 </g>
 <defs>
  <clipPath id="p8b868ff0b7">
   <rect x="172.8" y="84.24" width="1071.36" height="540.54"/>
  </clipPath>
 </defs>
</svg>
