<?xml version="1.0" encoding="utf-8" standalone="no"?>
<!DOCTYPE svg PUBLIC "-//W3C//DTD SVG 1.1//EN"
  "http://www.w3.org/Graphics/SVG/1.1/DTD/svg11.dtd">
<svg xmlns:xlink="http://www.w3.org/1999/xlink" width="460.8pt" height="345.6pt" viewBox="0 0 460.8 345.6" xmlns="http://www.w3.org/2000/svg" version="1.1">
 <metadata>
  <rdf:RDF xmlns:dc="http://purl.org/dc/elements/1.1/" xmlns:cc="http://creativecommons.org/ns#" xmlns:rdf="http://www.w3.org/1999/02/22-rdf-syntax-ns#">
   <cc:Work>
    <dc:type rdf:resource="http://purl.org/dc/dcmitype/StillImage"/>
    <dc:date>2023-06-01T14:42:03.081010</dc:date>
    <dc:format>image/svg+xml</dc:format>
    <dc:creator>
     <cc:Agent>
      <dc:title>Matplotlib v3.7.1, https://matplotlib.org/</dc:title>
     </cc:Agent>
    </dc:creator>
   </cc:Work>
  </rdf:RDF>
 </metadata>
 <defs>
  <style type="text/css">*{stroke-linejoin: round; stroke-linecap: butt}</style>
 </defs>
 <g id="figure_1">
  <g id="patch_1">
   <path d="M 0 345.6 
L 460.8 345.6 
L 460.8 0 
L 0 0 
z
" style="fill: #ffffff"/>
  </g>
  <g id="axes_1">
   <g id="patch_2">
    <path d="M 57.6 307.584 
L 414.72 307.584 
L 414.72 41.472 
L 57.6 41.472 
z
" style="fill: #ffffff"/>
   </g>
   <g id="matplotlib.axis_1">
    <g id="xtick_1">
     <g id="line2d_1">
      <defs>
       <path id="ma5d7cfbb73" d="M 0 0 
L 0 3.5 
" style="stroke: #000000; stroke-width: 0.8"/>
      </defs>
      <g>
       <use xlink:href="#ma5d7cfbb73" x="73.832727" y="307.584" style="stroke: #000000; stroke-width: 0.8"/>
      </g>
     </g>
     <g id="text_1">
      <!-- 0.0 -->
      <g transform="translate(65.881165 322.182437) scale(0.1 -0.1)">
       <defs>
        <path id="DejaVuSans-30" d="M 2034 4250 
Q 1547 4250 1301 3770 
Q 1056 3291 1056 2328 
Q 1056 1369 1301 889 
Q 1547 409 2034 409 
Q 2525 409 2770 889 
Q 3016 1369 3016 2328 
Q 3016 3291 2770 3770 
Q 2525 4250 2034 4250 
z
M 2034 4750 
Q 2819 4750 3233 4129 
Q 3647 3509 3647 2328 
Q 3647 1150 3233 529 
Q 2819 -91 2034 -91 
Q 1250 -91 836 529 
Q 422 1150 422 2328 
Q 422 3509 836 4129 
Q 1250 4750 2034 4750 
z
" transform="scale(0.015625)"/>
        <path id="DejaVuSans-2e" d="M 684 794 
L 1344 794 
L 1344 0 
L 684 0 
L 684 794 
z
" transform="scale(0.015625)"/>
       </defs>
       <use xlink:href="#DejaVuSans-30"/>
       <use xlink:href="#DejaVuSans-2e" x="63.623047"/>
       <use xlink:href="#DejaVuSans-30" x="95.410156"/>
      </g>
     </g>
    </g>
    <g id="xtick_2">
     <g id="line2d_2">
      <g>
       <use xlink:href="#ma5d7cfbb73" x="138.879419" y="307.584" style="stroke: #000000; stroke-width: 0.8"/>
      </g>
     </g>
     <g id="text_2">
      <!-- 0.2 -->
      <g transform="translate(130.927857 322.182437) scale(0.1 -0.1)">
       <defs>
        <path id="DejaVuSans-32" d="M 1228 531 
L 3431 531 
L 3431 0 
L 469 0 
L 469 531 
Q 828 903 1448 1529 
Q 2069 2156 2228 2338 
Q 2531 2678 2651 2914 
Q 2772 3150 2772 3378 
Q 2772 3750 2511 3984 
Q 2250 4219 1831 4219 
Q 1534 4219 1204 4116 
Q 875 4013 500 3803 
L 500 4441 
Q 881 4594 1212 4672 
Q 1544 4750 1819 4750 
Q 2544 4750 2975 4387 
Q 3406 4025 3406 3419 
Q 3406 3131 3298 2873 
Q 3191 2616 2906 2266 
Q 2828 2175 2409 1742 
Q 1991 1309 1228 531 
z
" transform="scale(0.015625)"/>
       </defs>
       <use xlink:href="#DejaVuSans-30"/>
       <use xlink:href="#DejaVuSans-2e" x="63.623047"/>
       <use xlink:href="#DejaVuSans-32" x="95.410156"/>
      </g>
     </g>
    </g>
    <g id="xtick_3">
     <g id="line2d_3">
      <g>
       <use xlink:href="#ma5d7cfbb73" x="203.926112" y="307.584" style="stroke: #000000; stroke-width: 0.8"/>
      </g>
     </g>
     <g id="text_3">
      <!-- 0.4 -->
      <g transform="translate(195.974549 322.182437) scale(0.1 -0.1)">
       <defs>
        <path id="DejaVuSans-34" d="M 2419 4116 
L 825 1625 
L 2419 1625 
L 2419 4116 
z
M 2253 4666 
L 3047 4666 
L 3047 1625 
L 3713 1625 
L 3713 1100 
L 3047 1100 
L 3047 0 
L 2419 0 
L 2419 1100 
L 313 1100 
L 313 1709 
L 2253 4666 
z
" transform="scale(0.015625)"/>
       </defs>
       <use xlink:href="#DejaVuSans-30"/>
       <use xlink:href="#DejaVuSans-2e" x="63.623047"/>
       <use xlink:href="#DejaVuSans-34" x="95.410156"/>
      </g>
     </g>
    </g>
    <g id="xtick_4">
     <g id="line2d_4">
      <g>
       <use xlink:href="#ma5d7cfbb73" x="268.972804" y="307.584" style="stroke: #000000; stroke-width: 0.8"/>
      </g>
     </g>
     <g id="text_4">
      <!-- 0.6 -->
      <g transform="translate(261.021241 322.182437) scale(0.1 -0.1)">
       <defs>
        <path id="DejaVuSans-36" d="M 2113 2584 
Q 1688 2584 1439 2293 
Q 1191 2003 1191 1497 
Q 1191 994 1439 701 
Q 1688 409 2113 409 
Q 2538 409 2786 701 
Q 3034 994 3034 1497 
Q 3034 2003 2786 2293 
Q 2538 2584 2113 2584 
z
M 3366 4563 
L 3366 3988 
Q 3128 4100 2886 4159 
Q 2644 4219 2406 4219 
Q 1781 4219 1451 3797 
Q 1122 3375 1075 2522 
Q 1259 2794 1537 2939 
Q 1816 3084 2150 3084 
Q 2853 3084 3261 2657 
Q 3669 2231 3669 1497 
Q 3669 778 3244 343 
Q 2819 -91 2113 -91 
Q 1303 -91 875 529 
Q 447 1150 447 2328 
Q 447 3434 972 4092 
Q 1497 4750 2381 4750 
Q 2619 4750 2861 4703 
Q 3103 4656 3366 4563 
z
" transform="scale(0.015625)"/>
       </defs>
       <use xlink:href="#DejaVuSans-30"/>
       <use xlink:href="#DejaVuSans-2e" x="63.623047"/>
       <use xlink:href="#DejaVuSans-36" x="95.410156"/>
      </g>
     </g>
    </g>
    <g id="xtick_5">
     <g id="line2d_5">
      <g>
       <use xlink:href="#ma5d7cfbb73" x="334.019496" y="307.584" style="stroke: #000000; stroke-width: 0.8"/>
      </g>
     </g>
     <g id="text_5">
      <!-- 0.8 -->
      <g transform="translate(326.067934 322.182437) scale(0.1 -0.1)">
       <defs>
        <path id="DejaVuSans-38" d="M 2034 2216 
Q 1584 2216 1326 1975 
Q 1069 1734 1069 1313 
Q 1069 891 1326 650 
Q 1584 409 2034 409 
Q 2484 409 2743 651 
Q 3003 894 3003 1313 
Q 3003 1734 2745 1975 
Q 2488 2216 2034 2216 
z
M 1403 2484 
Q 997 2584 770 2862 
Q 544 3141 544 3541 
Q 544 4100 942 4425 
Q 1341 4750 2034 4750 
Q 2731 4750 3128 4425 
Q 3525 4100 3525 3541 
Q 3525 3141 3298 2862 
Q 3072 2584 2669 2484 
Q 3125 2378 3379 2068 
Q 3634 1759 3634 1313 
Q 3634 634 3220 271 
Q 2806 -91 2034 -91 
Q 1263 -91 848 271 
Q 434 634 434 1313 
Q 434 1759 690 2068 
Q 947 2378 1403 2484 
z
M 1172 3481 
Q 1172 3119 1398 2916 
Q 1625 2713 2034 2713 
Q 2441 2713 2670 2916 
Q 2900 3119 2900 3481 
Q 2900 3844 2670 4047 
Q 2441 4250 2034 4250 
Q 1625 4250 1398 4047 
Q 1172 3844 1172 3481 
z
" transform="scale(0.015625)"/>
       </defs>
       <use xlink:href="#DejaVuSans-30"/>
       <use xlink:href="#DejaVuSans-2e" x="63.623047"/>
       <use xlink:href="#DejaVuSans-38" x="95.410156"/>
      </g>
     </g>
    </g>
    <g id="xtick_6">
     <g id="line2d_6">
      <g>
       <use xlink:href="#ma5d7cfbb73" x="399.066188" y="307.584" style="stroke: #000000; stroke-width: 0.8"/>
      </g>
     </g>
     <g id="text_6">
      <!-- 1.0 -->
      <g transform="translate(391.114626 322.182437) scale(0.1 -0.1)">
       <defs>
        <path id="DejaVuSans-31" d="M 794 531 
L 1825 531 
L 1825 4091 
L 703 3866 
L 703 4441 
L 1819 4666 
L 2450 4666 
L 2450 531 
L 3481 531 
L 3481 0 
L 794 0 
L 794 531 
z
" transform="scale(0.015625)"/>
       </defs>
       <use xlink:href="#DejaVuSans-31"/>
       <use xlink:href="#DejaVuSans-2e" x="63.623047"/>
       <use xlink:href="#DejaVuSans-30" x="95.410156"/>
      </g>
     </g>
    </g>
    <g id="text_7">
     <!-- time [s] -->
     <g transform="translate(216.768594 335.860562) scale(0.1 -0.1)">
      <defs>
       <path id="DejaVuSans-74" d="M 1172 4494 
L 1172 3500 
L 2356 3500 
L 2356 3053 
L 1172 3053 
L 1172 1153 
Q 1172 725 1289 603 
Q 1406 481 1766 481 
L 2356 481 
L 2356 0 
L 1766 0 
Q 1100 0 847 248 
Q 594 497 594 1153 
L 594 3053 
L 172 3053 
L 172 3500 
L 594 3500 
L 594 4494 
L 1172 4494 
z
" transform="scale(0.015625)"/>
       <path id="DejaVuSans-69" d="M 603 3500 
L 1178 3500 
L 1178 0 
L 603 0 
L 603 3500 
z
M 603 4863 
L 1178 4863 
L 1178 4134 
L 603 4134 
L 603 4863 
z
" transform="scale(0.015625)"/>
       <path id="DejaVuSans-6d" d="M 3328 2828 
Q 3544 3216 3844 3400 
Q 4144 3584 4550 3584 
Q 5097 3584 5394 3201 
Q 5691 2819 5691 2113 
L 5691 0 
L 5113 0 
L 5113 2094 
Q 5113 2597 4934 2840 
Q 4756 3084 4391 3084 
Q 3944 3084 3684 2787 
Q 3425 2491 3425 1978 
L 3425 0 
L 2847 0 
L 2847 2094 
Q 2847 2600 2669 2842 
Q 2491 3084 2119 3084 
Q 1678 3084 1418 2786 
Q 1159 2488 1159 1978 
L 1159 0 
L 581 0 
L 581 3500 
L 1159 3500 
L 1159 2956 
Q 1356 3278 1631 3431 
Q 1906 3584 2284 3584 
Q 2666 3584 2933 3390 
Q 3200 3197 3328 2828 
z
" transform="scale(0.015625)"/>
       <path id="DejaVuSans-65" d="M 3597 1894 
L 3597 1613 
L 953 1613 
Q 991 1019 1311 708 
Q 1631 397 2203 397 
Q 2534 397 2845 478 
Q 3156 559 3463 722 
L 3463 178 
Q 3153 47 2828 -22 
Q 2503 -91 2169 -91 
Q 1331 -91 842 396 
Q 353 884 353 1716 
Q 353 2575 817 3079 
Q 1281 3584 2069 3584 
Q 2775 3584 3186 3129 
Q 3597 2675 3597 1894 
z
M 3022 2063 
Q 3016 2534 2758 2815 
Q 2500 3097 2075 3097 
Q 1594 3097 1305 2825 
Q 1016 2553 972 2059 
L 3022 2063 
z
" transform="scale(0.015625)"/>
       <path id="DejaVuSans-20" transform="scale(0.015625)"/>
       <path id="DejaVuSans-5b" d="M 550 4863 
L 1875 4863 
L 1875 4416 
L 1125 4416 
L 1125 -397 
L 1875 -397 
L 1875 -844 
L 550 -844 
L 550 4863 
z
" transform="scale(0.015625)"/>
       <path id="DejaVuSans-73" d="M 2834 3397 
L 2834 2853 
Q 2591 2978 2328 3040 
Q 2066 3103 1784 3103 
Q 1356 3103 1142 2972 
Q 928 2841 928 2578 
Q 928 2378 1081 2264 
Q 1234 2150 1697 2047 
L 1894 2003 
Q 2506 1872 2764 1633 
Q 3022 1394 3022 966 
Q 3022 478 2636 193 
Q 2250 -91 1575 -91 
Q 1294 -91 989 -36 
Q 684 19 347 128 
L 347 722 
Q 666 556 975 473 
Q 1284 391 1588 391 
Q 1994 391 2212 530 
Q 2431 669 2431 922 
Q 2431 1156 2273 1281 
Q 2116 1406 1581 1522 
L 1381 1569 
Q 847 1681 609 1914 
Q 372 2147 372 2553 
Q 372 3047 722 3315 
Q 1072 3584 1716 3584 
Q 2034 3584 2315 3537 
Q 2597 3491 2834 3397 
z
" transform="scale(0.015625)"/>
       <path id="DejaVuSans-5d" d="M 1947 4863 
L 1947 -844 
L 622 -844 
L 622 -397 
L 1369 -397 
L 1369 4416 
L 622 4416 
L 622 4863 
L 1947 4863 
z
" transform="scale(0.015625)"/>
      </defs>
      <use xlink:href="#DejaVuSans-74"/>
      <use xlink:href="#DejaVuSans-69" x="39.208984"/>
      <use xlink:href="#DejaVuSans-6d" x="66.992188"/>
      <use xlink:href="#DejaVuSans-65" x="164.404297"/>
      <use xlink:href="#DejaVuSans-20" x="225.927734"/>
      <use xlink:href="#DejaVuSans-5b" x="257.714844"/>
      <use xlink:href="#DejaVuSans-73" x="296.728516"/>
      <use xlink:href="#DejaVuSans-5d" x="348.828125"/>
     </g>
    </g>
   </g>
   <g id="matplotlib.axis_2">
    <g id="ytick_1">
     <g id="line2d_7">
      <defs>
       <path id="m04ac0f362a" d="M 0 0 
L -3.5 0 
" style="stroke: #000000; stroke-width: 0.8"/>
      </defs>
      <g>
       <use xlink:href="#m04ac0f362a" x="57.6" y="274.169494" style="stroke: #000000; stroke-width: 0.8"/>
      </g>
     </g>
     <g id="text_8">
      <!-- −250 -->
      <g transform="translate(23.132812 277.968713) scale(0.1 -0.1)">
       <defs>
        <path id="DejaVuSans-2212" d="M 678 2272 
L 4684 2272 
L 4684 1741 
L 678 1741 
L 678 2272 
z
" transform="scale(0.015625)"/>
        <path id="DejaVuSans-35" d="M 691 4666 
L 3169 4666 
L 3169 4134 
L 1269 4134 
L 1269 2991 
Q 1406 3038 1543 3061 
Q 1681 3084 1819 3084 
Q 2600 3084 3056 2656 
Q 3513 2228 3513 1497 
Q 3513 744 3044 326 
Q 2575 -91 1722 -91 
Q 1428 -91 1123 -41 
Q 819 9 494 109 
L 494 744 
Q 775 591 1075 516 
Q 1375 441 1709 441 
Q 2250 441 2565 725 
Q 2881 1009 2881 1497 
Q 2881 1984 2565 2268 
Q 2250 2553 1709 2553 
Q 1456 2553 1204 2497 
Q 953 2441 691 2322 
L 691 4666 
z
" transform="scale(0.015625)"/>
       </defs>
       <use xlink:href="#DejaVuSans-2212"/>
       <use xlink:href="#DejaVuSans-32" x="83.789062"/>
       <use xlink:href="#DejaVuSans-35" x="147.412109"/>
       <use xlink:href="#DejaVuSans-30" x="211.035156"/>
      </g>
     </g>
    </g>
    <g id="ytick_2">
     <g id="line2d_8">
      <g>
       <use xlink:href="#m04ac0f362a" x="57.6" y="234.694318" style="stroke: #000000; stroke-width: 0.8"/>
      </g>
     </g>
     <g id="text_9">
      <!-- −200 -->
      <g transform="translate(23.132812 238.493537) scale(0.1 -0.1)">
       <use xlink:href="#DejaVuSans-2212"/>
       <use xlink:href="#DejaVuSans-32" x="83.789062"/>
       <use xlink:href="#DejaVuSans-30" x="147.412109"/>
       <use xlink:href="#DejaVuSans-30" x="211.035156"/>
      </g>
     </g>
    </g>
    <g id="ytick_3">
     <g id="line2d_9">
      <g>
       <use xlink:href="#m04ac0f362a" x="57.6" y="195.219142" style="stroke: #000000; stroke-width: 0.8"/>
      </g>
     </g>
     <g id="text_10">
      <!-- −150 -->
      <g transform="translate(23.132812 199.018361) scale(0.1 -0.1)">
       <use xlink:href="#DejaVuSans-2212"/>
       <use xlink:href="#DejaVuSans-31" x="83.789062"/>
       <use xlink:href="#DejaVuSans-35" x="147.412109"/>
       <use xlink:href="#DejaVuSans-30" x="211.035156"/>
      </g>
     </g>
    </g>
    <g id="ytick_4">
     <g id="line2d_10">
      <g>
       <use xlink:href="#m04ac0f362a" x="57.6" y="155.743966" style="stroke: #000000; stroke-width: 0.8"/>
      </g>
     </g>
     <g id="text_11">
      <!-- −100 -->
      <g transform="translate(23.132812 159.543185) scale(0.1 -0.1)">
       <use xlink:href="#DejaVuSans-2212"/>
       <use xlink:href="#DejaVuSans-31" x="83.789062"/>
       <use xlink:href="#DejaVuSans-30" x="147.412109"/>
       <use xlink:href="#DejaVuSans-30" x="211.035156"/>
      </g>
     </g>
    </g>
    <g id="ytick_5">
     <g id="line2d_11">
      <g>
       <use xlink:href="#m04ac0f362a" x="57.6" y="116.268791" style="stroke: #000000; stroke-width: 0.8"/>
      </g>
     </g>
     <g id="text_12">
      <!-- −50 -->
      <g transform="translate(29.495313 120.068009) scale(0.1 -0.1)">
       <use xlink:href="#DejaVuSans-2212"/>
       <use xlink:href="#DejaVuSans-35" x="83.789062"/>
       <use xlink:href="#DejaVuSans-30" x="147.412109"/>
      </g>
     </g>
    </g>
    <g id="ytick_6">
     <g id="line2d_12">
      <g>
       <use xlink:href="#m04ac0f362a" x="57.6" y="76.793615" style="stroke: #000000; stroke-width: 0.8"/>
      </g>
     </g>
     <g id="text_13">
      <!-- 0 -->
      <g transform="translate(44.2375 80.592833) scale(0.1 -0.1)">
       <use xlink:href="#DejaVuSans-30"/>
      </g>
     </g>
    </g>
    <g id="text_14">
     <!-- position [mm] -->
     <g transform="translate(17.053125 209.563938) rotate(-90) scale(0.1 -0.1)">
      <defs>
       <path id="DejaVuSans-70" d="M 1159 525 
L 1159 -1331 
L 581 -1331 
L 581 3500 
L 1159 3500 
L 1159 2969 
Q 1341 3281 1617 3432 
Q 1894 3584 2278 3584 
Q 2916 3584 3314 3078 
Q 3713 2572 3713 1747 
Q 3713 922 3314 415 
Q 2916 -91 2278 -91 
Q 1894 -91 1617 61 
Q 1341 213 1159 525 
z
M 3116 1747 
Q 3116 2381 2855 2742 
Q 2594 3103 2138 3103 
Q 1681 3103 1420 2742 
Q 1159 2381 1159 1747 
Q 1159 1113 1420 752 
Q 1681 391 2138 391 
Q 2594 391 2855 752 
Q 3116 1113 3116 1747 
z
" transform="scale(0.015625)"/>
       <path id="DejaVuSans-6f" d="M 1959 3097 
Q 1497 3097 1228 2736 
Q 959 2375 959 1747 
Q 959 1119 1226 758 
Q 1494 397 1959 397 
Q 2419 397 2687 759 
Q 2956 1122 2956 1747 
Q 2956 2369 2687 2733 
Q 2419 3097 1959 3097 
z
M 1959 3584 
Q 2709 3584 3137 3096 
Q 3566 2609 3566 1747 
Q 3566 888 3137 398 
Q 2709 -91 1959 -91 
Q 1206 -91 779 398 
Q 353 888 353 1747 
Q 353 2609 779 3096 
Q 1206 3584 1959 3584 
z
" transform="scale(0.015625)"/>
       <path id="DejaVuSans-6e" d="M 3513 2113 
L 3513 0 
L 2938 0 
L 2938 2094 
Q 2938 2591 2744 2837 
Q 2550 3084 2163 3084 
Q 1697 3084 1428 2787 
Q 1159 2491 1159 1978 
L 1159 0 
L 581 0 
L 581 3500 
L 1159 3500 
L 1159 2956 
Q 1366 3272 1645 3428 
Q 1925 3584 2291 3584 
Q 2894 3584 3203 3211 
Q 3513 2838 3513 2113 
z
" transform="scale(0.015625)"/>
      </defs>
      <use xlink:href="#DejaVuSans-70"/>
      <use xlink:href="#DejaVuSans-6f" x="63.476562"/>
      <use xlink:href="#DejaVuSans-73" x="124.658203"/>
      <use xlink:href="#DejaVuSans-69" x="176.757812"/>
      <use xlink:href="#DejaVuSans-74" x="204.541016"/>
      <use xlink:href="#DejaVuSans-69" x="243.75"/>
      <use xlink:href="#DejaVuSans-6f" x="271.533203"/>
      <use xlink:href="#DejaVuSans-6e" x="332.714844"/>
      <use xlink:href="#DejaVuSans-20" x="396.09375"/>
      <use xlink:href="#DejaVuSans-5b" x="427.880859"/>
      <use xlink:href="#DejaVuSans-6d" x="466.894531"/>
      <use xlink:href="#DejaVuSans-6d" x="564.306641"/>
      <use xlink:href="#DejaVuSans-5d" x="661.71875"/>
     </g>
    </g>
   </g>
   <g id="line2d_13">
    <path d="M 73.832727 279.344106 
L 74.51897 282.355446 
L 76.411829 282.355446 
L 77.046034 285.111176 
L 78.35022 285.111176 
L 78.997435 288.147962 
L 80.291864 288.147962 
L 80.942331 291.200041 
L 81.583041 291.200041 
L 82.230255 290.923288 
L 85.463076 290.923288 
L 86.113543 293.986633 
L 86.757505 292.452975 
L 88.702401 292.452975 
L 89.346363 292.176222 
L 90.63754 292.176222 
L 91.288007 291.200041 
L 91.931969 290.923288 
L 93.210137 290.923288 
L 94.501314 287.875497 
L 95.158285 287.875497 
L 95.792491 286.357329 
L 96.442957 285.381486 
L 97.099929 285.381486 
L 100.339254 277.843844 
L 100.986469 277.843844 
L 100.986469 277.843844 
L 102.287403 273.364232 
L 102.92486 270.395091 
L 103.57858 270.395091 
L 104.21929 267.439443 
L 104.866504 265.966576 
L 105.516971 264.986282 
L 106.160933 263.515973 
L 106.808148 260.584957 
L 111.332145 250.423684 
L 111.97936 247.547151 
L 113.921004 243.253626 
L 114.558461 243.253626 
L 115.199171 240.405089 
L 115.846386 240.836545 
L 118.451506 235.156944 
L 119.09872 235.156944 
L 119.745935 233.74359 
L 120.396402 233.74359 
L 121.684326 230.92451 
L 122.328289 230.92451 
L 122.988513 229.518736 
L 123.616213 229.518736 
L 125.557857 225.316114 
L 126.858791 225.316114 
L 127.502753 223.920043 
L 128.156472 223.920043 
L 128.156472 223.920043 
L 130.094864 219.745843 
L 131.39905 219.745843 
L 132.68047 216.974425 
L 133.330937 217.350924 
L 133.974899 214.395993 
L 134.622113 214.395993 
L 135.262823 213.016249 
L 135.91329 213.016249 
L 136.560505 211.638645 
L 137.204467 211.638645 
L 139.793326 206.1491 
L 140.44054 206.1491 
L 141.731717 203.416447 
L 142.378932 203.416447 
L 143.019641 202.053069 
L 143.68637 201.02962 
L 144.330332 199.498796 
L 144.96779 199.498796 
L 145.615004 198.139461 
L 146.262219 198.139461 
L 147.566405 195.426308 
L 148.20061 195.426308 
L 148.851077 192.720387 
L 149.491787 192.720387 
L 150.13575 191.370068 
L 150.779712 191.370068 
L 152.714851 187.329381 
L 153.362065 187.329381 
L 155.306962 183.303584 
L 155.954176 183.303584 
L 156.598138 181.964847 
L 157.238848 181.964847 
L 157.886063 179.579551 
L 159.17724 179.579551 
L 159.827707 176.906316 
L 160.471669 176.906316 
L 161.766098 174.238963 
L 162.413313 174.238963 
L 163.710994 171.577278 
L 164.354956 171.577278 
L 165.646133 168.921104 
L 166.299853 168.921104 
L 167.591029 166.270227 
L 168.234992 166.270227 
L 169.526169 163.624475 
L 170.176635 163.624475 
L 171.471065 160.983657 
L 172.118279 160.983657 
L 173.415961 158.347599 
L 174.063175 158.347599 
L 175.357604 155.716105 
L 176.008071 155.716105 
L 178.609939 150.466104 
L 179.244144 150.466104 
L 179.894611 149.156183 
L 180.538573 149.156183 
L 181.819993 146.539255 
L 182.467208 146.539255 
L 183.761637 143.926109 
L 184.415356 143.926109 
L 186.994458 138.710381 
L 187.641672 138.710381 
L 188.958868 136.107451 
L 189.599578 136.107451 
L 191.537969 132.208764 
L 192.181931 132.208764 
L 192.832398 129.613176 
L 193.479613 129.613176 
L 194.133332 128.316377 
L 194.77079 128.316377 
L 196.712434 124.429723 
L 197.356396 124.429723 
L 198.64432 121.996007 
L 199.301292 121.918509 
L 200.592469 119.329443 
L 201.236431 119.329443 
L 203.187832 115.449467 
L 204.475756 115.449467 
L 205.116466 112.86498 
L 205.760428 111.573321 
L 206.414148 111.573321 
L 207.705324 108.991068 
L 208.352539 108.991068 
L 210.297435 105.120053 
L 210.941397 105.120053 
L 212.235827 102.540706 
L 212.879789 102.540706 
L 214.821433 98.673252 
L 216.109357 97.384435 
L 216.759824 96.095752 
L 217.407039 96.095752 
L 219.995897 90.941944 
L 220.652869 90.941944 
L 221.300083 89.653616 
L 221.934288 89.653616 
L 224.526399 84.500172 
L 225.173614 84.500172 
L 225.820828 83.211678 
L 225.820828 83.211678 
L 227.112005 81.92309 
L 229.697611 76.767348 
L 230.335069 76.767348 
L 231.629498 74.188363 
L 232.279965 74.188363 
L 233.574394 71.608416 
L 234.221609 71.608416 
L 234.872075 69.01076 
L 236.150243 69.01076 
L 236.813719 66.431318 
L 237.457682 66.431318 
L 238.755363 63.850415 
L 239.399325 63.850415 
L 240.68725 61.26787 
L 241.331212 61.26787 
L 241.988184 58.683533 
L 242.635398 58.683533 
L 243.276108 57.390626 
L 243.910313 57.390626 
L 244.577042 56.097214 
L 246.492667 56.097214 
L 247.139882 54.803265 
L 253.608775 54.803265 
L 254.25599 57.390626 
L 255.547167 57.390626 
L 256.207391 59.975934 
L 257.498567 59.975934 
L 258.149034 63.850415 
L 259.436959 63.850415 
L 260.077669 66.431318 
L 260.728136 66.431318 
L 262.032322 71.588907 
L 262.69905 71.588907 
L 263.326751 74.165918 
L 263.970713 74.165918 
L 265.265142 79.317215 
L 265.909105 79.317215 
L 267.206786 84.465978 
L 267.847496 84.465978 
L 269.145178 89.613549 
L 269.792392 89.613549 
L 270.42985 92.187299 
L 271.083569 92.187299 
L 271.730784 96.04835 
L 272.368241 96.04835 
L 273.018708 99.910404 
L 274.31639 99.910404 
L 274.966857 103.774029 
L 275.614071 103.774029 
L 276.258033 106.469654 
L 276.901996 106.41011 
L 277.54921 108.991068 
L 278.196425 108.991068 
L 278.83063 111.573321 
L 280.138069 111.573321 
L 280.782031 114.157019 
L 282.07646 114.157019 
L 282.710665 116.742335 
L 284.008347 116.742335 
L 284.655561 119.329443 
L 285.949991 119.329443 
L 286.593953 121.918509 
L 287.891634 121.918509 
L 288.538849 124.509707 
L 289.83653 124.509707 
L 290.483745 127.103203 
L 291.781427 127.103203 
L 292.431893 129.699161 
L 293.710061 129.699161 
L 294.37679 132.297765 
L 295.664714 132.297765 
L 296.311929 134.899187 
L 297.606358 134.899187 
L 298.253572 137.503585 
L 299.544749 137.503585 
L 300.191964 140.111149 
L 301.49615 140.013038 
L 302.13686 143.926109 
L 302.790579 142.620886 
L 303.431289 145.232224 
L 304.725718 145.232224 
L 305.376185 147.847234 
L 306.667362 147.847234 
L 307.324334 150.466104 
L 307.971548 150.466104 
L 308.605753 153.089 
L 309.89693 153.089 
L 310.544145 155.716105 
L 311.822312 155.716105 
L 312.469527 158.347599 
L 313.116742 158.347599 
L 313.760704 160.983657 
L 315.06489 160.983657 
L 315.702348 163.624475 
L 316.993524 163.624475 
L 317.643991 166.270227 
L 318.95143 166.270227 
L 319.605149 168.921104 
L 320.889821 168.921104 
L 321.540288 171.577278 
L 322.834717 171.577278 
L 323.47868 174.238963 
L 324.769856 174.238963 
L 325.417071 176.906316 
L 326.7115 176.906316 
L 327.358715 179.579551 
L 328.653144 179.579551 
L 331.23875 184.793638 
L 332.536432 184.793638 
L 333.177141 187.482371 
L 334.474823 187.482371 
L 335.118785 190.17776 
L 335.769252 190.17776 
L 336.416467 192.879962 
L 337.704391 192.879962 
L 338.35811 195.426308 
L 339.642783 195.426308 
L 340.283493 198.139461 
L 340.943716 198.139461 
L 341.587679 200.860019 
L 342.88536 200.860019 
L 343.529322 203.588211 
L 344.823752 203.588211 
L 345.461209 206.324244 
L 346.755638 206.324244 
L 347.406105 209.068305 
L 348.697282 209.068305 
L 349.347749 211.820625 
L 350.648683 211.820625 
L 351.295898 214.581432 
L 352.587074 214.581432 
L 353.231037 217.161995 
L 354.525466 217.161995 
L 355.17268 219.745843 
L 355.819895 219.745843 
L 356.46711 222.526324 
L 357.758286 222.526324 
L 358.405501 225.316114 
L 359.69993 225.316114 
L 360.347145 228.115433 
L 361.641574 228.115433 
L 362.288789 230.92451 
L 364.240189 230.92451 
L 364.884152 233.74359 
L 365.518357 233.74359 
L 366.162319 236.572895 
L 368.103963 236.572895 
L 368.747925 239.412652 
L 369.401644 239.412652 
L 370.03585 239.197994 
L 370.692821 242.04477 
L 371.98725 242.04477 
L 372.634465 244.902473 
L 373.925642 244.902473 
L 374.572856 249.210059 
L 375.220071 247.771355 
L 375.867286 247.771355 
L 376.5145 250.651661 
L 377.161715 250.651661 
L 377.79592 250.423684 
L 378.43663 253.311861 
L 379.731059 253.311861 
L 380.375021 256.211945 
L 381.66945 256.211945 
L 382.319917 259.124194 
L 384.277823 259.124194 
L 384.908776 262.048878 
L 385.55599 262.048878 
L 386.199953 264.986282 
L 388.138344 264.986282 
L 388.785559 267.687126 
L 390.727202 267.687126 
L 391.374417 270.646777 
L 392.018379 270.646777 
L 392.665594 273.619953 
L 393.316061 273.619953 
L 393.960023 273.364232 
L 394.607238 273.364232 
L 395.2512 276.347135 
L 396.548881 276.347135 
L 397.196096 279.344106 
L 398.487273 279.344106 
L 398.487273 279.344106 
" clip-path="url(#p5dd295fe75)" style="fill: none; stroke: #1f77b4; stroke-width: 1.5; stroke-linecap: square"/>
   </g>
   <g id="line2d_14">
    <path d="M 73.832727 282.235275 
L 74.51897 282.968724 
L 75.117399 282.968724 
L 75.764614 284.793488 
L 76.411829 284.793488 
L 77.046034 286.623683 
L 77.696501 286.623683 
L 78.35022 288.459342 
L 78.997435 288.459342 
L 79.654406 290.118981 
L 80.291864 290.118981 
L 80.942331 291.964533 
L 81.583041 291.964533 
L 82.230255 292.706737 
L 82.87747 292.706737 
L 83.534441 293.63243 
L 84.175151 293.63243 
L 84.175151 294.559512 
L 85.463076 294.559512 
L 86.113543 295.488 
L 90.63754 295.488 
L 91.288007 294.559512 
L 91.931969 292.706737 
L 92.582436 292.706737 
L 93.210137 291.782442 
L 93.863856 291.782442 
L 94.501314 289.938067 
L 95.158285 289.938067 
L 95.792491 289.01794 
L 96.442957 289.01794 
L 97.099929 286.444466 
L 97.740639 286.444466 
L 98.397611 284.615431 
L 99.67903 284.615431 
L 100.339254 282.058371 
L 100.986469 282.058371 
L 100.986469 279.335366 
L 102.287403 279.335366 
L 102.92486 275.896162 
L 103.57858 275.896162 
L 104.21929 273.370872 
L 104.866504 273.370872 
L 105.516971 269.790766 
L 106.160933 269.790766 
L 106.808148 265.511467 
L 107.455362 265.511467 
L 108.102577 263.022921 
L 108.749792 259.49879 
L 109.397006 259.49879 
L 110.040968 256.156048 
L 110.688183 256.156048 
L 111.332145 252.828551 
L 111.97936 252.828551 
L 112.633079 250.223663 
L 113.280294 250.223663 
L 113.921004 247.786466 
L 114.558461 247.786466 
L 115.199171 245.20085 
L 115.846386 245.20085 
L 116.4936 242.625544 
L 117.153824 242.625544 
L 117.797787 240.914335 
L 118.451506 240.914335 
L 119.09872 238.507273 
L 119.745935 238.507273 
L 120.396402 236.806075 
L 121.040364 236.806075 
L 121.684326 235.258853 
L 122.328289 235.258853 
L 122.988513 233.565265 
L 123.616213 233.565265 
L 124.269932 231.875996 
L 124.904138 231.875996 
L 126.214829 228.510256 
L 126.858791 228.510256 
L 127.502753 226.978122 
L 128.156472 226.978122 
L 128.156472 225.304619 
L 129.444397 225.304619 
L 130.094864 223.635245 
L 130.742078 223.635245 
L 131.39905 221.969961 
L 132.03976 221.969961 
L 132.68047 220.308727 
L 133.330937 220.308727 
L 133.974899 218.790796 
L 134.622113 218.790796 
L 135.262823 217.136447 
L 135.91329 217.136447 
L 136.560505 214.662293 
L 137.204467 214.662293 
L 137.854934 213.153575 
L 138.502149 213.153575 
L 139.149363 210.692251 
L 139.793326 210.692251 
L 140.44054 209.056123 
L 141.084502 209.056123 
L 141.731717 207.556185 
L 142.378932 205.11294 
L 143.019641 205.11294 
L 143.68637 203.488702 
L 144.330332 203.488702 
L 144.96779 201.059124 
L 145.615004 201.059124 
L 146.262219 199.571281 
L 146.915938 199.571281 
L 147.566405 197.958483 
L 148.20061 197.958483 
L 148.851077 195.545839 
L 149.491787 195.545839 
L 150.13575 194.065757 
L 150.779712 194.065757 
L 151.426926 191.66434 
L 152.074141 191.66434 
L 152.714851 190.0676 
L 153.362065 190.0676 
L 154.006028 188.594853 
L 154.656495 188.594853 
L 155.306962 186.209273 
L 155.954176 186.209273 
L 156.598138 184.622916 
L 157.238848 184.622916 
L 157.886063 183.039764 
L 158.549539 180.786702 
L 159.17724 180.786702 
L 159.827707 179.210324 
L 160.471669 179.210324 
L 161.118884 177.637017 
L 161.766098 177.637017 
L 162.413313 176.06675 
L 163.057275 176.06675 
L 163.710994 173.828358 
L 164.354956 173.828358 
L 165.002171 172.264486 
L 165.646133 172.264486 
L 166.299853 170.703534 
L 166.940562 170.703534 
L 167.591029 168.367496 
L 168.234992 168.367496 
L 168.885459 166.920731 
L 169.526169 166.920731 
L 170.176635 164.593685 
L 170.820598 164.593685 
L 171.471065 163.045761 
L 172.118279 163.045761 
L 172.765494 161.50056 
L 173.415961 161.50056 
L 174.063175 159.28999 
L 174.713642 159.28999 
L 176.008071 156.213374 
L 176.655286 156.213374 
L 177.305753 153.912658 
L 177.965977 153.912658 
L 178.609939 152.382 
L 179.244144 152.382 
L 179.894611 150.950764 
L 180.538573 150.950764 
L 181.182536 148.661544 
L 181.819993 148.661544 
L 182.467208 147.138394 
L 183.11117 147.138394 
L 183.761637 144.858102 
L 184.415356 144.858102 
L 185.059319 143.340811 
L 185.703281 143.340811 
L 186.366757 141.069141 
L 186.994458 141.069141 
L 187.641672 139.647213 
L 188.305149 139.647213 
L 188.958868 137.382357 
L 189.599578 137.382357 
L 190.256549 135.875163 
L 190.894007 135.875163 
L 191.537969 133.618344 
L 192.181931 132.116392 
L 192.832398 132.116392 
L 193.479613 130.616485 
L 194.133332 130.616485 
L 194.77079 128.370395 
L 195.418004 128.370395 
L 196.061967 126.875462 
L 196.712434 126.875462 
L 197.356396 125.463072 
L 198.00361 125.463072 
L 198.64432 123.225667 
L 199.301292 123.225667 
L 199.945254 121.736387 
L 200.592469 121.736387 
L 201.236431 120.24893 
L 201.883646 120.24893 
L 202.540617 118.021109 
L 203.187832 118.021109 
L 203.825289 115.79722 
L 204.475756 115.79722 
L 205.116466 114.316759 
L 205.760428 114.316759 
L 206.414148 112.837979 
L 207.061362 112.837979 
L 207.705324 110.622861 
L 208.352539 110.622861 
L 208.999754 108.481112 
L 209.643716 107.007756 
L 210.297435 107.007756 
L 210.941397 105.535916 
L 211.58536 105.535916 
L 212.235827 103.330959 
L 212.879789 103.330959 
L 213.540013 101.862799 
L 214.174218 101.862799 
L 214.821433 99.66321 
L 216.109357 99.66321 
L 216.759824 97.466717 
L 217.407039 97.466717 
L 218.054253 96.004051 
L 218.701468 96.004051 
L 219.348682 93.812476 
L 219.995897 93.812476 
L 220.652869 92.353008 
L 221.300083 92.353008 
L 221.934288 90.166091 
L 222.581503 90.166091 
L 223.228718 88.709631 
L 223.875932 88.709631 
L 224.526399 86.527096 
L 225.173614 86.527096 
L 225.820828 85.073462 
L 225.820828 82.895032 
L 227.112005 82.895032 
L 227.75922 81.444051 
L 228.406434 81.444051 
L 229.050397 79.269466 
L 229.697611 79.269466 
L 230.335069 77.871224 
L 230.988788 77.871224 
L 231.629498 75.698818 
L 232.279965 75.698818 
L 232.927179 74.251674 
L 233.574394 74.251674 
L 234.221609 72.082576 
L 234.872075 72.082576 
L 235.51929 70.637548 
L 236.150243 70.637548 
L 236.813719 68.47149 
L 237.457682 68.47149 
L 238.111401 66.307129 
L 238.755363 66.307129 
L 239.399325 64.865116 
L 240.023774 64.865116 
L 240.68725 62.703369 
L 241.331212 62.703369 
L 241.988184 61.263014 
L 242.635398 59.10362 
L 243.276108 59.10362 
L 243.910313 57.664742 
L 244.577042 57.664742 
L 245.20149 56.226408 
L 245.845452 56.226408 
L 246.492667 55.507439 
L 247.139882 55.507439 
L 247.783844 54.788588 
L 248.434311 54.788588 
L 249.078273 54.069864 
L 252.314346 54.069864 
L 252.961561 54.788588 
L 253.608775 54.788588 
L 254.25599 55.507439 
L 254.903204 55.507439 
L 255.547167 56.226408 
L 256.207391 56.226408 
L 256.854605 57.664742 
L 257.498567 57.664742 
L 258.149034 59.10362 
L 258.802754 59.10362 
L 260.077669 63.423783 
L 260.728136 63.423783 
L 261.378603 65.586036 
L 262.032322 65.586036 
L 262.69905 68.47149 
L 263.326751 68.47149 
L 263.970713 71.359959 
L 264.617928 71.359959 
L 265.265142 74.251674 
L 265.909105 74.251674 
L 266.553067 77.871224 
L 267.206786 77.871224 
L 267.847496 81.49664 
L 268.494711 81.49664 
L 269.145178 85.128372 
L 269.792392 85.128372 
L 270.42985 88.76687 
L 271.083569 88.76687 
L 271.730784 92.412584 
L 272.368241 92.412584 
L 273.018708 95.334663 
L 273.669175 95.334663 
L 274.31639 98.261889 
L 274.966857 98.261889 
L 275.614071 101.928509 
L 276.258033 104.132724 
L 276.901996 104.132724 
L 277.54921 107.076806 
L 278.196425 107.076806 
L 278.83063 109.218366 
L 279.490854 109.218366 
L 280.138069 111.432513 
L 280.782031 111.432513 
L 281.429245 113.650284 
L 282.07646 113.650284 
L 282.710665 115.130863 
L 283.35788 115.130863 
L 284.008347 117.354918 
L 284.655561 117.354918 
L 285.296271 118.839785 
L 285.949991 118.839785 
L 286.593953 121.070401 
L 287.241167 121.070401 
L 287.891634 122.559744 
L 288.538849 122.559744 
L 289.189316 124.050927 
L 289.83653 124.050927 
L 290.483745 125.543988 
L 291.134212 125.543988 
L 292.431893 128.535851 
L 293.08236 128.535851 
L 293.710061 130.034732 
L 294.37679 130.034732 
L 295.024004 132.201445 
L 295.664714 132.201445 
L 296.311929 133.704384 
L 296.955891 133.704384 
L 297.606358 135.209398 
L 298.253572 135.209398 
L 298.897535 137.4709 
L 299.544749 137.4709 
L 300.191964 138.981259 
L 300.848935 138.981259 
L 301.49615 141.250908 
L 302.13686 141.250908 
L 302.790579 143.433041 
L 303.431289 143.433041 
L 304.085008 144.951343 
L 304.725718 144.951343 
L 305.376185 146.471966 
L 306.020147 146.471966 
L 306.667362 148.757318 
L 307.324334 148.757318 
L 307.971548 151.048078 
L 308.605753 152.479969 
L 309.25622 152.479969 
L 309.89693 154.011662 
L 310.544145 154.011662 
L 311.188107 156.313925 
L 311.822312 156.313925 
L 312.469527 157.851965 
L 313.116742 157.851965 
L 313.760704 160.060774 
L 314.407918 160.060774 
L 315.06489 161.604348 
L 315.702348 161.604348 
L 316.343057 163.924739 
L 316.993524 163.924739 
L 317.643991 165.475071 
L 318.307468 165.475071 
L 318.95143 167.028182 
L 319.605149 167.028182 
L 320.245859 169.254077 
L 320.889821 169.254077 
L 321.540288 170.813204 
L 322.18425 170.813204 
L 322.834717 172.375213 
L 323.47868 172.375213 
L 324.122642 174.723726 
L 324.769856 174.723726 
L 326.064286 177.751053 
L 326.7115 177.751053 
L 327.358715 180.113761 
L 328.009182 180.113761 
L 328.653144 181.69276 
L 329.944321 181.69276 
L 329.944321 183.157116 
L 331.23875 183.157116 
L 331.889217 184.741341 
L 332.536432 184.741341 
L 333.177141 186.328772 
L 333.824356 186.328772 
L 334.474823 188.594853 
L 335.118785 188.594853 
L 335.769252 190.189366 
L 336.416467 190.189366 
L 337.060429 192.587356 
L 337.704391 192.587356 
L 338.35811 194.190246 
L 339.005325 194.190246 
L 339.642783 195.670967 
L 340.283493 195.670967 
L 340.943716 198.085245 
L 341.587679 198.085245 
L 342.231641 199.699141 
L 342.88536 199.699141 
L 343.529322 201.187615 
L 344.179789 203.618844 
L 344.823752 203.618844 
L 345.461209 205.244195 
L 346.108424 205.244195 
L 346.755638 206.873217 
L 347.406105 206.873217 
L 348.050068 209.189676 
L 348.697282 209.189676 
L 349.347749 210.826909 
L 349.998216 210.826909 
L 350.648683 212.332176 
L 351.295898 212.332176 
L 351.936607 213.97593 
L 352.587074 213.97593 
L 353.231037 216.448821 
L 353.881504 216.448821 
L 354.525466 218.102334 
L 355.17268 218.102334 
L 355.819895 219.759794 
L 356.46711 219.759794 
L 357.114324 222.11148 
L 357.758286 222.11148 
L 358.405501 223.777893 
L 359.052716 223.777893 
L 360.347145 227.123043 
L 361.004116 227.123043 
L 361.641574 229.496219 
L 362.288789 229.496219 
L 362.929498 231.180222 
L 363.576713 231.180222 
L 364.240189 232.868489 
L 364.884152 232.868489 
L 365.518357 234.411518 
L 366.162319 234.411518 
L 366.816038 236.107277 
L 367.456748 236.107277 
L 368.103963 237.807426 
L 368.747925 237.807426 
L 369.401644 240.36593 
L 370.03585 240.36593 
L 370.692821 241.923021 
L 371.340036 241.923021 
L 371.98725 243.637617 
L 372.634465 243.637617 
L 373.278427 245.356784 
L 373.925642 245.356784 
L 374.572856 247.080539 
L 375.220071 247.080539 
L 375.867286 248.650641 
L 376.5145 251.250223 
L 377.161715 251.250223 
L 377.79592 252.98916 
L 378.43663 252.98916 
L 379.083844 254.571088 
L 379.731059 254.571088 
L 380.375021 256.318409 
L 381.031993 256.318409 
L 381.66945 258.070562 
L 382.319917 258.070562 
L 382.967132 259.827579 
L 383.627356 259.827579 
L 384.277823 261.423663 
L 384.908776 261.423663 
L 385.55599 263.189364 
L 386.199953 263.189364 
L 386.850419 265.679071 
L 387.494382 265.679071 
L 388.138344 266.566962 
L 388.785559 266.566962 
L 389.432773 268.346551 
L 390.076735 268.346551 
L 390.727202 270.131239 
L 391.374417 270.131239 
L 392.665594 273.543142 
L 393.316061 273.543142 
L 393.960023 276.069585 
L 394.607238 276.069585 
L 395.2512 276.971782 
L 395.898414 276.971782 
L 396.548881 278.780124 
L 397.196096 278.780124 
L 397.84331 280.417436 
L 398.487273 280.417436 
L 398.487273 280.417436 
" clip-path="url(#p5dd295fe75)" style="fill: none; stroke: #ff7f0e; stroke-width: 1.5; stroke-linecap: square"/>
   </g>
   <g id="line2d_15">
    <path d="M 73.832727 289.064268 
L 235.51929 53.568 
L 236.150243 53.568 
L 398.487273 289.907458 
L 398.487273 289.907458 
" clip-path="url(#p5dd295fe75)" style="fill: none; stroke: #2ca02c; stroke-width: 1.5; stroke-linecap: square"/>
   </g>
   <g id="patch_3">
    <path d="M 57.6 307.584 
L 57.6 41.472 
" style="fill: none; stroke: #000000; stroke-width: 0.8; stroke-linejoin: miter; stroke-linecap: square"/>
   </g>
   <g id="patch_4">
    <path d="M 414.72 307.584 
L 414.72 41.472 
" style="fill: none; stroke: #000000; stroke-width: 0.8; stroke-linejoin: miter; stroke-linecap: square"/>
   </g>
   <g id="patch_5">
    <path d="M 57.6 307.584 
L 414.72 307.584 
" style="fill: none; stroke: #000000; stroke-width: 0.8; stroke-linejoin: miter; stroke-linecap: square"/>
   </g>
   <g id="patch_6">
    <path d="M 57.6 41.472 
L 414.72 41.472 
" style="fill: none; stroke: #000000; stroke-width: 0.8; stroke-linejoin: miter; stroke-linecap: square"/>
   </g>
   <g id="text_15">
    <!-- 600mm/s -->
    <g transform="translate(207.871875 35.472) scale(0.12 -0.12)">
     <defs>
      <path id="DejaVuSans-2f" d="M 1625 4666 
L 2156 4666 
L 531 -594 
L 0 -594 
L 1625 4666 
z
" transform="scale(0.015625)"/>
     </defs>
     <use xlink:href="#DejaVuSans-36"/>
     <use xlink:href="#DejaVuSans-30" x="63.623047"/>
     <use xlink:href="#DejaVuSans-30" x="127.246094"/>
     <use xlink:href="#DejaVuSans-6d" x="190.869141"/>
     <use xlink:href="#DejaVuSans-6d" x="288.28125"/>
     <use xlink:href="#DejaVuSans-2f" x="385.693359"/>
     <use xlink:href="#DejaVuSans-73" x="419.384766"/>
    </g>
   </g>
   <g id="legend_1">
    <g id="patch_7">
     <path d="M 325.8075 93.506375 
L 407.72 93.506375 
Q 409.72 93.506375 409.72 91.506375 
L 409.72 48.472 
Q 409.72 46.472 407.72 46.472 
L 325.8075 46.472 
Q 323.8075 46.472 323.8075 48.472 
L 323.8075 91.506375 
Q 323.8075 93.506375 325.8075 93.506375 
z
" style="fill: #ffffff; opacity: 0.8; stroke: #cccccc; stroke-linejoin: miter"/>
    </g>
    <g id="line2d_16">
     <path d="M 327.8075 54.570438 
L 337.8075 54.570438 
L 347.8075 54.570438 
" style="fill: none; stroke: #1f77b4; stroke-width: 1.5; stroke-linecap: square"/>
    </g>
    <g id="text_16">
     <!-- cam0 -->
     <g transform="translate(355.8075 58.070438) scale(0.1 -0.1)">
      <defs>
       <path id="DejaVuSans-63" d="M 3122 3366 
L 3122 2828 
Q 2878 2963 2633 3030 
Q 2388 3097 2138 3097 
Q 1578 3097 1268 2742 
Q 959 2388 959 1747 
Q 959 1106 1268 751 
Q 1578 397 2138 397 
Q 2388 397 2633 464 
Q 2878 531 3122 666 
L 3122 134 
Q 2881 22 2623 -34 
Q 2366 -91 2075 -91 
Q 1284 -91 818 406 
Q 353 903 353 1747 
Q 353 2603 823 3093 
Q 1294 3584 2113 3584 
Q 2378 3584 2631 3529 
Q 2884 3475 3122 3366 
z
" transform="scale(0.015625)"/>
       <path id="DejaVuSans-61" d="M 2194 1759 
Q 1497 1759 1228 1600 
Q 959 1441 959 1056 
Q 959 750 1161 570 
Q 1363 391 1709 391 
Q 2188 391 2477 730 
Q 2766 1069 2766 1631 
L 2766 1759 
L 2194 1759 
z
M 3341 1997 
L 3341 0 
L 2766 0 
L 2766 531 
Q 2569 213 2275 61 
Q 1981 -91 1556 -91 
Q 1019 -91 701 211 
Q 384 513 384 1019 
Q 384 1609 779 1909 
Q 1175 2209 1959 2209 
L 2766 2209 
L 2766 2266 
Q 2766 2663 2505 2880 
Q 2244 3097 1772 3097 
Q 1472 3097 1187 3025 
Q 903 2953 641 2809 
L 641 3341 
Q 956 3463 1253 3523 
Q 1550 3584 1831 3584 
Q 2591 3584 2966 3190 
Q 3341 2797 3341 1997 
z
" transform="scale(0.015625)"/>
      </defs>
      <use xlink:href="#DejaVuSans-63"/>
      <use xlink:href="#DejaVuSans-61" x="54.980469"/>
      <use xlink:href="#DejaVuSans-6d" x="116.259766"/>
      <use xlink:href="#DejaVuSans-30" x="213.671875"/>
     </g>
    </g>
    <g id="line2d_17">
     <path d="M 327.8075 69.248563 
L 337.8075 69.248563 
L 347.8075 69.248563 
" style="fill: none; stroke: #ff7f0e; stroke-width: 1.5; stroke-linecap: square"/>
    </g>
    <g id="text_17">
     <!-- cam5 -->
     <g transform="translate(355.8075 72.748563) scale(0.1 -0.1)">
      <use xlink:href="#DejaVuSans-63"/>
      <use xlink:href="#DejaVuSans-61" x="54.980469"/>
      <use xlink:href="#DejaVuSans-6d" x="116.259766"/>
      <use xlink:href="#DejaVuSans-35" x="213.671875"/>
     </g>
    </g>
    <g id="line2d_18">
     <path d="M 327.8075 83.926688 
L 337.8075 83.926688 
L 347.8075 83.926688 
" style="fill: none; stroke: #2ca02c; stroke-width: 1.5; stroke-linecap: square"/>
    </g>
    <g id="text_18">
     <!-- command -->
     <g transform="translate(355.8075 87.426688) scale(0.1 -0.1)">
      <defs>
       <path id="DejaVuSans-64" d="M 2906 2969 
L 2906 4863 
L 3481 4863 
L 3481 0 
L 2906 0 
L 2906 525 
Q 2725 213 2448 61 
Q 2172 -91 1784 -91 
Q 1150 -91 751 415 
Q 353 922 353 1747 
Q 353 2572 751 3078 
Q 1150 3584 1784 3584 
Q 2172 3584 2448 3432 
Q 2725 3281 2906 2969 
z
M 947 1747 
Q 947 1113 1208 752 
Q 1469 391 1925 391 
Q 2381 391 2643 752 
Q 2906 1113 2906 1747 
Q 2906 2381 2643 2742 
Q 2381 3103 1925 3103 
Q 1469 3103 1208 2742 
Q 947 2381 947 1747 
z
" transform="scale(0.015625)"/>
      </defs>
      <use xlink:href="#DejaVuSans-63"/>
      <use xlink:href="#DejaVuSans-6f" x="54.980469"/>
      <use xlink:href="#DejaVuSans-6d" x="116.162109"/>
      <use xlink:href="#DejaVuSans-6d" x="213.574219"/>
      <use xlink:href="#DejaVuSans-61" x="310.986328"/>
      <use xlink:href="#DejaVuSans-6e" x="372.265625"/>
      <use xlink:href="#DejaVuSans-64" x="435.644531"/>
     </g>
    </g>
   </g>
  </g>
 </g>
 <defs>
  <clipPath id="p5dd295fe75">
   <rect x="57.6" y="41.472" width="357.12" height="266.112"/>
  </clipPath>
 </defs>
</svg>
