<?xml version="1.0" encoding="utf-8" standalone="no"?>
<!DOCTYPE svg PUBLIC "-//W3C//DTD SVG 1.1//EN"
  "http://www.w3.org/Graphics/SVG/1.1/DTD/svg11.dtd">
<svg xmlns:xlink="http://www.w3.org/1999/xlink" width="1382.4pt" height="702pt" viewBox="0 0 1382.4 702" xmlns="http://www.w3.org/2000/svg" version="1.1">
 <metadata>
  <rdf:RDF xmlns:dc="http://purl.org/dc/elements/1.1/" xmlns:cc="http://creativecommons.org/ns#" xmlns:rdf="http://www.w3.org/1999/02/22-rdf-syntax-ns#">
   <cc:Work>
    <dc:type rdf:resource="http://purl.org/dc/dcmitype/StillImage"/>
    <dc:date>2023-06-01T14:33:44.551014</dc:date>
    <dc:format>image/svg+xml</dc:format>
    <dc:creator>
     <cc:Agent>
      <dc:title>Matplotlib v3.7.1, https://matplotlib.org/</dc:title>
     </cc:Agent>
    </dc:creator>
   </cc:Work>
  </rdf:RDF>
 </metadata>
 <defs>
  <style type="text/css">*{stroke-linejoin: round; stroke-linecap: butt}</style>
 </defs>
 <g id="figure_1">
  <g id="patch_1">
   <path d="M 0 702 
L 1382.4 702 
L 1382.4 0 
L 0 0 
z
" style="fill: #ffffff"/>
  </g>
  <g id="axes_1">
   <g id="patch_2">
    <path d="M 172.8 624.78 
L 1244.16 624.78 
L 1244.16 84.24 
L 172.8 84.24 
z
" style="fill: #ffffff"/>
   </g>
   <g id="matplotlib.axis_1">
    <g id="xtick_1">
     <g id="line2d_1">
      <defs>
       <path id="m88b9104834" d="M 0 0 
L 0 3.5 
" style="stroke: #000000; stroke-width: 0.8"/>
      </defs>
      <g>
       <use xlink:href="#m88b9104834" x="221.498182" y="624.78" style="stroke: #000000; stroke-width: 0.8"/>
      </g>
     </g>
     <g id="text_1">
      <!-- 0.0 -->
      <g transform="translate(213.546619 639.378438) scale(0.1 -0.1)">
       <defs>
        <path id="DejaVuSans-30" d="M 2034 4250 
Q 1547 4250 1301 3770 
Q 1056 3291 1056 2328 
Q 1056 1369 1301 889 
Q 1547 409 2034 409 
Q 2525 409 2770 889 
Q 3016 1369 3016 2328 
Q 3016 3291 2770 3770 
Q 2525 4250 2034 4250 
z
M 2034 4750 
Q 2819 4750 3233 4129 
Q 3647 3509 3647 2328 
Q 3647 1150 3233 529 
Q 2819 -91 2034 -91 
Q 1250 -91 836 529 
Q 422 1150 422 2328 
Q 422 3509 836 4129 
Q 1250 4750 2034 4750 
z
" transform="scale(0.015625)"/>
        <path id="DejaVuSans-2e" d="M 684 794 
L 1344 794 
L 1344 0 
L 684 0 
L 684 794 
z
" transform="scale(0.015625)"/>
       </defs>
       <use xlink:href="#DejaVuSans-30"/>
       <use xlink:href="#DejaVuSans-2e" x="63.623047"/>
       <use xlink:href="#DejaVuSans-30" x="95.410156"/>
      </g>
     </g>
    </g>
    <g id="xtick_2">
     <g id="line2d_2">
      <g>
       <use xlink:href="#m88b9104834" x="351.745532" y="624.78" style="stroke: #000000; stroke-width: 0.8"/>
      </g>
     </g>
     <g id="text_2">
      <!-- 0.1 -->
      <g transform="translate(343.79397 639.378438) scale(0.1 -0.1)">
       <defs>
        <path id="DejaVuSans-31" d="M 794 531 
L 1825 531 
L 1825 4091 
L 703 3866 
L 703 4441 
L 1819 4666 
L 2450 4666 
L 2450 531 
L 3481 531 
L 3481 0 
L 794 0 
L 794 531 
z
" transform="scale(0.015625)"/>
       </defs>
       <use xlink:href="#DejaVuSans-30"/>
       <use xlink:href="#DejaVuSans-2e" x="63.623047"/>
       <use xlink:href="#DejaVuSans-31" x="95.410156"/>
      </g>
     </g>
    </g>
    <g id="xtick_3">
     <g id="line2d_3">
      <g>
       <use xlink:href="#m88b9104834" x="481.992882" y="624.78" style="stroke: #000000; stroke-width: 0.8"/>
      </g>
     </g>
     <g id="text_3">
      <!-- 0.2 -->
      <g transform="translate(474.04132 639.378438) scale(0.1 -0.1)">
       <defs>
        <path id="DejaVuSans-32" d="M 1228 531 
L 3431 531 
L 3431 0 
L 469 0 
L 469 531 
Q 828 903 1448 1529 
Q 2069 2156 2228 2338 
Q 2531 2678 2651 2914 
Q 2772 3150 2772 3378 
Q 2772 3750 2511 3984 
Q 2250 4219 1831 4219 
Q 1534 4219 1204 4116 
Q 875 4013 500 3803 
L 500 4441 
Q 881 4594 1212 4672 
Q 1544 4750 1819 4750 
Q 2544 4750 2975 4387 
Q 3406 4025 3406 3419 
Q 3406 3131 3298 2873 
Q 3191 2616 2906 2266 
Q 2828 2175 2409 1742 
Q 1991 1309 1228 531 
z
" transform="scale(0.015625)"/>
       </defs>
       <use xlink:href="#DejaVuSans-30"/>
       <use xlink:href="#DejaVuSans-2e" x="63.623047"/>
       <use xlink:href="#DejaVuSans-32" x="95.410156"/>
      </g>
     </g>
    </g>
    <g id="xtick_4">
     <g id="line2d_4">
      <g>
       <use xlink:href="#m88b9104834" x="612.240233" y="624.78" style="stroke: #000000; stroke-width: 0.8"/>
      </g>
     </g>
     <g id="text_4">
      <!-- 0.3 -->
      <g transform="translate(604.28867 639.378438) scale(0.1 -0.1)">
       <defs>
        <path id="DejaVuSans-33" d="M 2597 2516 
Q 3050 2419 3304 2112 
Q 3559 1806 3559 1356 
Q 3559 666 3084 287 
Q 2609 -91 1734 -91 
Q 1441 -91 1130 -33 
Q 819 25 488 141 
L 488 750 
Q 750 597 1062 519 
Q 1375 441 1716 441 
Q 2309 441 2620 675 
Q 2931 909 2931 1356 
Q 2931 1769 2642 2001 
Q 2353 2234 1838 2234 
L 1294 2234 
L 1294 2753 
L 1863 2753 
Q 2328 2753 2575 2939 
Q 2822 3125 2822 3475 
Q 2822 3834 2567 4026 
Q 2313 4219 1838 4219 
Q 1578 4219 1281 4162 
Q 984 4106 628 3988 
L 628 4550 
Q 988 4650 1302 4700 
Q 1616 4750 1894 4750 
Q 2613 4750 3031 4423 
Q 3450 4097 3450 3541 
Q 3450 3153 3228 2886 
Q 3006 2619 2597 2516 
z
" transform="scale(0.015625)"/>
       </defs>
       <use xlink:href="#DejaVuSans-30"/>
       <use xlink:href="#DejaVuSans-2e" x="63.623047"/>
       <use xlink:href="#DejaVuSans-33" x="95.410156"/>
      </g>
     </g>
    </g>
    <g id="xtick_5">
     <g id="line2d_5">
      <g>
       <use xlink:href="#m88b9104834" x="742.487583" y="624.78" style="stroke: #000000; stroke-width: 0.8"/>
      </g>
     </g>
     <g id="text_5">
      <!-- 0.4 -->
      <g transform="translate(734.536021 639.378438) scale(0.1 -0.1)">
       <defs>
        <path id="DejaVuSans-34" d="M 2419 4116 
L 825 1625 
L 2419 1625 
L 2419 4116 
z
M 2253 4666 
L 3047 4666 
L 3047 1625 
L 3713 1625 
L 3713 1100 
L 3047 1100 
L 3047 0 
L 2419 0 
L 2419 1100 
L 313 1100 
L 313 1709 
L 2253 4666 
z
" transform="scale(0.015625)"/>
       </defs>
       <use xlink:href="#DejaVuSans-30"/>
       <use xlink:href="#DejaVuSans-2e" x="63.623047"/>
       <use xlink:href="#DejaVuSans-34" x="95.410156"/>
      </g>
     </g>
    </g>
    <g id="xtick_6">
     <g id="line2d_6">
      <g>
       <use xlink:href="#m88b9104834" x="872.734934" y="624.78" style="stroke: #000000; stroke-width: 0.8"/>
      </g>
     </g>
     <g id="text_6">
      <!-- 0.5 -->
      <g transform="translate(864.783371 639.378438) scale(0.1 -0.1)">
       <defs>
        <path id="DejaVuSans-35" d="M 691 4666 
L 3169 4666 
L 3169 4134 
L 1269 4134 
L 1269 2991 
Q 1406 3038 1543 3061 
Q 1681 3084 1819 3084 
Q 2600 3084 3056 2656 
Q 3513 2228 3513 1497 
Q 3513 744 3044 326 
Q 2575 -91 1722 -91 
Q 1428 -91 1123 -41 
Q 819 9 494 109 
L 494 744 
Q 775 591 1075 516 
Q 1375 441 1709 441 
Q 2250 441 2565 725 
Q 2881 1009 2881 1497 
Q 2881 1984 2565 2268 
Q 2250 2553 1709 2553 
Q 1456 2553 1204 2497 
Q 953 2441 691 2322 
L 691 4666 
z
" transform="scale(0.015625)"/>
       </defs>
       <use xlink:href="#DejaVuSans-30"/>
       <use xlink:href="#DejaVuSans-2e" x="63.623047"/>
       <use xlink:href="#DejaVuSans-35" x="95.410156"/>
      </g>
     </g>
    </g>
    <g id="xtick_7">
     <g id="line2d_7">
      <g>
       <use xlink:href="#m88b9104834" x="1002.982284" y="624.78" style="stroke: #000000; stroke-width: 0.8"/>
      </g>
     </g>
     <g id="text_7">
      <!-- 0.6 -->
      <g transform="translate(995.030721 639.378438) scale(0.1 -0.1)">
       <defs>
        <path id="DejaVuSans-36" d="M 2113 2584 
Q 1688 2584 1439 2293 
Q 1191 2003 1191 1497 
Q 1191 994 1439 701 
Q 1688 409 2113 409 
Q 2538 409 2786 701 
Q 3034 994 3034 1497 
Q 3034 2003 2786 2293 
Q 2538 2584 2113 2584 
z
M 3366 4563 
L 3366 3988 
Q 3128 4100 2886 4159 
Q 2644 4219 2406 4219 
Q 1781 4219 1451 3797 
Q 1122 3375 1075 2522 
Q 1259 2794 1537 2939 
Q 1816 3084 2150 3084 
Q 2853 3084 3261 2657 
Q 3669 2231 3669 1497 
Q 3669 778 3244 343 
Q 2819 -91 2113 -91 
Q 1303 -91 875 529 
Q 447 1150 447 2328 
Q 447 3434 972 4092 
Q 1497 4750 2381 4750 
Q 2619 4750 2861 4703 
Q 3103 4656 3366 4563 
z
" transform="scale(0.015625)"/>
       </defs>
       <use xlink:href="#DejaVuSans-30"/>
       <use xlink:href="#DejaVuSans-2e" x="63.623047"/>
       <use xlink:href="#DejaVuSans-36" x="95.410156"/>
      </g>
     </g>
    </g>
    <g id="xtick_8">
     <g id="line2d_8">
      <g>
       <use xlink:href="#m88b9104834" x="1133.229634" y="624.78" style="stroke: #000000; stroke-width: 0.8"/>
      </g>
     </g>
     <g id="text_8">
      <!-- 0.7 -->
      <g transform="translate(1125.278072 639.378438) scale(0.1 -0.1)">
       <defs>
        <path id="DejaVuSans-37" d="M 525 4666 
L 3525 4666 
L 3525 4397 
L 1831 0 
L 1172 0 
L 2766 4134 
L 525 4134 
L 525 4666 
z
" transform="scale(0.015625)"/>
       </defs>
       <use xlink:href="#DejaVuSans-30"/>
       <use xlink:href="#DejaVuSans-2e" x="63.623047"/>
       <use xlink:href="#DejaVuSans-37" x="95.410156"/>
      </g>
     </g>
    </g>
    <g id="text_9">
     <!-- time [s] -->
     <g transform="translate(689.088594 653.056563) scale(0.1 -0.1)">
      <defs>
       <path id="DejaVuSans-74" d="M 1172 4494 
L 1172 3500 
L 2356 3500 
L 2356 3053 
L 1172 3053 
L 1172 1153 
Q 1172 725 1289 603 
Q 1406 481 1766 481 
L 2356 481 
L 2356 0 
L 1766 0 
Q 1100 0 847 248 
Q 594 497 594 1153 
L 594 3053 
L 172 3053 
L 172 3500 
L 594 3500 
L 594 4494 
L 1172 4494 
z
" transform="scale(0.015625)"/>
       <path id="DejaVuSans-69" d="M 603 3500 
L 1178 3500 
L 1178 0 
L 603 0 
L 603 3500 
z
M 603 4863 
L 1178 4863 
L 1178 4134 
L 603 4134 
L 603 4863 
z
" transform="scale(0.015625)"/>
       <path id="DejaVuSans-6d" d="M 3328 2828 
Q 3544 3216 3844 3400 
Q 4144 3584 4550 3584 
Q 5097 3584 5394 3201 
Q 5691 2819 5691 2113 
L 5691 0 
L 5113 0 
L 5113 2094 
Q 5113 2597 4934 2840 
Q 4756 3084 4391 3084 
Q 3944 3084 3684 2787 
Q 3425 2491 3425 1978 
L 3425 0 
L 2847 0 
L 2847 2094 
Q 2847 2600 2669 2842 
Q 2491 3084 2119 3084 
Q 1678 3084 1418 2786 
Q 1159 2488 1159 1978 
L 1159 0 
L 581 0 
L 581 3500 
L 1159 3500 
L 1159 2956 
Q 1356 3278 1631 3431 
Q 1906 3584 2284 3584 
Q 2666 3584 2933 3390 
Q 3200 3197 3328 2828 
z
" transform="scale(0.015625)"/>
       <path id="DejaVuSans-65" d="M 3597 1894 
L 3597 1613 
L 953 1613 
Q 991 1019 1311 708 
Q 1631 397 2203 397 
Q 2534 397 2845 478 
Q 3156 559 3463 722 
L 3463 178 
Q 3153 47 2828 -22 
Q 2503 -91 2169 -91 
Q 1331 -91 842 396 
Q 353 884 353 1716 
Q 353 2575 817 3079 
Q 1281 3584 2069 3584 
Q 2775 3584 3186 3129 
Q 3597 2675 3597 1894 
z
M 3022 2063 
Q 3016 2534 2758 2815 
Q 2500 3097 2075 3097 
Q 1594 3097 1305 2825 
Q 1016 2553 972 2059 
L 3022 2063 
z
" transform="scale(0.015625)"/>
       <path id="DejaVuSans-20" transform="scale(0.015625)"/>
       <path id="DejaVuSans-5b" d="M 550 4863 
L 1875 4863 
L 1875 4416 
L 1125 4416 
L 1125 -397 
L 1875 -397 
L 1875 -844 
L 550 -844 
L 550 4863 
z
" transform="scale(0.015625)"/>
       <path id="DejaVuSans-73" d="M 2834 3397 
L 2834 2853 
Q 2591 2978 2328 3040 
Q 2066 3103 1784 3103 
Q 1356 3103 1142 2972 
Q 928 2841 928 2578 
Q 928 2378 1081 2264 
Q 1234 2150 1697 2047 
L 1894 2003 
Q 2506 1872 2764 1633 
Q 3022 1394 3022 966 
Q 3022 478 2636 193 
Q 2250 -91 1575 -91 
Q 1294 -91 989 -36 
Q 684 19 347 128 
L 347 722 
Q 666 556 975 473 
Q 1284 391 1588 391 
Q 1994 391 2212 530 
Q 2431 669 2431 922 
Q 2431 1156 2273 1281 
Q 2116 1406 1581 1522 
L 1381 1569 
Q 847 1681 609 1914 
Q 372 2147 372 2553 
Q 372 3047 722 3315 
Q 1072 3584 1716 3584 
Q 2034 3584 2315 3537 
Q 2597 3491 2834 3397 
z
" transform="scale(0.015625)"/>
       <path id="DejaVuSans-5d" d="M 1947 4863 
L 1947 -844 
L 622 -844 
L 622 -397 
L 1369 -397 
L 1369 4416 
L 622 4416 
L 622 4863 
L 1947 4863 
z
" transform="scale(0.015625)"/>
      </defs>
      <use xlink:href="#DejaVuSans-74"/>
      <use xlink:href="#DejaVuSans-69" x="39.208984"/>
      <use xlink:href="#DejaVuSans-6d" x="66.992188"/>
      <use xlink:href="#DejaVuSans-65" x="164.404297"/>
      <use xlink:href="#DejaVuSans-20" x="225.927734"/>
      <use xlink:href="#DejaVuSans-5b" x="257.714844"/>
      <use xlink:href="#DejaVuSans-73" x="296.728516"/>
      <use xlink:href="#DejaVuSans-5d" x="348.828125"/>
     </g>
    </g>
   </g>
   <g id="matplotlib.axis_2">
    <g id="ytick_1">
     <g id="line2d_9">
      <defs>
       <path id="m16f59f639a" d="M 0 0 
L -3.5 0 
" style="stroke: #000000; stroke-width: 0.8"/>
      </defs>
      <g>
       <use xlink:href="#m16f59f639a" x="172.8" y="557.290906" style="stroke: #000000; stroke-width: 0.8"/>
      </g>
     </g>
     <g id="text_10">
      <!-- −250 -->
      <g transform="translate(138.332812 561.090125) scale(0.1 -0.1)">
       <defs>
        <path id="DejaVuSans-2212" d="M 678 2272 
L 4684 2272 
L 4684 1741 
L 678 1741 
L 678 2272 
z
" transform="scale(0.015625)"/>
       </defs>
       <use xlink:href="#DejaVuSans-2212"/>
       <use xlink:href="#DejaVuSans-32" x="83.789062"/>
       <use xlink:href="#DejaVuSans-35" x="147.412109"/>
       <use xlink:href="#DejaVuSans-30" x="211.035156"/>
      </g>
     </g>
    </g>
    <g id="ytick_2">
     <g id="line2d_10">
      <g>
       <use xlink:href="#m16f59f639a" x="172.8" y="477.127156" style="stroke: #000000; stroke-width: 0.8"/>
      </g>
     </g>
     <g id="text_11">
      <!-- −200 -->
      <g transform="translate(138.332812 480.926375) scale(0.1 -0.1)">
       <use xlink:href="#DejaVuSans-2212"/>
       <use xlink:href="#DejaVuSans-32" x="83.789062"/>
       <use xlink:href="#DejaVuSans-30" x="147.412109"/>
       <use xlink:href="#DejaVuSans-30" x="211.035156"/>
      </g>
     </g>
    </g>
    <g id="ytick_3">
     <g id="line2d_11">
      <g>
       <use xlink:href="#m16f59f639a" x="172.8" y="396.963407" style="stroke: #000000; stroke-width: 0.8"/>
      </g>
     </g>
     <g id="text_12">
      <!-- −150 -->
      <g transform="translate(138.332812 400.762626) scale(0.1 -0.1)">
       <use xlink:href="#DejaVuSans-2212"/>
       <use xlink:href="#DejaVuSans-31" x="83.789062"/>
       <use xlink:href="#DejaVuSans-35" x="147.412109"/>
       <use xlink:href="#DejaVuSans-30" x="211.035156"/>
      </g>
     </g>
    </g>
    <g id="ytick_4">
     <g id="line2d_12">
      <g>
       <use xlink:href="#m16f59f639a" x="172.8" y="316.799658" style="stroke: #000000; stroke-width: 0.8"/>
      </g>
     </g>
     <g id="text_13">
      <!-- −100 -->
      <g transform="translate(138.332812 320.598876) scale(0.1 -0.1)">
       <use xlink:href="#DejaVuSans-2212"/>
       <use xlink:href="#DejaVuSans-31" x="83.789062"/>
       <use xlink:href="#DejaVuSans-30" x="147.412109"/>
       <use xlink:href="#DejaVuSans-30" x="211.035156"/>
      </g>
     </g>
    </g>
    <g id="ytick_5">
     <g id="line2d_13">
      <g>
       <use xlink:href="#m16f59f639a" x="172.8" y="236.635908" style="stroke: #000000; stroke-width: 0.8"/>
      </g>
     </g>
     <g id="text_14">
      <!-- −50 -->
      <g transform="translate(144.695312 240.435127) scale(0.1 -0.1)">
       <use xlink:href="#DejaVuSans-2212"/>
       <use xlink:href="#DejaVuSans-35" x="83.789062"/>
       <use xlink:href="#DejaVuSans-30" x="147.412109"/>
      </g>
     </g>
    </g>
    <g id="ytick_6">
     <g id="line2d_14">
      <g>
       <use xlink:href="#m16f59f639a" x="172.8" y="156.472159" style="stroke: #000000; stroke-width: 0.8"/>
      </g>
     </g>
     <g id="text_15">
      <!-- 0 -->
      <g transform="translate(159.4375 160.271378) scale(0.1 -0.1)">
       <use xlink:href="#DejaVuSans-30"/>
      </g>
     </g>
    </g>
    <g id="text_16">
     <!-- position [mm] -->
     <g transform="translate(132.253125 389.545938) rotate(-90) scale(0.1 -0.1)">
      <defs>
       <path id="DejaVuSans-70" d="M 1159 525 
L 1159 -1331 
L 581 -1331 
L 581 3500 
L 1159 3500 
L 1159 2969 
Q 1341 3281 1617 3432 
Q 1894 3584 2278 3584 
Q 2916 3584 3314 3078 
Q 3713 2572 3713 1747 
Q 3713 922 3314 415 
Q 2916 -91 2278 -91 
Q 1894 -91 1617 61 
Q 1341 213 1159 525 
z
M 3116 1747 
Q 3116 2381 2855 2742 
Q 2594 3103 2138 3103 
Q 1681 3103 1420 2742 
Q 1159 2381 1159 1747 
Q 1159 1113 1420 752 
Q 1681 391 2138 391 
Q 2594 391 2855 752 
Q 3116 1113 3116 1747 
z
" transform="scale(0.015625)"/>
       <path id="DejaVuSans-6f" d="M 1959 3097 
Q 1497 3097 1228 2736 
Q 959 2375 959 1747 
Q 959 1119 1226 758 
Q 1494 397 1959 397 
Q 2419 397 2687 759 
Q 2956 1122 2956 1747 
Q 2956 2369 2687 2733 
Q 2419 3097 1959 3097 
z
M 1959 3584 
Q 2709 3584 3137 3096 
Q 3566 2609 3566 1747 
Q 3566 888 3137 398 
Q 2709 -91 1959 -91 
Q 1206 -91 779 398 
Q 353 888 353 1747 
Q 353 2609 779 3096 
Q 1206 3584 1959 3584 
z
" transform="scale(0.015625)"/>
       <path id="DejaVuSans-6e" d="M 3513 2113 
L 3513 0 
L 2938 0 
L 2938 2094 
Q 2938 2591 2744 2837 
Q 2550 3084 2163 3084 
Q 1697 3084 1428 2787 
Q 1159 2491 1159 1978 
L 1159 0 
L 581 0 
L 581 3500 
L 1159 3500 
L 1159 2956 
Q 1366 3272 1645 3428 
Q 1925 3584 2291 3584 
Q 2894 3584 3203 3211 
Q 3513 2838 3513 2113 
z
" transform="scale(0.015625)"/>
      </defs>
      <use xlink:href="#DejaVuSans-70"/>
      <use xlink:href="#DejaVuSans-6f" x="63.476562"/>
      <use xlink:href="#DejaVuSans-73" x="124.658203"/>
      <use xlink:href="#DejaVuSans-69" x="176.757812"/>
      <use xlink:href="#DejaVuSans-74" x="204.541016"/>
      <use xlink:href="#DejaVuSans-69" x="243.75"/>
      <use xlink:href="#DejaVuSans-6f" x="271.533203"/>
      <use xlink:href="#DejaVuSans-6e" x="332.714844"/>
      <use xlink:href="#DejaVuSans-20" x="396.09375"/>
      <use xlink:href="#DejaVuSans-5b" x="427.880859"/>
      <use xlink:href="#DejaVuSans-6d" x="466.894531"/>
      <use xlink:href="#DejaVuSans-6d" x="564.306641"/>
      <use xlink:href="#DejaVuSans-5d" x="661.71875"/>
     </g>
    </g>
   </g>
   <g id="line2d_15">
    <path d="M 221.498182 547.639511 
L 224.103129 547.128643 
L 226.721101 553.15258 
L 229.286973 553.15258 
L 231.904945 562.240713 
L 234.483843 561.713123 
L 237.06274 561.713123 
L 239.667687 567.799187 
L 242.259609 567.799187 
L 244.864556 573.91443 
L 247.495553 573.91443 
L 250.035376 580.059527 
L 252.627299 579.510598 
L 255.219221 579.510598 
L 257.811143 585.677515 
L 262.994988 585.677515 
L 265.573885 591.875487 
L 275.954599 591.875487 
L 278.59862 598.105108 
L 294.08503 598.105108 
L 294.08503 598.105108 
L 299.242825 597.534326 
L 309.636564 597.534326 
L 309.636564 597.534326 
L 314.807384 594.419869 
L 319.991228 594.419869 
L 322.570126 591.313475 
L 325.175073 591.313475 
L 325.175073 591.313475 
L 330.267744 588.214922 
L 332.885716 585.677515 
L 335.451589 585.677515 
L 340.635433 579.510598 
L 343.24038 579.510598 
L 343.24038 579.510598 
L 351.003122 570.316986 
L 353.673193 570.316986 
L 358.896112 564.224765 
L 361.42291 561.713123 
L 369.198677 552.6374 
L 371.790599 547.128643 
L 376.974444 541.131898 
L 379.566366 535.161719 
L 384.737186 529.217561 
L 387.329108 523.298831 
L 389.921031 520.348837 
L 392.512953 514.934513 
L 395.104875 509.06938 
L 397.683773 506.145712 
L 402.880642 494.50887 
L 405.511638 492.053999 
L 413.235306 474.775344 
L 415.827229 471.914044 
L 418.432176 466.206737 
L 420.998048 460.922391 
L 423.64207 458.082478 
L 426.142819 452.417146 
L 428.78684 446.770716 
L 431.365737 444.338852 
L 433.944635 438.712864 
L 436.549582 435.906572 
L 439.12848 430.307118 
L 444.312324 424.724851 
L 446.917271 419.15929 
L 454.680013 410.841323 
L 457.232861 405.654264 
L 478.020338 383.673155 
L 480.586211 381.25205 
L 506.492409 354.078238 
L 506.492409 354.078238 
L 519.399922 340.602279 
L 524.674939 335.48804 
L 532.372558 327.440097 
L 594.500544 263.734863 
L 599.658339 258.637763 
L 617.814819 240.223957 
L 620.393717 240.223957 
L 622.985639 234.972078 
L 625.564537 234.972078 
L 659.259526 200.903975 
L 669.601166 190.436449 
L 672.193088 187.820033 
L 674.771986 187.820033 
L 677.363908 182.587456 
L 682.547753 177.354944 
L 685.1527 177.354944 
L 705.914127 156.418818 
L 716.268792 145.942378 
L 724.070608 138.079148 
L 736.991145 124.959132 
L 739.583067 124.959132 
L 747.397908 117.07647 
L 749.989831 117.07647 
L 752.581753 114.446874 
L 755.134601 114.446874 
L 757.726523 111.816205 
L 791.33034 111.816205 
L 793.922262 117.07647 
L 799.145181 117.07647 
L 801.685004 122.33255 
L 806.868848 122.33255 
L 809.460771 127.584799 
L 814.644615 127.584799 
L 817.249562 132.833553 
L 819.893583 132.833553 
L 822.407357 140.700871 
L 824.99928 140.700871 
L 827.591202 145.942378 
L 830.248248 145.942378 
L 832.853195 151.181576 
L 832.853195 151.181576 
L 837.958891 159.036806 
L 840.550813 159.036806 
L 845.708608 169.505566 
L 848.35263 169.505566 
L 850.905478 177.354944 
L 853.523449 182.587456 
L 858.66822 190.436449 
L 861.260142 195.669747 
L 863.852064 195.669747 
L 866.443986 203.521546 
L 871.692955 213.995741 
L 874.284877 213.995741 
L 876.876799 221.856759 
L 882.086693 232.347452 
L 884.587442 232.347452 
L 887.179365 240.223957 
L 889.745237 245.479637 
L 892.350184 245.479637 
L 894.942107 253.371053 
L 897.547054 253.371053 
L 902.730898 263.909476 
L 905.296771 263.909476 
L 910.480616 274.469366 
L 913.072538 274.469366 
L 918.295457 285.053498 
L 920.83528 285.053498 
L 923.427202 290.355545 
L 926.032149 290.355545 
L 928.611047 295.66471 
L 931.255068 295.66471 
L 933.794891 300.981362 
L 936.386814 300.981362 
L 938.965711 306.30587 
L 941.570658 306.30587 
L 944.292828 311.638571 
L 946.858701 311.638571 
L 949.411549 316.97985 
L 952.003471 316.97985 
L 954.595393 322.330075 
L 957.187315 322.330075 
L 959.805287 327.689614 
L 962.358135 327.689614 
L 964.950058 333.058822 
L 967.51593 333.058822 
L 970.120877 338.438098 
L 972.725824 338.438098 
L 975.317747 343.558974 
L 980.55369 343.558974 
L 983.106538 348.952969 
L 985.685436 348.952969 
L 988.264333 354.358154 
L 990.843231 354.358154 
L 993.435153 359.77485 
L 996.027075 359.77485 
L 998.566899 365.203491 
L 1001.171846 365.203491 
L 1003.802842 370.644462 
L 1006.368715 370.644462 
L 1008.973662 376.098146 
L 1011.565584 376.098146 
L 1014.157507 381.25205 
L 1016.736404 381.25205 
L 1019.354376 386.725679 
L 1021.933273 386.725679 
L 1024.512171 392.213144 
L 1027.117118 392.213144 
L 1029.696015 397.71491 
L 1032.287938 397.71491 
L 1034.866835 403.231395 
L 1037.458757 403.231395 
L 1040.05068 408.762966 
L 1042.642602 408.762966 
L 1045.234524 414.310089 
L 1047.826447 414.310089 
L 1050.431394 413.958795 
L 1053.010291 419.514961 
L 1055.602213 419.514961 
L 1058.220185 425.087432 
L 1060.786058 425.087432 
L 1063.325881 430.676673 
L 1065.930828 430.676673 
L 1068.483676 436.283149 
L 1071.114673 436.283149 
L 1073.667521 441.907261 
L 1076.311542 441.907261 
L 1078.851365 447.549458 
L 1081.456312 447.158676 
L 1084.03521 447.158676 
L 1086.614108 452.812241 
L 1089.193005 452.812241 
L 1091.850051 458.484772 
L 1094.37685 458.484772 
L 1096.981797 464.176687 
L 1099.560694 464.176687 
L 1102.139592 469.888514 
L 1104.770588 469.471663 
L 1107.38856 475.196477 
L 1112.507281 475.196477 
L 1115.099203 480.942053 
L 1117.691125 480.942053 
L 1120.270023 486.708857 
L 1122.861945 486.708857 
L 1125.466892 492.497433 
L 1128.04579 492.497433 
L 1130.637712 492.053999 
L 1133.229634 497.857245 
L 1135.847606 497.857245 
L 1138.413479 503.683194 
L 1141.018426 503.683194 
L 1143.597323 509.532342 
L 1148.781168 509.532342 
L 1151.37309 515.405202 
L 1153.978037 515.405202 
L 1156.569959 521.302304 
L 1159.174906 521.302304 
L 1161.727754 526.737839 
L 1164.358751 526.737839 
L 1166.976723 532.677107 
L 1172.134518 532.677107 
L 1174.739465 538.642204 
L 1177.318362 538.642204 
L 1179.89726 544.633691 
L 1185.094129 544.633691 
L 1187.686051 550.652129 
L 1190.277974 550.652129 
L 1192.856871 556.698127 
L 1195.461818 556.17493 
L 1195.461818 556.17493 
" clip-path="url(#pdd1fb52ad3)" style="fill: none; stroke: #1f77b4; stroke-width: 1.5; stroke-linecap: square"/>
   </g>
   <g id="line2d_16">
    <path d="M 221.498182 553.8476 
L 224.103129 553.8476 
L 226.721101 559.320043 
L 229.286973 559.320043 
L 231.904945 564.461858 
L 234.483843 564.461858 
L 237.06274 569.62195 
L 239.667687 569.62195 
L 242.259609 573.31115 
L 244.864556 573.31115 
L 247.495553 578.503869 
L 250.035376 578.503869 
L 252.627299 584.079466 
L 255.219221 584.079466 
L 257.811143 587.810448 
L 260.390041 587.810448 
L 262.994988 591.184043 
L 265.573885 591.184043 
L 268.165807 594.935193 
L 270.770754 594.935193 
L 273.362677 596.444148 
L 275.954599 596.444148 
L 278.59862 598.325655 
L 281.125419 598.325655 
L 283.743391 600.21 
L 304.452719 600.21 
L 307.044642 598.325655 
L 309.636564 598.325655 
L 309.636564 594.565526 
L 314.807384 594.565526 
L 317.399306 592.689694 
L 319.991228 592.689694 
L 322.570126 588.94656 
L 325.175073 588.94656 
L 325.175073 585.578512 
L 330.267744 585.578512 
L 332.885716 581.855467 
L 335.451589 581.855467 
L 338.043511 578.503869 
L 340.635433 578.503869 
L 343.24038 572.953139 
L 343.24038 572.953139 
L 348.398175 567.781439 
L 351.003122 567.781439 
L 353.673193 560.446343 
L 356.291165 555.320481 
L 358.896112 555.320481 
L 361.42291 548.054968 
L 364.027857 548.054968 
L 366.606755 541.170232 
L 369.198677 541.170232 
L 371.790599 534.318316 
L 374.382522 534.318316 
L 376.974444 525.715639 
L 379.566366 525.715639 
L 382.158288 516.838129 
L 384.737186 516.838129 
L 387.329108 508.341718 
L 389.921031 508.341718 
L 392.512953 499.894319 
L 395.104875 499.894319 
L 397.683773 489.758382 
L 402.880642 489.758382 
L 405.511638 481.110605 
L 408.064486 481.110605 
L 410.643384 472.81773 
L 413.235306 472.81773 
L 415.827229 464.274454 
L 418.432176 464.274454 
L 423.64207 451.287318 
L 426.142819 451.287318 
L 428.78684 442.868809 
L 431.365737 442.868809 
L 433.944635 436.447356 
L 436.549582 436.447356 
L 439.12848 429.775808 
L 441.746451 429.775808 
L 444.312324 425.062693 
L 446.917271 425.062693 
L 449.496169 420.093182 
L 452.062041 420.093182 
L 454.680013 413.493381 
L 457.232861 413.493381 
L 459.850833 408.82288 
L 462.42973 408.82288 
L 465.021653 403.905411 
L 467.574501 403.905411 
L 470.218522 399.258239 
L 472.810444 399.258239 
L 475.415391 392.743138 
L 478.020338 392.743138 
L 480.586211 389.495977 
L 483.178133 389.495977 
L 485.757031 383.266164 
L 488.348953 383.266164 
L 490.940875 378.424931 
L 493.545822 373.836967 
L 496.111695 373.836967 
L 498.664543 369.021739 
L 501.243441 369.021739 
L 503.900487 364.220812 
L 506.492409 364.220812 
L 506.492409 359.663551 
L 511.663229 359.663551 
L 514.281201 354.887235 
L 516.873123 354.887235 
L 519.399922 350.124466 
L 521.939745 350.124466 
L 524.674939 344.014577 
L 527.201738 344.014577 
L 527.201738 339.279353 
L 532.372558 339.279353 
L 534.977505 334.556906 
L 537.556402 334.556906 
L 540.174374 328.279796 
L 542.740247 328.279796 
L 545.345194 323.793095 
L 547.924091 323.793095 
L 550.516014 319.108422 
L 553.107936 312.880452 
L 558.265731 312.880452 
L 560.870678 308.420093 
L 563.4626 308.420093 
L 566.054522 302.223323 
L 568.63342 297.588543 
L 571.251392 297.588543 
L 573.882388 292.96449 
L 576.409187 292.96449 
L 579.014134 286.998928 
L 581.593031 286.998928 
L 584.106805 282.395974 
L 586.750826 282.395974 
L 589.342749 277.803008 
L 591.895597 277.803008 
L 594.500544 273.219806 
L 597.066417 273.219806 
L 599.658339 268.818239 
L 602.237236 268.818239 
L 604.842183 262.730491 
L 607.434106 262.730491 
L 610.013003 258.175282 
L 612.630975 258.175282 
L 615.248947 253.628892 
L 617.814819 253.628892 
L 620.393717 249.09111 
L 622.985639 249.09111 
L 625.564537 244.561746 
L 628.169484 238.535308 
L 630.761406 238.535308 
L 633.392403 234.174641 
L 635.9713 234.174641 
L 638.602297 229.668829 
L 638.602297 229.668829 
L 643.734042 225.170504 
L 646.338989 225.170504 
L 648.917887 219.184068 
L 651.496784 219.184068 
L 654.049632 214.702465 
L 656.641555 214.702465 
L 659.259526 210.227644 
L 661.812374 210.227644 
L 664.430346 204.271478 
L 666.996219 204.271478 
L 669.601166 199.939958 
L 672.193088 199.939958 
L 674.771986 195.483527 
L 677.363908 195.483527 
L 679.968855 189.5508 
L 682.547753 189.5508 
L 685.1527 185.107901 
L 687.731597 185.107901 
L 690.336544 179.192505 
L 692.915442 174.762063 
L 695.533413 174.762063 
L 698.177435 168.86254 
L 700.756332 168.86254 
L 703.283131 164.443466 
L 705.914127 164.443466 
L 708.532099 160.028944 
L 711.097972 160.028944 
L 713.676869 154.149639 
L 716.268792 154.149639 
L 718.82164 149.744945 
L 721.439611 149.744945 
L 724.070608 143.878049 
L 726.649505 143.878049 
L 729.215378 139.482142 
L 731.820325 139.482142 
L 734.412247 135.089681 
L 736.991145 135.089681 
L 739.583067 129.23808 
L 742.214064 129.23808 
L 744.832035 124.933575 
L 747.397908 124.933575 
L 749.989831 122.009827 
L 752.581753 122.009827 
L 755.134601 117.626425 
L 757.726523 114.705547 
L 760.318445 114.705547 
L 762.910368 113.245508 
L 765.50229 113.245508 
L 768.107237 111.78571 
L 768.107237 111.78571 
L 773.265032 110.326169 
L 786.146495 110.326169 
L 788.751442 111.78571 
L 791.33034 111.78571 
L 793.922262 113.245508 
L 796.514184 113.245508 
L 799.145181 114.705547 
L 801.685004 114.705547 
L 804.276926 117.626425 
L 806.868848 117.626425 
L 809.460771 120.54841 
L 812.039668 120.54841 
L 814.644615 123.471549 
L 817.249562 123.471549 
L 819.893583 127.858558 
L 822.407357 132.248501 
L 824.99928 132.248501 
L 827.591202 136.641555 
L 830.248248 136.641555 
L 832.853195 142.504171 
L 832.853195 142.504171 
L 837.958891 149.841414 
L 840.550813 149.841414 
L 843.129711 155.718972 
L 845.708608 155.718972 
L 848.35263 163.076369 
L 850.905478 163.076369 
L 853.523449 170.336624 
L 858.66822 170.336624 
L 861.260142 177.71512 
L 863.852064 177.71512 
L 866.443986 186.588253 
L 869.035909 186.588253 
L 871.692955 195.483527 
L 874.284877 195.483527 
L 876.876799 204.402546 
L 879.455697 204.402546 
L 882.086693 213.346944 
L 884.587442 213.346944 
L 887.179365 222.318342 
L 889.745237 222.318342 
L 892.350184 231.318406 
L 894.942107 231.318406 
L 897.547054 240.194409 
L 900.165025 247.739165 
L 902.730898 247.739165 
L 905.296771 255.307088 
L 907.901718 255.307088 
L 910.480616 262.899204 
L 913.072538 262.899204 
L 915.677485 268.990959 
L 918.295457 268.990959 
L 920.83528 275.099325 
L 923.427202 275.099325 
L 926.032149 281.044044 
L 928.611047 281.044044 
L 931.255068 287.18316 
L 933.794891 287.18316 
L 936.386814 291.612095 
L 938.965711 291.612095 
L 941.570658 297.779237 
L 944.292828 297.779237 
L 946.858701 302.417111 
L 949.411549 302.417111 
L 952.003471 307.065919 
L 954.595393 307.065919 
L 957.187315 313.2818 
L 959.805287 317.752901 
L 962.358135 317.752901 
L 964.950058 322.436772 
L 967.51593 322.436772 
L 970.120877 328.700559 
L 972.725824 328.700559 
L 975.317747 333.198708 
L 977.909669 333.198708 
L 980.55369 337.920128 
L 983.106538 337.920128 
L 985.685436 342.654246 
L 988.264333 342.654246 
L 990.843231 347.178624 
L 993.435153 347.178624 
L 996.027075 351.935669 
L 998.566899 351.935669 
L 1001.171846 358.299324 
L 1003.802842 358.299324 
L 1006.368715 363.088066 
L 1008.973662 363.088066 
L 1011.565584 367.654899 
L 1014.157507 367.654899 
L 1016.736404 374.076352 
L 1019.354376 374.076352 
L 1021.933273 378.666721 
L 1024.512171 378.666721 
L 1029.696015 388.370767 
L 1032.287938 388.370767 
L 1034.866835 392.993907 
L 1037.458757 392.993907 
L 1040.05068 399.513432 
L 1042.642602 399.513432 
L 1045.234524 404.162977 
L 1047.826447 404.162977 
L 1050.431394 409.083813 
L 1053.010291 409.083813 
L 1055.602213 414.021002 
L 1058.220185 414.021002 
L 1060.786058 418.707119 
L 1063.325881 418.707119 
L 1065.930828 425.333903 
L 1068.483676 425.333903 
L 1071.114673 430.049391 
L 1073.667521 430.049391 
L 1076.311542 435.053533 
L 1078.851365 435.053533 
L 1081.456312 440.075327 
L 1084.03521 440.075327 
L 1086.614108 444.831266 
L 1089.193005 444.831266 
L 1094.37685 454.669074 
L 1096.981797 454.669074 
L 1099.560694 459.757307 
L 1102.139592 459.757307 
L 1104.770588 464.864508 
L 1107.38856 464.864508 
L 1109.915358 467.982092 
L 1112.507281 467.982092 
L 1115.099203 474.834345 
L 1117.691125 474.834345 
L 1120.270023 478.273578 
L 1122.861945 478.273578 
L 1125.466892 483.14181 
L 1128.04579 483.14181 
L 1130.637712 488.333968 
L 1133.229634 488.333968 
L 1135.847606 493.546552 
L 1138.413479 493.546552 
L 1141.018426 498.463171 
L 1143.597323 498.463171 
L 1146.189246 503.713881 
L 1148.781168 503.713881 
L 1151.37309 507.226111 
L 1153.978037 507.226111 
L 1156.569959 513.953036 
L 1159.174906 517.491672 
L 1161.727754 517.491672 
L 1164.358751 522.486996 
L 1166.976723 522.486996 
L 1169.568645 527.831818 
L 1172.134518 527.831818 
L 1174.739465 532.862206 
L 1177.318362 532.862206 
L 1179.89726 538.248552 
L 1182.515232 538.248552 
L 1185.094129 541.852153 
L 1187.686051 541.852153 
L 1190.277974 546.931745 
L 1192.856871 546.931745 
L 1195.461818 552.376211 
L 1195.461818 552.376211 
" clip-path="url(#pdd1fb52ad3)" style="fill: none; stroke: #ff7f0e; stroke-width: 1.5; stroke-linecap: square"/>
   </g>
   <g id="line2d_17">
    <path d="M 221.498182 587.547911 
L 705.914127 110.515885 
L 708.532099 108.81 
L 1195.461818 588.317483 
L 1195.461818 588.317483 
" clip-path="url(#pdd1fb52ad3)" style="fill: none; stroke: #2ca02c; stroke-width: 1.5; stroke-linecap: square"/>
   </g>
   <g id="patch_3">
    <path d="M 172.8 624.78 
L 172.8 84.24 
" style="fill: none; stroke: #000000; stroke-width: 0.8; stroke-linejoin: miter; stroke-linecap: square"/>
   </g>
   <g id="patch_4">
    <path d="M 1244.16 624.78 
L 1244.16 84.24 
" style="fill: none; stroke: #000000; stroke-width: 0.8; stroke-linejoin: miter; stroke-linecap: square"/>
   </g>
   <g id="patch_5">
    <path d="M 172.8 624.78 
L 1244.16 624.78 
" style="fill: none; stroke: #000000; stroke-width: 0.8; stroke-linejoin: miter; stroke-linecap: square"/>
   </g>
   <g id="patch_6">
    <path d="M 172.8 84.24 
L 1244.16 84.24 
" style="fill: none; stroke: #000000; stroke-width: 0.8; stroke-linejoin: miter; stroke-linecap: square"/>
   </g>
   <g id="text_17">
    <!-- 800mm/s -->
    <g transform="translate(680.191875 78.24) scale(0.12 -0.12)">
     <defs>
      <path id="DejaVuSans-38" d="M 2034 2216 
Q 1584 2216 1326 1975 
Q 1069 1734 1069 1313 
Q 1069 891 1326 650 
Q 1584 409 2034 409 
Q 2484 409 2743 651 
Q 3003 894 3003 1313 
Q 3003 1734 2745 1975 
Q 2488 2216 2034 2216 
z
M 1403 2484 
Q 997 2584 770 2862 
Q 544 3141 544 3541 
Q 544 4100 942 4425 
Q 1341 4750 2034 4750 
Q 2731 4750 3128 4425 
Q 3525 4100 3525 3541 
Q 3525 3141 3298 2862 
Q 3072 2584 2669 2484 
Q 3125 2378 3379 2068 
Q 3634 1759 3634 1313 
Q 3634 634 3220 271 
Q 2806 -91 2034 -91 
Q 1263 -91 848 271 
Q 434 634 434 1313 
Q 434 1759 690 2068 
Q 947 2378 1403 2484 
z
M 1172 3481 
Q 1172 3119 1398 2916 
Q 1625 2713 2034 2713 
Q 2441 2713 2670 2916 
Q 2900 3119 2900 3481 
Q 2900 3844 2670 4047 
Q 2441 4250 2034 4250 
Q 1625 4250 1398 4047 
Q 1172 3844 1172 3481 
z
" transform="scale(0.015625)"/>
      <path id="DejaVuSans-2f" d="M 1625 4666 
L 2156 4666 
L 531 -594 
L 0 -594 
L 1625 4666 
z
" transform="scale(0.015625)"/>
     </defs>
     <use xlink:href="#DejaVuSans-38"/>
     <use xlink:href="#DejaVuSans-30" x="63.623047"/>
     <use xlink:href="#DejaVuSans-30" x="127.246094"/>
     <use xlink:href="#DejaVuSans-6d" x="190.869141"/>
     <use xlink:href="#DejaVuSans-6d" x="288.28125"/>
     <use xlink:href="#DejaVuSans-2f" x="385.693359"/>
     <use xlink:href="#DejaVuSans-73" x="419.384766"/>
    </g>
   </g>
   <g id="legend_1">
    <g id="patch_7">
     <path d="M 1155.2475 136.274375 
L 1237.16 136.274375 
Q 1239.16 136.274375 1239.16 134.274375 
L 1239.16 91.24 
Q 1239.16 89.24 1237.16 89.24 
L 1155.2475 89.24 
Q 1153.2475 89.24 1153.2475 91.24 
L 1153.2475 134.274375 
Q 1153.2475 136.274375 1155.2475 136.274375 
z
" style="fill: #ffffff; opacity: 0.8; stroke: #cccccc; stroke-linejoin: miter"/>
    </g>
    <g id="line2d_18">
     <path d="M 1157.2475 97.338438 
L 1167.2475 97.338438 
L 1177.2475 97.338438 
" style="fill: none; stroke: #1f77b4; stroke-width: 1.5; stroke-linecap: square"/>
    </g>
    <g id="text_18">
     <!-- cam0 -->
     <g transform="translate(1185.2475 100.838438) scale(0.1 -0.1)">
      <defs>
       <path id="DejaVuSans-63" d="M 3122 3366 
L 3122 2828 
Q 2878 2963 2633 3030 
Q 2388 3097 2138 3097 
Q 1578 3097 1268 2742 
Q 959 2388 959 1747 
Q 959 1106 1268 751 
Q 1578 397 2138 397 
Q 2388 397 2633 464 
Q 2878 531 3122 666 
L 3122 134 
Q 2881 22 2623 -34 
Q 2366 -91 2075 -91 
Q 1284 -91 818 406 
Q 353 903 353 1747 
Q 353 2603 823 3093 
Q 1294 3584 2113 3584 
Q 2378 3584 2631 3529 
Q 2884 3475 3122 3366 
z
" transform="scale(0.015625)"/>
       <path id="DejaVuSans-61" d="M 2194 1759 
Q 1497 1759 1228 1600 
Q 959 1441 959 1056 
Q 959 750 1161 570 
Q 1363 391 1709 391 
Q 2188 391 2477 730 
Q 2766 1069 2766 1631 
L 2766 1759 
L 2194 1759 
z
M 3341 1997 
L 3341 0 
L 2766 0 
L 2766 531 
Q 2569 213 2275 61 
Q 1981 -91 1556 -91 
Q 1019 -91 701 211 
Q 384 513 384 1019 
Q 384 1609 779 1909 
Q 1175 2209 1959 2209 
L 2766 2209 
L 2766 2266 
Q 2766 2663 2505 2880 
Q 2244 3097 1772 3097 
Q 1472 3097 1187 3025 
Q 903 2953 641 2809 
L 641 3341 
Q 956 3463 1253 3523 
Q 1550 3584 1831 3584 
Q 2591 3584 2966 3190 
Q 3341 2797 3341 1997 
z
" transform="scale(0.015625)"/>
      </defs>
      <use xlink:href="#DejaVuSans-63"/>
      <use xlink:href="#DejaVuSans-61" x="54.980469"/>
      <use xlink:href="#DejaVuSans-6d" x="116.259766"/>
      <use xlink:href="#DejaVuSans-30" x="213.671875"/>
     </g>
    </g>
    <g id="line2d_19">
     <path d="M 1157.2475 112.016563 
L 1167.2475 112.016563 
L 1177.2475 112.016563 
" style="fill: none; stroke: #ff7f0e; stroke-width: 1.5; stroke-linecap: square"/>
    </g>
    <g id="text_19">
     <!-- cam5 -->
     <g transform="translate(1185.2475 115.516563) scale(0.1 -0.1)">
      <use xlink:href="#DejaVuSans-63"/>
      <use xlink:href="#DejaVuSans-61" x="54.980469"/>
      <use xlink:href="#DejaVuSans-6d" x="116.259766"/>
      <use xlink:href="#DejaVuSans-35" x="213.671875"/>
     </g>
    </g>
    <g id="line2d_20">
     <path d="M 1157.2475 126.694688 
L 1167.2475 126.694688 
L 1177.2475 126.694688 
" style="fill: none; stroke: #2ca02c; stroke-width: 1.5; stroke-linecap: square"/>
    </g>
    <g id="text_20">
     <!-- command -->
     <g transform="translate(1185.2475 130.194688) scale(0.1 -0.1)">
      <defs>
       <path id="DejaVuSans-64" d="M 2906 2969 
L 2906 4863 
L 3481 4863 
L 3481 0 
L 2906 0 
L 2906 525 
Q 2725 213 2448 61 
Q 2172 -91 1784 -91 
Q 1150 -91 751 415 
Q 353 922 353 1747 
Q 353 2572 751 3078 
Q 1150 3584 1784 3584 
Q 2172 3584 2448 3432 
Q 2725 3281 2906 2969 
z
M 947 1747 
Q 947 1113 1208 752 
Q 1469 391 1925 391 
Q 2381 391 2643 752 
Q 2906 1113 2906 1747 
Q 2906 2381 2643 2742 
Q 2381 3103 1925 3103 
Q 1469 3103 1208 2742 
Q 947 2381 947 1747 
z
" transform="scale(0.015625)"/>
      </defs>
      <use xlink:href="#DejaVuSans-63"/>
      <use xlink:href="#DejaVuSans-6f" x="54.980469"/>
      <use xlink:href="#DejaVuSans-6d" x="116.162109"/>
      <use xlink:href="#DejaVuSans-6d" x="213.574219"/>
      <use xlink:href="#DejaVuSans-61" x="310.986328"/>
      <use xlink:href="#DejaVuSans-6e" x="372.265625"/>
      <use xlink:href="#DejaVuSans-64" x="435.644531"/>
     </g>
    </g>
   </g>
  </g>
 </g>
 <defs>
  <clipPath id="pdd1fb52ad3">
   <rect x="172.8" y="84.24" width="1071.36" height="540.54"/>
  </clipPath>
 </defs>
</svg>
