<?xml version="1.0" encoding="utf-8" standalone="no"?>
<!DOCTYPE svg PUBLIC "-//W3C//DTD SVG 1.1//EN"
  "http://www.w3.org/Graphics/SVG/1.1/DTD/svg11.dtd">
<svg xmlns:xlink="http://www.w3.org/1999/xlink" width="460.8pt" height="345.6pt" viewBox="0 0 460.8 345.6" xmlns="http://www.w3.org/2000/svg" version="1.1">
 <metadata>
  <rdf:RDF xmlns:dc="http://purl.org/dc/elements/1.1/" xmlns:cc="http://creativecommons.org/ns#" xmlns:rdf="http://www.w3.org/1999/02/22-rdf-syntax-ns#">
   <cc:Work>
    <dc:type rdf:resource="http://purl.org/dc/dcmitype/StillImage"/>
    <dc:date>2023-06-01T14:41:36.089714</dc:date>
    <dc:format>image/svg+xml</dc:format>
    <dc:creator>
     <cc:Agent>
      <dc:title>Matplotlib v3.7.1, https://matplotlib.org/</dc:title>
     </cc:Agent>
    </dc:creator>
   </cc:Work>
  </rdf:RDF>
 </metadata>
 <defs>
  <style type="text/css">*{stroke-linejoin: round; stroke-linecap: butt}</style>
 </defs>
 <g id="figure_1">
  <g id="patch_1">
   <path d="M 0 345.6 
L 460.8 345.6 
L 460.8 0 
L 0 0 
z
" style="fill: #ffffff"/>
  </g>
  <g id="axes_1">
   <g id="patch_2">
    <path d="M 57.6 307.584 
L 414.72 307.584 
L 414.72 41.472 
L 57.6 41.472 
z
" style="fill: #ffffff"/>
   </g>
   <g id="matplotlib.axis_1">
    <g id="xtick_1">
     <g id="line2d_1">
      <defs>
       <path id="m8192495be1" d="M 0 0 
L 0 3.5 
" style="stroke: #000000; stroke-width: 0.8"/>
      </defs>
      <g>
       <use xlink:href="#m8192495be1" x="73.832727" y="307.584" style="stroke: #000000; stroke-width: 0.8"/>
      </g>
     </g>
     <g id="text_1">
      <!-- 0.0 -->
      <g transform="translate(65.881165 322.182437) scale(0.1 -0.1)">
       <defs>
        <path id="DejaVuSans-30" d="M 2034 4250 
Q 1547 4250 1301 3770 
Q 1056 3291 1056 2328 
Q 1056 1369 1301 889 
Q 1547 409 2034 409 
Q 2525 409 2770 889 
Q 3016 1369 3016 2328 
Q 3016 3291 2770 3770 
Q 2525 4250 2034 4250 
z
M 2034 4750 
Q 2819 4750 3233 4129 
Q 3647 3509 3647 2328 
Q 3647 1150 3233 529 
Q 2819 -91 2034 -91 
Q 1250 -91 836 529 
Q 422 1150 422 2328 
Q 422 3509 836 4129 
Q 1250 4750 2034 4750 
z
" transform="scale(0.015625)"/>
        <path id="DejaVuSans-2e" d="M 684 794 
L 1344 794 
L 1344 0 
L 684 0 
L 684 794 
z
" transform="scale(0.015625)"/>
       </defs>
       <use xlink:href="#DejaVuSans-30"/>
       <use xlink:href="#DejaVuSans-2e" x="63.623047"/>
       <use xlink:href="#DejaVuSans-30" x="95.410156"/>
      </g>
     </g>
    </g>
    <g id="xtick_2">
     <g id="line2d_2">
      <g>
       <use xlink:href="#m8192495be1" x="117.248511" y="307.584" style="stroke: #000000; stroke-width: 0.8"/>
      </g>
     </g>
     <g id="text_2">
      <!-- 0.1 -->
      <g transform="translate(109.296948 322.182437) scale(0.1 -0.1)">
       <defs>
        <path id="DejaVuSans-31" d="M 794 531 
L 1825 531 
L 1825 4091 
L 703 3866 
L 703 4441 
L 1819 4666 
L 2450 4666 
L 2450 531 
L 3481 531 
L 3481 0 
L 794 0 
L 794 531 
z
" transform="scale(0.015625)"/>
       </defs>
       <use xlink:href="#DejaVuSans-30"/>
       <use xlink:href="#DejaVuSans-2e" x="63.623047"/>
       <use xlink:href="#DejaVuSans-31" x="95.410156"/>
      </g>
     </g>
    </g>
    <g id="xtick_3">
     <g id="line2d_3">
      <g>
       <use xlink:href="#m8192495be1" x="160.664294" y="307.584" style="stroke: #000000; stroke-width: 0.8"/>
      </g>
     </g>
     <g id="text_3">
      <!-- 0.2 -->
      <g transform="translate(152.712732 322.182437) scale(0.1 -0.1)">
       <defs>
        <path id="DejaVuSans-32" d="M 1228 531 
L 3431 531 
L 3431 0 
L 469 0 
L 469 531 
Q 828 903 1448 1529 
Q 2069 2156 2228 2338 
Q 2531 2678 2651 2914 
Q 2772 3150 2772 3378 
Q 2772 3750 2511 3984 
Q 2250 4219 1831 4219 
Q 1534 4219 1204 4116 
Q 875 4013 500 3803 
L 500 4441 
Q 881 4594 1212 4672 
Q 1544 4750 1819 4750 
Q 2544 4750 2975 4387 
Q 3406 4025 3406 3419 
Q 3406 3131 3298 2873 
Q 3191 2616 2906 2266 
Q 2828 2175 2409 1742 
Q 1991 1309 1228 531 
z
" transform="scale(0.015625)"/>
       </defs>
       <use xlink:href="#DejaVuSans-30"/>
       <use xlink:href="#DejaVuSans-2e" x="63.623047"/>
       <use xlink:href="#DejaVuSans-32" x="95.410156"/>
      </g>
     </g>
    </g>
    <g id="xtick_4">
     <g id="line2d_4">
      <g>
       <use xlink:href="#m8192495be1" x="204.080078" y="307.584" style="stroke: #000000; stroke-width: 0.8"/>
      </g>
     </g>
     <g id="text_4">
      <!-- 0.3 -->
      <g transform="translate(196.128515 322.182437) scale(0.1 -0.1)">
       <defs>
        <path id="DejaVuSans-33" d="M 2597 2516 
Q 3050 2419 3304 2112 
Q 3559 1806 3559 1356 
Q 3559 666 3084 287 
Q 2609 -91 1734 -91 
Q 1441 -91 1130 -33 
Q 819 25 488 141 
L 488 750 
Q 750 597 1062 519 
Q 1375 441 1716 441 
Q 2309 441 2620 675 
Q 2931 909 2931 1356 
Q 2931 1769 2642 2001 
Q 2353 2234 1838 2234 
L 1294 2234 
L 1294 2753 
L 1863 2753 
Q 2328 2753 2575 2939 
Q 2822 3125 2822 3475 
Q 2822 3834 2567 4026 
Q 2313 4219 1838 4219 
Q 1578 4219 1281 4162 
Q 984 4106 628 3988 
L 628 4550 
Q 988 4650 1302 4700 
Q 1616 4750 1894 4750 
Q 2613 4750 3031 4423 
Q 3450 4097 3450 3541 
Q 3450 3153 3228 2886 
Q 3006 2619 2597 2516 
z
" transform="scale(0.015625)"/>
       </defs>
       <use xlink:href="#DejaVuSans-30"/>
       <use xlink:href="#DejaVuSans-2e" x="63.623047"/>
       <use xlink:href="#DejaVuSans-33" x="95.410156"/>
      </g>
     </g>
    </g>
    <g id="xtick_5">
     <g id="line2d_5">
      <g>
       <use xlink:href="#m8192495be1" x="247.495861" y="307.584" style="stroke: #000000; stroke-width: 0.8"/>
      </g>
     </g>
     <g id="text_5">
      <!-- 0.4 -->
      <g transform="translate(239.544299 322.182437) scale(0.1 -0.1)">
       <defs>
        <path id="DejaVuSans-34" d="M 2419 4116 
L 825 1625 
L 2419 1625 
L 2419 4116 
z
M 2253 4666 
L 3047 4666 
L 3047 1625 
L 3713 1625 
L 3713 1100 
L 3047 1100 
L 3047 0 
L 2419 0 
L 2419 1100 
L 313 1100 
L 313 1709 
L 2253 4666 
z
" transform="scale(0.015625)"/>
       </defs>
       <use xlink:href="#DejaVuSans-30"/>
       <use xlink:href="#DejaVuSans-2e" x="63.623047"/>
       <use xlink:href="#DejaVuSans-34" x="95.410156"/>
      </g>
     </g>
    </g>
    <g id="xtick_6">
     <g id="line2d_6">
      <g>
       <use xlink:href="#m8192495be1" x="290.911645" y="307.584" style="stroke: #000000; stroke-width: 0.8"/>
      </g>
     </g>
     <g id="text_6">
      <!-- 0.5 -->
      <g transform="translate(282.960082 322.182437) scale(0.1 -0.1)">
       <defs>
        <path id="DejaVuSans-35" d="M 691 4666 
L 3169 4666 
L 3169 4134 
L 1269 4134 
L 1269 2991 
Q 1406 3038 1543 3061 
Q 1681 3084 1819 3084 
Q 2600 3084 3056 2656 
Q 3513 2228 3513 1497 
Q 3513 744 3044 326 
Q 2575 -91 1722 -91 
Q 1428 -91 1123 -41 
Q 819 9 494 109 
L 494 744 
Q 775 591 1075 516 
Q 1375 441 1709 441 
Q 2250 441 2565 725 
Q 2881 1009 2881 1497 
Q 2881 1984 2565 2268 
Q 2250 2553 1709 2553 
Q 1456 2553 1204 2497 
Q 953 2441 691 2322 
L 691 4666 
z
" transform="scale(0.015625)"/>
       </defs>
       <use xlink:href="#DejaVuSans-30"/>
       <use xlink:href="#DejaVuSans-2e" x="63.623047"/>
       <use xlink:href="#DejaVuSans-35" x="95.410156"/>
      </g>
     </g>
    </g>
    <g id="xtick_7">
     <g id="line2d_7">
      <g>
       <use xlink:href="#m8192495be1" x="334.327428" y="307.584" style="stroke: #000000; stroke-width: 0.8"/>
      </g>
     </g>
     <g id="text_7">
      <!-- 0.6 -->
      <g transform="translate(326.375865 322.182437) scale(0.1 -0.1)">
       <defs>
        <path id="DejaVuSans-36" d="M 2113 2584 
Q 1688 2584 1439 2293 
Q 1191 2003 1191 1497 
Q 1191 994 1439 701 
Q 1688 409 2113 409 
Q 2538 409 2786 701 
Q 3034 994 3034 1497 
Q 3034 2003 2786 2293 
Q 2538 2584 2113 2584 
z
M 3366 4563 
L 3366 3988 
Q 3128 4100 2886 4159 
Q 2644 4219 2406 4219 
Q 1781 4219 1451 3797 
Q 1122 3375 1075 2522 
Q 1259 2794 1537 2939 
Q 1816 3084 2150 3084 
Q 2853 3084 3261 2657 
Q 3669 2231 3669 1497 
Q 3669 778 3244 343 
Q 2819 -91 2113 -91 
Q 1303 -91 875 529 
Q 447 1150 447 2328 
Q 447 3434 972 4092 
Q 1497 4750 2381 4750 
Q 2619 4750 2861 4703 
Q 3103 4656 3366 4563 
z
" transform="scale(0.015625)"/>
       </defs>
       <use xlink:href="#DejaVuSans-30"/>
       <use xlink:href="#DejaVuSans-2e" x="63.623047"/>
       <use xlink:href="#DejaVuSans-36" x="95.410156"/>
      </g>
     </g>
    </g>
    <g id="xtick_8">
     <g id="line2d_8">
      <g>
       <use xlink:href="#m8192495be1" x="377.743211" y="307.584" style="stroke: #000000; stroke-width: 0.8"/>
      </g>
     </g>
     <g id="text_8">
      <!-- 0.7 -->
      <g transform="translate(369.791649 322.182437) scale(0.1 -0.1)">
       <defs>
        <path id="DejaVuSans-37" d="M 525 4666 
L 3525 4666 
L 3525 4397 
L 1831 0 
L 1172 0 
L 2766 4134 
L 525 4134 
L 525 4666 
z
" transform="scale(0.015625)"/>
       </defs>
       <use xlink:href="#DejaVuSans-30"/>
       <use xlink:href="#DejaVuSans-2e" x="63.623047"/>
       <use xlink:href="#DejaVuSans-37" x="95.410156"/>
      </g>
     </g>
    </g>
    <g id="text_9">
     <!-- time [s] -->
     <g transform="translate(216.768594 335.860562) scale(0.1 -0.1)">
      <defs>
       <path id="DejaVuSans-74" d="M 1172 4494 
L 1172 3500 
L 2356 3500 
L 2356 3053 
L 1172 3053 
L 1172 1153 
Q 1172 725 1289 603 
Q 1406 481 1766 481 
L 2356 481 
L 2356 0 
L 1766 0 
Q 1100 0 847 248 
Q 594 497 594 1153 
L 594 3053 
L 172 3053 
L 172 3500 
L 594 3500 
L 594 4494 
L 1172 4494 
z
" transform="scale(0.015625)"/>
       <path id="DejaVuSans-69" d="M 603 3500 
L 1178 3500 
L 1178 0 
L 603 0 
L 603 3500 
z
M 603 4863 
L 1178 4863 
L 1178 4134 
L 603 4134 
L 603 4863 
z
" transform="scale(0.015625)"/>
       <path id="DejaVuSans-6d" d="M 3328 2828 
Q 3544 3216 3844 3400 
Q 4144 3584 4550 3584 
Q 5097 3584 5394 3201 
Q 5691 2819 5691 2113 
L 5691 0 
L 5113 0 
L 5113 2094 
Q 5113 2597 4934 2840 
Q 4756 3084 4391 3084 
Q 3944 3084 3684 2787 
Q 3425 2491 3425 1978 
L 3425 0 
L 2847 0 
L 2847 2094 
Q 2847 2600 2669 2842 
Q 2491 3084 2119 3084 
Q 1678 3084 1418 2786 
Q 1159 2488 1159 1978 
L 1159 0 
L 581 0 
L 581 3500 
L 1159 3500 
L 1159 2956 
Q 1356 3278 1631 3431 
Q 1906 3584 2284 3584 
Q 2666 3584 2933 3390 
Q 3200 3197 3328 2828 
z
" transform="scale(0.015625)"/>
       <path id="DejaVuSans-65" d="M 3597 1894 
L 3597 1613 
L 953 1613 
Q 991 1019 1311 708 
Q 1631 397 2203 397 
Q 2534 397 2845 478 
Q 3156 559 3463 722 
L 3463 178 
Q 3153 47 2828 -22 
Q 2503 -91 2169 -91 
Q 1331 -91 842 396 
Q 353 884 353 1716 
Q 353 2575 817 3079 
Q 1281 3584 2069 3584 
Q 2775 3584 3186 3129 
Q 3597 2675 3597 1894 
z
M 3022 2063 
Q 3016 2534 2758 2815 
Q 2500 3097 2075 3097 
Q 1594 3097 1305 2825 
Q 1016 2553 972 2059 
L 3022 2063 
z
" transform="scale(0.015625)"/>
       <path id="DejaVuSans-20" transform="scale(0.015625)"/>
       <path id="DejaVuSans-5b" d="M 550 4863 
L 1875 4863 
L 1875 4416 
L 1125 4416 
L 1125 -397 
L 1875 -397 
L 1875 -844 
L 550 -844 
L 550 4863 
z
" transform="scale(0.015625)"/>
       <path id="DejaVuSans-73" d="M 2834 3397 
L 2834 2853 
Q 2591 2978 2328 3040 
Q 2066 3103 1784 3103 
Q 1356 3103 1142 2972 
Q 928 2841 928 2578 
Q 928 2378 1081 2264 
Q 1234 2150 1697 2047 
L 1894 2003 
Q 2506 1872 2764 1633 
Q 3022 1394 3022 966 
Q 3022 478 2636 193 
Q 2250 -91 1575 -91 
Q 1294 -91 989 -36 
Q 684 19 347 128 
L 347 722 
Q 666 556 975 473 
Q 1284 391 1588 391 
Q 1994 391 2212 530 
Q 2431 669 2431 922 
Q 2431 1156 2273 1281 
Q 2116 1406 1581 1522 
L 1381 1569 
Q 847 1681 609 1914 
Q 372 2147 372 2553 
Q 372 3047 722 3315 
Q 1072 3584 1716 3584 
Q 2034 3584 2315 3537 
Q 2597 3491 2834 3397 
z
" transform="scale(0.015625)"/>
       <path id="DejaVuSans-5d" d="M 1947 4863 
L 1947 -844 
L 622 -844 
L 622 -397 
L 1369 -397 
L 1369 4416 
L 622 4416 
L 622 4863 
L 1947 4863 
z
" transform="scale(0.015625)"/>
      </defs>
      <use xlink:href="#DejaVuSans-74"/>
      <use xlink:href="#DejaVuSans-69" x="39.208984"/>
      <use xlink:href="#DejaVuSans-6d" x="66.992188"/>
      <use xlink:href="#DejaVuSans-65" x="164.404297"/>
      <use xlink:href="#DejaVuSans-20" x="225.927734"/>
      <use xlink:href="#DejaVuSans-5b" x="257.714844"/>
      <use xlink:href="#DejaVuSans-73" x="296.728516"/>
      <use xlink:href="#DejaVuSans-5d" x="348.828125"/>
     </g>
    </g>
   </g>
   <g id="matplotlib.axis_2">
    <g id="ytick_1">
     <g id="line2d_9">
      <defs>
       <path id="m482fd61b7e" d="M 0 0 
L -3.5 0 
" style="stroke: #000000; stroke-width: 0.8"/>
      </defs>
      <g>
       <use xlink:href="#m482fd61b7e" x="57.6" y="274.3586" style="stroke: #000000; stroke-width: 0.8"/>
      </g>
     </g>
     <g id="text_10">
      <!-- −250 -->
      <g transform="translate(23.132812 278.157819) scale(0.1 -0.1)">
       <defs>
        <path id="DejaVuSans-2212" d="M 678 2272 
L 4684 2272 
L 4684 1741 
L 678 1741 
L 678 2272 
z
" transform="scale(0.015625)"/>
       </defs>
       <use xlink:href="#DejaVuSans-2212"/>
       <use xlink:href="#DejaVuSans-32" x="83.789062"/>
       <use xlink:href="#DejaVuSans-35" x="147.412109"/>
       <use xlink:href="#DejaVuSans-30" x="211.035156"/>
      </g>
     </g>
    </g>
    <g id="ytick_2">
     <g id="line2d_10">
      <g>
       <use xlink:href="#m482fd61b7e" x="57.6" y="234.893369" style="stroke: #000000; stroke-width: 0.8"/>
      </g>
     </g>
     <g id="text_11">
      <!-- −200 -->
      <g transform="translate(23.132812 238.692588) scale(0.1 -0.1)">
       <use xlink:href="#DejaVuSans-2212"/>
       <use xlink:href="#DejaVuSans-32" x="83.789062"/>
       <use xlink:href="#DejaVuSans-30" x="147.412109"/>
       <use xlink:href="#DejaVuSans-30" x="211.035156"/>
      </g>
     </g>
    </g>
    <g id="ytick_3">
     <g id="line2d_11">
      <g>
       <use xlink:href="#m482fd61b7e" x="57.6" y="195.428139" style="stroke: #000000; stroke-width: 0.8"/>
      </g>
     </g>
     <g id="text_12">
      <!-- −150 -->
      <g transform="translate(23.132812 199.227358) scale(0.1 -0.1)">
       <use xlink:href="#DejaVuSans-2212"/>
       <use xlink:href="#DejaVuSans-31" x="83.789062"/>
       <use xlink:href="#DejaVuSans-35" x="147.412109"/>
       <use xlink:href="#DejaVuSans-30" x="211.035156"/>
      </g>
     </g>
    </g>
    <g id="ytick_4">
     <g id="line2d_12">
      <g>
       <use xlink:href="#m482fd61b7e" x="57.6" y="155.962908" style="stroke: #000000; stroke-width: 0.8"/>
      </g>
     </g>
     <g id="text_13">
      <!-- −100 -->
      <g transform="translate(23.132812 159.762127) scale(0.1 -0.1)">
       <use xlink:href="#DejaVuSans-2212"/>
       <use xlink:href="#DejaVuSans-31" x="83.789062"/>
       <use xlink:href="#DejaVuSans-30" x="147.412109"/>
       <use xlink:href="#DejaVuSans-30" x="211.035156"/>
      </g>
     </g>
    </g>
    <g id="ytick_5">
     <g id="line2d_13">
      <g>
       <use xlink:href="#m482fd61b7e" x="57.6" y="116.497678" style="stroke: #000000; stroke-width: 0.8"/>
      </g>
     </g>
     <g id="text_14">
      <!-- −50 -->
      <g transform="translate(29.495313 120.296897) scale(0.1 -0.1)">
       <use xlink:href="#DejaVuSans-2212"/>
       <use xlink:href="#DejaVuSans-35" x="83.789062"/>
       <use xlink:href="#DejaVuSans-30" x="147.412109"/>
      </g>
     </g>
    </g>
    <g id="ytick_6">
     <g id="line2d_14">
      <g>
       <use xlink:href="#m482fd61b7e" x="57.6" y="77.032447" style="stroke: #000000; stroke-width: 0.8"/>
      </g>
     </g>
     <g id="text_15">
      <!-- 0 -->
      <g transform="translate(44.2375 80.831666) scale(0.1 -0.1)">
       <use xlink:href="#DejaVuSans-30"/>
      </g>
     </g>
    </g>
    <g id="text_16">
     <!-- position [mm] -->
     <g transform="translate(17.053125 209.563938) rotate(-90) scale(0.1 -0.1)">
      <defs>
       <path id="DejaVuSans-70" d="M 1159 525 
L 1159 -1331 
L 581 -1331 
L 581 3500 
L 1159 3500 
L 1159 2969 
Q 1341 3281 1617 3432 
Q 1894 3584 2278 3584 
Q 2916 3584 3314 3078 
Q 3713 2572 3713 1747 
Q 3713 922 3314 415 
Q 2916 -91 2278 -91 
Q 1894 -91 1617 61 
Q 1341 213 1159 525 
z
M 3116 1747 
Q 3116 2381 2855 2742 
Q 2594 3103 2138 3103 
Q 1681 3103 1420 2742 
Q 1159 2381 1159 1747 
Q 1159 1113 1420 752 
Q 1681 391 2138 391 
Q 2594 391 2855 752 
Q 3116 1113 3116 1747 
z
" transform="scale(0.015625)"/>
       <path id="DejaVuSans-6f" d="M 1959 3097 
Q 1497 3097 1228 2736 
Q 959 2375 959 1747 
Q 959 1119 1226 758 
Q 1494 397 1959 397 
Q 2419 397 2687 759 
Q 2956 1122 2956 1747 
Q 2956 2369 2687 2733 
Q 2419 3097 1959 3097 
z
M 1959 3584 
Q 2709 3584 3137 3096 
Q 3566 2609 3566 1747 
Q 3566 888 3137 398 
Q 2709 -91 1959 -91 
Q 1206 -91 779 398 
Q 353 888 353 1747 
Q 353 2609 779 3096 
Q 1206 3584 1959 3584 
z
" transform="scale(0.015625)"/>
       <path id="DejaVuSans-6e" d="M 3513 2113 
L 3513 0 
L 2938 0 
L 2938 2094 
Q 2938 2591 2744 2837 
Q 2550 3084 2163 3084 
Q 1697 3084 1428 2787 
Q 1159 2491 1159 1978 
L 1159 0 
L 581 0 
L 581 3500 
L 1159 3500 
L 1159 2956 
Q 1366 3272 1645 3428 
Q 1925 3584 2291 3584 
Q 2894 3584 3203 3211 
Q 3513 2838 3513 2113 
z
" transform="scale(0.015625)"/>
      </defs>
      <use xlink:href="#DejaVuSans-70"/>
      <use xlink:href="#DejaVuSans-6f" x="63.476562"/>
      <use xlink:href="#DejaVuSans-73" x="124.658203"/>
      <use xlink:href="#DejaVuSans-69" x="176.757812"/>
      <use xlink:href="#DejaVuSans-74" x="204.541016"/>
      <use xlink:href="#DejaVuSans-69" x="243.75"/>
      <use xlink:href="#DejaVuSans-6f" x="271.533203"/>
      <use xlink:href="#DejaVuSans-6e" x="332.714844"/>
      <use xlink:href="#DejaVuSans-20" x="396.09375"/>
      <use xlink:href="#DejaVuSans-5b" x="427.880859"/>
      <use xlink:href="#DejaVuSans-6d" x="466.894531"/>
      <use xlink:href="#DejaVuSans-6d" x="564.306641"/>
      <use xlink:href="#DejaVuSans-5d" x="661.71875"/>
     </g>
    </g>
   </g>
   <g id="line2d_15">
    <path d="M 73.832727 269.607144 
L 74.701043 269.35564 
L 75.5737 272.32127 
L 76.428991 272.32127 
L 77.301648 276.795428 
L 78.161281 276.535691 
L 79.020913 276.535691 
L 79.889229 279.531907 
L 80.753203 279.531907 
L 81.621519 282.542489 
L 82.498518 282.542489 
L 83.345125 285.567767 
L 84.2091 285.297525 
L 85.073074 285.297525 
L 85.937048 288.333546 
L 87.664996 288.333546 
L 88.524628 291.384855 
L 91.984866 291.384855 
L 92.866207 294.451746 
L 98.028343 294.451746 
L 98.028343 294.451746 
L 99.747608 294.170745 
L 103.212188 294.170745 
L 103.212188 294.170745 
L 104.935795 292.637474 
L 106.663743 292.637474 
L 107.523375 291.108172 
L 108.391691 291.108172 
L 108.391691 291.108172 
L 110.089248 289.582731 
L 110.961905 288.333546 
L 111.817196 288.333546 
L 113.545144 285.297525 
L 114.41346 285.297525 
L 114.41346 285.297525 
L 117.001041 280.771439 
L 117.891064 280.771439 
L 123.066226 272.067643 
L 123.9302 269.35564 
L 125.658148 266.403396 
L 126.522122 263.464231 
L 128.245729 260.537876 
L 129.109703 257.62404 
L 129.973677 256.171735 
L 131.701625 250.618772 
L 132.561258 249.179428 
L 134.293547 243.45052 
L 135.170546 242.241969 
L 137.745102 233.735554 
L 138.609076 232.326914 
L 140.332683 226.915639 
L 141.214023 225.517528 
L 142.928947 219.94866 
L 143.788579 218.751435 
L 144.648212 215.981718 
L 145.516527 214.600158 
L 146.37616 211.843504 
L 148.104108 209.095311 
L 148.972424 206.355343 
L 151.560004 202.260344 
L 152.410954 199.706714 
L 168.830803 174.31544 
L 168.830803 174.31544 
L 177.457519 161.201278 
L 200.745745 126.032643 
L 205.938273 118.264102 
L 206.797906 118.264102 
L 207.66188 115.678561 
L 208.521512 115.678561 
L 224.064363 92.465247 
L 224.923995 92.465247 
L 225.787969 89.889209 
L 227.515918 87.313203 
L 228.384233 87.313203 
L 245.663715 61.518342 
L 246.527689 61.518342 
L 249.132636 57.637647 
L 249.99661 57.637647 
L 250.860584 56.343077 
L 251.711534 56.343077 
L 252.575508 55.047978 
L 263.77678 55.047978 
L 264.640754 57.637647 
L 266.381727 57.637647 
L 267.228335 60.225256 
L 268.956283 60.225256 
L 269.820257 62.810978 
L 271.548205 62.810978 
L 272.416521 65.39498 
L 273.297861 65.39498 
L 274.135786 69.268121 
L 274.99976 69.268121 
L 275.863734 71.848555 
L 276.749416 71.848555 
L 277.617732 74.427853 
L 277.617732 74.427853 
L 279.31963 78.295043 
L 280.183604 78.295043 
L 281.902869 83.448894 
L 282.78421 83.448894 
L 283.635159 87.313203 
L 284.507816 89.889209 
L 286.22274 93.753329 
L 287.086714 96.329722 
L 287.950688 96.329722 
L 288.814662 100.195223 
L 290.564318 105.35175 
L 291.428292 105.35175 
L 292.292266 109.221789 
L 294.028898 114.386438 
L 294.862481 114.386438 
L 295.726455 118.264102 
L 296.581746 120.851514 
L 297.450061 120.851514 
L 298.314036 124.736518 
L 299.182351 124.736518 
L 300.910299 129.924665 
L 301.76559 129.924665 
L 303.493539 135.12338 
L 304.357513 135.12338 
L 306.098486 140.33403 
L 306.945093 140.33403 
L 307.809067 142.944268 
L 308.677383 142.944268 
L 309.537016 145.558011 
L 310.418356 145.558011 
L 311.264964 148.17544 
L 312.128938 148.17544 
L 312.98857 150.796736 
L 313.856886 150.796736 
L 314.764276 153.422066 
L 315.619567 153.422066 
L 316.470516 156.051618 
L 317.33449 156.051618 
L 318.198464 158.685575 
L 319.062438 158.685575 
L 319.935096 161.324118 
L 320.786045 161.324118 
L 321.650019 163.96742 
L 322.50531 163.96742 
L 323.373626 166.615679 
L 324.241941 166.615679 
L 325.105916 169.136726 
L 326.85123 169.136726 
L 327.702179 171.792231 
L 328.561812 171.792231 
L 329.421444 174.453245 
L 330.281077 174.453245 
L 331.145051 177.119926 
L 332.009025 177.119926 
L 332.855633 179.792488 
L 333.723949 179.792488 
L 334.600947 182.47112 
L 335.456238 182.47112 
L 336.324554 185.15601 
L 337.188528 185.15601 
L 338.052502 187.693317 
L 338.912135 187.693317 
L 339.784792 190.388026 
L 340.644424 190.388026 
L 341.504057 193.089548 
L 342.372373 193.089548 
L 343.232005 195.79811 
L 344.095979 195.79811 
L 344.955612 198.513917 
L 345.819586 198.513917 
L 346.68356 201.237152 
L 347.547534 201.237152 
L 348.411508 203.968044 
L 349.275482 203.968044 
L 350.143798 203.795099 
L 351.00343 206.530442 
L 351.867404 206.530442 
L 352.740062 209.273812 
L 353.595353 209.273812 
L 354.44196 212.025439 
L 355.310276 212.025439 
L 356.161225 214.78555 
L 357.038224 214.78555 
L 357.889174 217.554344 
L 358.770514 217.554344 
L 359.617122 220.332041 
L 360.485437 220.139656 
L 361.34507 220.139656 
L 362.204703 222.922949 
L 363.064335 222.922949 
L 363.950017 225.71558 
L 364.792283 225.71558 
L 365.660599 228.517753 
L 366.520231 228.517753 
L 367.379864 231.32973 
L 368.256863 231.124511 
L 369.12952 233.942881 
L 370.83576 233.942881 
L 371.699734 236.771472 
L 372.563708 236.771472 
L 373.423341 239.610514 
L 374.287315 239.610514 
L 375.155631 242.460275 
L 376.015263 242.460275 
L 376.879237 242.241969 
L 377.743211 245.098952 
L 378.615869 245.098952 
L 379.47116 247.967111 
L 380.339475 247.967111 
L 381.199108 250.846691 
L 382.927056 250.846691 
L 383.79103 253.737946 
L 384.659346 253.737946 
L 385.52332 256.641134 
L 386.391635 256.641134 
L 387.242585 259.31709 
L 388.119584 259.31709 
L 388.992241 262.241038 
L 390.711506 262.241038 
L 391.579822 265.177701 
L 392.439454 265.177701 
L 393.299087 268.127356 
L 395.031376 268.127356 
L 395.89535 271.090279 
L 396.759325 271.090279 
L 397.618957 274.06677 
L 398.487273 273.809196 
L 398.487273 273.809196 
" clip-path="url(#p2e3fac5499)" style="fill: none; stroke: #1f77b4; stroke-width: 1.5; stroke-linecap: square"/>
   </g>
   <g id="line2d_16">
    <path d="M 73.832727 272.663434 
L 74.701043 272.663434 
L 75.5737 275.357559 
L 76.428991 275.357559 
L 77.301648 277.888915 
L 78.161281 277.888915 
L 79.020913 280.429268 
L 79.889229 280.429268 
L 80.753203 282.245489 
L 81.621519 282.245489 
L 82.498518 284.801905 
L 83.345125 284.801905 
L 84.2091 287.546814 
L 85.073074 287.546814 
L 85.937048 289.383605 
L 86.79668 289.383605 
L 87.664996 291.044452 
L 88.524628 291.044452 
L 89.388602 292.891172 
L 90.256918 292.891172 
L 91.120892 293.634042 
L 91.984866 293.634042 
L 92.866207 294.560322 
L 93.708473 294.560322 
L 94.58113 295.488 
L 101.48424 295.488 
L 102.348214 294.560322 
L 103.212188 294.560322 
L 103.212188 292.709182 
L 104.935795 292.709182 
L 105.799769 291.785696 
L 106.663743 291.785696 
L 107.523375 289.942922 
L 108.391691 289.942922 
L 108.391691 288.284806 
L 110.089248 288.284806 
L 110.961905 286.451922 
L 111.817196 286.451922 
L 112.68117 284.801905 
L 113.545144 284.801905 
L 114.41346 282.069238 
L 114.41346 282.069238 
L 116.132725 279.52317 
L 117.001041 279.52317 
L 117.891064 275.912046 
L 118.763722 273.388544 
L 119.632037 273.388544 
L 120.474303 269.811676 
L 121.342619 269.811676 
L 122.202252 266.422268 
L 123.066226 266.422268 
L 123.9302 263.049017 
L 124.794174 263.049017 
L 125.658148 258.813853 
L 126.522122 258.813853 
L 127.386096 254.443387 
L 128.245729 254.443387 
L 129.109703 250.260538 
L 129.973677 250.260538 
L 130.837651 246.101818 
L 131.701625 246.101818 
L 132.561258 241.111819 
L 134.293547 241.111819 
L 135.170546 236.854452 
L 136.021495 236.854452 
L 136.881128 232.771805 
L 137.745102 232.771805 
L 138.609076 228.565885 
L 139.477392 228.565885 
L 141.214023 222.172218 
L 142.047606 222.172218 
L 142.928947 218.027722 
L 143.788579 218.027722 
L 144.648212 214.866391 
L 145.516527 214.866391 
L 146.37616 211.581936 
L 147.248817 211.581936 
L 148.104108 209.261633 
L 148.972424 209.261633 
L 149.832056 206.815105 
L 150.687347 206.815105 
L 151.560004 203.565972 
L 152.410954 203.565972 
L 153.283611 201.266649 
L 154.143243 201.266649 
L 155.007218 198.845741 
L 155.858167 198.845741 
L 156.739507 196.557902 
L 157.603481 196.557902 
L 158.471797 193.350468 
L 159.340113 193.350468 
L 160.195404 191.751866 
L 161.059378 191.751866 
L 161.91901 188.684881 
L 162.782984 188.684881 
L 164.515274 184.042814 
L 165.370565 184.042814 
L 166.221514 181.672241 
L 167.081147 181.672241 
L 167.966829 179.308708 
L 168.830803 179.308708 
L 168.830803 177.065133 
L 170.55441 177.065133 
L 171.427067 174.713715 
L 172.291041 174.713715 
L 173.133307 172.368968 
L 173.979915 172.368968 
L 174.891646 169.361023 
L 175.733913 169.361023 
L 175.733913 167.029835 
L 177.457519 167.029835 
L 178.325835 164.704938 
L 179.185467 164.704938 
L 180.058125 161.614669 
L 180.913416 161.614669 
L 181.781731 159.405831 
L 182.641364 159.405831 
L 183.505338 157.099531 
L 184.369312 154.033453 
L 186.088577 154.033453 
L 186.956893 151.837584 
L 187.820867 151.837584 
L 188.684841 148.786867 
L 189.544473 146.505129 
L 190.417131 146.505129 
L 191.294129 144.228672 
L 192.136396 144.228672 
L 193.004711 141.29178 
L 193.864344 141.29178 
L 194.702268 139.02571 
L 195.583609 139.02571 
L 196.447583 136.764558 
L 197.298532 136.764558 
L 198.166848 134.508212 
L 199.022139 134.508212 
L 199.886113 132.341287 
L 200.745745 132.341287 
L 201.614061 129.344242 
L 202.478035 129.344242 
L 203.337668 127.101677 
L 204.210325 127.101677 
L 205.082982 124.863454 
L 205.938273 124.863454 
L 206.797906 122.62947 
L 207.66188 122.62947 
L 208.521512 120.399629 
L 209.389828 117.432767 
L 210.253802 117.432767 
L 211.130801 115.285977 
L 211.990433 115.285977 
L 212.867432 113.067731 
L 212.867432 113.067731 
L 214.578014 110.853171 
L 215.44633 110.853171 
L 216.305962 107.906003 
L 217.165595 107.906003 
L 218.016544 105.699675 
L 218.880518 105.699675 
L 219.753175 103.496686 
L 220.604125 103.496686 
L 221.476782 100.56442 
L 222.332073 100.56442 
L 223.200389 98.431979 
L 224.064363 98.431979 
L 224.923995 96.238044 
L 225.787969 96.238044 
L 226.656285 93.317317 
L 227.515918 93.317317 
L 228.384233 91.130043 
L 229.243866 91.130043 
L 230.112181 88.217849 
L 230.971814 86.036708 
L 231.844471 86.036708 
L 232.725812 83.132328 
L 233.585444 83.132328 
L 234.42771 80.956783 
L 235.304709 80.956783 
L 236.177366 78.78348 
L 237.032657 78.78348 
L 237.89229 75.889053 
L 238.756264 75.889053 
L 239.607213 73.720588 
L 240.47987 73.720588 
L 241.356869 70.83227 
L 242.216502 70.83227 
L 243.071793 68.668131 
L 243.940108 68.668131 
L 244.804082 66.505689 
L 245.663715 66.505689 
L 246.527689 63.624901 
L 247.404688 63.624901 
L 248.277345 61.50576 
L 249.132636 61.50576 
L 249.99661 60.066376 
L 250.860584 60.066376 
L 251.711534 57.908394 
L 252.575508 56.470423 
L 253.439482 56.470423 
L 254.303456 55.751635 
L 255.16743 55.751635 
L 256.035746 55.032965 
L 256.035746 55.032965 
L 257.755011 54.314422 
L 262.048832 54.314422 
L 262.917147 55.032965 
L 263.77678 55.032965 
L 264.640754 55.751635 
L 265.504728 55.751635 
L 266.381727 56.470423 
L 267.228335 56.470423 
L 268.092309 57.908394 
L 268.956283 57.908394 
L 269.820257 59.346909 
L 270.679889 59.346909 
L 271.548205 60.785993 
L 272.416521 60.785993 
L 274.135786 65.106955 
L 274.99976 65.106955 
L 275.863734 67.269689 
L 276.749416 67.269689 
L 277.617732 70.155899 
L 277.617732 70.155899 
L 279.31963 73.768081 
L 280.183604 73.768081 
L 281.043237 76.661648 
L 281.902869 76.661648 
L 282.78421 80.283751 
L 283.635159 80.283751 
L 284.507816 83.85803 
L 286.22274 83.85803 
L 287.086714 87.49052 
L 287.950688 87.49052 
L 288.814662 91.858832 
L 289.678636 91.858832 
L 290.564318 96.238044 
L 291.428292 96.238044 
L 292.292266 100.628946 
L 293.151899 100.628946 
L 294.028898 105.032342 
L 294.862481 105.032342 
L 295.726455 109.44903 
L 296.581746 109.44903 
L 297.450061 113.879831 
L 298.314036 113.879831 
L 299.182351 118.249555 
L 300.055008 121.963896 
L 300.910299 121.963896 
L 301.76559 125.689643 
L 302.633906 125.689643 
L 303.493539 129.4273 
L 304.357513 129.4273 
L 305.225828 132.426318 
L 306.098486 132.426318 
L 306.945093 135.433514 
L 307.809067 135.433514 
L 308.677383 138.360145 
L 309.537016 138.360145 
L 310.418356 141.382479 
L 311.264964 141.382479 
L 312.128938 143.562878 
L 312.98857 143.562878 
L 313.856886 146.599009 
L 314.764276 146.599009 
L 315.619567 148.88227 
L 316.470516 148.88227 
L 317.33449 151.170914 
L 318.198464 151.170914 
L 319.062438 154.23104 
L 319.935096 156.432197 
L 320.786045 156.432197 
L 321.650019 158.738103 
L 322.50531 158.738103 
L 323.373626 161.821814 
L 324.241941 161.821814 
L 325.105916 164.036287 
L 325.96989 164.036287 
L 326.85123 166.360678 
L 327.702179 166.360678 
L 328.561812 168.691321 
L 329.421444 168.691321 
L 330.281077 170.918707 
L 331.145051 170.918707 
L 332.009025 173.260637 
L 332.855633 173.260637 
L 333.723949 176.393514 
L 334.600947 176.393514 
L 335.456238 178.751048 
L 336.324554 178.751048 
L 337.188528 180.999335 
L 338.052502 180.999335 
L 338.912135 184.160666 
L 339.784792 184.160666 
L 340.644424 186.420539 
L 341.504057 186.420539 
L 343.232005 191.197916 
L 344.095979 191.197916 
L 344.955612 193.473923 
L 345.819586 193.473923 
L 346.68356 196.683536 
L 347.547534 196.683536 
L 348.411508 198.972543 
L 349.275482 198.972543 
L 350.143798 201.395108 
L 351.00343 201.395108 
L 351.867404 203.825724 
L 352.740062 203.825724 
L 353.595353 206.132735 
L 354.44196 206.132735 
L 355.310276 209.395152 
L 356.161225 209.395152 
L 357.038224 211.716623 
L 357.889174 211.716623 
L 358.770514 214.180201 
L 359.617122 214.180201 
L 360.485437 216.652469 
L 361.34507 216.652469 
L 362.204703 218.993854 
L 363.064335 218.993854 
L 364.792283 223.837082 
L 365.660599 223.837082 
L 366.520231 226.342059 
L 367.379864 226.342059 
L 368.256863 228.856373 
L 369.12952 228.856373 
L 369.971786 230.391184 
L 370.83576 230.391184 
L 371.699734 233.764601 
L 372.563708 233.764601 
L 373.423341 235.457762 
L 374.287315 235.457762 
L 375.155631 237.85443 
L 376.015263 237.85443 
L 376.879237 240.410569 
L 377.743211 240.410569 
L 378.615869 242.976764 
L 379.47116 242.976764 
L 380.339475 245.397253 
L 381.199108 245.397253 
L 382.063082 247.982218 
L 382.927056 247.982218 
L 383.79103 249.711316 
L 384.659346 249.711316 
L 385.52332 253.023033 
L 386.391635 254.765131 
L 387.242585 254.765131 
L 388.119584 257.224367 
L 388.992241 257.224367 
L 389.856215 259.855664 
L 390.711506 259.855664 
L 391.579822 262.332163 
L 392.439454 262.332163 
L 393.299087 264.983903 
L 394.171744 264.983903 
L 395.031376 266.757983 
L 395.89535 266.757983 
L 396.759325 269.258705 
L 397.618957 269.258705 
L 398.487273 271.939058 
L 398.487273 271.939058 
" clip-path="url(#p2e3fac5499)" style="fill: none; stroke: #ff7f0e; stroke-width: 1.5; stroke-linecap: square"/>
   </g>
   <g id="line2d_17">
    <path d="M 73.832727 289.254356 
L 235.304709 54.40782 
L 236.177366 53.568 
L 398.487273 289.633223 
L 398.487273 289.633223 
" clip-path="url(#p2e3fac5499)" style="fill: none; stroke: #2ca02c; stroke-width: 1.5; stroke-linecap: square"/>
   </g>
   <g id="patch_3">
    <path d="M 57.6 307.584 
L 57.6 41.472 
" style="fill: none; stroke: #000000; stroke-width: 0.8; stroke-linejoin: miter; stroke-linecap: square"/>
   </g>
   <g id="patch_4">
    <path d="M 414.72 307.584 
L 414.72 41.472 
" style="fill: none; stroke: #000000; stroke-width: 0.8; stroke-linejoin: miter; stroke-linecap: square"/>
   </g>
   <g id="patch_5">
    <path d="M 57.6 307.584 
L 414.72 307.584 
" style="fill: none; stroke: #000000; stroke-width: 0.8; stroke-linejoin: miter; stroke-linecap: square"/>
   </g>
   <g id="patch_6">
    <path d="M 57.6 41.472 
L 414.72 41.472 
" style="fill: none; stroke: #000000; stroke-width: 0.8; stroke-linejoin: miter; stroke-linecap: square"/>
   </g>
   <g id="text_17">
    <!-- 800mm/s -->
    <g transform="translate(207.871875 35.472) scale(0.12 -0.12)">
     <defs>
      <path id="DejaVuSans-38" d="M 2034 2216 
Q 1584 2216 1326 1975 
Q 1069 1734 1069 1313 
Q 1069 891 1326 650 
Q 1584 409 2034 409 
Q 2484 409 2743 651 
Q 3003 894 3003 1313 
Q 3003 1734 2745 1975 
Q 2488 2216 2034 2216 
z
M 1403 2484 
Q 997 2584 770 2862 
Q 544 3141 544 3541 
Q 544 4100 942 4425 
Q 1341 4750 2034 4750 
Q 2731 4750 3128 4425 
Q 3525 4100 3525 3541 
Q 3525 3141 3298 2862 
Q 3072 2584 2669 2484 
Q 3125 2378 3379 2068 
Q 3634 1759 3634 1313 
Q 3634 634 3220 271 
Q 2806 -91 2034 -91 
Q 1263 -91 848 271 
Q 434 634 434 1313 
Q 434 1759 690 2068 
Q 947 2378 1403 2484 
z
M 1172 3481 
Q 1172 3119 1398 2916 
Q 1625 2713 2034 2713 
Q 2441 2713 2670 2916 
Q 2900 3119 2900 3481 
Q 2900 3844 2670 4047 
Q 2441 4250 2034 4250 
Q 1625 4250 1398 4047 
Q 1172 3844 1172 3481 
z
" transform="scale(0.015625)"/>
      <path id="DejaVuSans-2f" d="M 1625 4666 
L 2156 4666 
L 531 -594 
L 0 -594 
L 1625 4666 
z
" transform="scale(0.015625)"/>
     </defs>
     <use xlink:href="#DejaVuSans-38"/>
     <use xlink:href="#DejaVuSans-30" x="63.623047"/>
     <use xlink:href="#DejaVuSans-30" x="127.246094"/>
     <use xlink:href="#DejaVuSans-6d" x="190.869141"/>
     <use xlink:href="#DejaVuSans-6d" x="288.28125"/>
     <use xlink:href="#DejaVuSans-2f" x="385.693359"/>
     <use xlink:href="#DejaVuSans-73" x="419.384766"/>
    </g>
   </g>
   <g id="legend_1">
    <g id="patch_7">
     <path d="M 325.8075 93.506375 
L 407.72 93.506375 
Q 409.72 93.506375 409.72 91.506375 
L 409.72 48.472 
Q 409.72 46.472 407.72 46.472 
L 325.8075 46.472 
Q 323.8075 46.472 323.8075 48.472 
L 323.8075 91.506375 
Q 323.8075 93.506375 325.8075 93.506375 
z
" style="fill: #ffffff; opacity: 0.8; stroke: #cccccc; stroke-linejoin: miter"/>
    </g>
    <g id="line2d_18">
     <path d="M 327.8075 54.570438 
L 337.8075 54.570438 
L 347.8075 54.570438 
" style="fill: none; stroke: #1f77b4; stroke-width: 1.5; stroke-linecap: square"/>
    </g>
    <g id="text_18">
     <!-- cam0 -->
     <g transform="translate(355.8075 58.070438) scale(0.1 -0.1)">
      <defs>
       <path id="DejaVuSans-63" d="M 3122 3366 
L 3122 2828 
Q 2878 2963 2633 3030 
Q 2388 3097 2138 3097 
Q 1578 3097 1268 2742 
Q 959 2388 959 1747 
Q 959 1106 1268 751 
Q 1578 397 2138 397 
Q 2388 397 2633 464 
Q 2878 531 3122 666 
L 3122 134 
Q 2881 22 2623 -34 
Q 2366 -91 2075 -91 
Q 1284 -91 818 406 
Q 353 903 353 1747 
Q 353 2603 823 3093 
Q 1294 3584 2113 3584 
Q 2378 3584 2631 3529 
Q 2884 3475 3122 3366 
z
" transform="scale(0.015625)"/>
       <path id="DejaVuSans-61" d="M 2194 1759 
Q 1497 1759 1228 1600 
Q 959 1441 959 1056 
Q 959 750 1161 570 
Q 1363 391 1709 391 
Q 2188 391 2477 730 
Q 2766 1069 2766 1631 
L 2766 1759 
L 2194 1759 
z
M 3341 1997 
L 3341 0 
L 2766 0 
L 2766 531 
Q 2569 213 2275 61 
Q 1981 -91 1556 -91 
Q 1019 -91 701 211 
Q 384 513 384 1019 
Q 384 1609 779 1909 
Q 1175 2209 1959 2209 
L 2766 2209 
L 2766 2266 
Q 2766 2663 2505 2880 
Q 2244 3097 1772 3097 
Q 1472 3097 1187 3025 
Q 903 2953 641 2809 
L 641 3341 
Q 956 3463 1253 3523 
Q 1550 3584 1831 3584 
Q 2591 3584 2966 3190 
Q 3341 2797 3341 1997 
z
" transform="scale(0.015625)"/>
      </defs>
      <use xlink:href="#DejaVuSans-63"/>
      <use xlink:href="#DejaVuSans-61" x="54.980469"/>
      <use xlink:href="#DejaVuSans-6d" x="116.259766"/>
      <use xlink:href="#DejaVuSans-30" x="213.671875"/>
     </g>
    </g>
    <g id="line2d_19">
     <path d="M 327.8075 69.248563 
L 337.8075 69.248563 
L 347.8075 69.248563 
" style="fill: none; stroke: #ff7f0e; stroke-width: 1.5; stroke-linecap: square"/>
    </g>
    <g id="text_19">
     <!-- cam5 -->
     <g transform="translate(355.8075 72.748563) scale(0.1 -0.1)">
      <use xlink:href="#DejaVuSans-63"/>
      <use xlink:href="#DejaVuSans-61" x="54.980469"/>
      <use xlink:href="#DejaVuSans-6d" x="116.259766"/>
      <use xlink:href="#DejaVuSans-35" x="213.671875"/>
     </g>
    </g>
    <g id="line2d_20">
     <path d="M 327.8075 83.926688 
L 337.8075 83.926688 
L 347.8075 83.926688 
" style="fill: none; stroke: #2ca02c; stroke-width: 1.5; stroke-linecap: square"/>
    </g>
    <g id="text_20">
     <!-- command -->
     <g transform="translate(355.8075 87.426688) scale(0.1 -0.1)">
      <defs>
       <path id="DejaVuSans-64" d="M 2906 2969 
L 2906 4863 
L 3481 4863 
L 3481 0 
L 2906 0 
L 2906 525 
Q 2725 213 2448 61 
Q 2172 -91 1784 -91 
Q 1150 -91 751 415 
Q 353 922 353 1747 
Q 353 2572 751 3078 
Q 1150 3584 1784 3584 
Q 2172 3584 2448 3432 
Q 2725 3281 2906 2969 
z
M 947 1747 
Q 947 1113 1208 752 
Q 1469 391 1925 391 
Q 2381 391 2643 752 
Q 2906 1113 2906 1747 
Q 2906 2381 2643 2742 
Q 2381 3103 1925 3103 
Q 1469 3103 1208 2742 
Q 947 2381 947 1747 
z
" transform="scale(0.015625)"/>
      </defs>
      <use xlink:href="#DejaVuSans-63"/>
      <use xlink:href="#DejaVuSans-6f" x="54.980469"/>
      <use xlink:href="#DejaVuSans-6d" x="116.162109"/>
      <use xlink:href="#DejaVuSans-6d" x="213.574219"/>
      <use xlink:href="#DejaVuSans-61" x="310.986328"/>
      <use xlink:href="#DejaVuSans-6e" x="372.265625"/>
      <use xlink:href="#DejaVuSans-64" x="435.644531"/>
     </g>
    </g>
   </g>
  </g>
 </g>
 <defs>
  <clipPath id="p2e3fac5499">
   <rect x="57.6" y="41.472" width="357.12" height="266.112"/>
  </clipPath>
 </defs>
</svg>
